ISO-10303-21;
HEADER;
FILE_DESCRIPTION(('box model'),'2;1');
FILE_NAME('HX_PM2.54-1x4P_WT','2026-10-03T00:00:00',(''),(''),'stepbox.py','stepbox.py','');
FILE_SCHEMA(('AUTOMOTIVE_DESIGN { 1 0 10303 214 1 1 1 1 }'));
ENDSEC;
DATA;
#1=CARTESIAN_POINT('',(-5.3300,1.6000,0.0000));
#2=VERTEX_POINT('',#1);
#3=CARTESIAN_POINT('',(-5.3300,1.6000,2.5000));
#4=VERTEX_POINT('',#3);
#5=CARTESIAN_POINT('',(-5.3300,10.1000,0.0000));
#6=VERTEX_POINT('',#5);
#7=CARTESIAN_POINT('',(-5.3300,10.1000,2.5000));
#8=VERTEX_POINT('',#7);
#9=CARTESIAN_POINT('',(5.3300,1.6000,0.0000));
#10=VERTEX_POINT('',#9);
#11=CARTESIAN_POINT('',(5.3300,1.6000,2.5000));
#12=VERTEX_POINT('',#11);
#13=CARTESIAN_POINT('',(5.3300,10.1000,0.0000));
#14=VERTEX_POINT('',#13);
#15=CARTESIAN_POINT('',(5.3300,10.1000,2.5000));
#16=VERTEX_POINT('',#15);
#17=CARTESIAN_POINT('',(-5.3300,1.6000,2.5000));
#18=DIRECTION('',(0.0,1.0,0.0));
#19=VECTOR('',#18,8.5000);
#20=LINE('',#17,#19);
#21=EDGE_CURVE('',#4,#8,#20,.T.);
#22=ORIENTED_EDGE('',*,*,#21,.T.);
#23=CARTESIAN_POINT('',(-5.3300,10.1000,2.5000));
#24=DIRECTION('',(0.0,0.0,-1.0));
#25=VECTOR('',#24,2.5000);
#26=LINE('',#23,#25);
#27=EDGE_CURVE('',#8,#6,#26,.T.);
#28=ORIENTED_EDGE('',*,*,#27,.T.);
#29=CARTESIAN_POINT('',(-5.3300,10.1000,0.0000));
#30=DIRECTION('',(0.0,-1.0,0.0));
#31=VECTOR('',#30,8.5000);
#32=LINE('',#29,#31);
#33=EDGE_CURVE('',#6,#2,#32,.T.);
#34=ORIENTED_EDGE('',*,*,#33,.T.);
#35=CARTESIAN_POINT('',(-5.3300,1.6000,0.0000));
#36=DIRECTION('',(0.0,0.0,1.0));
#37=VECTOR('',#36,2.5000);
#38=LINE('',#35,#37);
#39=EDGE_CURVE('',#2,#4,#38,.T.);
#40=ORIENTED_EDGE('',*,*,#39,.T.);
#41=EDGE_LOOP('',(#22,#28,#34,#40));
#42=FACE_OUTER_BOUND('',#41,.T.);
#43=CARTESIAN_POINT('',(-5.3300,1.6000,2.5000));
#44=DIRECTION('',(-1.0,0.0,0.0));
#45=DIRECTION('',(0.0,1.0,0.0));
#46=AXIS2_PLACEMENT_3D('',#43,#44,#45);
#47=PLANE('',#46);
#48=ADVANCED_FACE('',(#42),#47,.T.);
#49=CARTESIAN_POINT('',(5.3300,1.6000,0.0000));
#50=DIRECTION('',(0.0,1.0,0.0));
#51=VECTOR('',#50,8.5000);
#52=LINE('',#49,#51);
#53=EDGE_CURVE('',#10,#14,#52,.T.);
#54=ORIENTED_EDGE('',*,*,#53,.T.);
#55=CARTESIAN_POINT('',(5.3300,10.1000,0.0000));
#56=DIRECTION('',(0.0,0.0,1.0));
#57=VECTOR('',#56,2.5000);
#58=LINE('',#55,#57);
#59=EDGE_CURVE('',#14,#16,#58,.T.);
#60=ORIENTED_EDGE('',*,*,#59,.T.);
#61=CARTESIAN_POINT('',(5.3300,10.1000,2.5000));
#62=DIRECTION('',(0.0,-1.0,0.0));
#63=VECTOR('',#62,8.5000);
#64=LINE('',#61,#63);
#65=EDGE_CURVE('',#16,#12,#64,.T.);
#66=ORIENTED_EDGE('',*,*,#65,.T.);
#67=CARTESIAN_POINT('',(5.3300,1.6000,2.5000));
#68=DIRECTION('',(0.0,0.0,-1.0));
#69=VECTOR('',#68,2.5000);
#70=LINE('',#67,#69);
#71=EDGE_CURVE('',#12,#10,#70,.T.);
#72=ORIENTED_EDGE('',*,*,#71,.T.);
#73=EDGE_LOOP('',(#54,#60,#66,#72));
#74=FACE_OUTER_BOUND('',#73,.T.);
#75=CARTESIAN_POINT('',(5.3300,1.6000,0.0000));
#76=DIRECTION('',(1.0,0.0,0.0));
#77=DIRECTION('',(0.0,1.0,0.0));
#78=AXIS2_PLACEMENT_3D('',#75,#76,#77);
#79=PLANE('',#78);
#80=ADVANCED_FACE('',(#74),#79,.T.);
#81=CARTESIAN_POINT('',(-5.3300,1.6000,0.0000));
#82=DIRECTION('',(1.0,0.0,0.0));
#83=VECTOR('',#82,10.6600);
#84=LINE('',#81,#83);
#85=EDGE_CURVE('',#2,#10,#84,.T.);
#86=ORIENTED_EDGE('',*,*,#85,.T.);
#87=ORIENTED_EDGE('',*,*,#71,.F.);
#88=CARTESIAN_POINT('',(5.3300,1.6000,2.5000));
#89=DIRECTION('',(-1.0,0.0,0.0));
#90=VECTOR('',#89,10.6600);
#91=LINE('',#88,#90);
#92=EDGE_CURVE('',#12,#4,#91,.T.);
#93=ORIENTED_EDGE('',*,*,#92,.T.);
#94=ORIENTED_EDGE('',*,*,#39,.F.);
#95=EDGE_LOOP('',(#86,#87,#93,#94));
#96=FACE_OUTER_BOUND('',#95,.T.);
#97=CARTESIAN_POINT('',(-5.3300,1.6000,0.0000));
#98=DIRECTION('',(0.0,-1.0,0.0));
#99=DIRECTION('',(0.0,0.0,1.0));
#100=AXIS2_PLACEMENT_3D('',#97,#98,#99);
#101=PLANE('',#100);
#102=ADVANCED_FACE('',(#96),#101,.T.);
#103=CARTESIAN_POINT('',(-5.3300,10.1000,2.5000));
#104=DIRECTION('',(1.0,0.0,0.0));
#105=VECTOR('',#104,10.6600);
#106=LINE('',#103,#105);
#107=EDGE_CURVE('',#8,#16,#106,.T.);
#108=ORIENTED_EDGE('',*,*,#107,.T.);
#109=ORIENTED_EDGE('',*,*,#59,.F.);
#110=CARTESIAN_POINT('',(5.3300,10.1000,0.0000));
#111=DIRECTION('',(-1.0,0.0,0.0));
#112=VECTOR('',#111,10.6600);
#113=LINE('',#110,#112);
#114=EDGE_CURVE('',#14,#6,#113,.T.);
#115=ORIENTED_EDGE('',*,*,#114,.T.);
#116=ORIENTED_EDGE('',*,*,#27,.F.);
#117=EDGE_LOOP('',(#108,#109,#115,#116));
#118=FACE_OUTER_BOUND('',#117,.T.);
#119=CARTESIAN_POINT('',(-5.3300,10.1000,2.5000));
#120=DIRECTION('',(0.0,1.0,0.0));
#121=DIRECTION('',(0.0,0.0,1.0));
#122=AXIS2_PLACEMENT_3D('',#119,#120,#121);
#123=PLANE('',#122);
#124=ADVANCED_FACE('',(#118),#123,.T.);
#125=ORIENTED_EDGE('',*,*,#114,.F.);
#126=ORIENTED_EDGE('',*,*,#53,.F.);
#127=ORIENTED_EDGE('',*,*,#85,.F.);
#128=ORIENTED_EDGE('',*,*,#33,.F.);
#129=EDGE_LOOP('',(#125,#126,#127,#128));
#130=FACE_OUTER_BOUND('',#129,.T.);
#131=CARTESIAN_POINT('',(-5.3300,10.1000,0.0000));
#132=DIRECTION('',(0.0,0.0,-1.0));
#133=DIRECTION('',(1.0,0.0,0.0));
#134=AXIS2_PLACEMENT_3D('',#131,#132,#133);
#135=PLANE('',#134);
#136=ADVANCED_FACE('',(#130),#135,.T.);
#137=ORIENTED_EDGE('',*,*,#92,.F.);
#138=ORIENTED_EDGE('',*,*,#65,.F.);
#139=ORIENTED_EDGE('',*,*,#107,.F.);
#140=ORIENTED_EDGE('',*,*,#21,.F.);
#141=EDGE_LOOP('',(#137,#138,#139,#140));
#142=FACE_OUTER_BOUND('',#141,.T.);
#143=CARTESIAN_POINT('',(-5.3300,1.6000,2.5000));
#144=DIRECTION('',(0.0,0.0,1.0));
#145=DIRECTION('',(1.0,0.0,0.0));
#146=AXIS2_PLACEMENT_3D('',#143,#144,#145);
#147=PLANE('',#146);
#148=ADVANCED_FACE('',(#142),#147,.T.);
#149=CLOSED_SHELL('',(#48,#80,#102,#124,#136,#148));
#150=MANIFOLD_SOLID_BREP('HX_PM2.54-1x4P_WT',#149);
#151=CARTESIAN_POINT('',(-4.1300,-1.2000,0.0000));
#152=VERTEX_POINT('',#151);
#153=CARTESIAN_POINT('',(-4.1300,-1.2000,0.3000));
#154=VERTEX_POINT('',#153);
#155=CARTESIAN_POINT('',(-4.1300,1.6000,0.0000));
#156=VERTEX_POINT('',#155);
#157=CARTESIAN_POINT('',(-4.1300,1.6000,0.3000));
#158=VERTEX_POINT('',#157);
#159=CARTESIAN_POINT('',(-3.4900,-1.2000,0.0000));
#160=VERTEX_POINT('',#159);
#161=CARTESIAN_POINT('',(-3.4900,-1.2000,0.3000));
#162=VERTEX_POINT('',#161);
#163=CARTESIAN_POINT('',(-3.4900,1.6000,0.0000));
#164=VERTEX_POINT('',#163);
#165=CARTESIAN_POINT('',(-3.4900,1.6000,0.3000));
#166=VERTEX_POINT('',#165);
#167=CARTESIAN_POINT('',(-4.1300,-1.2000,0.3000));
#168=DIRECTION('',(0.0,1.0,0.0));
#169=VECTOR('',#168,2.8000);
#170=LINE('',#167,#169);
#171=EDGE_CURVE('',#154,#158,#170,.T.);
#172=ORIENTED_EDGE('',*,*,#171,.T.);
#173=CARTESIAN_POINT('',(-4.1300,1.6000,0.3000));
#174=DIRECTION('',(0.0,0.0,-1.0));
#175=VECTOR('',#174,0.3000);
#176=LINE('',#173,#175);
#177=EDGE_CURVE('',#158,#156,#176,.T.);
#178=ORIENTED_EDGE('',*,*,#177,.T.);
#179=CARTESIAN_POINT('',(-4.1300,1.6000,0.0000));
#180=DIRECTION('',(0.0,-1.0,0.0));
#181=VECTOR('',#180,2.8000);
#182=LINE('',#179,#181);
#183=EDGE_CURVE('',#156,#152,#182,.T.);
#184=ORIENTED_EDGE('',*,*,#183,.T.);
#185=CARTESIAN_POINT('',(-4.1300,-1.2000,0.0000));
#186=DIRECTION('',(0.0,0.0,1.0));
#187=VECTOR('',#186,0.3000);
#188=LINE('',#185,#187);
#189=EDGE_CURVE('',#152,#154,#188,.T.);
#190=ORIENTED_EDGE('',*,*,#189,.T.);
#191=EDGE_LOOP('',(#172,#178,#184,#190));
#192=FACE_OUTER_BOUND('',#191,.T.);
#193=CARTESIAN_POINT('',(-4.1300,-1.2000,0.3000));
#194=DIRECTION('',(-1.0,0.0,0.0));
#195=DIRECTION('',(0.0,1.0,0.0));
#196=AXIS2_PLACEMENT_3D('',#193,#194,#195);
#197=PLANE('',#196);
#198=ADVANCED_FACE('',(#192),#197,.T.);
#199=CARTESIAN_POINT('',(-3.4900,-1.2000,0.0000));
#200=DIRECTION('',(0.0,1.0,0.0));
#201=VECTOR('',#200,2.8000);
#202=LINE('',#199,#201);
#203=EDGE_CURVE('',#160,#164,#202,.T.);
#204=ORIENTED_EDGE('',*,*,#203,.T.);
#205=CARTESIAN_POINT('',(-3.4900,1.6000,0.0000));
#206=DIRECTION('',(0.0,0.0,1.0));
#207=VECTOR('',#206,0.3000);
#208=LINE('',#205,#207);
#209=EDGE_CURVE('',#164,#166,#208,.T.);
#210=ORIENTED_EDGE('',*,*,#209,.T.);
#211=CARTESIAN_POINT('',(-3.4900,1.6000,0.3000));
#212=DIRECTION('',(0.0,-1.0,0.0));
#213=VECTOR('',#212,2.8000);
#214=LINE('',#211,#213);
#215=EDGE_CURVE('',#166,#162,#214,.T.);
#216=ORIENTED_EDGE('',*,*,#215,.T.);
#217=CARTESIAN_POINT('',(-3.4900,-1.2000,0.3000));
#218=DIRECTION('',(0.0,0.0,-1.0));
#219=VECTOR('',#218,0.3000);
#220=LINE('',#217,#219);
#221=EDGE_CURVE('',#162,#160,#220,.T.);
#222=ORIENTED_EDGE('',*,*,#221,.T.);
#223=EDGE_LOOP('',(#204,#210,#216,#222));
#224=FACE_OUTER_BOUND('',#223,.T.);
#225=CARTESIAN_POINT('',(-3.4900,-1.2000,0.0000));
#226=DIRECTION('',(1.0,0.0,0.0));
#227=DIRECTION('',(0.0,1.0,0.0));
#228=AXIS2_PLACEMENT_3D('',#225,#226,#227);
#229=PLANE('',#228);
#230=ADVANCED_FACE('',(#224),#229,.T.);
#231=CARTESIAN_POINT('',(-4.1300,-1.2000,0.0000));
#232=DIRECTION('',(1.0,0.0,0.0));
#233=VECTOR('',#232,0.6400);
#234=LINE('',#231,#233);
#235=EDGE_CURVE('',#152,#160,#234,.T.);
#236=ORIENTED_EDGE('',*,*,#235,.T.);
#237=ORIENTED_EDGE('',*,*,#221,.F.);
#238=CARTESIAN_POINT('',(-3.4900,-1.2000,0.3000));
#239=DIRECTION('',(-1.0,0.0,0.0));
#240=VECTOR('',#239,0.6400);
#241=LINE('',#238,#240);
#242=EDGE_CURVE('',#162,#154,#241,.T.);
#243=ORIENTED_EDGE('',*,*,#242,.T.);
#244=ORIENTED_EDGE('',*,*,#189,.F.);
#245=EDGE_LOOP('',(#236,#237,#243,#244));
#246=FACE_OUTER_BOUND('',#245,.T.);
#247=CARTESIAN_POINT('',(-4.1300,-1.2000,0.0000));
#248=DIRECTION('',(0.0,-1.0,0.0));
#249=DIRECTION('',(0.0,0.0,1.0));
#250=AXIS2_PLACEMENT_3D('',#247,#248,#249);
#251=PLANE('',#250);
#252=ADVANCED_FACE('',(#246),#251,.T.);
#253=CARTESIAN_POINT('',(-4.1300,1.6000,0.3000));
#254=DIRECTION('',(1.0,0.0,0.0));
#255=VECTOR('',#254,0.6400);
#256=LINE('',#253,#255);
#257=EDGE_CURVE('',#158,#166,#256,.T.);
#258=ORIENTED_EDGE('',*,*,#257,.T.);
#259=ORIENTED_EDGE('',*,*,#209,.F.);
#260=CARTESIAN_POINT('',(-3.4900,1.6000,0.0000));
#261=DIRECTION('',(-1.0,0.0,0.0));
#262=VECTOR('',#261,0.6400);
#263=LINE('',#260,#262);
#264=EDGE_CURVE('',#164,#156,#263,.T.);
#265=ORIENTED_EDGE('',*,*,#264,.T.);
#266=ORIENTED_EDGE('',*,*,#177,.F.);
#267=EDGE_LOOP('',(#258,#259,#265,#266));
#268=FACE_OUTER_BOUND('',#267,.T.);
#269=CARTESIAN_POINT('',(-4.1300,1.6000,0.3000));
#270=DIRECTION('',(0.0,1.0,0.0));
#271=DIRECTION('',(0.0,0.0,1.0));
#272=AXIS2_PLACEMENT_3D('',#269,#270,#271);
#273=PLANE('',#272);
#274=ADVANCED_FACE('',(#268),#273,.T.);
#275=ORIENTED_EDGE('',*,*,#264,.F.);
#276=ORIENTED_EDGE('',*,*,#203,.F.);
#277=ORIENTED_EDGE('',*,*,#235,.F.);
#278=ORIENTED_EDGE('',*,*,#183,.F.);
#279=EDGE_LOOP('',(#275,#276,#277,#278));
#280=FACE_OUTER_BOUND('',#279,.T.);
#281=CARTESIAN_POINT('',(-4.1300,1.6000,0.0000));
#282=DIRECTION('',(0.0,0.0,-1.0));
#283=DIRECTION('',(1.0,0.0,0.0));
#284=AXIS2_PLACEMENT_3D('',#281,#282,#283);
#285=PLANE('',#284);
#286=ADVANCED_FACE('',(#280),#285,.T.);
#287=ORIENTED_EDGE('',*,*,#242,.F.);
#288=ORIENTED_EDGE('',*,*,#215,.F.);
#289=ORIENTED_EDGE('',*,*,#257,.F.);
#290=ORIENTED_EDGE('',*,*,#171,.F.);
#291=EDGE_LOOP('',(#287,#288,#289,#290));
#292=FACE_OUTER_BOUND('',#291,.T.);
#293=CARTESIAN_POINT('',(-4.1300,-1.2000,0.3000));
#294=DIRECTION('',(0.0,0.0,1.0));
#295=DIRECTION('',(1.0,0.0,0.0));
#296=AXIS2_PLACEMENT_3D('',#293,#294,#295);
#297=PLANE('',#296);
#298=ADVANCED_FACE('',(#292),#297,.T.);
#299=CLOSED_SHELL('',(#198,#230,#252,#274,#286,#298));
#300=MANIFOLD_SOLID_BREP('HX_PM2.54-1x4P_WT',#299);
#301=CARTESIAN_POINT('',(-1.5900,-1.2000,0.0000));
#302=VERTEX_POINT('',#301);
#303=CARTESIAN_POINT('',(-1.5900,-1.2000,0.3000));
#304=VERTEX_POINT('',#303);
#305=CARTESIAN_POINT('',(-1.5900,1.6000,0.0000));
#306=VERTEX_POINT('',#305);
#307=CARTESIAN_POINT('',(-1.5900,1.6000,0.3000));
#308=VERTEX_POINT('',#307);
#309=CARTESIAN_POINT('',(-0.9500,-1.2000,0.0000));
#310=VERTEX_POINT('',#309);
#311=CARTESIAN_POINT('',(-0.9500,-1.2000,0.3000));
#312=VERTEX_POINT('',#311);
#313=CARTESIAN_POINT('',(-0.9500,1.6000,0.0000));
#314=VERTEX_POINT('',#313);
#315=CARTESIAN_POINT('',(-0.9500,1.6000,0.3000));
#316=VERTEX_POINT('',#315);
#317=CARTESIAN_POINT('',(-1.5900,-1.2000,0.3000));
#318=DIRECTION('',(0.0,1.0,0.0));
#319=VECTOR('',#318,2.8000);
#320=LINE('',#317,#319);
#321=EDGE_CURVE('',#304,#308,#320,.T.);
#322=ORIENTED_EDGE('',*,*,#321,.T.);
#323=CARTESIAN_POINT('',(-1.5900,1.6000,0.3000));
#324=DIRECTION('',(0.0,0.0,-1.0));
#325=VECTOR('',#324,0.3000);
#326=LINE('',#323,#325);
#327=EDGE_CURVE('',#308,#306,#326,.T.);
#328=ORIENTED_EDGE('',*,*,#327,.T.);
#329=CARTESIAN_POINT('',(-1.5900,1.6000,0.0000));
#330=DIRECTION('',(0.0,-1.0,0.0));
#331=VECTOR('',#330,2.8000);
#332=LINE('',#329,#331);
#333=EDGE_CURVE('',#306,#302,#332,.T.);
#334=ORIENTED_EDGE('',*,*,#333,.T.);
#335=CARTESIAN_POINT('',(-1.5900,-1.2000,0.0000));
#336=DIRECTION('',(0.0,0.0,1.0));
#337=VECTOR('',#336,0.3000);
#338=LINE('',#335,#337);
#339=EDGE_CURVE('',#302,#304,#338,.T.);
#340=ORIENTED_EDGE('',*,*,#339,.T.);
#341=EDGE_LOOP('',(#322,#328,#334,#340));
#342=FACE_OUTER_BOUND('',#341,.T.);
#343=CARTESIAN_POINT('',(-1.5900,-1.2000,0.3000));
#344=DIRECTION('',(-1.0,0.0,0.0));
#345=DIRECTION('',(0.0,1.0,0.0));
#346=AXIS2_PLACEMENT_3D('',#343,#344,#345);
#347=PLANE('',#346);
#348=ADVANCED_FACE('',(#342),#347,.T.);
#349=CARTESIAN_POINT('',(-0.9500,-1.2000,0.0000));
#350=DIRECTION('',(0.0,1.0,0.0));
#351=VECTOR('',#350,2.8000);
#352=LINE('',#349,#351);
#353=EDGE_CURVE('',#310,#314,#352,.T.);
#354=ORIENTED_EDGE('',*,*,#353,.T.);
#355=CARTESIAN_POINT('',(-0.9500,1.6000,0.0000));
#356=DIRECTION('',(0.0,0.0,1.0));
#357=VECTOR('',#356,0.3000);
#358=LINE('',#355,#357);
#359=EDGE_CURVE('',#314,#316,#358,.T.);
#360=ORIENTED_EDGE('',*,*,#359,.T.);
#361=CARTESIAN_POINT('',(-0.9500,1.6000,0.3000));
#362=DIRECTION('',(0.0,-1.0,0.0));
#363=VECTOR('',#362,2.8000);
#364=LINE('',#361,#363);
#365=EDGE_CURVE('',#316,#312,#364,.T.);
#366=ORIENTED_EDGE('',*,*,#365,.T.);
#367=CARTESIAN_POINT('',(-0.9500,-1.2000,0.3000));
#368=DIRECTION('',(0.0,0.0,-1.0));
#369=VECTOR('',#368,0.3000);
#370=LINE('',#367,#369);
#371=EDGE_CURVE('',#312,#310,#370,.T.);
#372=ORIENTED_EDGE('',*,*,#371,.T.);
#373=EDGE_LOOP('',(#354,#360,#366,#372));
#374=FACE_OUTER_BOUND('',#373,.T.);
#375=CARTESIAN_POINT('',(-0.9500,-1.2000,0.0000));
#376=DIRECTION('',(1.0,0.0,0.0));
#377=DIRECTION('',(0.0,1.0,0.0));
#378=AXIS2_PLACEMENT_3D('',#375,#376,#377);
#379=PLANE('',#378);
#380=ADVANCED_FACE('',(#374),#379,.T.);
#381=CARTESIAN_POINT('',(-1.5900,-1.2000,0.0000));
#382=DIRECTION('',(1.0,0.0,0.0));
#383=VECTOR('',#382,0.6400);
#384=LINE('',#381,#383);
#385=EDGE_CURVE('',#302,#310,#384,.T.);
#386=ORIENTED_EDGE('',*,*,#385,.T.);
#387=ORIENTED_EDGE('',*,*,#371,.F.);
#388=CARTESIAN_POINT('',(-0.9500,-1.2000,0.3000));
#389=DIRECTION('',(-1.0,0.0,0.0));
#390=VECTOR('',#389,0.6400);
#391=LINE('',#388,#390);
#392=EDGE_CURVE('',#312,#304,#391,.T.);
#393=ORIENTED_EDGE('',*,*,#392,.T.);
#394=ORIENTED_EDGE('',*,*,#339,.F.);
#395=EDGE_LOOP('',(#386,#387,#393,#394));
#396=FACE_OUTER_BOUND('',#395,.T.);
#397=CARTESIAN_POINT('',(-1.5900,-1.2000,0.0000));
#398=DIRECTION('',(0.0,-1.0,0.0));
#399=DIRECTION('',(0.0,0.0,1.0));
#400=AXIS2_PLACEMENT_3D('',#397,#398,#399);
#401=PLANE('',#400);
#402=ADVANCED_FACE('',(#396),#401,.T.);
#403=CARTESIAN_POINT('',(-1.5900,1.6000,0.3000));
#404=DIRECTION('',(1.0,0.0,0.0));
#405=VECTOR('',#404,0.6400);
#406=LINE('',#403,#405);
#407=EDGE_CURVE('',#308,#316,#406,.T.);
#408=ORIENTED_EDGE('',*,*,#407,.T.);
#409=ORIENTED_EDGE('',*,*,#359,.F.);
#410=CARTESIAN_POINT('',(-0.9500,1.6000,0.0000));
#411=DIRECTION('',(-1.0,0.0,0.0));
#412=VECTOR('',#411,0.6400);
#413=LINE('',#410,#412);
#414=EDGE_CURVE('',#314,#306,#413,.T.);
#415=ORIENTED_EDGE('',*,*,#414,.T.);
#416=ORIENTED_EDGE('',*,*,#327,.F.);
#417=EDGE_LOOP('',(#408,#409,#415,#416));
#418=FACE_OUTER_BOUND('',#417,.T.);
#419=CARTESIAN_POINT('',(-1.5900,1.6000,0.3000));
#420=DIRECTION('',(0.0,1.0,0.0));
#421=DIRECTION('',(0.0,0.0,1.0));
#422=AXIS2_PLACEMENT_3D('',#419,#420,#421);
#423=PLANE('',#422);
#424=ADVANCED_FACE('',(#418),#423,.T.);
#425=ORIENTED_EDGE('',*,*,#414,.F.);
#426=ORIENTED_EDGE('',*,*,#353,.F.);
#427=ORIENTED_EDGE('',*,*,#385,.F.);
#428=ORIENTED_EDGE('',*,*,#333,.F.);
#429=EDGE_LOOP('',(#425,#426,#427,#428));
#430=FACE_OUTER_BOUND('',#429,.T.);
#431=CARTESIAN_POINT('',(-1.5900,1.6000,0.0000));
#432=DIRECTION('',(0.0,0.0,-1.0));
#433=DIRECTION('',(1.0,0.0,0.0));
#434=AXIS2_PLACEMENT_3D('',#431,#432,#433);
#435=PLANE('',#434);
#436=ADVANCED_FACE('',(#430),#435,.T.);
#437=ORIENTED_EDGE('',*,*,#392,.F.);
#438=ORIENTED_EDGE('',*,*,#365,.F.);
#439=ORIENTED_EDGE('',*,*,#407,.F.);
#440=ORIENTED_EDGE('',*,*,#321,.F.);
#441=EDGE_LOOP('',(#437,#438,#439,#440));
#442=FACE_OUTER_BOUND('',#441,.T.);
#443=CARTESIAN_POINT('',(-1.5900,-1.2000,0.3000));
#444=DIRECTION('',(0.0,0.0,1.0));
#445=DIRECTION('',(1.0,0.0,0.0));
#446=AXIS2_PLACEMENT_3D('',#443,#444,#445);
#447=PLANE('',#446);
#448=ADVANCED_FACE('',(#442),#447,.T.);
#449=CLOSED_SHELL('',(#348,#380,#402,#424,#436,#448));
#450=MANIFOLD_SOLID_BREP('HX_PM2.54-1x4P_WT',#449);
#451=CARTESIAN_POINT('',(0.9500,-1.2000,0.0000));
#452=VERTEX_POINT('',#451);
#453=CARTESIAN_POINT('',(0.9500,-1.2000,0.3000));
#454=VERTEX_POINT('',#453);
#455=CARTESIAN_POINT('',(0.9500,1.6000,0.0000));
#456=VERTEX_POINT('',#455);
#457=CARTESIAN_POINT('',(0.9500,1.6000,0.3000));
#458=VERTEX_POINT('',#457);
#459=CARTESIAN_POINT('',(1.5900,-1.2000,0.0000));
#460=VERTEX_POINT('',#459);
#461=CARTESIAN_POINT('',(1.5900,-1.2000,0.3000));
#462=VERTEX_POINT('',#461);
#463=CARTESIAN_POINT('',(1.5900,1.6000,0.0000));
#464=VERTEX_POINT('',#463);
#465=CARTESIAN_POINT('',(1.5900,1.6000,0.3000));
#466=VERTEX_POINT('',#465);
#467=CARTESIAN_POINT('',(0.9500,-1.2000,0.3000));
#468=DIRECTION('',(0.0,1.0,0.0));
#469=VECTOR('',#468,2.8000);
#470=LINE('',#467,#469);
#471=EDGE_CURVE('',#454,#458,#470,.T.);
#472=ORIENTED_EDGE('',*,*,#471,.T.);
#473=CARTESIAN_POINT('',(0.9500,1.6000,0.3000));
#474=DIRECTION('',(0.0,0.0,-1.0));
#475=VECTOR('',#474,0.3000);
#476=LINE('',#473,#475);
#477=EDGE_CURVE('',#458,#456,#476,.T.);
#478=ORIENTED_EDGE('',*,*,#477,.T.);
#479=CARTESIAN_POINT('',(0.9500,1.6000,0.0000));
#480=DIRECTION('',(0.0,-1.0,0.0));
#481=VECTOR('',#480,2.8000);
#482=LINE('',#479,#481);
#483=EDGE_CURVE('',#456,#452,#482,.T.);
#484=ORIENTED_EDGE('',*,*,#483,.T.);
#485=CARTESIAN_POINT('',(0.9500,-1.2000,0.0000));
#486=DIRECTION('',(0.0,0.0,1.0));
#487=VECTOR('',#486,0.3000);
#488=LINE('',#485,#487);
#489=EDGE_CURVE('',#452,#454,#488,.T.);
#490=ORIENTED_EDGE('',*,*,#489,.T.);
#491=EDGE_LOOP('',(#472,#478,#484,#490));
#492=FACE_OUTER_BOUND('',#491,.T.);
#493=CARTESIAN_POINT('',(0.9500,-1.2000,0.3000));
#494=DIRECTION('',(-1.0,0.0,0.0));
#495=DIRECTION('',(0.0,1.0,0.0));
#496=AXIS2_PLACEMENT_3D('',#493,#494,#495);
#497=PLANE('',#496);
#498=ADVANCED_FACE('',(#492),#497,.T.);
#499=CARTESIAN_POINT('',(1.5900,-1.2000,0.0000));
#500=DIRECTION('',(0.0,1.0,0.0));
#501=VECTOR('',#500,2.8000);
#502=LINE('',#499,#501);
#503=EDGE_CURVE('',#460,#464,#502,.T.);
#504=ORIENTED_EDGE('',*,*,#503,.T.);
#505=CARTESIAN_POINT('',(1.5900,1.6000,0.0000));
#506=DIRECTION('',(0.0,0.0,1.0));
#507=VECTOR('',#506,0.3000);
#508=LINE('',#505,#507);
#509=EDGE_CURVE('',#464,#466,#508,.T.);
#510=ORIENTED_EDGE('',*,*,#509,.T.);
#511=CARTESIAN_POINT('',(1.5900,1.6000,0.3000));
#512=DIRECTION('',(0.0,-1.0,0.0));
#513=VECTOR('',#512,2.8000);
#514=LINE('',#511,#513);
#515=EDGE_CURVE('',#466,#462,#514,.T.);
#516=ORIENTED_EDGE('',*,*,#515,.T.);
#517=CARTESIAN_POINT('',(1.5900,-1.2000,0.3000));
#518=DIRECTION('',(0.0,0.0,-1.0));
#519=VECTOR('',#518,0.3000);
#520=LINE('',#517,#519);
#521=EDGE_CURVE('',#462,#460,#520,.T.);
#522=ORIENTED_EDGE('',*,*,#521,.T.);
#523=EDGE_LOOP('',(#504,#510,#516,#522));
#524=FACE_OUTER_BOUND('',#523,.T.);
#525=CARTESIAN_POINT('',(1.5900,-1.2000,0.0000));
#526=DIRECTION('',(1.0,0.0,0.0));
#527=DIRECTION('',(0.0,1.0,0.0));
#528=AXIS2_PLACEMENT_3D('',#525,#526,#527);
#529=PLANE('',#528);
#530=ADVANCED_FACE('',(#524),#529,.T.);
#531=CARTESIAN_POINT('',(0.9500,-1.2000,0.0000));
#532=DIRECTION('',(1.0,0.0,0.0));
#533=VECTOR('',#532,0.6400);
#534=LINE('',#531,#533);
#535=EDGE_CURVE('',#452,#460,#534,.T.);
#536=ORIENTED_EDGE('',*,*,#535,.T.);
#537=ORIENTED_EDGE('',*,*,#521,.F.);
#538=CARTESIAN_POINT('',(1.5900,-1.2000,0.3000));
#539=DIRECTION('',(-1.0,0.0,0.0));
#540=VECTOR('',#539,0.6400);
#541=LINE('',#538,#540);
#542=EDGE_CURVE('',#462,#454,#541,.T.);
#543=ORIENTED_EDGE('',*,*,#542,.T.);
#544=ORIENTED_EDGE('',*,*,#489,.F.);
#545=EDGE_LOOP('',(#536,#537,#543,#544));
#546=FACE_OUTER_BOUND('',#545,.T.);
#547=CARTESIAN_POINT('',(0.9500,-1.2000,0.0000));
#548=DIRECTION('',(0.0,-1.0,0.0));
#549=DIRECTION('',(0.0,0.0,1.0));
#550=AXIS2_PLACEMENT_3D('',#547,#548,#549);
#551=PLANE('',#550);
#552=ADVANCED_FACE('',(#546),#551,.T.);
#553=CARTESIAN_POINT('',(0.9500,1.6000,0.3000));
#554=DIRECTION('',(1.0,0.0,0.0));
#555=VECTOR('',#554,0.6400);
#556=LINE('',#553,#555);
#557=EDGE_CURVE('',#458,#466,#556,.T.);
#558=ORIENTED_EDGE('',*,*,#557,.T.);
#559=ORIENTED_EDGE('',*,*,#509,.F.);
#560=CARTESIAN_POINT('',(1.5900,1.6000,0.0000));
#561=DIRECTION('',(-1.0,0.0,0.0));
#562=VECTOR('',#561,0.6400);
#563=LINE('',#560,#562);
#564=EDGE_CURVE('',#464,#456,#563,.T.);
#565=ORIENTED_EDGE('',*,*,#564,.T.);
#566=ORIENTED_EDGE('',*,*,#477,.F.);
#567=EDGE_LOOP('',(#558,#559,#565,#566));
#568=FACE_OUTER_BOUND('',#567,.T.);
#569=CARTESIAN_POINT('',(0.9500,1.6000,0.3000));
#570=DIRECTION('',(0.0,1.0,0.0));
#571=DIRECTION('',(0.0,0.0,1.0));
#572=AXIS2_PLACEMENT_3D('',#569,#570,#571);
#573=PLANE('',#572);
#574=ADVANCED_FACE('',(#568),#573,.T.);
#575=ORIENTED_EDGE('',*,*,#564,.F.);
#576=ORIENTED_EDGE('',*,*,#503,.F.);
#577=ORIENTED_EDGE('',*,*,#535,.F.);
#578=ORIENTED_EDGE('',*,*,#483,.F.);
#579=EDGE_LOOP('',(#575,#576,#577,#578));
#580=FACE_OUTER_BOUND('',#579,.T.);
#581=CARTESIAN_POINT('',(0.9500,1.6000,0.0000));
#582=DIRECTION('',(0.0,0.0,-1.0));
#583=DIRECTION('',(1.0,0.0,0.0));
#584=AXIS2_PLACEMENT_3D('',#581,#582,#583);
#585=PLANE('',#584);
#586=ADVANCED_FACE('',(#580),#585,.T.);
#587=ORIENTED_EDGE('',*,*,#542,.F.);
#588=ORIENTED_EDGE('',*,*,#515,.F.);
#589=ORIENTED_EDGE('',*,*,#557,.F.);
#590=ORIENTED_EDGE('',*,*,#471,.F.);
#591=EDGE_LOOP('',(#587,#588,#589,#590));
#592=FACE_OUTER_BOUND('',#591,.T.);
#593=CARTESIAN_POINT('',(0.9500,-1.2000,0.3000));
#594=DIRECTION('',(0.0,0.0,1.0));
#595=DIRECTION('',(1.0,0.0,0.0));
#596=AXIS2_PLACEMENT_3D('',#593,#594,#595);
#597=PLANE('',#596);
#598=ADVANCED_FACE('',(#592),#597,.T.);
#599=CLOSED_SHELL('',(#498,#530,#552,#574,#586,#598));
#600=MANIFOLD_SOLID_BREP('HX_PM2.54-1x4P_WT',#599);
#601=CARTESIAN_POINT('',(3.4900,-1.2000,0.0000));
#602=VERTEX_POINT('',#601);
#603=CARTESIAN_POINT('',(3.4900,-1.2000,0.3000));
#604=VERTEX_POINT('',#603);
#605=CARTESIAN_POINT('',(3.4900,1.6000,0.0000));
#606=VERTEX_POINT('',#605);
#607=CARTESIAN_POINT('',(3.4900,1.6000,0.3000));
#608=VERTEX_POINT('',#607);
#609=CARTESIAN_POINT('',(4.1300,-1.2000,0.0000));
#610=VERTEX_POINT('',#609);
#611=CARTESIAN_POINT('',(4.1300,-1.2000,0.3000));
#612=VERTEX_POINT('',#611);
#613=CARTESIAN_POINT('',(4.1300,1.6000,0.0000));
#614=VERTEX_POINT('',#613);
#615=CARTESIAN_POINT('',(4.1300,1.6000,0.3000));
#616=VERTEX_POINT('',#615);
#617=CARTESIAN_POINT('',(3.4900,-1.2000,0.3000));
#618=DIRECTION('',(0.0,1.0,0.0));
#619=VECTOR('',#618,2.8000);
#620=LINE('',#617,#619);
#621=EDGE_CURVE('',#604,#608,#620,.T.);
#622=ORIENTED_EDGE('',*,*,#621,.T.);
#623=CARTESIAN_POINT('',(3.4900,1.6000,0.3000));
#624=DIRECTION('',(0.0,0.0,-1.0));
#625=VECTOR('',#624,0.3000);
#626=LINE('',#623,#625);
#627=EDGE_CURVE('',#608,#606,#626,.T.);
#628=ORIENTED_EDGE('',*,*,#627,.T.);
#629=CARTESIAN_POINT('',(3.4900,1.6000,0.0000));
#630=DIRECTION('',(0.0,-1.0,0.0));
#631=VECTOR('',#630,2.8000);
#632=LINE('',#629,#631);
#633=EDGE_CURVE('',#606,#602,#632,.T.);
#634=ORIENTED_EDGE('',*,*,#633,.T.);
#635=CARTESIAN_POINT('',(3.4900,-1.2000,0.0000));
#636=DIRECTION('',(0.0,0.0,1.0));
#637=VECTOR('',#636,0.3000);
#638=LINE('',#635,#637);
#639=EDGE_CURVE('',#602,#604,#638,.T.);
#640=ORIENTED_EDGE('',*,*,#639,.T.);
#641=EDGE_LOOP('',(#622,#628,#634,#640));
#642=FACE_OUTER_BOUND('',#641,.T.);
#643=CARTESIAN_POINT('',(3.4900,-1.2000,0.3000));
#644=DIRECTION('',(-1.0,0.0,0.0));
#645=DIRECTION('',(0.0,1.0,0.0));
#646=AXIS2_PLACEMENT_3D('',#643,#644,#645);
#647=PLANE('',#646);
#648=ADVANCED_FACE('',(#642),#647,.T.);
#649=CARTESIAN_POINT('',(4.1300,-1.2000,0.0000));
#650=DIRECTION('',(0.0,1.0,0.0));
#651=VECTOR('',#650,2.8000);
#652=LINE('',#649,#651);
#653=EDGE_CURVE('',#610,#614,#652,.T.);
#654=ORIENTED_EDGE('',*,*,#653,.T.);
#655=CARTESIAN_POINT('',(4.1300,1.6000,0.0000));
#656=DIRECTION('',(0.0,0.0,1.0));
#657=VECTOR('',#656,0.3000);
#658=LINE('',#655,#657);
#659=EDGE_CURVE('',#614,#616,#658,.T.);
#660=ORIENTED_EDGE('',*,*,#659,.T.);
#661=CARTESIAN_POINT('',(4.1300,1.6000,0.3000));
#662=DIRECTION('',(0.0,-1.0,0.0));
#663=VECTOR('',#662,2.8000);
#664=LINE('',#661,#663);
#665=EDGE_CURVE('',#616,#612,#664,.T.);
#666=ORIENTED_EDGE('',*,*,#665,.T.);
#667=CARTESIAN_POINT('',(4.1300,-1.2000,0.3000));
#668=DIRECTION('',(0.0,0.0,-1.0));
#669=VECTOR('',#668,0.3000);
#670=LINE('',#667,#669);
#671=EDGE_CURVE('',#612,#610,#670,.T.);
#672=ORIENTED_EDGE('',*,*,#671,.T.);
#673=EDGE_LOOP('',(#654,#660,#666,#672));
#674=FACE_OUTER_BOUND('',#673,.T.);
#675=CARTESIAN_POINT('',(4.1300,-1.2000,0.0000));
#676=DIRECTION('',(1.0,0.0,0.0));
#677=DIRECTION('',(0.0,1.0,0.0));
#678=AXIS2_PLACEMENT_3D('',#675,#676,#677);
#679=PLANE('',#678);
#680=ADVANCED_FACE('',(#674),#679,.T.);
#681=CARTESIAN_POINT('',(3.4900,-1.2000,0.0000));
#682=DIRECTION('',(1.0,0.0,0.0));
#683=VECTOR('',#682,0.6400);
#684=LINE('',#681,#683);
#685=EDGE_CURVE('',#602,#610,#684,.T.);
#686=ORIENTED_EDGE('',*,*,#685,.T.);
#687=ORIENTED_EDGE('',*,*,#671,.F.);
#688=CARTESIAN_POINT('',(4.1300,-1.2000,0.3000));
#689=DIRECTION('',(-1.0,0.0,0.0));
#690=VECTOR('',#689,0.6400);
#691=LINE('',#688,#690);
#692=EDGE_CURVE('',#612,#604,#691,.T.);
#693=ORIENTED_EDGE('',*,*,#692,.T.);
#694=ORIENTED_EDGE('',*,*,#639,.F.);
#695=EDGE_LOOP('',(#686,#687,#693,#694));
#696=FACE_OUTER_BOUND('',#695,.T.);
#697=CARTESIAN_POINT('',(3.4900,-1.2000,0.0000));
#698=DIRECTION('',(0.0,-1.0,0.0));
#699=DIRECTION('',(0.0,0.0,1.0));
#700=AXIS2_PLACEMENT_3D('',#697,#698,#699);
#701=PLANE('',#700);
#702=ADVANCED_FACE('',(#696),#701,.T.);
#703=CARTESIAN_POINT('',(3.4900,1.6000,0.3000));
#704=DIRECTION('',(1.0,0.0,0.0));
#705=VECTOR('',#704,0.6400);
#706=LINE('',#703,#705);
#707=EDGE_CURVE('',#608,#616,#706,.T.);
#708=ORIENTED_EDGE('',*,*,#707,.T.);
#709=ORIENTED_EDGE('',*,*,#659,.F.);
#710=CARTESIAN_POINT('',(4.1300,1.6000,0.0000));
#711=DIRECTION('',(-1.0,0.0,0.0));
#712=VECTOR('',#711,0.6400);
#713=LINE('',#710,#712);
#714=EDGE_CURVE('',#614,#606,#713,.T.);
#715=ORIENTED_EDGE('',*,*,#714,.T.);
#716=ORIENTED_EDGE('',*,*,#627,.F.);
#717=EDGE_LOOP('',(#708,#709,#715,#716));
#718=FACE_OUTER_BOUND('',#717,.T.);
#719=CARTESIAN_POINT('',(3.4900,1.6000,0.3000));
#720=DIRECTION('',(0.0,1.0,0.0));
#721=DIRECTION('',(0.0,0.0,1.0));
#722=AXIS2_PLACEMENT_3D('',#719,#720,#721);
#723=PLANE('',#722);
#724=ADVANCED_FACE('',(#718),#723,.T.);
#725=ORIENTED_EDGE('',*,*,#714,.F.);
#726=ORIENTED_EDGE('',*,*,#653,.F.);
#727=ORIENTED_EDGE('',*,*,#685,.F.);
#728=ORIENTED_EDGE('',*,*,#633,.F.);
#729=EDGE_LOOP('',(#725,#726,#727,#728));
#730=FACE_OUTER_BOUND('',#729,.T.);
#731=CARTESIAN_POINT('',(3.4900,1.6000,0.0000));
#732=DIRECTION('',(0.0,0.0,-1.0));
#733=DIRECTION('',(1.0,0.0,0.0));
#734=AXIS2_PLACEMENT_3D('',#731,#732,#733);
#735=PLANE('',#734);
#736=ADVANCED_FACE('',(#730),#735,.T.);
#737=ORIENTED_EDGE('',*,*,#692,.F.);
#738=ORIENTED_EDGE('',*,*,#665,.F.);
#739=ORIENTED_EDGE('',*,*,#707,.F.);
#740=ORIENTED_EDGE('',*,*,#621,.F.);
#741=EDGE_LOOP('',(#737,#738,#739,#740));
#742=FACE_OUTER_BOUND('',#741,.T.);
#743=CARTESIAN_POINT('',(3.4900,-1.2000,0.3000));
#744=DIRECTION('',(0.0,0.0,1.0));
#745=DIRECTION('',(1.0,0.0,0.0));
#746=AXIS2_PLACEMENT_3D('',#743,#744,#745);
#747=PLANE('',#746);
#748=ADVANCED_FACE('',(#742),#747,.T.);
#749=CLOSED_SHELL('',(#648,#680,#702,#724,#736,#748));
#750=MANIFOLD_SOLID_BREP('HX_PM2.54-1x4P_WT',#749);
#751=CARTESIAN_POINT('',(0.,0.,0.));
#752=DIRECTION('',(0.,0.,1.));
#753=DIRECTION('',(1.,0.,0.));
#754=AXIS2_PLACEMENT_3D('',#751,#752,#753);
#755=( LENGTH_UNIT() NAMED_UNIT(*) SI_UNIT(.MILLI.,.METRE.) );
#756=( NAMED_UNIT(*) PLANE_ANGLE_UNIT() SI_UNIT($,.RADIAN.) );
#757=( NAMED_UNIT(*) SI_UNIT($,.STERADIAN.) SOLID_ANGLE_UNIT() );
#758=UNCERTAINTY_MEASURE_WITH_UNIT(LENGTH_MEASURE(1.E-07),#755,'distance_accuracy_value','');
#759=( GEOMETRIC_REPRESENTATION_CONTEXT(3) GLOBAL_UNCERTAINTY_ASSIGNED_CONTEXT((#758)) GLOBAL_UNIT_ASSIGNED_CONTEXT((#755,#756,#757)) REPRESENTATION_CONTEXT('Context #1','3D Context with UNIT and UNCERTAINTY') );
#760=ADVANCED_BREP_SHAPE_REPRESENTATION('',(#754,#150,#300,#450,#600,#750),#759);
#761=APPLICATION_CONTEXT('core data for automotive mechanical design processes');
#762=APPLICATION_PROTOCOL_DEFINITION('international standard','automotive_design',2000,#761);
#763=PRODUCT_CONTEXT('',#761,'mechanical');
#764=PRODUCT('HX_PM2.54-1x4P_WT','HX_PM2.54-1x4P_WT','',(#763));
#765=PRODUCT_DEFINITION_FORMATION('','',#764);
#766=PRODUCT_DEFINITION_CONTEXT('part definition',#761,'design');
#767=PRODUCT_DEFINITION('design','',#765,#766);
#768=PRODUCT_DEFINITION_SHAPE('','',#767);
#769=SHAPE_REPRESENTATION('',(#754),#759);
#770=SHAPE_DEFINITION_REPRESENTATION(#768,#769);
#771=SHAPE_REPRESENTATION_RELATIONSHIP('','',#769,#760);
#772=PRODUCT_RELATED_PRODUCT_CATEGORY('part',$,(#764));
ENDSEC;
END-ISO-10303-21;
