0
SECTION
2
HEADER
9
$INSUNITS
70
4
0
ENDSEC
0
SECTION
2
ENTITIES
0
POLYLINE
8
CUT_OUTER
66
1
70
1
0
VERTEX
8
CUT_OUTER
10
29.3250
20
-14.5000
42
0.414214
0
VERTEX
8
CUT_OUTER
10
32.6750
20
-11.1500
42
0.000000
0
VERTEX
8
CUT_OUTER
10
32.6750
20
11.1500
42
0.414214
0
VERTEX
8
CUT_OUTER
10
29.3250
20
14.5000
42
0.000000
0
VERTEX
8
CUT_OUTER
10
-29.3250
20
14.5000
42
0.414214
0
VERTEX
8
CUT_OUTER
10
-32.6750
20
11.1500
42
0.000000
0
VERTEX
8
CUT_OUTER
10
-32.6750
20
-11.1500
42
0.414214
0
VERTEX
8
CUT_OUTER
10
-29.3250
20
-14.5000
42
0.000000
0
SEQEND
8
CUT_OUTER
0
POLYLINE
8
CUT_OPENING
66
1
70
1
0
VERTEX
8
CUT_OPENING
10
26.1300
20
-11.4460
42
0.414214
0
VERTEX
8
CUT_OPENING
10
26.4300
20
-11.1460
42
0.000000
0
VERTEX
8
CUT_OPENING
10
26.4300
20
11.1540
42
0.414214
0
VERTEX
8
CUT_OPENING
10
26.1300
20
11.4540
42
0.000000
0
VERTEX
8
CUT_OPENING
10
-21.0200
20
11.4540
42
0.414214
0
VERTEX
8
CUT_OPENING
10
-21.3200
20
11.1540
42
0.000000
0
VERTEX
8
CUT_OPENING
10
-21.3200
20
-11.1460
42
0.414214
0
VERTEX
8
CUT_OPENING
10
-21.0200
20
-11.4460
42
0.000000
0
SEQEND
8
CUT_OPENING
0
POLYLINE
8
OPTION_WINDOW
66
1
70
1
0
VERTEX
8
OPTION_WINDOW
10
29.1750
20
-12.0000
42
0.414214
0
VERTEX
8
OPTION_WINDOW
10
30.1750
20
-11.0000
42
0.000000
0
VERTEX
8
OPTION_WINDOW
10
30.1750
20
11.0000
42
0.414214
0
VERTEX
8
OPTION_WINDOW
10
29.1750
20
12.0000
42
0.000000
0
VERTEX
8
OPTION_WINDOW
10
-29.1750
20
12.0000
42
0.414214
0
VERTEX
8
OPTION_WINDOW
10
-30.1750
20
11.0000
42
0.000000
0
VERTEX
8
OPTION_WINDOW
10
-30.1750
20
-11.0000
42
0.414214
0
VERTEX
8
OPTION_WINDOW
10
-29.1750
20
-12.0000
42
0.000000
0
SEQEND
8
OPTION_WINDOW
0
LINE
8
MARKS
10
0.0000
20
15.5000
11
0.0000
21
21.5000
0
LINE
8
MARKS
10
0.0000
20
-15.5000
11
0.0000
21
-21.5000
0
LINE
8
MARKS
10
-33.6750
20
0.0000
11
-39.6750
21
0.0000
0
LINE
8
MARKS
10
33.6750
20
0.0000
11
39.6750
21
0.0000
0
ENDSEC
0
EOF
