%TF.GenerationSoftware,KiCad,Pcbnew,10.0.6*%
%TF.CreationDate,2026-10-04T14:50:32-04:00*%
%TF.ProjectId,ai_calc,61695f63-616c-4632-9e6b-696361645f70,0.1-geometry*%
%TF.SameCoordinates,Original*%
%TF.FileFunction,Soldermask,Bot*%
%TF.FilePolarity,Negative*%
%FSLAX46Y46*%
G04 Gerber Fmt 4.6, Leading zero omitted, Abs format (unit mm)*
G04 Created by KiCad (PCBNEW 10.0.6) date 2026-10-04 14:50:32*
%MOMM*%
%LPD*%
G01*
G04 APERTURE LIST*
%ADD10C,6.000000*%
%ADD11O,4.200000X5.000000*%
%ADD12O,4.200000X4.650000*%
%ADD13O,4.200000X4.450000*%
%ADD14C,4.200000*%
%ADD15O,4.400000X4.800000*%
%ADD16R,0.450000X3.000000*%
%ADD17R,6.000000X0.600000*%
%ADD18R,0.450000X5.500000*%
%ADD19R,9.000000X0.600000*%
%ADD20R,0.450000X2.500000*%
%ADD21R,5.000000X0.600000*%
%ADD22R,4.423000X0.600000*%
%ADD23R,1.677000X0.350000*%
G04 APERTURE END LIST*
D10*
%TO.C,H1*%
X127500000Y-126100000D03*
%TD*%
D11*
%TO.C,H2*%
X130850000Y-176250000D03*
%TD*%
D12*
%TO.C,H14*%
X169100000Y-198375000D03*
%TD*%
D13*
%TO.C,H13*%
X130500000Y-198325000D03*
%TD*%
D10*
%TO.C,H3*%
X174000000Y-126100000D03*
%TD*%
D14*
%TO.C,H4*%
X171060000Y-145960000D03*
%TD*%
%TO.C,H6*%
X130600000Y-186990000D03*
%TD*%
%TO.C,H8*%
X128850000Y-137000000D03*
%TD*%
D15*
%TO.C,H9*%
X169200000Y-176200000D03*
%TD*%
D14*
%TO.C,H10*%
X171250000Y-136800000D03*
%TD*%
D16*
%TO.C,SW22*%
X157923000Y-160115000D03*
X156423000Y-160115000D03*
D17*
X155298000Y-158315000D03*
D16*
X154923000Y-160115000D03*
X153423000Y-160115000D03*
X157173000Y-160415000D03*
X155673000Y-160415000D03*
D17*
X155298000Y-162215000D03*
D16*
X154173000Y-160415000D03*
X152673000Y-160415000D03*
%TD*%
%TO.C,SW2*%
X168651000Y-120645000D03*
X167151000Y-120645000D03*
D17*
X166026000Y-118845000D03*
D16*
X165651000Y-120645000D03*
X164151000Y-120645000D03*
X167901000Y-120945000D03*
X166401000Y-120945000D03*
D17*
X166026000Y-122745000D03*
D16*
X164901000Y-120945000D03*
X163401000Y-120945000D03*
%TD*%
D18*
%TO.C,SW31*%
X179820000Y-181704000D03*
X178320000Y-181704000D03*
X176820000Y-181704000D03*
D19*
X175695000Y-178654000D03*
D18*
X175320000Y-181704000D03*
X173820000Y-181704000D03*
X172320000Y-181704000D03*
X179070000Y-182004000D03*
X177570000Y-182004000D03*
X176070000Y-182004000D03*
D19*
X175695000Y-185054000D03*
D18*
X174570000Y-182004000D03*
X173070000Y-182004000D03*
X171570000Y-182004000D03*
%TD*%
%TO.C,SW38*%
X154125000Y-192830000D03*
X152625000Y-192830000D03*
X151125000Y-192830000D03*
D19*
X150000000Y-189780000D03*
D18*
X149625000Y-192830000D03*
X148125000Y-192830000D03*
X146625000Y-192830000D03*
X153375000Y-193130000D03*
X151875000Y-193130000D03*
X150375000Y-193130000D03*
D19*
X150000000Y-196180000D03*
D18*
X148875000Y-193130000D03*
X147375000Y-193130000D03*
X145875000Y-193130000D03*
%TD*%
%TO.C,SW39*%
X141277000Y-192830000D03*
X139777000Y-192830000D03*
X138277000Y-192830000D03*
D19*
X137152000Y-189780000D03*
D18*
X136777000Y-192830000D03*
X135277000Y-192830000D03*
X133777000Y-192830000D03*
X140527000Y-193130000D03*
X139027000Y-193130000D03*
X137527000Y-193130000D03*
D19*
X137152000Y-196180000D03*
D18*
X136027000Y-193130000D03*
X134527000Y-193130000D03*
X133027000Y-193130000D03*
%TD*%
D16*
%TO.C,SW24*%
X136599000Y-160115000D03*
X135099000Y-160115000D03*
D17*
X133974000Y-158315000D03*
D16*
X133599000Y-160115000D03*
X132099000Y-160115000D03*
X135849000Y-160415000D03*
X134349000Y-160415000D03*
D17*
X133974000Y-162215000D03*
D16*
X132849000Y-160415000D03*
X131349000Y-160415000D03*
%TD*%
D20*
%TO.C,SW46*%
X152250000Y-118850000D03*
X150750000Y-118850000D03*
D21*
X150000000Y-117300000D03*
D20*
X149250000Y-118850000D03*
X147750000Y-118850000D03*
X151500000Y-119150000D03*
D21*
X150000000Y-120700000D03*
D20*
X150000000Y-119150000D03*
X148500000Y-119150000D03*
%TD*%
D16*
%TO.C,SW42*%
X165473000Y-203956000D03*
X163973000Y-203956000D03*
D17*
X162848000Y-202156000D03*
D16*
X162473000Y-203956000D03*
X160973000Y-203956000D03*
X164723000Y-204256000D03*
X163223000Y-204256000D03*
D17*
X162848000Y-206056000D03*
D16*
X161723000Y-204256000D03*
X160223000Y-204256000D03*
%TD*%
%TO.C,SW17*%
X147327000Y-150578000D03*
X145827000Y-150578000D03*
D17*
X144702000Y-148778000D03*
D16*
X144327000Y-150578000D03*
X142827000Y-150578000D03*
X146577000Y-150878000D03*
X145077000Y-150878000D03*
D17*
X144702000Y-152678000D03*
D16*
X143577000Y-150878000D03*
X142077000Y-150878000D03*
%TD*%
%TO.C,SW50*%
X126002000Y-120645000D03*
X124502000Y-120645000D03*
D17*
X123377000Y-118845000D03*
D16*
X123002000Y-120645000D03*
X121502000Y-120645000D03*
X125252000Y-120945000D03*
X123752000Y-120945000D03*
D17*
X123377000Y-122745000D03*
D16*
X122252000Y-120945000D03*
X120752000Y-120945000D03*
%TD*%
%TO.C,SW18*%
X136599000Y-150578000D03*
X135099000Y-150578000D03*
D17*
X133974000Y-148778000D03*
D16*
X133599000Y-150578000D03*
X132099000Y-150578000D03*
X135849000Y-150878000D03*
X134349000Y-150878000D03*
D17*
X133974000Y-152678000D03*
D16*
X132849000Y-150878000D03*
X131349000Y-150878000D03*
%TD*%
%TO.C,SW13*%
X126002000Y-141175000D03*
X124502000Y-141175000D03*
D17*
X123377000Y-139375000D03*
D16*
X123002000Y-141175000D03*
X121502000Y-141175000D03*
X125252000Y-141475000D03*
X123752000Y-141475000D03*
D17*
X123377000Y-143275000D03*
D16*
X122252000Y-141475000D03*
X120752000Y-141475000D03*
%TD*%
%TO.C,SW3*%
X136599000Y-120645000D03*
X135099000Y-120645000D03*
D17*
X133974000Y-118845000D03*
D16*
X133599000Y-120645000D03*
X132099000Y-120645000D03*
X135849000Y-120945000D03*
X134349000Y-120945000D03*
D17*
X133974000Y-122745000D03*
D16*
X132849000Y-120945000D03*
X131349000Y-120945000D03*
%TD*%
%TO.C,SW43*%
X152625000Y-203956000D03*
X151125000Y-203956000D03*
D17*
X150000000Y-202156000D03*
D16*
X149625000Y-203956000D03*
X148125000Y-203956000D03*
X151875000Y-204256000D03*
X150375000Y-204256000D03*
D17*
X150000000Y-206056000D03*
D16*
X148875000Y-204256000D03*
X147375000Y-204256000D03*
%TD*%
%TO.C,SW14*%
X179248000Y-150578000D03*
X177748000Y-150578000D03*
D17*
X176623000Y-148778000D03*
D16*
X176248000Y-150578000D03*
X174748000Y-150578000D03*
X178498000Y-150878000D03*
X176998000Y-150878000D03*
D17*
X176623000Y-152678000D03*
D16*
X175498000Y-150878000D03*
X173998000Y-150878000D03*
%TD*%
%TO.C,SW20*%
X179248000Y-160115000D03*
X177748000Y-160115000D03*
D17*
X176623000Y-158315000D03*
D16*
X176248000Y-160115000D03*
X174748000Y-160115000D03*
X178498000Y-160415000D03*
X176998000Y-160415000D03*
D17*
X176623000Y-162215000D03*
D16*
X175498000Y-160415000D03*
X173998000Y-160415000D03*
%TD*%
D18*
%TO.C,SW33*%
X154125000Y-181704000D03*
X152625000Y-181704000D03*
X151125000Y-181704000D03*
D19*
X150000000Y-178654000D03*
D18*
X149625000Y-181704000D03*
X148125000Y-181704000D03*
X146625000Y-181704000D03*
X153375000Y-182004000D03*
X151875000Y-182004000D03*
X150375000Y-182004000D03*
D19*
X150000000Y-185054000D03*
D18*
X148875000Y-182004000D03*
X147375000Y-182004000D03*
X145875000Y-182004000D03*
%TD*%
D16*
%TO.C,SW19*%
X126002000Y-150578000D03*
X124502000Y-150578000D03*
D17*
X123377000Y-148778000D03*
D16*
X123002000Y-150578000D03*
X121502000Y-150578000D03*
X125252000Y-150878000D03*
X123752000Y-150878000D03*
D17*
X123377000Y-152678000D03*
D16*
X122252000Y-150878000D03*
X120752000Y-150878000D03*
%TD*%
%TO.C,SW16*%
X157923000Y-150578000D03*
X156423000Y-150578000D03*
D17*
X155298000Y-148778000D03*
D16*
X154923000Y-150578000D03*
X153423000Y-150578000D03*
X157173000Y-150878000D03*
X155673000Y-150878000D03*
D17*
X155298000Y-152678000D03*
D16*
X154173000Y-150878000D03*
X152673000Y-150878000D03*
%TD*%
%TO.C,SW25*%
X126002000Y-160115000D03*
X124502000Y-160115000D03*
D17*
X123377000Y-158315000D03*
D16*
X123002000Y-160115000D03*
X121502000Y-160115000D03*
X125252000Y-160415000D03*
X123752000Y-160415000D03*
D17*
X123377000Y-162215000D03*
D16*
X122252000Y-160415000D03*
X120752000Y-160415000D03*
%TD*%
D18*
%TO.C,SW27*%
X166973000Y-170578000D03*
X165473000Y-170578000D03*
X163973000Y-170578000D03*
D19*
X162848000Y-167528000D03*
D18*
X162473000Y-170578000D03*
X160973000Y-170578000D03*
X159473000Y-170578000D03*
X166223000Y-170878000D03*
X164723000Y-170878000D03*
X163223000Y-170878000D03*
D19*
X162848000Y-173928000D03*
D18*
X161723000Y-170878000D03*
X160223000Y-170878000D03*
X158723000Y-170878000D03*
%TD*%
%TO.C,SW35*%
X128430000Y-181704000D03*
X126930000Y-181704000D03*
X125430000Y-181704000D03*
D19*
X124305000Y-178654000D03*
D18*
X123930000Y-181704000D03*
X122430000Y-181704000D03*
X120930000Y-181704000D03*
X127680000Y-182004000D03*
X126180000Y-182004000D03*
X124680000Y-182004000D03*
D19*
X124305000Y-185054000D03*
D18*
X123180000Y-182004000D03*
X121680000Y-182004000D03*
X120180000Y-182004000D03*
%TD*%
D16*
%TO.C,SW21*%
X168651000Y-160115000D03*
X167151000Y-160115000D03*
D17*
X166026000Y-158315000D03*
D16*
X165651000Y-160115000D03*
X164151000Y-160115000D03*
X167901000Y-160415000D03*
X166401000Y-160415000D03*
D17*
X166026000Y-162215000D03*
D16*
X164901000Y-160415000D03*
X163401000Y-160415000D03*
%TD*%
%TO.C,SW15*%
X168651000Y-150578000D03*
X167151000Y-150578000D03*
D17*
X166026000Y-148778000D03*
D16*
X165651000Y-150578000D03*
X164151000Y-150578000D03*
X167901000Y-150878000D03*
X166401000Y-150878000D03*
D17*
X166026000Y-152678000D03*
D16*
X164901000Y-150878000D03*
X163401000Y-150878000D03*
%TD*%
%TO.C,SW4*%
X179248000Y-132300000D03*
X177748000Y-132300000D03*
D17*
X176623000Y-130500000D03*
D16*
X176248000Y-132300000D03*
X174748000Y-132300000D03*
X178498000Y-132600000D03*
X176998000Y-132600000D03*
D17*
X176623000Y-134400000D03*
D16*
X175498000Y-132600000D03*
X173998000Y-132600000D03*
%TD*%
%TO.C,SW8*%
X179248000Y-141175000D03*
X177748000Y-141175000D03*
D17*
X176623000Y-139375000D03*
D16*
X176248000Y-141175000D03*
X174748000Y-141175000D03*
X178498000Y-141475000D03*
X176998000Y-141475000D03*
D17*
X176623000Y-143275000D03*
D16*
X175498000Y-141475000D03*
X173998000Y-141475000D03*
%TD*%
D18*
%TO.C,SW34*%
X141277000Y-181704000D03*
X139777000Y-181704000D03*
X138277000Y-181704000D03*
D19*
X137152000Y-178654000D03*
D18*
X136777000Y-181704000D03*
X135277000Y-181704000D03*
X133777000Y-181704000D03*
X140527000Y-182004000D03*
X139027000Y-182004000D03*
X137527000Y-182004000D03*
D19*
X137152000Y-185054000D03*
D18*
X136027000Y-182004000D03*
X134527000Y-182004000D03*
X133027000Y-182004000D03*
%TD*%
D16*
%TO.C,SW11*%
X147327000Y-141175000D03*
X145827000Y-141175000D03*
D17*
X144702000Y-139375000D03*
D16*
X144327000Y-141175000D03*
X142827000Y-141175000D03*
X146577000Y-141475000D03*
X145077000Y-141475000D03*
D17*
X144702000Y-143275000D03*
D16*
X143577000Y-141475000D03*
X142077000Y-141475000D03*
%TD*%
%TO.C,SW44*%
X139777000Y-203956000D03*
X138277000Y-203956000D03*
D17*
X137152000Y-202156000D03*
D16*
X136777000Y-203956000D03*
X135277000Y-203956000D03*
X139027000Y-204256000D03*
X137527000Y-204256000D03*
D17*
X137152000Y-206056000D03*
D16*
X136027000Y-204256000D03*
X134527000Y-204256000D03*
%TD*%
%TO.C,SW45*%
X126930000Y-203956000D03*
X125430000Y-203956000D03*
D17*
X124305000Y-202156000D03*
D16*
X123930000Y-203956000D03*
X122430000Y-203956000D03*
X126180000Y-204256000D03*
X124680000Y-204256000D03*
D17*
X124305000Y-206056000D03*
D16*
X123180000Y-204256000D03*
X121680000Y-204256000D03*
%TD*%
D18*
%TO.C,SW29*%
X141277000Y-170578000D03*
X139777000Y-170578000D03*
X138277000Y-170578000D03*
D19*
X137152000Y-167528000D03*
D18*
X136777000Y-170578000D03*
X135277000Y-170578000D03*
X133777000Y-170578000D03*
X140527000Y-170878000D03*
X139027000Y-170878000D03*
X137527000Y-170878000D03*
D19*
X137152000Y-173928000D03*
D18*
X136027000Y-170878000D03*
X134527000Y-170878000D03*
X133027000Y-170878000D03*
%TD*%
%TO.C,SW26*%
X179820000Y-170578000D03*
X178320000Y-170578000D03*
X176820000Y-170578000D03*
D19*
X175695000Y-167528000D03*
D18*
X175320000Y-170578000D03*
X173820000Y-170578000D03*
X172320000Y-170578000D03*
X179070000Y-170878000D03*
X177570000Y-170878000D03*
X176070000Y-170878000D03*
D19*
X175695000Y-173928000D03*
D18*
X174570000Y-170878000D03*
X173070000Y-170878000D03*
X171570000Y-170878000D03*
%TD*%
D16*
%TO.C,SW6*%
X136599000Y-132300000D03*
X135099000Y-132300000D03*
D17*
X133974000Y-130500000D03*
D16*
X133599000Y-132300000D03*
X132099000Y-132300000D03*
X135849000Y-132600000D03*
X134349000Y-132600000D03*
D17*
X133974000Y-134400000D03*
D16*
X132849000Y-132600000D03*
X131349000Y-132600000D03*
%TD*%
D20*
%TO.C,SW47*%
X152250000Y-131750000D03*
X150750000Y-131750000D03*
D21*
X150000000Y-130200000D03*
D20*
X149250000Y-131750000D03*
X147750000Y-131750000D03*
X151500000Y-132050000D03*
D21*
X150000000Y-133600000D03*
D20*
X150000000Y-132050000D03*
X148500000Y-132050000D03*
%TD*%
D18*
%TO.C,SW37*%
X166973000Y-192830000D03*
X165473000Y-192830000D03*
X163973000Y-192830000D03*
D19*
X162848000Y-189780000D03*
D18*
X162473000Y-192830000D03*
X160973000Y-192830000D03*
X159473000Y-192830000D03*
X166223000Y-193130000D03*
X164723000Y-193130000D03*
X163223000Y-193130000D03*
D19*
X162848000Y-196180000D03*
D18*
X161723000Y-193130000D03*
X160223000Y-193130000D03*
X158723000Y-193130000D03*
%TD*%
D16*
%TO.C,SW41*%
X178320000Y-203956000D03*
X176820000Y-203956000D03*
D17*
X175695000Y-202156000D03*
D16*
X175320000Y-203956000D03*
X173820000Y-203956000D03*
X177570000Y-204256000D03*
X176070000Y-204256000D03*
D17*
X175695000Y-206056000D03*
D16*
X174570000Y-204256000D03*
X173070000Y-204256000D03*
%TD*%
D20*
%TO.C,SW49*%
X145627000Y-125413000D03*
X144127000Y-125413000D03*
D21*
X143377000Y-123863000D03*
D20*
X142627000Y-125413000D03*
X141127000Y-125413000D03*
X144877000Y-125713000D03*
D21*
X143377000Y-127263000D03*
D20*
X143377000Y-125713000D03*
X141877000Y-125713000D03*
%TD*%
D16*
%TO.C,SW1*%
X179248000Y-120645000D03*
X177748000Y-120645000D03*
D17*
X176623000Y-118845000D03*
D16*
X176248000Y-120645000D03*
X174748000Y-120645000D03*
X178498000Y-120945000D03*
D22*
X177411500Y-122745000D03*
D16*
X176998000Y-120945000D03*
X175498000Y-120945000D03*
D23*
X174461500Y-122620000D03*
D16*
X173998000Y-120945000D03*
%TD*%
D18*
%TO.C,SW28*%
X154125000Y-170578000D03*
X152625000Y-170578000D03*
X151125000Y-170578000D03*
D19*
X150000000Y-167528000D03*
D18*
X149625000Y-170578000D03*
X148125000Y-170578000D03*
X146625000Y-170578000D03*
X153375000Y-170878000D03*
X151875000Y-170878000D03*
X150375000Y-170878000D03*
D19*
X150000000Y-173928000D03*
D18*
X148875000Y-170878000D03*
X147375000Y-170878000D03*
X145875000Y-170878000D03*
%TD*%
%TO.C,SW32*%
X166973000Y-181704000D03*
X165473000Y-181704000D03*
X163973000Y-181704000D03*
D19*
X162848000Y-178654000D03*
D18*
X162473000Y-181704000D03*
X160973000Y-181704000D03*
X159473000Y-181704000D03*
X166223000Y-182004000D03*
X164723000Y-182004000D03*
X163223000Y-182004000D03*
D19*
X162848000Y-185054000D03*
D18*
X161723000Y-182004000D03*
X160223000Y-182004000D03*
X158723000Y-182004000D03*
%TD*%
%TO.C,SW36*%
X179820000Y-192830000D03*
X178320000Y-192830000D03*
X176820000Y-192830000D03*
D19*
X175695000Y-189780000D03*
D18*
X175320000Y-192830000D03*
X173820000Y-192830000D03*
X172320000Y-192830000D03*
X179070000Y-193130000D03*
X177570000Y-193130000D03*
X176070000Y-193130000D03*
D19*
X175695000Y-196180000D03*
D18*
X174570000Y-193130000D03*
X173070000Y-193130000D03*
X171570000Y-193130000D03*
%TD*%
D16*
%TO.C,SW12*%
X136599000Y-141175000D03*
X135099000Y-141175000D03*
D17*
X133974000Y-139375000D03*
D16*
X133599000Y-141175000D03*
X132099000Y-141175000D03*
X135849000Y-141475000D03*
X134349000Y-141475000D03*
D17*
X133974000Y-143275000D03*
D16*
X132849000Y-141475000D03*
X131349000Y-141475000D03*
%TD*%
D18*
%TO.C,SW40*%
X128430000Y-192830000D03*
X126930000Y-192830000D03*
X125430000Y-192830000D03*
D19*
X124305000Y-189780000D03*
D18*
X123930000Y-192830000D03*
X122430000Y-192830000D03*
X120930000Y-192830000D03*
X127680000Y-193130000D03*
X126180000Y-193130000D03*
X124680000Y-193130000D03*
D19*
X124305000Y-196180000D03*
D18*
X123180000Y-193130000D03*
X121680000Y-193130000D03*
X120180000Y-193130000D03*
%TD*%
D20*
%TO.C,SW48*%
X158873000Y-125413000D03*
X157373000Y-125413000D03*
D21*
X156623000Y-123863000D03*
D20*
X155873000Y-125413000D03*
X154373000Y-125413000D03*
X158123000Y-125713000D03*
D21*
X156623000Y-127263000D03*
D20*
X156623000Y-125713000D03*
X155123000Y-125713000D03*
%TD*%
D16*
%TO.C,SW7*%
X126002000Y-132300000D03*
X124502000Y-132300000D03*
D17*
X123377000Y-130500000D03*
D16*
X123002000Y-132300000D03*
X121502000Y-132300000D03*
X125252000Y-132600000D03*
X123752000Y-132600000D03*
D17*
X123377000Y-134400000D03*
D16*
X122252000Y-132600000D03*
X120752000Y-132600000D03*
%TD*%
%TO.C,SW9*%
X168651000Y-141175000D03*
X167151000Y-141175000D03*
D17*
X166026000Y-139375000D03*
D16*
X165651000Y-141175000D03*
X164151000Y-141175000D03*
X167901000Y-141475000D03*
X166401000Y-141475000D03*
D17*
X166026000Y-143275000D03*
D16*
X164901000Y-141475000D03*
X163401000Y-141475000D03*
%TD*%
D18*
%TO.C,SW30*%
X128430000Y-170578000D03*
X126930000Y-170578000D03*
X125430000Y-170578000D03*
D19*
X124305000Y-167528000D03*
D18*
X123930000Y-170578000D03*
X122430000Y-170578000D03*
X120930000Y-170578000D03*
X127680000Y-170878000D03*
X126180000Y-170878000D03*
X124680000Y-170878000D03*
D19*
X124305000Y-173928000D03*
D18*
X123180000Y-170878000D03*
X121680000Y-170878000D03*
X120180000Y-170878000D03*
%TD*%
D16*
%TO.C,SW10*%
X157923000Y-141175000D03*
X156423000Y-141175000D03*
D17*
X155298000Y-139375000D03*
D16*
X154923000Y-141175000D03*
X153423000Y-141175000D03*
X157173000Y-141475000D03*
X155673000Y-141475000D03*
D17*
X155298000Y-143275000D03*
D16*
X154173000Y-141475000D03*
X152673000Y-141475000D03*
%TD*%
%TO.C,SW23*%
X147327000Y-160115000D03*
X145827000Y-160115000D03*
D17*
X144702000Y-158315000D03*
D16*
X144327000Y-160115000D03*
X142827000Y-160115000D03*
X146577000Y-160415000D03*
X145077000Y-160415000D03*
D17*
X144702000Y-162215000D03*
D16*
X143577000Y-160415000D03*
X142077000Y-160415000D03*
%TD*%
%TO.C,SW5*%
X168651000Y-132300000D03*
X167151000Y-132300000D03*
D17*
X166026000Y-130500000D03*
D16*
X165651000Y-132300000D03*
X164151000Y-132300000D03*
X167901000Y-132600000D03*
X166401000Y-132600000D03*
D17*
X166026000Y-134400000D03*
D16*
X164901000Y-132600000D03*
X163401000Y-132600000D03*
%TD*%
M02*
