%TF.GenerationSoftware,KiCad,Pcbnew,10.0.6*%
%TF.CreationDate,2026-10-04T14:50:32-04:00*%
%TF.ProjectId,ai_calc,61695f63-616c-4632-9e6b-696361645f70,0.1-geometry*%
%TF.SameCoordinates,Original*%
%TF.FileFunction,Drillmap*%
%TF.FilePolarity,Positive*%
%FSLAX45Y45*%
G04 Gerber Fmt 4.5, Leading zero omitted, Abs format (unit mm)*
G04 Created by KiCad (PCBNEW 10.0.6) date 2026-10-04 14:50:32*
%MOMM*%
%LPD*%
G01*
G04 APERTURE LIST*
%ADD10C,0.100000*%
%ADD11C,0.050000*%
%ADD12C,0.200000*%
%ADD13C,0.420000*%
%ADD14C,0.440000*%
%ADD15C,0.600000*%
G04 APERTURE END LIST*
D10*
X11421200Y-11958800D02*
X11461300Y-12092000D01*
D11*
X11427600Y-8290000D02*
X11890000Y-8290000D01*
D10*
X11461300Y-12092000D02*
X11532600Y-12782100D01*
D11*
X11463300Y-7952800D02*
X11427600Y-8290000D01*
D10*
X11476800Y-7200700D02*
X11463300Y-7952800D01*
X11532600Y-12782100D02*
X11707300Y-13969700D01*
X11675500Y-7200700D02*
X11476800Y-7200700D01*
X11707300Y-13969700D02*
X11793000Y-14211100D01*
X11763000Y-7188000D02*
X11675500Y-7200700D01*
D11*
X11777067Y-7183463D02*
X11763000Y-7188000D01*
X11790805Y-7178164D02*
X11777067Y-7183463D01*
D10*
X11793000Y-14211100D02*
X11793200Y-20574300D01*
X11793200Y-20574300D02*
X11814700Y-20719400D01*
D11*
X11804266Y-7172197D02*
X11790805Y-7178164D01*
D10*
X11814700Y-20719400D02*
X11852300Y-20810000D01*
D11*
X11817419Y-7165576D02*
X11804266Y-7172197D01*
X11830231Y-7158318D02*
X11817419Y-7165576D01*
X11842671Y-7150441D02*
X11830231Y-7158318D01*
D10*
X11852300Y-20810000D02*
X11906700Y-20891500D01*
D11*
X11854710Y-7141962D02*
X11842671Y-7150441D01*
X11866318Y-7132903D02*
X11854710Y-7141962D01*
X11877468Y-7123285D02*
X11866318Y-7132903D01*
X11888132Y-7113132D02*
X11877468Y-7123285D01*
X11890000Y-8290000D02*
X11890000Y-11400000D01*
X11890000Y-11400000D02*
X11421200Y-11958800D01*
X11898285Y-7102468D02*
X11888132Y-7113132D01*
D10*
X11906700Y-20891500D02*
X11976000Y-20960800D01*
D11*
X11907903Y-7091318D02*
X11898285Y-7102468D01*
X11916962Y-7079710D02*
X11907903Y-7091318D01*
X11925441Y-7067671D02*
X11916962Y-7079710D01*
X11933318Y-7055231D02*
X11925441Y-7067671D01*
X11940576Y-7042419D02*
X11933318Y-7055231D01*
X11947197Y-7029266D02*
X11940576Y-7042419D01*
X11953164Y-7015805D02*
X11947197Y-7029266D01*
X11958463Y-7002067D02*
X11953164Y-7015805D01*
X11963082Y-6988085D02*
X11958463Y-7002067D01*
X11967009Y-6973894D02*
X11963082Y-6988085D01*
X11970235Y-6959527D02*
X11967009Y-6973894D01*
X11972753Y-6945019D02*
X11970235Y-6959527D01*
X11974555Y-6930405D02*
X11972753Y-6945019D01*
X11975639Y-6915720D02*
X11974555Y-6930405D01*
X11976000Y-6901000D02*
X11975639Y-6915720D01*
D10*
X11976000Y-20960800D02*
X12057500Y-21015200D01*
D11*
X12028209Y-6789476D02*
X11976000Y-6901000D01*
X12038257Y-6780809D02*
X12028209Y-6789476D01*
X12049810Y-6769810D02*
X12038257Y-6780809D01*
D10*
X12057500Y-21015200D02*
X12148100Y-21052700D01*
D11*
X12060809Y-6758257D02*
X12049810Y-6769810D01*
X12065036Y-6326643D02*
X12071228Y-6333822D01*
X12071228Y-6333822D02*
X12081042Y-6346398D01*
X12071228Y-6746178D02*
X12060809Y-6758257D01*
X12081042Y-6346398D02*
X12090228Y-6359440D01*
X12081042Y-6733602D02*
X12071228Y-6746178D01*
X12090228Y-6359440D02*
X12098762Y-6372917D01*
X12090228Y-6720560D02*
X12081042Y-6733602D01*
X12098762Y-6372917D02*
X12106624Y-6386796D01*
X12098762Y-6707083D02*
X12090228Y-6720560D01*
X12106624Y-6386796D02*
X12113796Y-6401044D01*
X12106624Y-6693204D02*
X12098762Y-6707083D01*
X12106900Y-6310400D02*
X12065036Y-6326643D01*
X12113796Y-6401044D02*
X12120261Y-6415628D01*
X12113796Y-6678955D02*
X12106624Y-6693204D01*
X12120261Y-6415628D02*
X12126002Y-6430511D01*
X12120261Y-6664372D02*
X12113796Y-6678955D01*
X12126002Y-6430511D02*
X12131006Y-6445657D01*
X12126002Y-6649489D02*
X12120261Y-6664372D01*
X12131006Y-6445657D02*
X12135260Y-6461031D01*
X12131006Y-6634342D02*
X12126002Y-6649489D01*
X12135260Y-6461031D02*
X12138755Y-6476596D01*
X12135260Y-6618968D02*
X12131006Y-6634342D01*
X12138755Y-6476596D02*
X12141482Y-6492312D01*
X12138755Y-6603404D02*
X12135260Y-6618968D01*
X12141482Y-6492312D02*
X12143435Y-6508144D01*
X12141482Y-6587687D02*
X12138755Y-6603404D01*
X12143435Y-6508144D02*
X12144608Y-6524053D01*
X12143435Y-6571855D02*
X12141482Y-6587687D01*
X12144608Y-6524053D02*
X12145000Y-6540000D01*
X12144608Y-6555947D02*
X12143435Y-6571855D01*
X12145000Y-6540000D02*
X12144608Y-6555947D01*
D10*
X12148100Y-21052700D02*
X12293200Y-21074300D01*
D11*
X12252100Y-6287200D02*
X12106900Y-6310400D01*
D10*
X12293200Y-21074300D02*
X12657200Y-21074300D01*
X12654900Y-20980700D02*
X12670200Y-20903800D01*
X12657200Y-21074300D02*
X12654900Y-20980700D01*
X12670200Y-20903800D02*
X12720400Y-20797600D01*
X12720400Y-20797600D02*
X12770100Y-20737000D01*
X12770100Y-20737000D02*
X12899900Y-20650300D01*
D11*
X12776900Y-6252000D02*
X12252100Y-6287200D01*
D10*
X12899900Y-20650300D02*
X12974900Y-20627600D01*
X12974900Y-20627600D02*
X13092200Y-20621800D01*
X13092200Y-20621800D02*
X13241500Y-20667100D01*
X13241500Y-20667100D02*
X13362200Y-20766100D01*
X13362200Y-20766100D02*
X13435800Y-20903800D01*
X13420700Y-6224800D02*
X12776900Y-6252000D01*
X13435800Y-20903800D02*
X13451100Y-20980700D01*
X13448800Y-21074300D02*
X16555400Y-21074300D01*
X13451100Y-20980700D02*
X13448800Y-21074300D01*
X13597900Y-6198700D02*
X13420700Y-6224800D01*
X14749700Y-6198700D02*
X13597900Y-6198700D01*
X14750600Y-7648600D02*
X14749700Y-6198700D01*
X14764800Y-7705200D02*
X14750600Y-7648600D01*
X14794800Y-7755200D02*
X14764800Y-7705200D01*
X14838000Y-7794300D02*
X14794800Y-7755200D01*
X14909600Y-7824000D02*
X14838000Y-7794300D01*
X16547000Y-20993400D02*
X16554700Y-20915300D01*
X16554700Y-20915300D02*
X16577500Y-20840300D01*
X16555400Y-21074300D02*
X16547000Y-20993400D01*
X16577500Y-20840300D02*
X16637800Y-20739600D01*
X16637800Y-20739600D02*
X16693300Y-20684200D01*
X16693300Y-20684200D02*
X16793900Y-20623800D01*
X16793900Y-20623800D02*
X16947000Y-20593400D01*
X16947000Y-20593400D02*
X17100100Y-20623800D01*
X17100100Y-20623800D02*
X17200800Y-20684200D01*
X17200800Y-20684200D02*
X17256200Y-20739600D01*
D11*
X17240000Y-8633000D02*
X17240000Y-9933000D01*
X17240000Y-8633000D02*
G75*
G02*
X17340000Y-8633000I50000J0D01*
G01*
D10*
X17256200Y-20739600D02*
X17316600Y-20840300D01*
X17316600Y-20840300D02*
X17339300Y-20915300D01*
X17338600Y-21074300D02*
X17755700Y-21071900D01*
X17339300Y-20915300D02*
X17347000Y-20993400D01*
D11*
X17340000Y-8633000D02*
X17340000Y-9933000D01*
X17340000Y-9933000D02*
G75*
G02*
X17240000Y-9933000I-50000J0D01*
G01*
D10*
X17347000Y-20993400D02*
X17338600Y-21074300D01*
X17755700Y-21071900D02*
X17851800Y-21052800D01*
X17851800Y-21052800D02*
X17942400Y-21015300D01*
X17942400Y-21015300D02*
X18060300Y-20927900D01*
X18060300Y-20927900D02*
X18122400Y-20852100D01*
X18122400Y-20852100D02*
X18185200Y-20719500D01*
X18185200Y-20719500D02*
X18204300Y-20623400D01*
X18204300Y-20623400D02*
X18207000Y-14211100D01*
X18207000Y-14211100D02*
X18293000Y-13967800D01*
X18293000Y-13967800D02*
X18374700Y-13447300D01*
X18365000Y-7827700D02*
X14909600Y-7824000D01*
D11*
X18365000Y-7827700D02*
X18365000Y-11600000D01*
X18365000Y-11600000D02*
X18585800Y-11917000D01*
D10*
X18374700Y-13447300D02*
X18419500Y-13058900D01*
X18419500Y-13058900D02*
X18467100Y-12785000D01*
X18467100Y-12785000D02*
X18538700Y-12092000D01*
X18538700Y-12092000D02*
X18585800Y-11917000D01*
D12*
D13*
X12675000Y-13490000D02*
X13095000Y-13910000D01*
X13095000Y-13490000D02*
X12675000Y-13910000D01*
X12840000Y-19622500D02*
X13260000Y-20042500D01*
X13260000Y-19622500D02*
X12840000Y-20042500D01*
D10*
X12840000Y-19820000D02*
X12840000Y-19845000D01*
X13260000Y-19845000D02*
G75*
G02*
X12840000Y-19845000I-210000J0D01*
G01*
X13260000Y-19845000D02*
X13260000Y-19820000D01*
X13260000Y-19820000D02*
G75*
G03*
X12840000Y-19820000I-210000J0D01*
G01*
D13*
X12850000Y-18489000D02*
X13270000Y-18909000D01*
X13270000Y-18489000D02*
X12850000Y-18909000D01*
X12875000Y-17415000D02*
X13295000Y-17835000D01*
X13295000Y-17415000D02*
X12875000Y-17835000D01*
D10*
X12875000Y-17585000D02*
X12875000Y-17665000D01*
X13295000Y-17665000D02*
G75*
G02*
X12875000Y-17665000I-210000J0D01*
G01*
X13295000Y-17665000D02*
X13295000Y-17585000D01*
X13295000Y-17585000D02*
G75*
G03*
X12875000Y-17585000I-210000J0D01*
G01*
D13*
X16700000Y-19627500D02*
X17120000Y-20047500D01*
X17120000Y-19627500D02*
X16700000Y-20047500D01*
D10*
X16700000Y-19815000D02*
X16700000Y-19860000D01*
X17120000Y-19860000D02*
G75*
G02*
X16700000Y-19860000I-210000J0D01*
G01*
X17120000Y-19860000D02*
X17120000Y-19815000D01*
X17120000Y-19815000D02*
G75*
G03*
X16700000Y-19815000I-210000J0D01*
G01*
D13*
X16896000Y-14386000D02*
X17316000Y-14806000D01*
X17316000Y-14386000D02*
X16896000Y-14806000D01*
X16915000Y-13470000D02*
X17335000Y-13890000D01*
X17335000Y-13470000D02*
X16915000Y-13890000D01*
D14*
X17140000Y-17620000D02*
G75*
G02*
X16700000Y-17620000I-220000J0D01*
G01*
X16700000Y-17620000D02*
G75*
G02*
X17140000Y-17620000I220000J0D01*
G01*
D10*
X16700000Y-17600000D02*
X16700000Y-17640000D01*
X17140000Y-17640000D02*
G75*
G02*
X16700000Y-17640000I-220000J0D01*
G01*
X17140000Y-17640000D02*
X17140000Y-17600000D01*
X17140000Y-17600000D02*
G75*
G03*
X16700000Y-17600000I-220000J0D01*
G01*
D15*
X12750000Y-12310000D02*
X12750000Y-12910000D01*
X12450000Y-12610000D02*
X13050000Y-12610000D01*
X17400000Y-12310000D02*
X17400000Y-12910000D01*
X17100000Y-12610000D02*
X17700000Y-12610000D01*
D12*
X11676977Y-21390784D02*
X11676977Y-21190784D01*
X11676977Y-21190784D02*
X11724596Y-21190784D01*
X11724596Y-21190784D02*
X11753167Y-21200308D01*
X11753167Y-21200308D02*
X11772215Y-21219355D01*
X11772215Y-21219355D02*
X11781739Y-21238403D01*
X11781739Y-21238403D02*
X11791262Y-21276498D01*
X11791262Y-21276498D02*
X11791262Y-21305070D01*
X11791262Y-21305070D02*
X11781739Y-21343165D01*
X11781739Y-21343165D02*
X11772215Y-21362212D01*
X11772215Y-21362212D02*
X11753167Y-21381260D01*
X11753167Y-21381260D02*
X11724596Y-21390784D01*
X11724596Y-21390784D02*
X11676977Y-21390784D01*
X11876977Y-21390784D02*
X11876977Y-21257450D01*
X11876977Y-21295546D02*
X11886501Y-21276498D01*
X11886501Y-21276498D02*
X11896024Y-21266974D01*
X11896024Y-21266974D02*
X11915072Y-21257450D01*
X11915072Y-21257450D02*
X11934120Y-21257450D01*
X12000786Y-21390784D02*
X12000786Y-21257450D01*
X12000786Y-21190784D02*
X11991262Y-21200308D01*
X11991262Y-21200308D02*
X12000786Y-21209831D01*
X12000786Y-21209831D02*
X12010310Y-21200308D01*
X12010310Y-21200308D02*
X12000786Y-21190784D01*
X12000786Y-21190784D02*
X12000786Y-21209831D01*
X12124596Y-21390784D02*
X12105548Y-21381260D01*
X12105548Y-21381260D02*
X12096024Y-21362212D01*
X12096024Y-21362212D02*
X12096024Y-21190784D01*
X12229358Y-21390784D02*
X12210310Y-21381260D01*
X12210310Y-21381260D02*
X12200786Y-21362212D01*
X12200786Y-21362212D02*
X12200786Y-21190784D01*
X12457929Y-21390784D02*
X12457929Y-21190784D01*
X12457929Y-21190784D02*
X12524596Y-21333641D01*
X12524596Y-21333641D02*
X12591262Y-21190784D01*
X12591262Y-21190784D02*
X12591262Y-21390784D01*
X12772215Y-21390784D02*
X12772215Y-21286022D01*
X12772215Y-21286022D02*
X12762691Y-21266974D01*
X12762691Y-21266974D02*
X12743643Y-21257450D01*
X12743643Y-21257450D02*
X12705548Y-21257450D01*
X12705548Y-21257450D02*
X12686501Y-21266974D01*
X12772215Y-21381260D02*
X12753167Y-21390784D01*
X12753167Y-21390784D02*
X12705548Y-21390784D01*
X12705548Y-21390784D02*
X12686501Y-21381260D01*
X12686501Y-21381260D02*
X12676977Y-21362212D01*
X12676977Y-21362212D02*
X12676977Y-21343165D01*
X12676977Y-21343165D02*
X12686501Y-21324117D01*
X12686501Y-21324117D02*
X12705548Y-21314593D01*
X12705548Y-21314593D02*
X12753167Y-21314593D01*
X12753167Y-21314593D02*
X12772215Y-21305070D01*
X12867453Y-21257450D02*
X12867453Y-21457450D01*
X12867453Y-21266974D02*
X12886501Y-21257450D01*
X12886501Y-21257450D02*
X12924596Y-21257450D01*
X12924596Y-21257450D02*
X12943643Y-21266974D01*
X12943643Y-21266974D02*
X12953167Y-21276498D01*
X12953167Y-21276498D02*
X12962691Y-21295546D01*
X12962691Y-21295546D02*
X12962691Y-21352689D01*
X12962691Y-21352689D02*
X12953167Y-21371736D01*
X12953167Y-21371736D02*
X12943643Y-21381260D01*
X12943643Y-21381260D02*
X12924596Y-21390784D01*
X12924596Y-21390784D02*
X12886501Y-21390784D01*
X12886501Y-21390784D02*
X12867453Y-21381260D01*
X13048405Y-21371736D02*
X13057929Y-21381260D01*
X13057929Y-21381260D02*
X13048405Y-21390784D01*
X13048405Y-21390784D02*
X13038882Y-21381260D01*
X13038882Y-21381260D02*
X13048405Y-21371736D01*
X13048405Y-21371736D02*
X13048405Y-21390784D01*
X13048405Y-21266974D02*
X13057929Y-21276498D01*
X13057929Y-21276498D02*
X13048405Y-21286022D01*
X13048405Y-21286022D02*
X13038882Y-21276498D01*
X13038882Y-21276498D02*
X13048405Y-21266974D01*
X13048405Y-21266974D02*
X13048405Y-21286022D01*
X11216200Y-21619300D02*
X11416200Y-21819300D01*
X11416200Y-21619300D02*
X11216200Y-21819300D01*
X11762691Y-21677450D02*
X11762691Y-21810784D01*
X11715072Y-21601260D02*
X11667453Y-21744117D01*
X11667453Y-21744117D02*
X11791262Y-21744117D01*
X11867453Y-21791736D02*
X11876977Y-21801260D01*
X11876977Y-21801260D02*
X11867453Y-21810784D01*
X11867453Y-21810784D02*
X11857929Y-21801260D01*
X11857929Y-21801260D02*
X11867453Y-21791736D01*
X11867453Y-21791736D02*
X11867453Y-21810784D01*
X11953167Y-21629831D02*
X11962691Y-21620308D01*
X11962691Y-21620308D02*
X11981739Y-21610784D01*
X11981739Y-21610784D02*
X12029358Y-21610784D01*
X12029358Y-21610784D02*
X12048405Y-21620308D01*
X12048405Y-21620308D02*
X12057929Y-21629831D01*
X12057929Y-21629831D02*
X12067453Y-21648879D01*
X12067453Y-21648879D02*
X12067453Y-21667927D01*
X12067453Y-21667927D02*
X12057929Y-21696498D01*
X12057929Y-21696498D02*
X11943643Y-21810784D01*
X11943643Y-21810784D02*
X12067453Y-21810784D01*
X12191262Y-21610784D02*
X12210310Y-21610784D01*
X12210310Y-21610784D02*
X12229358Y-21620308D01*
X12229358Y-21620308D02*
X12238882Y-21629831D01*
X12238882Y-21629831D02*
X12248405Y-21648879D01*
X12248405Y-21648879D02*
X12257929Y-21686974D01*
X12257929Y-21686974D02*
X12257929Y-21734593D01*
X12257929Y-21734593D02*
X12248405Y-21772689D01*
X12248405Y-21772689D02*
X12238882Y-21791736D01*
X12238882Y-21791736D02*
X12229358Y-21801260D01*
X12229358Y-21801260D02*
X12210310Y-21810784D01*
X12210310Y-21810784D02*
X12191262Y-21810784D01*
X12191262Y-21810784D02*
X12172215Y-21801260D01*
X12172215Y-21801260D02*
X12162691Y-21791736D01*
X12162691Y-21791736D02*
X12153167Y-21772689D01*
X12153167Y-21772689D02*
X12143643Y-21734593D01*
X12143643Y-21734593D02*
X12143643Y-21686974D01*
X12143643Y-21686974D02*
X12153167Y-21648879D01*
X12153167Y-21648879D02*
X12162691Y-21629831D01*
X12162691Y-21629831D02*
X12172215Y-21620308D01*
X12172215Y-21620308D02*
X12191262Y-21610784D01*
X12381739Y-21610784D02*
X12400786Y-21610784D01*
X12400786Y-21610784D02*
X12419834Y-21620308D01*
X12419834Y-21620308D02*
X12429358Y-21629831D01*
X12429358Y-21629831D02*
X12438882Y-21648879D01*
X12438882Y-21648879D02*
X12448405Y-21686974D01*
X12448405Y-21686974D02*
X12448405Y-21734593D01*
X12448405Y-21734593D02*
X12438882Y-21772689D01*
X12438882Y-21772689D02*
X12429358Y-21791736D01*
X12429358Y-21791736D02*
X12419834Y-21801260D01*
X12419834Y-21801260D02*
X12400786Y-21810784D01*
X12400786Y-21810784D02*
X12381739Y-21810784D01*
X12381739Y-21810784D02*
X12362691Y-21801260D01*
X12362691Y-21801260D02*
X12353167Y-21791736D01*
X12353167Y-21791736D02*
X12343643Y-21772689D01*
X12343643Y-21772689D02*
X12334120Y-21734593D01*
X12334120Y-21734593D02*
X12334120Y-21686974D01*
X12334120Y-21686974D02*
X12343643Y-21648879D01*
X12343643Y-21648879D02*
X12353167Y-21629831D01*
X12353167Y-21629831D02*
X12362691Y-21620308D01*
X12362691Y-21620308D02*
X12381739Y-21610784D01*
X12534120Y-21810784D02*
X12534120Y-21677450D01*
X12534120Y-21696498D02*
X12543643Y-21686974D01*
X12543643Y-21686974D02*
X12562691Y-21677450D01*
X12562691Y-21677450D02*
X12591263Y-21677450D01*
X12591263Y-21677450D02*
X12610310Y-21686974D01*
X12610310Y-21686974D02*
X12619834Y-21706022D01*
X12619834Y-21706022D02*
X12619834Y-21810784D01*
X12619834Y-21706022D02*
X12629358Y-21686974D01*
X12629358Y-21686974D02*
X12648405Y-21677450D01*
X12648405Y-21677450D02*
X12676977Y-21677450D01*
X12676977Y-21677450D02*
X12696024Y-21686974D01*
X12696024Y-21686974D02*
X12705548Y-21706022D01*
X12705548Y-21706022D02*
X12705548Y-21810784D01*
X12800786Y-21810784D02*
X12800786Y-21677450D01*
X12800786Y-21696498D02*
X12810310Y-21686974D01*
X12810310Y-21686974D02*
X12829358Y-21677450D01*
X12829358Y-21677450D02*
X12857929Y-21677450D01*
X12857929Y-21677450D02*
X12876977Y-21686974D01*
X12876977Y-21686974D02*
X12886501Y-21706022D01*
X12886501Y-21706022D02*
X12886501Y-21810784D01*
X12886501Y-21706022D02*
X12896024Y-21686974D01*
X12896024Y-21686974D02*
X12915072Y-21677450D01*
X12915072Y-21677450D02*
X12943643Y-21677450D01*
X12943643Y-21677450D02*
X12962691Y-21686974D01*
X12962691Y-21686974D02*
X12972215Y-21706022D01*
X12972215Y-21706022D02*
X12972215Y-21810784D01*
X13362691Y-21601260D02*
X13191263Y-21858403D01*
X13619834Y-21610784D02*
X13638882Y-21610784D01*
X13638882Y-21610784D02*
X13657929Y-21620308D01*
X13657929Y-21620308D02*
X13667453Y-21629831D01*
X13667453Y-21629831D02*
X13676977Y-21648879D01*
X13676977Y-21648879D02*
X13686501Y-21686974D01*
X13686501Y-21686974D02*
X13686501Y-21734593D01*
X13686501Y-21734593D02*
X13676977Y-21772689D01*
X13676977Y-21772689D02*
X13667453Y-21791736D01*
X13667453Y-21791736D02*
X13657929Y-21801260D01*
X13657929Y-21801260D02*
X13638882Y-21810784D01*
X13638882Y-21810784D02*
X13619834Y-21810784D01*
X13619834Y-21810784D02*
X13600786Y-21801260D01*
X13600786Y-21801260D02*
X13591263Y-21791736D01*
X13591263Y-21791736D02*
X13581739Y-21772689D01*
X13581739Y-21772689D02*
X13572215Y-21734593D01*
X13572215Y-21734593D02*
X13572215Y-21686974D01*
X13572215Y-21686974D02*
X13581739Y-21648879D01*
X13581739Y-21648879D02*
X13591263Y-21629831D01*
X13591263Y-21629831D02*
X13600786Y-21620308D01*
X13600786Y-21620308D02*
X13619834Y-21610784D01*
X13772215Y-21791736D02*
X13781739Y-21801260D01*
X13781739Y-21801260D02*
X13772215Y-21810784D01*
X13772215Y-21810784D02*
X13762691Y-21801260D01*
X13762691Y-21801260D02*
X13772215Y-21791736D01*
X13772215Y-21791736D02*
X13772215Y-21810784D01*
X13972215Y-21810784D02*
X13857929Y-21810784D01*
X13915072Y-21810784D02*
X13915072Y-21610784D01*
X13915072Y-21610784D02*
X13896025Y-21639355D01*
X13896025Y-21639355D02*
X13876977Y-21658403D01*
X13876977Y-21658403D02*
X13857929Y-21667927D01*
X14143644Y-21610784D02*
X14105548Y-21610784D01*
X14105548Y-21610784D02*
X14086501Y-21620308D01*
X14086501Y-21620308D02*
X14076977Y-21629831D01*
X14076977Y-21629831D02*
X14057929Y-21658403D01*
X14057929Y-21658403D02*
X14048406Y-21696498D01*
X14048406Y-21696498D02*
X14048406Y-21772689D01*
X14048406Y-21772689D02*
X14057929Y-21791736D01*
X14057929Y-21791736D02*
X14067453Y-21801260D01*
X14067453Y-21801260D02*
X14086501Y-21810784D01*
X14086501Y-21810784D02*
X14124596Y-21810784D01*
X14124596Y-21810784D02*
X14143644Y-21801260D01*
X14143644Y-21801260D02*
X14153167Y-21791736D01*
X14153167Y-21791736D02*
X14162691Y-21772689D01*
X14162691Y-21772689D02*
X14162691Y-21725070D01*
X14162691Y-21725070D02*
X14153167Y-21706022D01*
X14153167Y-21706022D02*
X14143644Y-21696498D01*
X14143644Y-21696498D02*
X14124596Y-21686974D01*
X14124596Y-21686974D02*
X14086501Y-21686974D01*
X14086501Y-21686974D02*
X14067453Y-21696498D01*
X14067453Y-21696498D02*
X14057929Y-21706022D01*
X14057929Y-21706022D02*
X14048406Y-21725070D01*
X14343644Y-21610784D02*
X14248406Y-21610784D01*
X14248406Y-21610784D02*
X14238882Y-21706022D01*
X14238882Y-21706022D02*
X14248406Y-21696498D01*
X14248406Y-21696498D02*
X14267453Y-21686974D01*
X14267453Y-21686974D02*
X14315072Y-21686974D01*
X14315072Y-21686974D02*
X14334120Y-21696498D01*
X14334120Y-21696498D02*
X14343644Y-21706022D01*
X14343644Y-21706022D02*
X14353167Y-21725070D01*
X14353167Y-21725070D02*
X14353167Y-21772689D01*
X14353167Y-21772689D02*
X14343644Y-21791736D01*
X14343644Y-21791736D02*
X14334120Y-21801260D01*
X14334120Y-21801260D02*
X14315072Y-21810784D01*
X14315072Y-21810784D02*
X14267453Y-21810784D01*
X14267453Y-21810784D02*
X14248406Y-21801260D01*
X14248406Y-21801260D02*
X14238882Y-21791736D01*
X14524596Y-21677450D02*
X14524596Y-21810784D01*
X14476977Y-21601260D02*
X14429358Y-21744117D01*
X14429358Y-21744117D02*
X14553167Y-21744117D01*
X14619834Y-21610784D02*
X14619834Y-21648879D01*
X14696025Y-21610784D02*
X14696025Y-21648879D01*
X14991263Y-21886974D02*
X14981739Y-21877450D01*
X14981739Y-21877450D02*
X14962691Y-21848879D01*
X14962691Y-21848879D02*
X14953168Y-21829831D01*
X14953168Y-21829831D02*
X14943644Y-21801260D01*
X14943644Y-21801260D02*
X14934120Y-21753641D01*
X14934120Y-21753641D02*
X14934120Y-21715546D01*
X14934120Y-21715546D02*
X14943644Y-21667927D01*
X14943644Y-21667927D02*
X14953168Y-21639355D01*
X14953168Y-21639355D02*
X14962691Y-21620308D01*
X14962691Y-21620308D02*
X14981739Y-21591736D01*
X14981739Y-21591736D02*
X14991263Y-21582212D01*
X15153168Y-21677450D02*
X15153168Y-21810784D01*
X15105548Y-21601260D02*
X15057929Y-21744117D01*
X15057929Y-21744117D02*
X15181739Y-21744117D01*
X15410310Y-21810784D02*
X15410310Y-21610784D01*
X15496025Y-21810784D02*
X15496025Y-21706022D01*
X15496025Y-21706022D02*
X15486501Y-21686974D01*
X15486501Y-21686974D02*
X15467453Y-21677450D01*
X15467453Y-21677450D02*
X15438882Y-21677450D01*
X15438882Y-21677450D02*
X15419834Y-21686974D01*
X15419834Y-21686974D02*
X15410310Y-21696498D01*
X15619834Y-21810784D02*
X15600787Y-21801260D01*
X15600787Y-21801260D02*
X15591263Y-21791736D01*
X15591263Y-21791736D02*
X15581739Y-21772689D01*
X15581739Y-21772689D02*
X15581739Y-21715546D01*
X15581739Y-21715546D02*
X15591263Y-21696498D01*
X15591263Y-21696498D02*
X15600787Y-21686974D01*
X15600787Y-21686974D02*
X15619834Y-21677450D01*
X15619834Y-21677450D02*
X15648406Y-21677450D01*
X15648406Y-21677450D02*
X15667453Y-21686974D01*
X15667453Y-21686974D02*
X15676977Y-21696498D01*
X15676977Y-21696498D02*
X15686501Y-21715546D01*
X15686501Y-21715546D02*
X15686501Y-21772689D01*
X15686501Y-21772689D02*
X15676977Y-21791736D01*
X15676977Y-21791736D02*
X15667453Y-21801260D01*
X15667453Y-21801260D02*
X15648406Y-21810784D01*
X15648406Y-21810784D02*
X15619834Y-21810784D01*
X15800787Y-21810784D02*
X15781739Y-21801260D01*
X15781739Y-21801260D02*
X15772215Y-21782212D01*
X15772215Y-21782212D02*
X15772215Y-21610784D01*
X15953168Y-21801260D02*
X15934120Y-21810784D01*
X15934120Y-21810784D02*
X15896025Y-21810784D01*
X15896025Y-21810784D02*
X15876977Y-21801260D01*
X15876977Y-21801260D02*
X15867453Y-21782212D01*
X15867453Y-21782212D02*
X15867453Y-21706022D01*
X15867453Y-21706022D02*
X15876977Y-21686974D01*
X15876977Y-21686974D02*
X15896025Y-21677450D01*
X15896025Y-21677450D02*
X15934120Y-21677450D01*
X15934120Y-21677450D02*
X15953168Y-21686974D01*
X15953168Y-21686974D02*
X15962691Y-21706022D01*
X15962691Y-21706022D02*
X15962691Y-21725070D01*
X15962691Y-21725070D02*
X15867453Y-21744117D01*
X16038882Y-21801260D02*
X16057930Y-21810784D01*
X16057930Y-21810784D02*
X16096025Y-21810784D01*
X16096025Y-21810784D02*
X16115072Y-21801260D01*
X16115072Y-21801260D02*
X16124596Y-21782212D01*
X16124596Y-21782212D02*
X16124596Y-21772689D01*
X16124596Y-21772689D02*
X16115072Y-21753641D01*
X16115072Y-21753641D02*
X16096025Y-21744117D01*
X16096025Y-21744117D02*
X16067453Y-21744117D01*
X16067453Y-21744117D02*
X16048406Y-21734593D01*
X16048406Y-21734593D02*
X16038882Y-21715546D01*
X16038882Y-21715546D02*
X16038882Y-21706022D01*
X16038882Y-21706022D02*
X16048406Y-21686974D01*
X16048406Y-21686974D02*
X16067453Y-21677450D01*
X16067453Y-21677450D02*
X16096025Y-21677450D01*
X16096025Y-21677450D02*
X16115072Y-21686974D01*
X16362692Y-21734593D02*
X16515073Y-21734593D01*
X16438882Y-21810784D02*
X16438882Y-21658403D01*
X16743644Y-21610784D02*
X16867454Y-21610784D01*
X16867454Y-21610784D02*
X16800787Y-21686974D01*
X16800787Y-21686974D02*
X16829358Y-21686974D01*
X16829358Y-21686974D02*
X16848406Y-21696498D01*
X16848406Y-21696498D02*
X16857930Y-21706022D01*
X16857930Y-21706022D02*
X16867454Y-21725070D01*
X16867454Y-21725070D02*
X16867454Y-21772689D01*
X16867454Y-21772689D02*
X16857930Y-21791736D01*
X16857930Y-21791736D02*
X16848406Y-21801260D01*
X16848406Y-21801260D02*
X16829358Y-21810784D01*
X16829358Y-21810784D02*
X16772215Y-21810784D01*
X16772215Y-21810784D02*
X16753168Y-21801260D01*
X16753168Y-21801260D02*
X16743644Y-21791736D01*
X17096025Y-21801260D02*
X17115073Y-21810784D01*
X17115073Y-21810784D02*
X17153168Y-21810784D01*
X17153168Y-21810784D02*
X17172216Y-21801260D01*
X17172216Y-21801260D02*
X17181739Y-21782212D01*
X17181739Y-21782212D02*
X17181739Y-21772689D01*
X17181739Y-21772689D02*
X17172216Y-21753641D01*
X17172216Y-21753641D02*
X17153168Y-21744117D01*
X17153168Y-21744117D02*
X17124596Y-21744117D01*
X17124596Y-21744117D02*
X17105549Y-21734593D01*
X17105549Y-21734593D02*
X17096025Y-21715546D01*
X17096025Y-21715546D02*
X17096025Y-21706022D01*
X17096025Y-21706022D02*
X17105549Y-21686974D01*
X17105549Y-21686974D02*
X17124596Y-21677450D01*
X17124596Y-21677450D02*
X17153168Y-21677450D01*
X17153168Y-21677450D02*
X17172216Y-21686974D01*
X17296025Y-21810784D02*
X17276977Y-21801260D01*
X17276977Y-21801260D02*
X17267454Y-21782212D01*
X17267454Y-21782212D02*
X17267454Y-21610784D01*
X17400787Y-21810784D02*
X17381739Y-21801260D01*
X17381739Y-21801260D02*
X17372216Y-21791736D01*
X17372216Y-21791736D02*
X17362692Y-21772689D01*
X17362692Y-21772689D02*
X17362692Y-21715546D01*
X17362692Y-21715546D02*
X17372216Y-21696498D01*
X17372216Y-21696498D02*
X17381739Y-21686974D01*
X17381739Y-21686974D02*
X17400787Y-21677450D01*
X17400787Y-21677450D02*
X17429358Y-21677450D01*
X17429358Y-21677450D02*
X17448406Y-21686974D01*
X17448406Y-21686974D02*
X17457930Y-21696498D01*
X17457930Y-21696498D02*
X17467454Y-21715546D01*
X17467454Y-21715546D02*
X17467454Y-21772689D01*
X17467454Y-21772689D02*
X17457930Y-21791736D01*
X17457930Y-21791736D02*
X17448406Y-21801260D01*
X17448406Y-21801260D02*
X17429358Y-21810784D01*
X17429358Y-21810784D02*
X17400787Y-21810784D01*
X17524597Y-21677450D02*
X17600787Y-21677450D01*
X17553168Y-21610784D02*
X17553168Y-21782212D01*
X17553168Y-21782212D02*
X17562692Y-21801260D01*
X17562692Y-21801260D02*
X17581739Y-21810784D01*
X17581739Y-21810784D02*
X17600787Y-21810784D01*
X17657930Y-21801260D02*
X17676977Y-21810784D01*
X17676977Y-21810784D02*
X17715073Y-21810784D01*
X17715073Y-21810784D02*
X17734120Y-21801260D01*
X17734120Y-21801260D02*
X17743644Y-21782212D01*
X17743644Y-21782212D02*
X17743644Y-21772689D01*
X17743644Y-21772689D02*
X17734120Y-21753641D01*
X17734120Y-21753641D02*
X17715073Y-21744117D01*
X17715073Y-21744117D02*
X17686501Y-21744117D01*
X17686501Y-21744117D02*
X17667454Y-21734593D01*
X17667454Y-21734593D02*
X17657930Y-21715546D01*
X17657930Y-21715546D02*
X17657930Y-21706022D01*
X17657930Y-21706022D02*
X17667454Y-21686974D01*
X17667454Y-21686974D02*
X17686501Y-21677450D01*
X17686501Y-21677450D02*
X17715073Y-21677450D01*
X17715073Y-21677450D02*
X17734120Y-21686974D01*
X17810311Y-21886974D02*
X17819835Y-21877450D01*
X17819835Y-21877450D02*
X17838882Y-21848879D01*
X17838882Y-21848879D02*
X17848406Y-21829831D01*
X17848406Y-21829831D02*
X17857930Y-21801260D01*
X17857930Y-21801260D02*
X17867454Y-21753641D01*
X17867454Y-21753641D02*
X17867454Y-21715546D01*
X17867454Y-21715546D02*
X17857930Y-21667927D01*
X17857930Y-21667927D02*
X17848406Y-21639355D01*
X17848406Y-21639355D02*
X17838882Y-21620308D01*
X17838882Y-21620308D02*
X17819835Y-21591736D01*
X17819835Y-21591736D02*
X17810311Y-21582212D01*
X18172216Y-21886974D02*
X18162692Y-21877450D01*
X18162692Y-21877450D02*
X18143644Y-21848879D01*
X18143644Y-21848879D02*
X18134120Y-21829831D01*
X18134120Y-21829831D02*
X18124597Y-21801260D01*
X18124597Y-21801260D02*
X18115073Y-21753641D01*
X18115073Y-21753641D02*
X18115073Y-21715546D01*
X18115073Y-21715546D02*
X18124597Y-21667927D01*
X18124597Y-21667927D02*
X18134120Y-21639355D01*
X18134120Y-21639355D02*
X18143644Y-21620308D01*
X18143644Y-21620308D02*
X18162692Y-21591736D01*
X18162692Y-21591736D02*
X18172216Y-21582212D01*
X18248406Y-21677450D02*
X18248406Y-21810784D01*
X18248406Y-21696498D02*
X18257930Y-21686974D01*
X18257930Y-21686974D02*
X18276977Y-21677450D01*
X18276977Y-21677450D02*
X18305549Y-21677450D01*
X18305549Y-21677450D02*
X18324597Y-21686974D01*
X18324597Y-21686974D02*
X18334120Y-21706022D01*
X18334120Y-21706022D02*
X18334120Y-21810784D01*
X18457930Y-21810784D02*
X18438882Y-21801260D01*
X18438882Y-21801260D02*
X18429358Y-21791736D01*
X18429358Y-21791736D02*
X18419835Y-21772689D01*
X18419835Y-21772689D02*
X18419835Y-21715546D01*
X18419835Y-21715546D02*
X18429358Y-21696498D01*
X18429358Y-21696498D02*
X18438882Y-21686974D01*
X18438882Y-21686974D02*
X18457930Y-21677450D01*
X18457930Y-21677450D02*
X18486501Y-21677450D01*
X18486501Y-21677450D02*
X18505549Y-21686974D01*
X18505549Y-21686974D02*
X18515073Y-21696498D01*
X18515073Y-21696498D02*
X18524597Y-21715546D01*
X18524597Y-21715546D02*
X18524597Y-21772689D01*
X18524597Y-21772689D02*
X18515073Y-21791736D01*
X18515073Y-21791736D02*
X18505549Y-21801260D01*
X18505549Y-21801260D02*
X18486501Y-21810784D01*
X18486501Y-21810784D02*
X18457930Y-21810784D01*
X18581739Y-21677450D02*
X18657930Y-21677450D01*
X18610311Y-21610784D02*
X18610311Y-21782212D01*
X18610311Y-21782212D02*
X18619835Y-21801260D01*
X18619835Y-21801260D02*
X18638882Y-21810784D01*
X18638882Y-21810784D02*
X18657930Y-21810784D01*
X18876978Y-21677450D02*
X18876978Y-21877450D01*
X18876978Y-21686974D02*
X18896025Y-21677450D01*
X18896025Y-21677450D02*
X18934120Y-21677450D01*
X18934120Y-21677450D02*
X18953168Y-21686974D01*
X18953168Y-21686974D02*
X18962692Y-21696498D01*
X18962692Y-21696498D02*
X18972216Y-21715546D01*
X18972216Y-21715546D02*
X18972216Y-21772689D01*
X18972216Y-21772689D02*
X18962692Y-21791736D01*
X18962692Y-21791736D02*
X18953168Y-21801260D01*
X18953168Y-21801260D02*
X18934120Y-21810784D01*
X18934120Y-21810784D02*
X18896025Y-21810784D01*
X18896025Y-21810784D02*
X18876978Y-21801260D01*
X19086501Y-21810784D02*
X19067454Y-21801260D01*
X19067454Y-21801260D02*
X19057930Y-21782212D01*
X19057930Y-21782212D02*
X19057930Y-21610784D01*
X19248406Y-21810784D02*
X19248406Y-21706022D01*
X19248406Y-21706022D02*
X19238882Y-21686974D01*
X19238882Y-21686974D02*
X19219835Y-21677450D01*
X19219835Y-21677450D02*
X19181739Y-21677450D01*
X19181739Y-21677450D02*
X19162692Y-21686974D01*
X19248406Y-21801260D02*
X19229359Y-21810784D01*
X19229359Y-21810784D02*
X19181739Y-21810784D01*
X19181739Y-21810784D02*
X19162692Y-21801260D01*
X19162692Y-21801260D02*
X19153168Y-21782212D01*
X19153168Y-21782212D02*
X19153168Y-21763165D01*
X19153168Y-21763165D02*
X19162692Y-21744117D01*
X19162692Y-21744117D02*
X19181739Y-21734593D01*
X19181739Y-21734593D02*
X19229359Y-21734593D01*
X19229359Y-21734593D02*
X19248406Y-21725070D01*
X19315073Y-21677450D02*
X19391263Y-21677450D01*
X19343644Y-21610784D02*
X19343644Y-21782212D01*
X19343644Y-21782212D02*
X19353168Y-21801260D01*
X19353168Y-21801260D02*
X19372216Y-21810784D01*
X19372216Y-21810784D02*
X19391263Y-21810784D01*
X19534120Y-21801260D02*
X19515073Y-21810784D01*
X19515073Y-21810784D02*
X19476978Y-21810784D01*
X19476978Y-21810784D02*
X19457930Y-21801260D01*
X19457930Y-21801260D02*
X19448406Y-21782212D01*
X19448406Y-21782212D02*
X19448406Y-21706022D01*
X19448406Y-21706022D02*
X19457930Y-21686974D01*
X19457930Y-21686974D02*
X19476978Y-21677450D01*
X19476978Y-21677450D02*
X19515073Y-21677450D01*
X19515073Y-21677450D02*
X19534120Y-21686974D01*
X19534120Y-21686974D02*
X19543644Y-21706022D01*
X19543644Y-21706022D02*
X19543644Y-21725070D01*
X19543644Y-21725070D02*
X19448406Y-21744117D01*
X19715073Y-21810784D02*
X19715073Y-21610784D01*
X19715073Y-21801260D02*
X19696025Y-21810784D01*
X19696025Y-21810784D02*
X19657930Y-21810784D01*
X19657930Y-21810784D02*
X19638882Y-21801260D01*
X19638882Y-21801260D02*
X19629359Y-21791736D01*
X19629359Y-21791736D02*
X19619835Y-21772689D01*
X19619835Y-21772689D02*
X19619835Y-21715546D01*
X19619835Y-21715546D02*
X19629359Y-21696498D01*
X19629359Y-21696498D02*
X19638882Y-21686974D01*
X19638882Y-21686974D02*
X19657930Y-21677450D01*
X19657930Y-21677450D02*
X19696025Y-21677450D01*
X19696025Y-21677450D02*
X19715073Y-21686974D01*
X19791263Y-21886974D02*
X19800787Y-21877450D01*
X19800787Y-21877450D02*
X19819835Y-21848879D01*
X19819835Y-21848879D02*
X19829359Y-21829831D01*
X19829359Y-21829831D02*
X19838882Y-21801260D01*
X19838882Y-21801260D02*
X19848406Y-21753641D01*
X19848406Y-21753641D02*
X19848406Y-21715546D01*
X19848406Y-21715546D02*
X19838882Y-21667927D01*
X19838882Y-21667927D02*
X19829359Y-21639355D01*
X19829359Y-21639355D02*
X19819835Y-21620308D01*
X19819835Y-21620308D02*
X19800787Y-21591736D01*
X19800787Y-21591736D02*
X19791263Y-21582212D01*
X11416200Y-22039300D02*
G75*
G02*
X11216200Y-22039300I-100000J0D01*
G01*
X11216200Y-22039300D02*
G75*
G02*
X11416200Y-22039300I100000J0D01*
G01*
X11762691Y-21997450D02*
X11762691Y-22130784D01*
X11715072Y-21921260D02*
X11667453Y-22064117D01*
X11667453Y-22064117D02*
X11791262Y-22064117D01*
X11867453Y-22111736D02*
X11876977Y-22121260D01*
X11876977Y-22121260D02*
X11867453Y-22130784D01*
X11867453Y-22130784D02*
X11857929Y-22121260D01*
X11857929Y-22121260D02*
X11867453Y-22111736D01*
X11867453Y-22111736D02*
X11867453Y-22130784D01*
X12048405Y-21997450D02*
X12048405Y-22130784D01*
X12000786Y-21921260D02*
X11953167Y-22064117D01*
X11953167Y-22064117D02*
X12076977Y-22064117D01*
X12191262Y-21930784D02*
X12210310Y-21930784D01*
X12210310Y-21930784D02*
X12229358Y-21940308D01*
X12229358Y-21940308D02*
X12238882Y-21949831D01*
X12238882Y-21949831D02*
X12248405Y-21968879D01*
X12248405Y-21968879D02*
X12257929Y-22006974D01*
X12257929Y-22006974D02*
X12257929Y-22054593D01*
X12257929Y-22054593D02*
X12248405Y-22092689D01*
X12248405Y-22092689D02*
X12238882Y-22111736D01*
X12238882Y-22111736D02*
X12229358Y-22121260D01*
X12229358Y-22121260D02*
X12210310Y-22130784D01*
X12210310Y-22130784D02*
X12191262Y-22130784D01*
X12191262Y-22130784D02*
X12172215Y-22121260D01*
X12172215Y-22121260D02*
X12162691Y-22111736D01*
X12162691Y-22111736D02*
X12153167Y-22092689D01*
X12153167Y-22092689D02*
X12143643Y-22054593D01*
X12143643Y-22054593D02*
X12143643Y-22006974D01*
X12143643Y-22006974D02*
X12153167Y-21968879D01*
X12153167Y-21968879D02*
X12162691Y-21949831D01*
X12162691Y-21949831D02*
X12172215Y-21940308D01*
X12172215Y-21940308D02*
X12191262Y-21930784D01*
X12381739Y-21930784D02*
X12400786Y-21930784D01*
X12400786Y-21930784D02*
X12419834Y-21940308D01*
X12419834Y-21940308D02*
X12429358Y-21949831D01*
X12429358Y-21949831D02*
X12438882Y-21968879D01*
X12438882Y-21968879D02*
X12448405Y-22006974D01*
X12448405Y-22006974D02*
X12448405Y-22054593D01*
X12448405Y-22054593D02*
X12438882Y-22092689D01*
X12438882Y-22092689D02*
X12429358Y-22111736D01*
X12429358Y-22111736D02*
X12419834Y-22121260D01*
X12419834Y-22121260D02*
X12400786Y-22130784D01*
X12400786Y-22130784D02*
X12381739Y-22130784D01*
X12381739Y-22130784D02*
X12362691Y-22121260D01*
X12362691Y-22121260D02*
X12353167Y-22111736D01*
X12353167Y-22111736D02*
X12343643Y-22092689D01*
X12343643Y-22092689D02*
X12334120Y-22054593D01*
X12334120Y-22054593D02*
X12334120Y-22006974D01*
X12334120Y-22006974D02*
X12343643Y-21968879D01*
X12343643Y-21968879D02*
X12353167Y-21949831D01*
X12353167Y-21949831D02*
X12362691Y-21940308D01*
X12362691Y-21940308D02*
X12381739Y-21930784D01*
X12534120Y-22130784D02*
X12534120Y-21997450D01*
X12534120Y-22016498D02*
X12543643Y-22006974D01*
X12543643Y-22006974D02*
X12562691Y-21997450D01*
X12562691Y-21997450D02*
X12591263Y-21997450D01*
X12591263Y-21997450D02*
X12610310Y-22006974D01*
X12610310Y-22006974D02*
X12619834Y-22026022D01*
X12619834Y-22026022D02*
X12619834Y-22130784D01*
X12619834Y-22026022D02*
X12629358Y-22006974D01*
X12629358Y-22006974D02*
X12648405Y-21997450D01*
X12648405Y-21997450D02*
X12676977Y-21997450D01*
X12676977Y-21997450D02*
X12696024Y-22006974D01*
X12696024Y-22006974D02*
X12705548Y-22026022D01*
X12705548Y-22026022D02*
X12705548Y-22130784D01*
X12800786Y-22130784D02*
X12800786Y-21997450D01*
X12800786Y-22016498D02*
X12810310Y-22006974D01*
X12810310Y-22006974D02*
X12829358Y-21997450D01*
X12829358Y-21997450D02*
X12857929Y-21997450D01*
X12857929Y-21997450D02*
X12876977Y-22006974D01*
X12876977Y-22006974D02*
X12886501Y-22026022D01*
X12886501Y-22026022D02*
X12886501Y-22130784D01*
X12886501Y-22026022D02*
X12896024Y-22006974D01*
X12896024Y-22006974D02*
X12915072Y-21997450D01*
X12915072Y-21997450D02*
X12943643Y-21997450D01*
X12943643Y-21997450D02*
X12962691Y-22006974D01*
X12962691Y-22006974D02*
X12972215Y-22026022D01*
X12972215Y-22026022D02*
X12972215Y-22130784D01*
X13362691Y-21921260D02*
X13191263Y-22178403D01*
X13619834Y-21930784D02*
X13638882Y-21930784D01*
X13638882Y-21930784D02*
X13657929Y-21940308D01*
X13657929Y-21940308D02*
X13667453Y-21949831D01*
X13667453Y-21949831D02*
X13676977Y-21968879D01*
X13676977Y-21968879D02*
X13686501Y-22006974D01*
X13686501Y-22006974D02*
X13686501Y-22054593D01*
X13686501Y-22054593D02*
X13676977Y-22092689D01*
X13676977Y-22092689D02*
X13667453Y-22111736D01*
X13667453Y-22111736D02*
X13657929Y-22121260D01*
X13657929Y-22121260D02*
X13638882Y-22130784D01*
X13638882Y-22130784D02*
X13619834Y-22130784D01*
X13619834Y-22130784D02*
X13600786Y-22121260D01*
X13600786Y-22121260D02*
X13591263Y-22111736D01*
X13591263Y-22111736D02*
X13581739Y-22092689D01*
X13581739Y-22092689D02*
X13572215Y-22054593D01*
X13572215Y-22054593D02*
X13572215Y-22006974D01*
X13572215Y-22006974D02*
X13581739Y-21968879D01*
X13581739Y-21968879D02*
X13591263Y-21949831D01*
X13591263Y-21949831D02*
X13600786Y-21940308D01*
X13600786Y-21940308D02*
X13619834Y-21930784D01*
X13772215Y-22111736D02*
X13781739Y-22121260D01*
X13781739Y-22121260D02*
X13772215Y-22130784D01*
X13772215Y-22130784D02*
X13762691Y-22121260D01*
X13762691Y-22121260D02*
X13772215Y-22111736D01*
X13772215Y-22111736D02*
X13772215Y-22130784D01*
X13972215Y-22130784D02*
X13857929Y-22130784D01*
X13915072Y-22130784D02*
X13915072Y-21930784D01*
X13915072Y-21930784D02*
X13896025Y-21959355D01*
X13896025Y-21959355D02*
X13876977Y-21978403D01*
X13876977Y-21978403D02*
X13857929Y-21987927D01*
X14038882Y-21930784D02*
X14172215Y-21930784D01*
X14172215Y-21930784D02*
X14086501Y-22130784D01*
X14229358Y-21930784D02*
X14353167Y-21930784D01*
X14353167Y-21930784D02*
X14286501Y-22006974D01*
X14286501Y-22006974D02*
X14315072Y-22006974D01*
X14315072Y-22006974D02*
X14334120Y-22016498D01*
X14334120Y-22016498D02*
X14343644Y-22026022D01*
X14343644Y-22026022D02*
X14353167Y-22045070D01*
X14353167Y-22045070D02*
X14353167Y-22092689D01*
X14353167Y-22092689D02*
X14343644Y-22111736D01*
X14343644Y-22111736D02*
X14334120Y-22121260D01*
X14334120Y-22121260D02*
X14315072Y-22130784D01*
X14315072Y-22130784D02*
X14257929Y-22130784D01*
X14257929Y-22130784D02*
X14238882Y-22121260D01*
X14238882Y-22121260D02*
X14229358Y-22111736D01*
X14429358Y-21949831D02*
X14438882Y-21940308D01*
X14438882Y-21940308D02*
X14457929Y-21930784D01*
X14457929Y-21930784D02*
X14505548Y-21930784D01*
X14505548Y-21930784D02*
X14524596Y-21940308D01*
X14524596Y-21940308D02*
X14534120Y-21949831D01*
X14534120Y-21949831D02*
X14543644Y-21968879D01*
X14543644Y-21968879D02*
X14543644Y-21987927D01*
X14543644Y-21987927D02*
X14534120Y-22016498D01*
X14534120Y-22016498D02*
X14419834Y-22130784D01*
X14419834Y-22130784D02*
X14543644Y-22130784D01*
X14619834Y-21930784D02*
X14619834Y-21968879D01*
X14696025Y-21930784D02*
X14696025Y-21968879D01*
X14991263Y-22206974D02*
X14981739Y-22197450D01*
X14981739Y-22197450D02*
X14962691Y-22168879D01*
X14962691Y-22168879D02*
X14953168Y-22149831D01*
X14953168Y-22149831D02*
X14943644Y-22121260D01*
X14943644Y-22121260D02*
X14934120Y-22073641D01*
X14934120Y-22073641D02*
X14934120Y-22035546D01*
X14934120Y-22035546D02*
X14943644Y-21987927D01*
X14943644Y-21987927D02*
X14953168Y-21959355D01*
X14953168Y-21959355D02*
X14962691Y-21940308D01*
X14962691Y-21940308D02*
X14981739Y-21911736D01*
X14981739Y-21911736D02*
X14991263Y-21902212D01*
X15172215Y-22130784D02*
X15057929Y-22130784D01*
X15115072Y-22130784D02*
X15115072Y-21930784D01*
X15115072Y-21930784D02*
X15096025Y-21959355D01*
X15096025Y-21959355D02*
X15076977Y-21978403D01*
X15076977Y-21978403D02*
X15057929Y-21987927D01*
X15400787Y-22121260D02*
X15419834Y-22130784D01*
X15419834Y-22130784D02*
X15457929Y-22130784D01*
X15457929Y-22130784D02*
X15476977Y-22121260D01*
X15476977Y-22121260D02*
X15486501Y-22102212D01*
X15486501Y-22102212D02*
X15486501Y-22092689D01*
X15486501Y-22092689D02*
X15476977Y-22073641D01*
X15476977Y-22073641D02*
X15457929Y-22064117D01*
X15457929Y-22064117D02*
X15429358Y-22064117D01*
X15429358Y-22064117D02*
X15410310Y-22054593D01*
X15410310Y-22054593D02*
X15400787Y-22035546D01*
X15400787Y-22035546D02*
X15400787Y-22026022D01*
X15400787Y-22026022D02*
X15410310Y-22006974D01*
X15410310Y-22006974D02*
X15429358Y-21997450D01*
X15429358Y-21997450D02*
X15457929Y-21997450D01*
X15457929Y-21997450D02*
X15476977Y-22006974D01*
X15600787Y-22130784D02*
X15581739Y-22121260D01*
X15581739Y-22121260D02*
X15572215Y-22102212D01*
X15572215Y-22102212D02*
X15572215Y-21930784D01*
X15705549Y-22130784D02*
X15686501Y-22121260D01*
X15686501Y-22121260D02*
X15676977Y-22111736D01*
X15676977Y-22111736D02*
X15667453Y-22092689D01*
X15667453Y-22092689D02*
X15667453Y-22035546D01*
X15667453Y-22035546D02*
X15676977Y-22016498D01*
X15676977Y-22016498D02*
X15686501Y-22006974D01*
X15686501Y-22006974D02*
X15705549Y-21997450D01*
X15705549Y-21997450D02*
X15734120Y-21997450D01*
X15734120Y-21997450D02*
X15753168Y-22006974D01*
X15753168Y-22006974D02*
X15762691Y-22016498D01*
X15762691Y-22016498D02*
X15772215Y-22035546D01*
X15772215Y-22035546D02*
X15772215Y-22092689D01*
X15772215Y-22092689D02*
X15762691Y-22111736D01*
X15762691Y-22111736D02*
X15753168Y-22121260D01*
X15753168Y-22121260D02*
X15734120Y-22130784D01*
X15734120Y-22130784D02*
X15705549Y-22130784D01*
X15829358Y-21997450D02*
X15905549Y-21997450D01*
X15857930Y-21930784D02*
X15857930Y-22102212D01*
X15857930Y-22102212D02*
X15867453Y-22121260D01*
X15867453Y-22121260D02*
X15886501Y-22130784D01*
X15886501Y-22130784D02*
X15905549Y-22130784D01*
X15953168Y-22206974D02*
X15962691Y-22197450D01*
X15962691Y-22197450D02*
X15981739Y-22168879D01*
X15981739Y-22168879D02*
X15991263Y-22149831D01*
X15991263Y-22149831D02*
X16000787Y-22121260D01*
X16000787Y-22121260D02*
X16010310Y-22073641D01*
X16010310Y-22073641D02*
X16010310Y-22035546D01*
X16010310Y-22035546D02*
X16000787Y-21987927D01*
X16000787Y-21987927D02*
X15991263Y-21959355D01*
X15991263Y-21959355D02*
X15981739Y-21940308D01*
X15981739Y-21940308D02*
X15962691Y-21911736D01*
X15962691Y-21911736D02*
X15953168Y-21902212D01*
X16315072Y-22206974D02*
X16305549Y-22197450D01*
X16305549Y-22197450D02*
X16286501Y-22168879D01*
X16286501Y-22168879D02*
X16276977Y-22149831D01*
X16276977Y-22149831D02*
X16267453Y-22121260D01*
X16267453Y-22121260D02*
X16257930Y-22073641D01*
X16257930Y-22073641D02*
X16257930Y-22035546D01*
X16257930Y-22035546D02*
X16267453Y-21987927D01*
X16267453Y-21987927D02*
X16276977Y-21959355D01*
X16276977Y-21959355D02*
X16286501Y-21940308D01*
X16286501Y-21940308D02*
X16305549Y-21911736D01*
X16305549Y-21911736D02*
X16315072Y-21902212D01*
X16391263Y-21997450D02*
X16391263Y-22130784D01*
X16391263Y-22016498D02*
X16400787Y-22006974D01*
X16400787Y-22006974D02*
X16419834Y-21997450D01*
X16419834Y-21997450D02*
X16448406Y-21997450D01*
X16448406Y-21997450D02*
X16467453Y-22006974D01*
X16467453Y-22006974D02*
X16476977Y-22026022D01*
X16476977Y-22026022D02*
X16476977Y-22130784D01*
X16600787Y-22130784D02*
X16581739Y-22121260D01*
X16581739Y-22121260D02*
X16572215Y-22111736D01*
X16572215Y-22111736D02*
X16562691Y-22092689D01*
X16562691Y-22092689D02*
X16562691Y-22035546D01*
X16562691Y-22035546D02*
X16572215Y-22016498D01*
X16572215Y-22016498D02*
X16581739Y-22006974D01*
X16581739Y-22006974D02*
X16600787Y-21997450D01*
X16600787Y-21997450D02*
X16629358Y-21997450D01*
X16629358Y-21997450D02*
X16648406Y-22006974D01*
X16648406Y-22006974D02*
X16657930Y-22016498D01*
X16657930Y-22016498D02*
X16667453Y-22035546D01*
X16667453Y-22035546D02*
X16667453Y-22092689D01*
X16667453Y-22092689D02*
X16657930Y-22111736D01*
X16657930Y-22111736D02*
X16648406Y-22121260D01*
X16648406Y-22121260D02*
X16629358Y-22130784D01*
X16629358Y-22130784D02*
X16600787Y-22130784D01*
X16724596Y-21997450D02*
X16800787Y-21997450D01*
X16753168Y-21930784D02*
X16753168Y-22102212D01*
X16753168Y-22102212D02*
X16762691Y-22121260D01*
X16762691Y-22121260D02*
X16781739Y-22130784D01*
X16781739Y-22130784D02*
X16800787Y-22130784D01*
X17019834Y-21997450D02*
X17019834Y-22197450D01*
X17019834Y-22006974D02*
X17038882Y-21997450D01*
X17038882Y-21997450D02*
X17076977Y-21997450D01*
X17076977Y-21997450D02*
X17096025Y-22006974D01*
X17096025Y-22006974D02*
X17105549Y-22016498D01*
X17105549Y-22016498D02*
X17115073Y-22035546D01*
X17115073Y-22035546D02*
X17115073Y-22092689D01*
X17115073Y-22092689D02*
X17105549Y-22111736D01*
X17105549Y-22111736D02*
X17096025Y-22121260D01*
X17096025Y-22121260D02*
X17076977Y-22130784D01*
X17076977Y-22130784D02*
X17038882Y-22130784D01*
X17038882Y-22130784D02*
X17019834Y-22121260D01*
X17229358Y-22130784D02*
X17210311Y-22121260D01*
X17210311Y-22121260D02*
X17200787Y-22102212D01*
X17200787Y-22102212D02*
X17200787Y-21930784D01*
X17391263Y-22130784D02*
X17391263Y-22026022D01*
X17391263Y-22026022D02*
X17381739Y-22006974D01*
X17381739Y-22006974D02*
X17362692Y-21997450D01*
X17362692Y-21997450D02*
X17324596Y-21997450D01*
X17324596Y-21997450D02*
X17305549Y-22006974D01*
X17391263Y-22121260D02*
X17372215Y-22130784D01*
X17372215Y-22130784D02*
X17324596Y-22130784D01*
X17324596Y-22130784D02*
X17305549Y-22121260D01*
X17305549Y-22121260D02*
X17296025Y-22102212D01*
X17296025Y-22102212D02*
X17296025Y-22083165D01*
X17296025Y-22083165D02*
X17305549Y-22064117D01*
X17305549Y-22064117D02*
X17324596Y-22054593D01*
X17324596Y-22054593D02*
X17372215Y-22054593D01*
X17372215Y-22054593D02*
X17391263Y-22045070D01*
X17457930Y-21997450D02*
X17534120Y-21997450D01*
X17486501Y-21930784D02*
X17486501Y-22102212D01*
X17486501Y-22102212D02*
X17496025Y-22121260D01*
X17496025Y-22121260D02*
X17515073Y-22130784D01*
X17515073Y-22130784D02*
X17534120Y-22130784D01*
X17676977Y-22121260D02*
X17657930Y-22130784D01*
X17657930Y-22130784D02*
X17619834Y-22130784D01*
X17619834Y-22130784D02*
X17600787Y-22121260D01*
X17600787Y-22121260D02*
X17591263Y-22102212D01*
X17591263Y-22102212D02*
X17591263Y-22026022D01*
X17591263Y-22026022D02*
X17600787Y-22006974D01*
X17600787Y-22006974D02*
X17619834Y-21997450D01*
X17619834Y-21997450D02*
X17657930Y-21997450D01*
X17657930Y-21997450D02*
X17676977Y-22006974D01*
X17676977Y-22006974D02*
X17686501Y-22026022D01*
X17686501Y-22026022D02*
X17686501Y-22045070D01*
X17686501Y-22045070D02*
X17591263Y-22064117D01*
X17857930Y-22130784D02*
X17857930Y-21930784D01*
X17857930Y-22121260D02*
X17838882Y-22130784D01*
X17838882Y-22130784D02*
X17800787Y-22130784D01*
X17800787Y-22130784D02*
X17781739Y-22121260D01*
X17781739Y-22121260D02*
X17772215Y-22111736D01*
X17772215Y-22111736D02*
X17762692Y-22092689D01*
X17762692Y-22092689D02*
X17762692Y-22035546D01*
X17762692Y-22035546D02*
X17772215Y-22016498D01*
X17772215Y-22016498D02*
X17781739Y-22006974D01*
X17781739Y-22006974D02*
X17800787Y-21997450D01*
X17800787Y-21997450D02*
X17838882Y-21997450D01*
X17838882Y-21997450D02*
X17857930Y-22006974D01*
X17934120Y-22206974D02*
X17943644Y-22197450D01*
X17943644Y-22197450D02*
X17962692Y-22168879D01*
X17962692Y-22168879D02*
X17972215Y-22149831D01*
X17972215Y-22149831D02*
X17981739Y-22121260D01*
X17981739Y-22121260D02*
X17991263Y-22073641D01*
X17991263Y-22073641D02*
X17991263Y-22035546D01*
X17991263Y-22035546D02*
X17981739Y-21987927D01*
X17981739Y-21987927D02*
X17972215Y-21959355D01*
X17972215Y-21959355D02*
X17962692Y-21940308D01*
X17962692Y-21940308D02*
X17943644Y-21911736D01*
X17943644Y-21911736D02*
X17934120Y-21902212D01*
X11316200Y-22259300D02*
X11316200Y-22459300D01*
X11216200Y-22359300D02*
X11416200Y-22359300D01*
X11762691Y-22250784D02*
X11724596Y-22250784D01*
X11724596Y-22250784D02*
X11705548Y-22260308D01*
X11705548Y-22260308D02*
X11696024Y-22269831D01*
X11696024Y-22269831D02*
X11676977Y-22298403D01*
X11676977Y-22298403D02*
X11667453Y-22336498D01*
X11667453Y-22336498D02*
X11667453Y-22412688D01*
X11667453Y-22412688D02*
X11676977Y-22431736D01*
X11676977Y-22431736D02*
X11686501Y-22441260D01*
X11686501Y-22441260D02*
X11705548Y-22450784D01*
X11705548Y-22450784D02*
X11743643Y-22450784D01*
X11743643Y-22450784D02*
X11762691Y-22441260D01*
X11762691Y-22441260D02*
X11772215Y-22431736D01*
X11772215Y-22431736D02*
X11781739Y-22412688D01*
X11781739Y-22412688D02*
X11781739Y-22365070D01*
X11781739Y-22365070D02*
X11772215Y-22346022D01*
X11772215Y-22346022D02*
X11762691Y-22336498D01*
X11762691Y-22336498D02*
X11743643Y-22326974D01*
X11743643Y-22326974D02*
X11705548Y-22326974D01*
X11705548Y-22326974D02*
X11686501Y-22336498D01*
X11686501Y-22336498D02*
X11676977Y-22346022D01*
X11676977Y-22346022D02*
X11667453Y-22365070D01*
X11867453Y-22431736D02*
X11876977Y-22441260D01*
X11876977Y-22441260D02*
X11867453Y-22450784D01*
X11867453Y-22450784D02*
X11857929Y-22441260D01*
X11857929Y-22441260D02*
X11867453Y-22431736D01*
X11867453Y-22431736D02*
X11867453Y-22450784D01*
X12000786Y-22250784D02*
X12019834Y-22250784D01*
X12019834Y-22250784D02*
X12038882Y-22260308D01*
X12038882Y-22260308D02*
X12048405Y-22269831D01*
X12048405Y-22269831D02*
X12057929Y-22288879D01*
X12057929Y-22288879D02*
X12067453Y-22326974D01*
X12067453Y-22326974D02*
X12067453Y-22374593D01*
X12067453Y-22374593D02*
X12057929Y-22412688D01*
X12057929Y-22412688D02*
X12048405Y-22431736D01*
X12048405Y-22431736D02*
X12038882Y-22441260D01*
X12038882Y-22441260D02*
X12019834Y-22450784D01*
X12019834Y-22450784D02*
X12000786Y-22450784D01*
X12000786Y-22450784D02*
X11981739Y-22441260D01*
X11981739Y-22441260D02*
X11972215Y-22431736D01*
X11972215Y-22431736D02*
X11962691Y-22412688D01*
X11962691Y-22412688D02*
X11953167Y-22374593D01*
X11953167Y-22374593D02*
X11953167Y-22326974D01*
X11953167Y-22326974D02*
X11962691Y-22288879D01*
X11962691Y-22288879D02*
X11972215Y-22269831D01*
X11972215Y-22269831D02*
X11981739Y-22260308D01*
X11981739Y-22260308D02*
X12000786Y-22250784D01*
X12191262Y-22250784D02*
X12210310Y-22250784D01*
X12210310Y-22250784D02*
X12229358Y-22260308D01*
X12229358Y-22260308D02*
X12238882Y-22269831D01*
X12238882Y-22269831D02*
X12248405Y-22288879D01*
X12248405Y-22288879D02*
X12257929Y-22326974D01*
X12257929Y-22326974D02*
X12257929Y-22374593D01*
X12257929Y-22374593D02*
X12248405Y-22412688D01*
X12248405Y-22412688D02*
X12238882Y-22431736D01*
X12238882Y-22431736D02*
X12229358Y-22441260D01*
X12229358Y-22441260D02*
X12210310Y-22450784D01*
X12210310Y-22450784D02*
X12191262Y-22450784D01*
X12191262Y-22450784D02*
X12172215Y-22441260D01*
X12172215Y-22441260D02*
X12162691Y-22431736D01*
X12162691Y-22431736D02*
X12153167Y-22412688D01*
X12153167Y-22412688D02*
X12143643Y-22374593D01*
X12143643Y-22374593D02*
X12143643Y-22326974D01*
X12143643Y-22326974D02*
X12153167Y-22288879D01*
X12153167Y-22288879D02*
X12162691Y-22269831D01*
X12162691Y-22269831D02*
X12172215Y-22260308D01*
X12172215Y-22260308D02*
X12191262Y-22250784D01*
X12381739Y-22250784D02*
X12400786Y-22250784D01*
X12400786Y-22250784D02*
X12419834Y-22260308D01*
X12419834Y-22260308D02*
X12429358Y-22269831D01*
X12429358Y-22269831D02*
X12438882Y-22288879D01*
X12438882Y-22288879D02*
X12448405Y-22326974D01*
X12448405Y-22326974D02*
X12448405Y-22374593D01*
X12448405Y-22374593D02*
X12438882Y-22412688D01*
X12438882Y-22412688D02*
X12429358Y-22431736D01*
X12429358Y-22431736D02*
X12419834Y-22441260D01*
X12419834Y-22441260D02*
X12400786Y-22450784D01*
X12400786Y-22450784D02*
X12381739Y-22450784D01*
X12381739Y-22450784D02*
X12362691Y-22441260D01*
X12362691Y-22441260D02*
X12353167Y-22431736D01*
X12353167Y-22431736D02*
X12343643Y-22412688D01*
X12343643Y-22412688D02*
X12334120Y-22374593D01*
X12334120Y-22374593D02*
X12334120Y-22326974D01*
X12334120Y-22326974D02*
X12343643Y-22288879D01*
X12343643Y-22288879D02*
X12353167Y-22269831D01*
X12353167Y-22269831D02*
X12362691Y-22260308D01*
X12362691Y-22260308D02*
X12381739Y-22250784D01*
X12534120Y-22450784D02*
X12534120Y-22317450D01*
X12534120Y-22336498D02*
X12543643Y-22326974D01*
X12543643Y-22326974D02*
X12562691Y-22317450D01*
X12562691Y-22317450D02*
X12591263Y-22317450D01*
X12591263Y-22317450D02*
X12610310Y-22326974D01*
X12610310Y-22326974D02*
X12619834Y-22346022D01*
X12619834Y-22346022D02*
X12619834Y-22450784D01*
X12619834Y-22346022D02*
X12629358Y-22326974D01*
X12629358Y-22326974D02*
X12648405Y-22317450D01*
X12648405Y-22317450D02*
X12676977Y-22317450D01*
X12676977Y-22317450D02*
X12696024Y-22326974D01*
X12696024Y-22326974D02*
X12705548Y-22346022D01*
X12705548Y-22346022D02*
X12705548Y-22450784D01*
X12800786Y-22450784D02*
X12800786Y-22317450D01*
X12800786Y-22336498D02*
X12810310Y-22326974D01*
X12810310Y-22326974D02*
X12829358Y-22317450D01*
X12829358Y-22317450D02*
X12857929Y-22317450D01*
X12857929Y-22317450D02*
X12876977Y-22326974D01*
X12876977Y-22326974D02*
X12886501Y-22346022D01*
X12886501Y-22346022D02*
X12886501Y-22450784D01*
X12886501Y-22346022D02*
X12896024Y-22326974D01*
X12896024Y-22326974D02*
X12915072Y-22317450D01*
X12915072Y-22317450D02*
X12943643Y-22317450D01*
X12943643Y-22317450D02*
X12962691Y-22326974D01*
X12962691Y-22326974D02*
X12972215Y-22346022D01*
X12972215Y-22346022D02*
X12972215Y-22450784D01*
X13362691Y-22241260D02*
X13191263Y-22498403D01*
X13619834Y-22250784D02*
X13638882Y-22250784D01*
X13638882Y-22250784D02*
X13657929Y-22260308D01*
X13657929Y-22260308D02*
X13667453Y-22269831D01*
X13667453Y-22269831D02*
X13676977Y-22288879D01*
X13676977Y-22288879D02*
X13686501Y-22326974D01*
X13686501Y-22326974D02*
X13686501Y-22374593D01*
X13686501Y-22374593D02*
X13676977Y-22412688D01*
X13676977Y-22412688D02*
X13667453Y-22431736D01*
X13667453Y-22431736D02*
X13657929Y-22441260D01*
X13657929Y-22441260D02*
X13638882Y-22450784D01*
X13638882Y-22450784D02*
X13619834Y-22450784D01*
X13619834Y-22450784D02*
X13600786Y-22441260D01*
X13600786Y-22441260D02*
X13591263Y-22431736D01*
X13591263Y-22431736D02*
X13581739Y-22412688D01*
X13581739Y-22412688D02*
X13572215Y-22374593D01*
X13572215Y-22374593D02*
X13572215Y-22326974D01*
X13572215Y-22326974D02*
X13581739Y-22288879D01*
X13581739Y-22288879D02*
X13591263Y-22269831D01*
X13591263Y-22269831D02*
X13600786Y-22260308D01*
X13600786Y-22260308D02*
X13619834Y-22250784D01*
X13772215Y-22431736D02*
X13781739Y-22441260D01*
X13781739Y-22441260D02*
X13772215Y-22450784D01*
X13772215Y-22450784D02*
X13762691Y-22441260D01*
X13762691Y-22441260D02*
X13772215Y-22431736D01*
X13772215Y-22431736D02*
X13772215Y-22450784D01*
X13857929Y-22269831D02*
X13867453Y-22260308D01*
X13867453Y-22260308D02*
X13886501Y-22250784D01*
X13886501Y-22250784D02*
X13934120Y-22250784D01*
X13934120Y-22250784D02*
X13953167Y-22260308D01*
X13953167Y-22260308D02*
X13962691Y-22269831D01*
X13962691Y-22269831D02*
X13972215Y-22288879D01*
X13972215Y-22288879D02*
X13972215Y-22307927D01*
X13972215Y-22307927D02*
X13962691Y-22336498D01*
X13962691Y-22336498D02*
X13848406Y-22450784D01*
X13848406Y-22450784D02*
X13972215Y-22450784D01*
X14038882Y-22250784D02*
X14162691Y-22250784D01*
X14162691Y-22250784D02*
X14096025Y-22326974D01*
X14096025Y-22326974D02*
X14124596Y-22326974D01*
X14124596Y-22326974D02*
X14143644Y-22336498D01*
X14143644Y-22336498D02*
X14153167Y-22346022D01*
X14153167Y-22346022D02*
X14162691Y-22365070D01*
X14162691Y-22365070D02*
X14162691Y-22412688D01*
X14162691Y-22412688D02*
X14153167Y-22431736D01*
X14153167Y-22431736D02*
X14143644Y-22441260D01*
X14143644Y-22441260D02*
X14124596Y-22450784D01*
X14124596Y-22450784D02*
X14067453Y-22450784D01*
X14067453Y-22450784D02*
X14048406Y-22441260D01*
X14048406Y-22441260D02*
X14038882Y-22431736D01*
X14334120Y-22250784D02*
X14296025Y-22250784D01*
X14296025Y-22250784D02*
X14276977Y-22260308D01*
X14276977Y-22260308D02*
X14267453Y-22269831D01*
X14267453Y-22269831D02*
X14248406Y-22298403D01*
X14248406Y-22298403D02*
X14238882Y-22336498D01*
X14238882Y-22336498D02*
X14238882Y-22412688D01*
X14238882Y-22412688D02*
X14248406Y-22431736D01*
X14248406Y-22431736D02*
X14257929Y-22441260D01*
X14257929Y-22441260D02*
X14276977Y-22450784D01*
X14276977Y-22450784D02*
X14315072Y-22450784D01*
X14315072Y-22450784D02*
X14334120Y-22441260D01*
X14334120Y-22441260D02*
X14343644Y-22431736D01*
X14343644Y-22431736D02*
X14353167Y-22412688D01*
X14353167Y-22412688D02*
X14353167Y-22365070D01*
X14353167Y-22365070D02*
X14343644Y-22346022D01*
X14343644Y-22346022D02*
X14334120Y-22336498D01*
X14334120Y-22336498D02*
X14315072Y-22326974D01*
X14315072Y-22326974D02*
X14276977Y-22326974D01*
X14276977Y-22326974D02*
X14257929Y-22336498D01*
X14257929Y-22336498D02*
X14248406Y-22346022D01*
X14248406Y-22346022D02*
X14238882Y-22365070D01*
X14429358Y-22269831D02*
X14438882Y-22260308D01*
X14438882Y-22260308D02*
X14457929Y-22250784D01*
X14457929Y-22250784D02*
X14505548Y-22250784D01*
X14505548Y-22250784D02*
X14524596Y-22260308D01*
X14524596Y-22260308D02*
X14534120Y-22269831D01*
X14534120Y-22269831D02*
X14543644Y-22288879D01*
X14543644Y-22288879D02*
X14543644Y-22307927D01*
X14543644Y-22307927D02*
X14534120Y-22336498D01*
X14534120Y-22336498D02*
X14419834Y-22450784D01*
X14419834Y-22450784D02*
X14543644Y-22450784D01*
X14619834Y-22250784D02*
X14619834Y-22288879D01*
X14696025Y-22250784D02*
X14696025Y-22288879D01*
X14991263Y-22526974D02*
X14981739Y-22517450D01*
X14981739Y-22517450D02*
X14962691Y-22488879D01*
X14962691Y-22488879D02*
X14953168Y-22469831D01*
X14953168Y-22469831D02*
X14943644Y-22441260D01*
X14943644Y-22441260D02*
X14934120Y-22393641D01*
X14934120Y-22393641D02*
X14934120Y-22355546D01*
X14934120Y-22355546D02*
X14943644Y-22307927D01*
X14943644Y-22307927D02*
X14953168Y-22279355D01*
X14953168Y-22279355D02*
X14962691Y-22260308D01*
X14962691Y-22260308D02*
X14981739Y-22231736D01*
X14981739Y-22231736D02*
X14991263Y-22222212D01*
X15057929Y-22269831D02*
X15067453Y-22260308D01*
X15067453Y-22260308D02*
X15086501Y-22250784D01*
X15086501Y-22250784D02*
X15134120Y-22250784D01*
X15134120Y-22250784D02*
X15153168Y-22260308D01*
X15153168Y-22260308D02*
X15162691Y-22269831D01*
X15162691Y-22269831D02*
X15172215Y-22288879D01*
X15172215Y-22288879D02*
X15172215Y-22307927D01*
X15172215Y-22307927D02*
X15162691Y-22336498D01*
X15162691Y-22336498D02*
X15048406Y-22450784D01*
X15048406Y-22450784D02*
X15172215Y-22450784D01*
X15410310Y-22450784D02*
X15410310Y-22250784D01*
X15496025Y-22450784D02*
X15496025Y-22346022D01*
X15496025Y-22346022D02*
X15486501Y-22326974D01*
X15486501Y-22326974D02*
X15467453Y-22317450D01*
X15467453Y-22317450D02*
X15438882Y-22317450D01*
X15438882Y-22317450D02*
X15419834Y-22326974D01*
X15419834Y-22326974D02*
X15410310Y-22336498D01*
X15619834Y-22450784D02*
X15600787Y-22441260D01*
X15600787Y-22441260D02*
X15591263Y-22431736D01*
X15591263Y-22431736D02*
X15581739Y-22412688D01*
X15581739Y-22412688D02*
X15581739Y-22355546D01*
X15581739Y-22355546D02*
X15591263Y-22336498D01*
X15591263Y-22336498D02*
X15600787Y-22326974D01*
X15600787Y-22326974D02*
X15619834Y-22317450D01*
X15619834Y-22317450D02*
X15648406Y-22317450D01*
X15648406Y-22317450D02*
X15667453Y-22326974D01*
X15667453Y-22326974D02*
X15676977Y-22336498D01*
X15676977Y-22336498D02*
X15686501Y-22355546D01*
X15686501Y-22355546D02*
X15686501Y-22412688D01*
X15686501Y-22412688D02*
X15676977Y-22431736D01*
X15676977Y-22431736D02*
X15667453Y-22441260D01*
X15667453Y-22441260D02*
X15648406Y-22450784D01*
X15648406Y-22450784D02*
X15619834Y-22450784D01*
X15800787Y-22450784D02*
X15781739Y-22441260D01*
X15781739Y-22441260D02*
X15772215Y-22422212D01*
X15772215Y-22422212D02*
X15772215Y-22250784D01*
X15953168Y-22441260D02*
X15934120Y-22450784D01*
X15934120Y-22450784D02*
X15896025Y-22450784D01*
X15896025Y-22450784D02*
X15876977Y-22441260D01*
X15876977Y-22441260D02*
X15867453Y-22422212D01*
X15867453Y-22422212D02*
X15867453Y-22346022D01*
X15867453Y-22346022D02*
X15876977Y-22326974D01*
X15876977Y-22326974D02*
X15896025Y-22317450D01*
X15896025Y-22317450D02*
X15934120Y-22317450D01*
X15934120Y-22317450D02*
X15953168Y-22326974D01*
X15953168Y-22326974D02*
X15962691Y-22346022D01*
X15962691Y-22346022D02*
X15962691Y-22365070D01*
X15962691Y-22365070D02*
X15867453Y-22384117D01*
X16038882Y-22441260D02*
X16057930Y-22450784D01*
X16057930Y-22450784D02*
X16096025Y-22450784D01*
X16096025Y-22450784D02*
X16115072Y-22441260D01*
X16115072Y-22441260D02*
X16124596Y-22422212D01*
X16124596Y-22422212D02*
X16124596Y-22412688D01*
X16124596Y-22412688D02*
X16115072Y-22393641D01*
X16115072Y-22393641D02*
X16096025Y-22384117D01*
X16096025Y-22384117D02*
X16067453Y-22384117D01*
X16067453Y-22384117D02*
X16048406Y-22374593D01*
X16048406Y-22374593D02*
X16038882Y-22355546D01*
X16038882Y-22355546D02*
X16038882Y-22346022D01*
X16038882Y-22346022D02*
X16048406Y-22326974D01*
X16048406Y-22326974D02*
X16067453Y-22317450D01*
X16067453Y-22317450D02*
X16096025Y-22317450D01*
X16096025Y-22317450D02*
X16115072Y-22326974D01*
X16191263Y-22526974D02*
X16200787Y-22517450D01*
X16200787Y-22517450D02*
X16219834Y-22488879D01*
X16219834Y-22488879D02*
X16229358Y-22469831D01*
X16229358Y-22469831D02*
X16238882Y-22441260D01*
X16238882Y-22441260D02*
X16248406Y-22393641D01*
X16248406Y-22393641D02*
X16248406Y-22355546D01*
X16248406Y-22355546D02*
X16238882Y-22307927D01*
X16238882Y-22307927D02*
X16229358Y-22279355D01*
X16229358Y-22279355D02*
X16219834Y-22260308D01*
X16219834Y-22260308D02*
X16200787Y-22231736D01*
X16200787Y-22231736D02*
X16191263Y-22222212D01*
X16553168Y-22526974D02*
X16543644Y-22517450D01*
X16543644Y-22517450D02*
X16524596Y-22488879D01*
X16524596Y-22488879D02*
X16515072Y-22469831D01*
X16515072Y-22469831D02*
X16505549Y-22441260D01*
X16505549Y-22441260D02*
X16496025Y-22393641D01*
X16496025Y-22393641D02*
X16496025Y-22355546D01*
X16496025Y-22355546D02*
X16505549Y-22307927D01*
X16505549Y-22307927D02*
X16515072Y-22279355D01*
X16515072Y-22279355D02*
X16524596Y-22260308D01*
X16524596Y-22260308D02*
X16543644Y-22231736D01*
X16543644Y-22231736D02*
X16553168Y-22222212D01*
X16629358Y-22317450D02*
X16629358Y-22450784D01*
X16629358Y-22336498D02*
X16638882Y-22326974D01*
X16638882Y-22326974D02*
X16657930Y-22317450D01*
X16657930Y-22317450D02*
X16686501Y-22317450D01*
X16686501Y-22317450D02*
X16705549Y-22326974D01*
X16705549Y-22326974D02*
X16715072Y-22346022D01*
X16715072Y-22346022D02*
X16715072Y-22450784D01*
X16838882Y-22450784D02*
X16819834Y-22441260D01*
X16819834Y-22441260D02*
X16810311Y-22431736D01*
X16810311Y-22431736D02*
X16800787Y-22412688D01*
X16800787Y-22412688D02*
X16800787Y-22355546D01*
X16800787Y-22355546D02*
X16810311Y-22336498D01*
X16810311Y-22336498D02*
X16819834Y-22326974D01*
X16819834Y-22326974D02*
X16838882Y-22317450D01*
X16838882Y-22317450D02*
X16867454Y-22317450D01*
X16867454Y-22317450D02*
X16886501Y-22326974D01*
X16886501Y-22326974D02*
X16896025Y-22336498D01*
X16896025Y-22336498D02*
X16905549Y-22355546D01*
X16905549Y-22355546D02*
X16905549Y-22412688D01*
X16905549Y-22412688D02*
X16896025Y-22431736D01*
X16896025Y-22431736D02*
X16886501Y-22441260D01*
X16886501Y-22441260D02*
X16867454Y-22450784D01*
X16867454Y-22450784D02*
X16838882Y-22450784D01*
X16962692Y-22317450D02*
X17038882Y-22317450D01*
X16991263Y-22250784D02*
X16991263Y-22422212D01*
X16991263Y-22422212D02*
X17000787Y-22441260D01*
X17000787Y-22441260D02*
X17019834Y-22450784D01*
X17019834Y-22450784D02*
X17038882Y-22450784D01*
X17257930Y-22317450D02*
X17257930Y-22517450D01*
X17257930Y-22326974D02*
X17276977Y-22317450D01*
X17276977Y-22317450D02*
X17315073Y-22317450D01*
X17315073Y-22317450D02*
X17334120Y-22326974D01*
X17334120Y-22326974D02*
X17343644Y-22336498D01*
X17343644Y-22336498D02*
X17353168Y-22355546D01*
X17353168Y-22355546D02*
X17353168Y-22412688D01*
X17353168Y-22412688D02*
X17343644Y-22431736D01*
X17343644Y-22431736D02*
X17334120Y-22441260D01*
X17334120Y-22441260D02*
X17315073Y-22450784D01*
X17315073Y-22450784D02*
X17276977Y-22450784D01*
X17276977Y-22450784D02*
X17257930Y-22441260D01*
X17467454Y-22450784D02*
X17448406Y-22441260D01*
X17448406Y-22441260D02*
X17438882Y-22422212D01*
X17438882Y-22422212D02*
X17438882Y-22250784D01*
X17629358Y-22450784D02*
X17629358Y-22346022D01*
X17629358Y-22346022D02*
X17619835Y-22326974D01*
X17619835Y-22326974D02*
X17600787Y-22317450D01*
X17600787Y-22317450D02*
X17562692Y-22317450D01*
X17562692Y-22317450D02*
X17543644Y-22326974D01*
X17629358Y-22441260D02*
X17610311Y-22450784D01*
X17610311Y-22450784D02*
X17562692Y-22450784D01*
X17562692Y-22450784D02*
X17543644Y-22441260D01*
X17543644Y-22441260D02*
X17534120Y-22422212D01*
X17534120Y-22422212D02*
X17534120Y-22403165D01*
X17534120Y-22403165D02*
X17543644Y-22384117D01*
X17543644Y-22384117D02*
X17562692Y-22374593D01*
X17562692Y-22374593D02*
X17610311Y-22374593D01*
X17610311Y-22374593D02*
X17629358Y-22365070D01*
X17696025Y-22317450D02*
X17772215Y-22317450D01*
X17724596Y-22250784D02*
X17724596Y-22422212D01*
X17724596Y-22422212D02*
X17734120Y-22441260D01*
X17734120Y-22441260D02*
X17753168Y-22450784D01*
X17753168Y-22450784D02*
X17772215Y-22450784D01*
X17915073Y-22441260D02*
X17896025Y-22450784D01*
X17896025Y-22450784D02*
X17857930Y-22450784D01*
X17857930Y-22450784D02*
X17838882Y-22441260D01*
X17838882Y-22441260D02*
X17829358Y-22422212D01*
X17829358Y-22422212D02*
X17829358Y-22346022D01*
X17829358Y-22346022D02*
X17838882Y-22326974D01*
X17838882Y-22326974D02*
X17857930Y-22317450D01*
X17857930Y-22317450D02*
X17896025Y-22317450D01*
X17896025Y-22317450D02*
X17915073Y-22326974D01*
X17915073Y-22326974D02*
X17924596Y-22346022D01*
X17924596Y-22346022D02*
X17924596Y-22365070D01*
X17924596Y-22365070D02*
X17829358Y-22384117D01*
X18096025Y-22450784D02*
X18096025Y-22250784D01*
X18096025Y-22441260D02*
X18076977Y-22450784D01*
X18076977Y-22450784D02*
X18038882Y-22450784D01*
X18038882Y-22450784D02*
X18019835Y-22441260D01*
X18019835Y-22441260D02*
X18010311Y-22431736D01*
X18010311Y-22431736D02*
X18000787Y-22412688D01*
X18000787Y-22412688D02*
X18000787Y-22355546D01*
X18000787Y-22355546D02*
X18010311Y-22336498D01*
X18010311Y-22336498D02*
X18019835Y-22326974D01*
X18019835Y-22326974D02*
X18038882Y-22317450D01*
X18038882Y-22317450D02*
X18076977Y-22317450D01*
X18076977Y-22317450D02*
X18096025Y-22326974D01*
X18172216Y-22526974D02*
X18181739Y-22517450D01*
X18181739Y-22517450D02*
X18200787Y-22488879D01*
X18200787Y-22488879D02*
X18210311Y-22469831D01*
X18210311Y-22469831D02*
X18219835Y-22441260D01*
X18219835Y-22441260D02*
X18229358Y-22393641D01*
X18229358Y-22393641D02*
X18229358Y-22355546D01*
X18229358Y-22355546D02*
X18219835Y-22307927D01*
X18219835Y-22307927D02*
X18210311Y-22279355D01*
X18210311Y-22279355D02*
X18200787Y-22260308D01*
X18200787Y-22260308D02*
X18181739Y-22231736D01*
X18181739Y-22231736D02*
X18172216Y-22222212D01*
M02*
