M48
; DRILL file KiCad 10.0.6 date 2026-10-08T21:38:41
; FORMAT={-:-/ absolute / metric / decimal}
; #@! TF.CreationDate,2026-10-08T21:38:41-04:00
; #@! TF.GenerationSoftware,Kicad,Pcbnew,10.0.6
; #@! TF.FileFunction,Plated,1,2,PTH
FMAT,2
METRIC
; #@! TA.AperFunction,Plated,PTH,ViaDrill
T1C0.300
%
G90
G05
T1
X116.0Y-76.0
X116.0Y-124.0
X118.35Y-79.45
X118.527Y-120.945
X119.888Y-76.525
X119.916Y-127.248
X119.916Y-130.305
X120.55Y-90.95
X120.55Y-94.35
X120.55Y-97.75
X120.55Y-101.15
X120.85Y-75.85
X120.85Y-77.75
X121.0Y-82.0
X121.025Y-93.4
X121.025Y-96.8
X121.025Y-100.2
X121.025Y-103.6
X121.139Y-123.976
X121.373Y-92.275
X121.373Y-95.675
X121.373Y-99.075
X121.373Y-102.475
X121.373Y-104.475
X121.5Y-91.05
X121.5Y-94.45
X121.5Y-97.85
X121.5Y-101.25
X121.574Y-198.071
X121.597Y-185.948
X121.6Y-87.659
X121.671Y-109.317
X121.726Y-113.75
X121.857Y-86.538
X121.938Y-106.759
X122.0Y-82.0
X122.0Y-100.0
X122.0Y-208.0
X122.075Y-76.8
X122.193Y-174.881
X122.35Y-104.0
X122.4Y-128.813
X122.45Y-104.95
X122.555Y-106.085
X122.795Y-165.487
X123.341Y-88.987
X123.341Y-90.987
X123.355Y-155.189
X123.4Y-125.95
X123.45Y-82.9
X123.697Y-144.068
X123.75Y-74.05
X124.066Y-106.259
X124.12Y-104.928
X124.15Y-91.645
X124.478Y-87.731
X124.51Y-116.826
X124.525Y-90.823
X124.6Y-108.35
X124.8Y-137.997
X124.95Y-75.25
X125.1Y-111.45
X125.508Y-87.117
X125.6Y-129.74
X125.8Y-80.6
X125.8Y-85.991
X126.134Y-146.634
X126.15Y-75.4
X126.7Y-90.893
X126.787Y-145.634
X126.853Y-88.956
X126.858Y-151.593
X126.9Y-106.05
X126.9Y-109.65
X126.907Y-150.459
X127.05Y-95.35
X127.05Y-97.0
X127.05Y-98.65
X127.157Y-140.828
X127.3Y-74.0
X127.35Y-80.6
X127.35Y-131.18
X127.55Y-92.6
X127.575Y-79.3
X127.792Y-150.554
X127.938Y-144.642
X128.0Y-82.0
X128.0Y-94.0
X128.0Y-100.0
X128.0Y-160.0
X128.11Y-87.121
X128.2Y-84.65
X128.3Y-90.35
X128.5Y-106.25
X128.55Y-75.25
X128.7Y-95.35
X128.7Y-97.0
X128.7Y-98.65
X128.832Y-147.305
X128.9Y-107.7
X129.15Y-103.8
X129.299Y-142.81
X129.45Y-107.1
X129.477Y-160.366
X129.6Y-85.7
X129.8Y-73.1
X130.1Y-112.058
X130.35Y-95.35
X130.35Y-97.0
X130.35Y-98.65
X130.39Y-81.341
X130.423Y-157.886
X130.423Y-159.489
X130.443Y-147.317
X130.446Y-142.022
X130.495Y-161.434
X130.507Y-140.501
X130.75Y-102.2
X130.85Y-75.2
X131.25Y-83.2
X131.31Y-69.0
X131.333Y-129.581
X131.35Y-76.3
X131.6Y-103.05
X131.694Y-157.395
X131.798Y-88.81
X132.13Y-85.973
X132.191Y-191.6
X132.449Y-157.272
X132.596Y-103.054
X132.7Y-163.1
X132.761Y-90.915
X132.812Y-135.531
X132.815Y-77.38
X132.993Y-92.65
X133.01Y-76.02
X133.032Y-155.63
X133.08Y-93.403
X133.317Y-84.959
X133.4Y-109.3
X133.526Y-185.823
X133.75Y-75.2
X133.762Y-67.15
X134.0Y-124.0
X134.0Y-136.0
X134.0Y-154.0
X134.0Y-163.3
X134.0Y-166.0
X134.25Y-69.35
X134.66Y-166.007
X134.7Y-164.153
X134.75Y-66.65
X134.972Y-81.497
X135.2Y-124.695
X135.412Y-104.09
X135.703Y-92.419
X135.734Y-107.408
X135.75Y-77.55
X135.8Y-81.2
X135.837Y-163.659
X135.93Y-86.252
X136.241Y-155.987
X136.576Y-118.078
X136.8Y-109.25
X136.8Y-110.1
X136.8Y-111.8
X136.841Y-76.587
X136.869Y-147.942
X136.872Y-137.719
X136.878Y-108.422
X137.05Y-66.55
X137.463Y-161.094
X138.025Y-160.6
X138.395Y-129.389
X138.395Y-138.327
X138.404Y-145.578
X138.407Y-128.563
X138.5Y-94.65
X138.5Y-109.25
X138.5Y-110.1
X138.5Y-110.95
X138.5Y-111.8
X138.5Y-112.65
X138.67Y-106.49
X138.87Y-121.727
X139.272Y-138.885
X139.71Y-155.7
X139.714Y-158.343
X139.745Y-106.935
X139.774Y-166.433
X139.841Y-164.787
X140.0Y-76.0
X140.0Y-82.0
X140.0Y-88.0
X140.0Y-118.0
X140.0Y-130.0
X140.0Y-142.0
X140.0Y-161.9
X140.0Y-208.0
X140.341Y-140.707
X140.429Y-145.956
X140.5Y-113.5
X140.55Y-77.53
X140.7Y-162.65
X140.713Y-151.109
X140.737Y-122.814
X140.737Y-138.846
X140.772Y-159.507
X140.86Y-153.92
X140.905Y-154.978
X141.325Y-176.582
X141.585Y-166.595
X141.63Y-155.801
X141.669Y-68.878
X141.741Y-164.987
X141.857Y-145.956
X141.86Y-147.079
X141.936Y-95.837
X141.941Y-129.565
X141.975Y-157.272
X142.1Y-154.3
X142.338Y-167.17
X142.338Y-168.577
X142.409Y-146.517
X142.509Y-72.895
X142.6Y-156.42
X143.34Y-163.46
X143.536Y-95.837
X143.7Y-155.9
X144.141Y-163.887
X145.48Y-176.582
X145.65Y-164.2
X146.0Y-64.0
X146.0Y-70.0
X146.0Y-82.0
X146.0Y-88.0
X146.0Y-208.0
X146.041Y-165.228
X146.6Y-79.479
X147.4Y-165.6
X148.656Y-141.974
X148.891Y-142.982
X149.5Y-157.75
X150.001Y-148.503
X150.232Y-157.202
X151.25Y-160.48
X151.25Y-161.55
X151.413Y-159.155
X151.826Y-152.169
X152.0Y-88.0
X152.0Y-94.0
X152.0Y-208.0
X152.041Y-153.583
X152.672Y-197.332
X153.48Y-94.3
X153.724Y-153.89
X154.686Y-148.006
X154.9Y-95.85
X154.9Y-97.85
X155.2Y-107.4
X155.4Y-105.1
X155.6Y-81.362
X155.6Y-96.85
X155.6Y-98.35
X155.761Y-180.691
X156.3Y-97.35
X156.5Y-85.85
X156.5Y-88.35
X156.751Y-156.529
X156.9Y-104.3
X156.921Y-155.006
X157.4Y-106.6
X158.0Y-100.35
X158.0Y-118.0
X158.0Y-130.0
X158.0Y-202.0
X158.0Y-208.0
X158.15Y-157.369
X158.3Y-79.5
X158.5Y-96.35
X158.741Y-153.315
X158.809Y-188.145
X158.95Y-152.497
X159.156Y-189.005
X160.1Y-93.6
X161.0Y-84.85
X161.0Y-101.35
X161.6Y-94.3
X161.6Y-107.5
X163.5Y-82.0
X163.5Y-103.5
X164.0Y-124.0
X164.0Y-136.0
X164.0Y-208.0
X167.295Y-123.541
X168.498Y-191.817
X168.5Y-93.1
X170.0Y-82.0
X170.0Y-104.5
X170.0Y-118.0
X170.0Y-142.0
X170.0Y-184.0
X170.548Y-195.717
X170.682Y-132.299
X170.725Y-172.321
X170.737Y-181.829
X172.156Y-141.216
X174.5Y-93.1
X175.0Y-82.0
X175.0Y-104.5
X176.0Y-136.0
X176.0Y-208.0
X176.25Y-164.665
X177.459Y-136.35
X182.0Y-118.0
X182.0Y-124.0
X182.0Y-130.0
X182.0Y-136.0
M30
