%TF.GenerationSoftware,KiCad,Pcbnew,10.0.6*%
%TF.CreationDate,2026-10-08T21:38:41-04:00*%
%TF.ProjectId,ai_calc_v15_lcd,61695f63-616c-4635-9f76-31355f6c6364,v15-LCD*%
%TF.SameCoordinates,Original*%
%TF.FileFunction,Legend,Top*%
%TF.FilePolarity,Positive*%
%FSLAX46Y46*%
G04 Gerber Fmt 4.6, Leading zero omitted, Abs format (unit mm)*
G04 Created by KiCad (PCBNEW 10.0.6) date 2026-10-08 21:38:41*
%MOMM*%
%LPD*%
G01*
G04 APERTURE LIST*
G04 Aperture macros list*
%AMRoundRect*
0 Rectangle with rounded corners*
0 $1 Rounding radius*
0 $2 $3 $4 $5 $6 $7 $8 $9 X,Y pos of 4 corners*
0 Add a 4 corners polygon primitive as box body*
4,1,4,$2,$3,$4,$5,$6,$7,$8,$9,$2,$3,0*
0 Add four circle primitives for the rounded corners*
1,1,$1+$1,$2,$3*
1,1,$1+$1,$4,$5*
1,1,$1+$1,$6,$7*
1,1,$1+$1,$8,$9*
0 Add four rect primitives between the rounded corners*
20,1,$1+$1,$2,$3,$4,$5,0*
20,1,$1+$1,$4,$5,$6,$7,0*
20,1,$1+$1,$6,$7,$8,$9,0*
20,1,$1+$1,$8,$9,$2,$3,0*%
%AMFreePoly0*
4,1,6,0.600000,-0.600000,-0.600000,-0.600000,-0.600000,0.000000,0.000000,0.600000,0.600000,0.600000,0.600000,-0.600000,0.600000,-0.600000,$1*%
G04 Aperture macros list end*
%ADD10C,0.150000*%
%ADD11C,0.120000*%
%ADD12C,0.250000*%
%ADD13C,0.060000*%
%ADD14C,0.000000*%
%ADD15RoundRect,0.150000X-0.512500X-0.150000X0.512500X-0.150000X0.512500X0.150000X-0.512500X0.150000X0*%
%ADD16C,6.000000*%
%ADD17RoundRect,0.150000X0.150000X-0.587500X0.150000X0.587500X-0.150000X0.587500X-0.150000X-0.587500X0*%
%ADD18C,2.000000*%
%ADD19RoundRect,0.225000X0.250000X-0.225000X0.250000X0.225000X-0.250000X0.225000X-0.250000X-0.225000X0*%
%ADD20C,1.500000*%
%ADD21R,0.800000X0.300000*%
%ADD22R,0.800000X0.400000*%
%ADD23RoundRect,0.135000X-0.135000X-0.185000X0.135000X-0.185000X0.135000X0.185000X-0.135000X0.185000X0*%
%ADD24RoundRect,0.140000X-0.170000X0.140000X-0.170000X-0.140000X0.170000X-0.140000X0.170000X0.140000X0*%
%ADD25RoundRect,0.135000X0.185000X-0.135000X0.185000X0.135000X-0.185000X0.135000X-0.185000X-0.135000X0*%
%ADD26RoundRect,0.250000X0.475000X-0.250000X0.475000X0.250000X-0.475000X0.250000X-0.475000X-0.250000X0*%
%ADD27RoundRect,0.140000X0.170000X-0.140000X0.170000X0.140000X-0.170000X0.140000X-0.170000X-0.140000X0*%
%ADD28RoundRect,0.153000X-0.357000X-1.347000X0.357000X-1.347000X0.357000X1.347000X-0.357000X1.347000X0*%
%ADD29R,1.000000X3.800000*%
%ADD30R,1.500000X3.400000*%
%ADD31RoundRect,0.250000X0.250000X0.475000X-0.250000X0.475000X-0.250000X-0.475000X0.250000X-0.475000X0*%
%ADD32RoundRect,0.140000X-0.140000X-0.170000X0.140000X-0.170000X0.140000X0.170000X-0.140000X0.170000X0*%
%ADD33O,4.200000X5.000000*%
%ADD34O,4.200000X4.650000*%
%ADD35O,4.200000X4.450000*%
%ADD36RoundRect,0.250000X-0.475000X0.250000X-0.475000X-0.250000X0.475000X-0.250000X0.475000X0.250000X0*%
%ADD37RoundRect,0.200000X0.200000X0.275000X-0.200000X0.275000X-0.200000X-0.275000X0.200000X-0.275000X0*%
%ADD38C,4.200000*%
%ADD39RoundRect,0.225000X-0.225000X-0.375000X0.225000X-0.375000X0.225000X0.375000X-0.225000X0.375000X0*%
%ADD40R,0.300000X1.200000*%
%ADD41R,1.800000X2.000000*%
%ADD42RoundRect,0.250000X0.400000X0.450000X-0.400000X0.450000X-0.400000X-0.450000X0.400000X-0.450000X0*%
%ADD43RoundRect,0.218750X-0.218750X-0.256250X0.218750X-0.256250X0.218750X0.256250X-0.218750X0.256250X0*%
%ADD44RoundRect,0.135000X0.135000X0.185000X-0.135000X0.185000X-0.135000X-0.185000X0.135000X-0.185000X0*%
%ADD45RoundRect,0.150000X-0.150000X0.587500X-0.150000X-0.587500X0.150000X-0.587500X0.150000X0.587500X0*%
%ADD46RoundRect,0.225000X-0.250000X0.225000X-0.250000X-0.225000X0.250000X-0.225000X0.250000X0.225000X0*%
%ADD47RoundRect,0.225000X-0.225000X-0.250000X0.225000X-0.250000X0.225000X0.250000X-0.225000X0.250000X0*%
%ADD48C,1.000000*%
%ADD49O,4.400000X4.800000*%
%ADD50R,0.400000X0.800000*%
%ADD51FreePoly0,90.000000*%
%ADD52R,1.200000X1.200000*%
%ADD53R,0.800000X0.800000*%
%ADD54RoundRect,0.150000X-0.587500X-0.150000X0.587500X-0.150000X0.587500X0.150000X-0.587500X0.150000X0*%
%ADD55RoundRect,0.062500X-0.375000X-0.062500X0.375000X-0.062500X0.375000X0.062500X-0.375000X0.062500X0*%
%ADD56RoundRect,0.062500X-0.062500X-0.375000X0.062500X-0.375000X0.062500X0.375000X-0.062500X0.375000X0*%
%ADD57R,2.600000X2.600000*%
G04 APERTURE END LIST*
D10*
X155500000Y-100350000D02*
X156100000Y-100350000D01*
X157500000Y-105950000D02*
X157900000Y-105950000D01*
X158600000Y-80600000D02*
X159000000Y-80600000D01*
D11*
X119914285Y-108794807D02*
X120028571Y-108832902D01*
X120028571Y-108832902D02*
X120066666Y-108870998D01*
X120066666Y-108870998D02*
X120104762Y-108947188D01*
X120104762Y-108947188D02*
X120104762Y-109061474D01*
X120104762Y-109061474D02*
X120066666Y-109137664D01*
X120066666Y-109137664D02*
X120028571Y-109175760D01*
X120028571Y-109175760D02*
X119952381Y-109213855D01*
X119952381Y-109213855D02*
X119647619Y-109213855D01*
X119647619Y-109213855D02*
X119647619Y-108413855D01*
X119647619Y-108413855D02*
X119914285Y-108413855D01*
X119914285Y-108413855D02*
X119990476Y-108451950D01*
X119990476Y-108451950D02*
X120028571Y-108490045D01*
X120028571Y-108490045D02*
X120066666Y-108566236D01*
X120066666Y-108566236D02*
X120066666Y-108642426D01*
X120066666Y-108642426D02*
X120028571Y-108718617D01*
X120028571Y-108718617D02*
X119990476Y-108756712D01*
X119990476Y-108756712D02*
X119914285Y-108794807D01*
X119914285Y-108794807D02*
X119647619Y-108794807D01*
X120600000Y-108413855D02*
X120752381Y-108413855D01*
X120752381Y-108413855D02*
X120828571Y-108451950D01*
X120828571Y-108451950D02*
X120904762Y-108528140D01*
X120904762Y-108528140D02*
X120942857Y-108680521D01*
X120942857Y-108680521D02*
X120942857Y-108947188D01*
X120942857Y-108947188D02*
X120904762Y-109099569D01*
X120904762Y-109099569D02*
X120828571Y-109175760D01*
X120828571Y-109175760D02*
X120752381Y-109213855D01*
X120752381Y-109213855D02*
X120600000Y-109213855D01*
X120600000Y-109213855D02*
X120523809Y-109175760D01*
X120523809Y-109175760D02*
X120447619Y-109099569D01*
X120447619Y-109099569D02*
X120409523Y-108947188D01*
X120409523Y-108947188D02*
X120409523Y-108680521D01*
X120409523Y-108680521D02*
X120447619Y-108528140D01*
X120447619Y-108528140D02*
X120523809Y-108451950D01*
X120523809Y-108451950D02*
X120600000Y-108413855D01*
X121438095Y-108413855D02*
X121590476Y-108413855D01*
X121590476Y-108413855D02*
X121666666Y-108451950D01*
X121666666Y-108451950D02*
X121742857Y-108528140D01*
X121742857Y-108528140D02*
X121780952Y-108680521D01*
X121780952Y-108680521D02*
X121780952Y-108947188D01*
X121780952Y-108947188D02*
X121742857Y-109099569D01*
X121742857Y-109099569D02*
X121666666Y-109175760D01*
X121666666Y-109175760D02*
X121590476Y-109213855D01*
X121590476Y-109213855D02*
X121438095Y-109213855D01*
X121438095Y-109213855D02*
X121361904Y-109175760D01*
X121361904Y-109175760D02*
X121285714Y-109099569D01*
X121285714Y-109099569D02*
X121247618Y-108947188D01*
X121247618Y-108947188D02*
X121247618Y-108680521D01*
X121247618Y-108680521D02*
X121285714Y-108528140D01*
X121285714Y-108528140D02*
X121361904Y-108451950D01*
X121361904Y-108451950D02*
X121438095Y-108413855D01*
X122009523Y-108413855D02*
X122466666Y-108413855D01*
X122238094Y-109213855D02*
X122238094Y-108413855D01*
X121909523Y-80313855D02*
X122404761Y-80313855D01*
X122404761Y-80313855D02*
X122138095Y-80618617D01*
X122138095Y-80618617D02*
X122252380Y-80618617D01*
X122252380Y-80618617D02*
X122328571Y-80656712D01*
X122328571Y-80656712D02*
X122366666Y-80694807D01*
X122366666Y-80694807D02*
X122404761Y-80770998D01*
X122404761Y-80770998D02*
X122404761Y-80961474D01*
X122404761Y-80961474D02*
X122366666Y-81037664D01*
X122366666Y-81037664D02*
X122328571Y-81075760D01*
X122328571Y-81075760D02*
X122252380Y-81113855D01*
X122252380Y-81113855D02*
X122023809Y-81113855D01*
X122023809Y-81113855D02*
X121947618Y-81075760D01*
X121947618Y-81075760D02*
X121909523Y-81037664D01*
X122633333Y-80313855D02*
X122900000Y-81113855D01*
X122900000Y-81113855D02*
X123166666Y-80313855D01*
X123357142Y-80313855D02*
X123852380Y-80313855D01*
X123852380Y-80313855D02*
X123585714Y-80618617D01*
X123585714Y-80618617D02*
X123699999Y-80618617D01*
X123699999Y-80618617D02*
X123776190Y-80656712D01*
X123776190Y-80656712D02*
X123814285Y-80694807D01*
X123814285Y-80694807D02*
X123852380Y-80770998D01*
X123852380Y-80770998D02*
X123852380Y-80961474D01*
X123852380Y-80961474D02*
X123814285Y-81037664D01*
X123814285Y-81037664D02*
X123776190Y-81075760D01*
X123776190Y-81075760D02*
X123699999Y-81113855D01*
X123699999Y-81113855D02*
X123471428Y-81113855D01*
X123471428Y-81113855D02*
X123395237Y-81075760D01*
X123395237Y-81075760D02*
X123357142Y-81037664D01*
X122790476Y-112701950D02*
X122714286Y-112663855D01*
X122714286Y-112663855D02*
X122600000Y-112663855D01*
X122600000Y-112663855D02*
X122485714Y-112701950D01*
X122485714Y-112701950D02*
X122409524Y-112778140D01*
X122409524Y-112778140D02*
X122371429Y-112854331D01*
X122371429Y-112854331D02*
X122333333Y-113006712D01*
X122333333Y-113006712D02*
X122333333Y-113120998D01*
X122333333Y-113120998D02*
X122371429Y-113273379D01*
X122371429Y-113273379D02*
X122409524Y-113349569D01*
X122409524Y-113349569D02*
X122485714Y-113425760D01*
X122485714Y-113425760D02*
X122600000Y-113463855D01*
X122600000Y-113463855D02*
X122676191Y-113463855D01*
X122676191Y-113463855D02*
X122790476Y-113425760D01*
X122790476Y-113425760D02*
X122828572Y-113387664D01*
X122828572Y-113387664D02*
X122828572Y-113120998D01*
X122828572Y-113120998D02*
X122676191Y-113120998D01*
X123171429Y-113463855D02*
X123171429Y-112663855D01*
X123171429Y-112663855D02*
X123628572Y-113463855D01*
X123628572Y-113463855D02*
X123628572Y-112663855D01*
X124009524Y-113463855D02*
X124009524Y-112663855D01*
X124009524Y-112663855D02*
X124200000Y-112663855D01*
X124200000Y-112663855D02*
X124314286Y-112701950D01*
X124314286Y-112701950D02*
X124390476Y-112778140D01*
X124390476Y-112778140D02*
X124428571Y-112854331D01*
X124428571Y-112854331D02*
X124466667Y-113006712D01*
X124466667Y-113006712D02*
X124466667Y-113120998D01*
X124466667Y-113120998D02*
X124428571Y-113273379D01*
X124428571Y-113273379D02*
X124390476Y-113349569D01*
X124390476Y-113349569D02*
X124314286Y-113425760D01*
X124314286Y-113425760D02*
X124200000Y-113463855D01*
X124200000Y-113463855D02*
X124009524Y-113463855D01*
X127409524Y-86194807D02*
X127676190Y-86194807D01*
X127790476Y-86613855D02*
X127409524Y-86613855D01*
X127409524Y-86613855D02*
X127409524Y-85813855D01*
X127409524Y-85813855D02*
X127790476Y-85813855D01*
X128133334Y-86613855D02*
X128133334Y-85813855D01*
X128133334Y-85813855D02*
X128590477Y-86613855D01*
X128590477Y-86613855D02*
X128590477Y-85813855D01*
X137390476Y-87513855D02*
X137847619Y-87513855D01*
X137619047Y-88313855D02*
X137619047Y-87513855D01*
X138038095Y-87513855D02*
X138571429Y-88313855D01*
X138571429Y-87513855D02*
X138038095Y-88313855D01*
X140095238Y-71059093D02*
X140704762Y-71059093D01*
X140266667Y-88313855D02*
X140000000Y-87932902D01*
X139809524Y-88313855D02*
X139809524Y-87513855D01*
X139809524Y-87513855D02*
X140114286Y-87513855D01*
X140114286Y-87513855D02*
X140190476Y-87551950D01*
X140190476Y-87551950D02*
X140228571Y-87590045D01*
X140228571Y-87590045D02*
X140266667Y-87666236D01*
X140266667Y-87666236D02*
X140266667Y-87780521D01*
X140266667Y-87780521D02*
X140228571Y-87856712D01*
X140228571Y-87856712D02*
X140190476Y-87894807D01*
X140190476Y-87894807D02*
X140114286Y-87932902D01*
X140114286Y-87932902D02*
X139809524Y-87932902D01*
X140533333Y-87513855D02*
X141066667Y-88313855D01*
X141066667Y-87513855D02*
X140533333Y-88313855D01*
X142809523Y-80244807D02*
X142923809Y-80282902D01*
X142923809Y-80282902D02*
X142961904Y-80320998D01*
X142961904Y-80320998D02*
X143000000Y-80397188D01*
X143000000Y-80397188D02*
X143000000Y-80511474D01*
X143000000Y-80511474D02*
X142961904Y-80587664D01*
X142961904Y-80587664D02*
X142923809Y-80625760D01*
X142923809Y-80625760D02*
X142847619Y-80663855D01*
X142847619Y-80663855D02*
X142542857Y-80663855D01*
X142542857Y-80663855D02*
X142542857Y-79863855D01*
X142542857Y-79863855D02*
X142809523Y-79863855D01*
X142809523Y-79863855D02*
X142885714Y-79901950D01*
X142885714Y-79901950D02*
X142923809Y-79940045D01*
X142923809Y-79940045D02*
X142961904Y-80016236D01*
X142961904Y-80016236D02*
X142961904Y-80092426D01*
X142961904Y-80092426D02*
X142923809Y-80168617D01*
X142923809Y-80168617D02*
X142885714Y-80206712D01*
X142885714Y-80206712D02*
X142809523Y-80244807D01*
X142809523Y-80244807D02*
X142542857Y-80244807D01*
X143304761Y-80435283D02*
X143685714Y-80435283D01*
X143228571Y-80663855D02*
X143495238Y-79863855D01*
X143495238Y-79863855D02*
X143761904Y-80663855D01*
X143914285Y-79863855D02*
X144371428Y-79863855D01*
X144142856Y-80663855D02*
X144142856Y-79863855D01*
X144295238Y-71059093D02*
X144904762Y-71059093D01*
X144600000Y-71363855D02*
X144600000Y-70754331D01*
D10*
X121042857Y-70108557D02*
X121042857Y-69208557D01*
X121042857Y-69208557D02*
X121557143Y-70108557D01*
X121557143Y-70108557D02*
X121557143Y-69208557D01*
X120957142Y-71365700D02*
X121642857Y-71365700D01*
X121299999Y-71708557D02*
X121299999Y-71022842D01*
X133257142Y-71665700D02*
X133942857Y-71665700D01*
X143642857Y-136169104D02*
X144119047Y-136169104D01*
X143547619Y-136454819D02*
X143880952Y-135454819D01*
X143880952Y-135454819D02*
X144214285Y-136454819D01*
X144547619Y-136454819D02*
X144547619Y-135454819D01*
X146357142Y-136359580D02*
X146309523Y-136407200D01*
X146309523Y-136407200D02*
X146166666Y-136454819D01*
X146166666Y-136454819D02*
X146071428Y-136454819D01*
X146071428Y-136454819D02*
X145928571Y-136407200D01*
X145928571Y-136407200D02*
X145833333Y-136311961D01*
X145833333Y-136311961D02*
X145785714Y-136216723D01*
X145785714Y-136216723D02*
X145738095Y-136026247D01*
X145738095Y-136026247D02*
X145738095Y-135883390D01*
X145738095Y-135883390D02*
X145785714Y-135692914D01*
X145785714Y-135692914D02*
X145833333Y-135597676D01*
X145833333Y-135597676D02*
X145928571Y-135502438D01*
X145928571Y-135502438D02*
X146071428Y-135454819D01*
X146071428Y-135454819D02*
X146166666Y-135454819D01*
X146166666Y-135454819D02*
X146309523Y-135502438D01*
X146309523Y-135502438D02*
X146357142Y-135550057D01*
X146738095Y-136169104D02*
X147214285Y-136169104D01*
X146642857Y-136454819D02*
X146976190Y-135454819D01*
X146976190Y-135454819D02*
X147309523Y-136454819D01*
X148119047Y-136454819D02*
X147642857Y-136454819D01*
X147642857Y-136454819D02*
X147642857Y-135454819D01*
X149023809Y-136359580D02*
X148976190Y-136407200D01*
X148976190Y-136407200D02*
X148833333Y-136454819D01*
X148833333Y-136454819D02*
X148738095Y-136454819D01*
X148738095Y-136454819D02*
X148595238Y-136407200D01*
X148595238Y-136407200D02*
X148500000Y-136311961D01*
X148500000Y-136311961D02*
X148452381Y-136216723D01*
X148452381Y-136216723D02*
X148404762Y-136026247D01*
X148404762Y-136026247D02*
X148404762Y-135883390D01*
X148404762Y-135883390D02*
X148452381Y-135692914D01*
X148452381Y-135692914D02*
X148500000Y-135597676D01*
X148500000Y-135597676D02*
X148595238Y-135502438D01*
X148595238Y-135502438D02*
X148738095Y-135454819D01*
X148738095Y-135454819D02*
X148833333Y-135454819D01*
X148833333Y-135454819D02*
X148976190Y-135502438D01*
X148976190Y-135502438D02*
X149023809Y-135550057D01*
X150119048Y-135788152D02*
X150357143Y-136454819D01*
X150357143Y-136454819D02*
X150595238Y-135788152D01*
X151500000Y-136454819D02*
X150928572Y-136454819D01*
X151214286Y-136454819D02*
X151214286Y-135454819D01*
X151214286Y-135454819D02*
X151119048Y-135597676D01*
X151119048Y-135597676D02*
X151023810Y-135692914D01*
X151023810Y-135692914D02*
X150928572Y-135740533D01*
X152404762Y-135454819D02*
X151928572Y-135454819D01*
X151928572Y-135454819D02*
X151880953Y-135931009D01*
X151880953Y-135931009D02*
X151928572Y-135883390D01*
X151928572Y-135883390D02*
X152023810Y-135835771D01*
X152023810Y-135835771D02*
X152261905Y-135835771D01*
X152261905Y-135835771D02*
X152357143Y-135883390D01*
X152357143Y-135883390D02*
X152404762Y-135931009D01*
X152404762Y-135931009D02*
X152452381Y-136026247D01*
X152452381Y-136026247D02*
X152452381Y-136264342D01*
X152452381Y-136264342D02*
X152404762Y-136359580D01*
X152404762Y-136359580D02*
X152357143Y-136407200D01*
X152357143Y-136407200D02*
X152261905Y-136454819D01*
X152261905Y-136454819D02*
X152023810Y-136454819D01*
X152023810Y-136454819D02*
X151928572Y-136407200D01*
X151928572Y-136407200D02*
X151880953Y-136359580D01*
X152880953Y-136073866D02*
X153642858Y-136073866D01*
X154595238Y-136454819D02*
X154119048Y-136454819D01*
X154119048Y-136454819D02*
X154119048Y-135454819D01*
X155500000Y-136359580D02*
X155452381Y-136407200D01*
X155452381Y-136407200D02*
X155309524Y-136454819D01*
X155309524Y-136454819D02*
X155214286Y-136454819D01*
X155214286Y-136454819D02*
X155071429Y-136407200D01*
X155071429Y-136407200D02*
X154976191Y-136311961D01*
X154976191Y-136311961D02*
X154928572Y-136216723D01*
X154928572Y-136216723D02*
X154880953Y-136026247D01*
X154880953Y-136026247D02*
X154880953Y-135883390D01*
X154880953Y-135883390D02*
X154928572Y-135692914D01*
X154928572Y-135692914D02*
X154976191Y-135597676D01*
X154976191Y-135597676D02*
X155071429Y-135502438D01*
X155071429Y-135502438D02*
X155214286Y-135454819D01*
X155214286Y-135454819D02*
X155309524Y-135454819D01*
X155309524Y-135454819D02*
X155452381Y-135502438D01*
X155452381Y-135502438D02*
X155500000Y-135550057D01*
X155928572Y-136454819D02*
X155928572Y-135454819D01*
X155928572Y-135454819D02*
X156166667Y-135454819D01*
X156166667Y-135454819D02*
X156309524Y-135502438D01*
X156309524Y-135502438D02*
X156404762Y-135597676D01*
X156404762Y-135597676D02*
X156452381Y-135692914D01*
X156452381Y-135692914D02*
X156500000Y-135883390D01*
X156500000Y-135883390D02*
X156500000Y-136026247D01*
X156500000Y-136026247D02*
X156452381Y-136216723D01*
X156452381Y-136216723D02*
X156404762Y-136311961D01*
X156404762Y-136311961D02*
X156309524Y-136407200D01*
X156309524Y-136407200D02*
X156166667Y-136454819D01*
X156166667Y-136454819D02*
X155928572Y-136454819D01*
X157642858Y-135550057D02*
X157690477Y-135502438D01*
X157690477Y-135502438D02*
X157785715Y-135454819D01*
X157785715Y-135454819D02*
X158023810Y-135454819D01*
X158023810Y-135454819D02*
X158119048Y-135502438D01*
X158119048Y-135502438D02*
X158166667Y-135550057D01*
X158166667Y-135550057D02*
X158214286Y-135645295D01*
X158214286Y-135645295D02*
X158214286Y-135740533D01*
X158214286Y-135740533D02*
X158166667Y-135883390D01*
X158166667Y-135883390D02*
X157595239Y-136454819D01*
X157595239Y-136454819D02*
X158214286Y-136454819D01*
X158833334Y-135454819D02*
X158928572Y-135454819D01*
X158928572Y-135454819D02*
X159023810Y-135502438D01*
X159023810Y-135502438D02*
X159071429Y-135550057D01*
X159071429Y-135550057D02*
X159119048Y-135645295D01*
X159119048Y-135645295D02*
X159166667Y-135835771D01*
X159166667Y-135835771D02*
X159166667Y-136073866D01*
X159166667Y-136073866D02*
X159119048Y-136264342D01*
X159119048Y-136264342D02*
X159071429Y-136359580D01*
X159071429Y-136359580D02*
X159023810Y-136407200D01*
X159023810Y-136407200D02*
X158928572Y-136454819D01*
X158928572Y-136454819D02*
X158833334Y-136454819D01*
X158833334Y-136454819D02*
X158738096Y-136407200D01*
X158738096Y-136407200D02*
X158690477Y-136359580D01*
X158690477Y-136359580D02*
X158642858Y-136264342D01*
X158642858Y-136264342D02*
X158595239Y-136073866D01*
X158595239Y-136073866D02*
X158595239Y-135835771D01*
X158595239Y-135835771D02*
X158642858Y-135645295D01*
X158642858Y-135645295D02*
X158690477Y-135550057D01*
X158690477Y-135550057D02*
X158738096Y-135502438D01*
X158738096Y-135502438D02*
X158833334Y-135454819D01*
X159547620Y-135550057D02*
X159595239Y-135502438D01*
X159595239Y-135502438D02*
X159690477Y-135454819D01*
X159690477Y-135454819D02*
X159928572Y-135454819D01*
X159928572Y-135454819D02*
X160023810Y-135502438D01*
X160023810Y-135502438D02*
X160071429Y-135550057D01*
X160071429Y-135550057D02*
X160119048Y-135645295D01*
X160119048Y-135645295D02*
X160119048Y-135740533D01*
X160119048Y-135740533D02*
X160071429Y-135883390D01*
X160071429Y-135883390D02*
X159500001Y-136454819D01*
X159500001Y-136454819D02*
X160119048Y-136454819D01*
X160976191Y-135454819D02*
X160785715Y-135454819D01*
X160785715Y-135454819D02*
X160690477Y-135502438D01*
X160690477Y-135502438D02*
X160642858Y-135550057D01*
X160642858Y-135550057D02*
X160547620Y-135692914D01*
X160547620Y-135692914D02*
X160500001Y-135883390D01*
X160500001Y-135883390D02*
X160500001Y-136264342D01*
X160500001Y-136264342D02*
X160547620Y-136359580D01*
X160547620Y-136359580D02*
X160595239Y-136407200D01*
X160595239Y-136407200D02*
X160690477Y-136454819D01*
X160690477Y-136454819D02*
X160880953Y-136454819D01*
X160880953Y-136454819D02*
X160976191Y-136407200D01*
X160976191Y-136407200D02*
X161023810Y-136359580D01*
X161023810Y-136359580D02*
X161071429Y-136264342D01*
X161071429Y-136264342D02*
X161071429Y-136026247D01*
X161071429Y-136026247D02*
X161023810Y-135931009D01*
X161023810Y-135931009D02*
X160976191Y-135883390D01*
X160976191Y-135883390D02*
X160880953Y-135835771D01*
X160880953Y-135835771D02*
X160690477Y-135835771D01*
X160690477Y-135835771D02*
X160595239Y-135883390D01*
X160595239Y-135883390D02*
X160547620Y-135931009D01*
X160547620Y-135931009D02*
X160500001Y-136026247D01*
X161500001Y-136073866D02*
X162261906Y-136073866D01*
X163261905Y-136454819D02*
X162690477Y-136454819D01*
X162976191Y-136454819D02*
X162976191Y-135454819D01*
X162976191Y-135454819D02*
X162880953Y-135597676D01*
X162880953Y-135597676D02*
X162785715Y-135692914D01*
X162785715Y-135692914D02*
X162690477Y-135740533D01*
X163880953Y-135454819D02*
X163976191Y-135454819D01*
X163976191Y-135454819D02*
X164071429Y-135502438D01*
X164071429Y-135502438D02*
X164119048Y-135550057D01*
X164119048Y-135550057D02*
X164166667Y-135645295D01*
X164166667Y-135645295D02*
X164214286Y-135835771D01*
X164214286Y-135835771D02*
X164214286Y-136073866D01*
X164214286Y-136073866D02*
X164166667Y-136264342D01*
X164166667Y-136264342D02*
X164119048Y-136359580D01*
X164119048Y-136359580D02*
X164071429Y-136407200D01*
X164071429Y-136407200D02*
X163976191Y-136454819D01*
X163976191Y-136454819D02*
X163880953Y-136454819D01*
X163880953Y-136454819D02*
X163785715Y-136407200D01*
X163785715Y-136407200D02*
X163738096Y-136359580D01*
X163738096Y-136359580D02*
X163690477Y-136264342D01*
X163690477Y-136264342D02*
X163642858Y-136073866D01*
X163642858Y-136073866D02*
X163642858Y-135835771D01*
X163642858Y-135835771D02*
X163690477Y-135645295D01*
X163690477Y-135645295D02*
X163738096Y-135550057D01*
X163738096Y-135550057D02*
X163785715Y-135502438D01*
X163785715Y-135502438D02*
X163880953Y-135454819D01*
X164642858Y-136073866D02*
X165404763Y-136073866D01*
X166071429Y-135454819D02*
X166166667Y-135454819D01*
X166166667Y-135454819D02*
X166261905Y-135502438D01*
X166261905Y-135502438D02*
X166309524Y-135550057D01*
X166309524Y-135550057D02*
X166357143Y-135645295D01*
X166357143Y-135645295D02*
X166404762Y-135835771D01*
X166404762Y-135835771D02*
X166404762Y-136073866D01*
X166404762Y-136073866D02*
X166357143Y-136264342D01*
X166357143Y-136264342D02*
X166309524Y-136359580D01*
X166309524Y-136359580D02*
X166261905Y-136407200D01*
X166261905Y-136407200D02*
X166166667Y-136454819D01*
X166166667Y-136454819D02*
X166071429Y-136454819D01*
X166071429Y-136454819D02*
X165976191Y-136407200D01*
X165976191Y-136407200D02*
X165928572Y-136359580D01*
X165928572Y-136359580D02*
X165880953Y-136264342D01*
X165880953Y-136264342D02*
X165833334Y-136073866D01*
X165833334Y-136073866D02*
X165833334Y-135835771D01*
X165833334Y-135835771D02*
X165880953Y-135645295D01*
X165880953Y-135645295D02*
X165928572Y-135550057D01*
X165928572Y-135550057D02*
X165976191Y-135502438D01*
X165976191Y-135502438D02*
X166071429Y-135454819D01*
X166976191Y-135883390D02*
X166880953Y-135835771D01*
X166880953Y-135835771D02*
X166833334Y-135788152D01*
X166833334Y-135788152D02*
X166785715Y-135692914D01*
X166785715Y-135692914D02*
X166785715Y-135645295D01*
X166785715Y-135645295D02*
X166833334Y-135550057D01*
X166833334Y-135550057D02*
X166880953Y-135502438D01*
X166880953Y-135502438D02*
X166976191Y-135454819D01*
X166976191Y-135454819D02*
X167166667Y-135454819D01*
X167166667Y-135454819D02*
X167261905Y-135502438D01*
X167261905Y-135502438D02*
X167309524Y-135550057D01*
X167309524Y-135550057D02*
X167357143Y-135645295D01*
X167357143Y-135645295D02*
X167357143Y-135692914D01*
X167357143Y-135692914D02*
X167309524Y-135788152D01*
X167309524Y-135788152D02*
X167261905Y-135835771D01*
X167261905Y-135835771D02*
X167166667Y-135883390D01*
X167166667Y-135883390D02*
X166976191Y-135883390D01*
X166976191Y-135883390D02*
X166880953Y-135931009D01*
X166880953Y-135931009D02*
X166833334Y-135978628D01*
X166833334Y-135978628D02*
X166785715Y-136073866D01*
X166785715Y-136073866D02*
X166785715Y-136264342D01*
X166785715Y-136264342D02*
X166833334Y-136359580D01*
X166833334Y-136359580D02*
X166880953Y-136407200D01*
X166880953Y-136407200D02*
X166976191Y-136454819D01*
X166976191Y-136454819D02*
X167166667Y-136454819D01*
X167166667Y-136454819D02*
X167261905Y-136407200D01*
X167261905Y-136407200D02*
X167309524Y-136359580D01*
X167309524Y-136359580D02*
X167357143Y-136264342D01*
X167357143Y-136264342D02*
X167357143Y-136073866D01*
X167357143Y-136073866D02*
X167309524Y-135978628D01*
X167309524Y-135978628D02*
X167261905Y-135931009D01*
X167261905Y-135931009D02*
X167166667Y-135883390D01*
X155380951Y-132454819D02*
X155380951Y-133169104D01*
X155380951Y-133169104D02*
X155333332Y-133311961D01*
X155333332Y-133311961D02*
X155238094Y-133407200D01*
X155238094Y-133407200D02*
X155095237Y-133454819D01*
X155095237Y-133454819D02*
X154999999Y-133454819D01*
X156333332Y-133454819D02*
X155857142Y-133454819D01*
X155857142Y-133454819D02*
X155857142Y-132454819D01*
X157238094Y-133359580D02*
X157190475Y-133407200D01*
X157190475Y-133407200D02*
X157047618Y-133454819D01*
X157047618Y-133454819D02*
X156952380Y-133454819D01*
X156952380Y-133454819D02*
X156809523Y-133407200D01*
X156809523Y-133407200D02*
X156714285Y-133311961D01*
X156714285Y-133311961D02*
X156666666Y-133216723D01*
X156666666Y-133216723D02*
X156619047Y-133026247D01*
X156619047Y-133026247D02*
X156619047Y-132883390D01*
X156619047Y-132883390D02*
X156666666Y-132692914D01*
X156666666Y-132692914D02*
X156714285Y-132597676D01*
X156714285Y-132597676D02*
X156809523Y-132502438D01*
X156809523Y-132502438D02*
X156952380Y-132454819D01*
X156952380Y-132454819D02*
X157047618Y-132454819D01*
X157047618Y-132454819D02*
X157190475Y-132502438D01*
X157190475Y-132502438D02*
X157238094Y-132550057D01*
X157952380Y-132454819D02*
X157952380Y-133169104D01*
X157952380Y-133169104D02*
X157904761Y-133311961D01*
X157904761Y-133311961D02*
X157809523Y-133407200D01*
X157809523Y-133407200D02*
X157666666Y-133454819D01*
X157666666Y-133454819D02*
X157571428Y-133454819D01*
X158904761Y-133454819D02*
X158428571Y-133454819D01*
X158428571Y-133454819D02*
X158428571Y-132454819D01*
X159809523Y-133359580D02*
X159761904Y-133407200D01*
X159761904Y-133407200D02*
X159619047Y-133454819D01*
X159619047Y-133454819D02*
X159523809Y-133454819D01*
X159523809Y-133454819D02*
X159380952Y-133407200D01*
X159380952Y-133407200D02*
X159285714Y-133311961D01*
X159285714Y-133311961D02*
X159238095Y-133216723D01*
X159238095Y-133216723D02*
X159190476Y-133026247D01*
X159190476Y-133026247D02*
X159190476Y-132883390D01*
X159190476Y-132883390D02*
X159238095Y-132692914D01*
X159238095Y-132692914D02*
X159285714Y-132597676D01*
X159285714Y-132597676D02*
X159380952Y-132502438D01*
X159380952Y-132502438D02*
X159523809Y-132454819D01*
X159523809Y-132454819D02*
X159619047Y-132454819D01*
X159619047Y-132454819D02*
X159761904Y-132502438D01*
X159761904Y-132502438D02*
X159809523Y-132550057D01*
X160523809Y-132454819D02*
X160523809Y-133169104D01*
X160523809Y-133169104D02*
X160476190Y-133311961D01*
X160476190Y-133311961D02*
X160380952Y-133407200D01*
X160380952Y-133407200D02*
X160238095Y-133454819D01*
X160238095Y-133454819D02*
X160142857Y-133454819D01*
X161476190Y-133454819D02*
X161000000Y-133454819D01*
X161000000Y-133454819D02*
X161000000Y-132454819D01*
X162380952Y-133359580D02*
X162333333Y-133407200D01*
X162333333Y-133407200D02*
X162190476Y-133454819D01*
X162190476Y-133454819D02*
X162095238Y-133454819D01*
X162095238Y-133454819D02*
X161952381Y-133407200D01*
X161952381Y-133407200D02*
X161857143Y-133311961D01*
X161857143Y-133311961D02*
X161809524Y-133216723D01*
X161809524Y-133216723D02*
X161761905Y-133026247D01*
X161761905Y-133026247D02*
X161761905Y-132883390D01*
X161761905Y-132883390D02*
X161809524Y-132692914D01*
X161809524Y-132692914D02*
X161857143Y-132597676D01*
X161857143Y-132597676D02*
X161952381Y-132502438D01*
X161952381Y-132502438D02*
X162095238Y-132454819D01*
X162095238Y-132454819D02*
X162190476Y-132454819D01*
X162190476Y-132454819D02*
X162333333Y-132502438D01*
X162333333Y-132502438D02*
X162380952Y-132550057D01*
X163095238Y-132454819D02*
X163095238Y-133169104D01*
X163095238Y-133169104D02*
X163047619Y-133311961D01*
X163047619Y-133311961D02*
X162952381Y-133407200D01*
X162952381Y-133407200D02*
X162809524Y-133454819D01*
X162809524Y-133454819D02*
X162714286Y-133454819D01*
X164047619Y-133454819D02*
X163571429Y-133454819D01*
X163571429Y-133454819D02*
X163571429Y-132454819D01*
X164952381Y-133359580D02*
X164904762Y-133407200D01*
X164904762Y-133407200D02*
X164761905Y-133454819D01*
X164761905Y-133454819D02*
X164666667Y-133454819D01*
X164666667Y-133454819D02*
X164523810Y-133407200D01*
X164523810Y-133407200D02*
X164428572Y-133311961D01*
X164428572Y-133311961D02*
X164380953Y-133216723D01*
X164380953Y-133216723D02*
X164333334Y-133026247D01*
X164333334Y-133026247D02*
X164333334Y-132883390D01*
X164333334Y-132883390D02*
X164380953Y-132692914D01*
X164380953Y-132692914D02*
X164428572Y-132597676D01*
X164428572Y-132597676D02*
X164523810Y-132502438D01*
X164523810Y-132502438D02*
X164666667Y-132454819D01*
X164666667Y-132454819D02*
X164761905Y-132454819D01*
X164761905Y-132454819D02*
X164904762Y-132502438D01*
X164904762Y-132502438D02*
X164952381Y-132550057D01*
D11*
X132990476Y-80163855D02*
X132990476Y-80811474D01*
X132990476Y-80811474D02*
X133028571Y-80887664D01*
X133028571Y-80887664D02*
X133066666Y-80925760D01*
X133066666Y-80925760D02*
X133142857Y-80963855D01*
X133142857Y-80963855D02*
X133295238Y-80963855D01*
X133295238Y-80963855D02*
X133371428Y-80925760D01*
X133371428Y-80925760D02*
X133409523Y-80887664D01*
X133409523Y-80887664D02*
X133447619Y-80811474D01*
X133447619Y-80811474D02*
X133447619Y-80163855D01*
X133752380Y-80163855D02*
X134285714Y-80163855D01*
X134285714Y-80163855D02*
X133942856Y-80963855D01*
X136875476Y-79863855D02*
X137332619Y-79863855D01*
X137104047Y-80663855D02*
X137104047Y-79863855D01*
X137599286Y-80663855D02*
X137599286Y-79863855D01*
X137599286Y-79863855D02*
X137904048Y-79863855D01*
X137904048Y-79863855D02*
X137980238Y-79901950D01*
X137980238Y-79901950D02*
X138018333Y-79940045D01*
X138018333Y-79940045D02*
X138056429Y-80016236D01*
X138056429Y-80016236D02*
X138056429Y-80130521D01*
X138056429Y-80130521D02*
X138018333Y-80206712D01*
X138018333Y-80206712D02*
X137980238Y-80244807D01*
X137980238Y-80244807D02*
X137904048Y-80282902D01*
X137904048Y-80282902D02*
X137599286Y-80282902D01*
X138742143Y-79863855D02*
X138589762Y-79863855D01*
X138589762Y-79863855D02*
X138513571Y-79901950D01*
X138513571Y-79901950D02*
X138475476Y-79940045D01*
X138475476Y-79940045D02*
X138399286Y-80054331D01*
X138399286Y-80054331D02*
X138361190Y-80206712D01*
X138361190Y-80206712D02*
X138361190Y-80511474D01*
X138361190Y-80511474D02*
X138399286Y-80587664D01*
X138399286Y-80587664D02*
X138437381Y-80625760D01*
X138437381Y-80625760D02*
X138513571Y-80663855D01*
X138513571Y-80663855D02*
X138665952Y-80663855D01*
X138665952Y-80663855D02*
X138742143Y-80625760D01*
X138742143Y-80625760D02*
X138780238Y-80587664D01*
X138780238Y-80587664D02*
X138818333Y-80511474D01*
X138818333Y-80511474D02*
X138818333Y-80320998D01*
X138818333Y-80320998D02*
X138780238Y-80244807D01*
X138780238Y-80244807D02*
X138742143Y-80206712D01*
X138742143Y-80206712D02*
X138665952Y-80168617D01*
X138665952Y-80168617D02*
X138513571Y-80168617D01*
X138513571Y-80168617D02*
X138437381Y-80206712D01*
X138437381Y-80206712D02*
X138399286Y-80244807D01*
X138399286Y-80244807D02*
X138361190Y-80320998D01*
D10*
X254666666Y-137954819D02*
X254666666Y-138669104D01*
X254666666Y-138669104D02*
X254619047Y-138811961D01*
X254619047Y-138811961D02*
X254523809Y-138907200D01*
X254523809Y-138907200D02*
X254380952Y-138954819D01*
X254380952Y-138954819D02*
X254285714Y-138954819D01*
X255047619Y-137954819D02*
X255666666Y-137954819D01*
X255666666Y-137954819D02*
X255333333Y-138335771D01*
X255333333Y-138335771D02*
X255476190Y-138335771D01*
X255476190Y-138335771D02*
X255571428Y-138383390D01*
X255571428Y-138383390D02*
X255619047Y-138431009D01*
X255619047Y-138431009D02*
X255666666Y-138526247D01*
X255666666Y-138526247D02*
X255666666Y-138764342D01*
X255666666Y-138764342D02*
X255619047Y-138859580D01*
X255619047Y-138859580D02*
X255571428Y-138907200D01*
X255571428Y-138907200D02*
X255476190Y-138954819D01*
X255476190Y-138954819D02*
X255190476Y-138954819D01*
X255190476Y-138954819D02*
X255095238Y-138907200D01*
X255095238Y-138907200D02*
X255047619Y-138859580D01*
D11*
X142333333Y-68633855D02*
X142333333Y-69205283D01*
X142333333Y-69205283D02*
X142295238Y-69319569D01*
X142295238Y-69319569D02*
X142219047Y-69395760D01*
X142219047Y-69395760D02*
X142104762Y-69433855D01*
X142104762Y-69433855D02*
X142028571Y-69433855D01*
X143057143Y-68900521D02*
X143057143Y-69433855D01*
X142866667Y-68595760D02*
X142676190Y-69167188D01*
X142676190Y-69167188D02*
X143171429Y-69167188D01*
X122290476Y-109963855D02*
X122747619Y-109963855D01*
X122519047Y-110763855D02*
X122519047Y-109963855D01*
X123014286Y-110763855D02*
X123014286Y-109963855D01*
X123014286Y-109963855D02*
X123319048Y-109963855D01*
X123319048Y-109963855D02*
X123395238Y-110001950D01*
X123395238Y-110001950D02*
X123433333Y-110040045D01*
X123433333Y-110040045D02*
X123471429Y-110116236D01*
X123471429Y-110116236D02*
X123471429Y-110230521D01*
X123471429Y-110230521D02*
X123433333Y-110306712D01*
X123433333Y-110306712D02*
X123395238Y-110344807D01*
X123395238Y-110344807D02*
X123319048Y-110382902D01*
X123319048Y-110382902D02*
X123014286Y-110382902D01*
X124233333Y-110763855D02*
X123776190Y-110763855D01*
X124004762Y-110763855D02*
X124004762Y-109963855D01*
X124004762Y-109963855D02*
X123928571Y-110078140D01*
X123928571Y-110078140D02*
X123852381Y-110154331D01*
X123852381Y-110154331D02*
X123776190Y-110192426D01*
X120075476Y-81913855D02*
X120532619Y-81913855D01*
X120304047Y-82713855D02*
X120304047Y-81913855D01*
X120799286Y-82713855D02*
X120799286Y-81913855D01*
X120799286Y-81913855D02*
X121104048Y-81913855D01*
X121104048Y-81913855D02*
X121180238Y-81951950D01*
X121180238Y-81951950D02*
X121218333Y-81990045D01*
X121218333Y-81990045D02*
X121256429Y-82066236D01*
X121256429Y-82066236D02*
X121256429Y-82180521D01*
X121256429Y-82180521D02*
X121218333Y-82256712D01*
X121218333Y-82256712D02*
X121180238Y-82294807D01*
X121180238Y-82294807D02*
X121104048Y-82332902D01*
X121104048Y-82332902D02*
X120799286Y-82332902D01*
X121980238Y-81913855D02*
X121599286Y-81913855D01*
X121599286Y-81913855D02*
X121561190Y-82294807D01*
X121561190Y-82294807D02*
X121599286Y-82256712D01*
X121599286Y-82256712D02*
X121675476Y-82218617D01*
X121675476Y-82218617D02*
X121865952Y-82218617D01*
X121865952Y-82218617D02*
X121942143Y-82256712D01*
X121942143Y-82256712D02*
X121980238Y-82294807D01*
X121980238Y-82294807D02*
X122018333Y-82370998D01*
X122018333Y-82370998D02*
X122018333Y-82561474D01*
X122018333Y-82561474D02*
X121980238Y-82637664D01*
X121980238Y-82637664D02*
X121942143Y-82675760D01*
X121942143Y-82675760D02*
X121865952Y-82713855D01*
X121865952Y-82713855D02*
X121675476Y-82713855D01*
X121675476Y-82713855D02*
X121599286Y-82675760D01*
X121599286Y-82675760D02*
X121561190Y-82637664D01*
X149733333Y-156198855D02*
X149733333Y-156770283D01*
X149733333Y-156770283D02*
X149695238Y-156884569D01*
X149695238Y-156884569D02*
X149619047Y-156960760D01*
X149619047Y-156960760D02*
X149504762Y-156998855D01*
X149504762Y-156998855D02*
X149428571Y-156998855D01*
X150533333Y-156998855D02*
X150076190Y-156998855D01*
X150304762Y-156998855D02*
X150304762Y-156198855D01*
X150304762Y-156198855D02*
X150228571Y-156313140D01*
X150228571Y-156313140D02*
X150152381Y-156389331D01*
X150152381Y-156389331D02*
X150076190Y-156427426D01*
X243390476Y-155963855D02*
X243390476Y-156611474D01*
X243390476Y-156611474D02*
X243428571Y-156687664D01*
X243428571Y-156687664D02*
X243466666Y-156725760D01*
X243466666Y-156725760D02*
X243542857Y-156763855D01*
X243542857Y-156763855D02*
X243695238Y-156763855D01*
X243695238Y-156763855D02*
X243771428Y-156725760D01*
X243771428Y-156725760D02*
X243809523Y-156687664D01*
X243809523Y-156687664D02*
X243847619Y-156611474D01*
X243847619Y-156611474D02*
X243847619Y-155963855D01*
X244152380Y-155963855D02*
X244647618Y-155963855D01*
X244647618Y-155963855D02*
X244380952Y-156268617D01*
X244380952Y-156268617D02*
X244495237Y-156268617D01*
X244495237Y-156268617D02*
X244571428Y-156306712D01*
X244571428Y-156306712D02*
X244609523Y-156344807D01*
X244609523Y-156344807D02*
X244647618Y-156420998D01*
X244647618Y-156420998D02*
X244647618Y-156611474D01*
X244647618Y-156611474D02*
X244609523Y-156687664D01*
X244609523Y-156687664D02*
X244571428Y-156725760D01*
X244571428Y-156725760D02*
X244495237Y-156763855D01*
X244495237Y-156763855D02*
X244266666Y-156763855D01*
X244266666Y-156763855D02*
X244190475Y-156725760D01*
X244190475Y-156725760D02*
X244152380Y-156687664D01*
X138865476Y-162588854D02*
X138865476Y-163236473D01*
X138865476Y-163236473D02*
X138903571Y-163312663D01*
X138903571Y-163312663D02*
X138941666Y-163350759D01*
X138941666Y-163350759D02*
X139017857Y-163388854D01*
X139017857Y-163388854D02*
X139170238Y-163388854D01*
X139170238Y-163388854D02*
X139246428Y-163350759D01*
X139246428Y-163350759D02*
X139284523Y-163312663D01*
X139284523Y-163312663D02*
X139322619Y-163236473D01*
X139322619Y-163236473D02*
X139322619Y-162588854D01*
X140084523Y-162588854D02*
X139703571Y-162588854D01*
X139703571Y-162588854D02*
X139665475Y-162969806D01*
X139665475Y-162969806D02*
X139703571Y-162931711D01*
X139703571Y-162931711D02*
X139779761Y-162893616D01*
X139779761Y-162893616D02*
X139970237Y-162893616D01*
X139970237Y-162893616D02*
X140046428Y-162931711D01*
X140046428Y-162931711D02*
X140084523Y-162969806D01*
X140084523Y-162969806D02*
X140122618Y-163045997D01*
X140122618Y-163045997D02*
X140122618Y-163236473D01*
X140122618Y-163236473D02*
X140084523Y-163312663D01*
X140084523Y-163312663D02*
X140046428Y-163350759D01*
X140046428Y-163350759D02*
X139970237Y-163388854D01*
X139970237Y-163388854D02*
X139779761Y-163388854D01*
X139779761Y-163388854D02*
X139703571Y-163350759D01*
X139703571Y-163350759D02*
X139665475Y-163312663D01*
X135290476Y-64463855D02*
X135290476Y-65111474D01*
X135290476Y-65111474D02*
X135328571Y-65187664D01*
X135328571Y-65187664D02*
X135366666Y-65225760D01*
X135366666Y-65225760D02*
X135442857Y-65263855D01*
X135442857Y-65263855D02*
X135595238Y-65263855D01*
X135595238Y-65263855D02*
X135671428Y-65225760D01*
X135671428Y-65225760D02*
X135709523Y-65187664D01*
X135709523Y-65187664D02*
X135747619Y-65111474D01*
X135747619Y-65111474D02*
X135747619Y-64463855D01*
X136090475Y-64540045D02*
X136128571Y-64501950D01*
X136128571Y-64501950D02*
X136204761Y-64463855D01*
X136204761Y-64463855D02*
X136395237Y-64463855D01*
X136395237Y-64463855D02*
X136471428Y-64501950D01*
X136471428Y-64501950D02*
X136509523Y-64540045D01*
X136509523Y-64540045D02*
X136547618Y-64616236D01*
X136547618Y-64616236D02*
X136547618Y-64692426D01*
X136547618Y-64692426D02*
X136509523Y-64806712D01*
X136509523Y-64806712D02*
X136052380Y-65263855D01*
X136052380Y-65263855D02*
X136547618Y-65263855D01*
X119590476Y-114638855D02*
X120047619Y-114638855D01*
X119819047Y-115438855D02*
X119819047Y-114638855D01*
X120314286Y-115438855D02*
X120314286Y-114638855D01*
X120314286Y-114638855D02*
X120619048Y-114638855D01*
X120619048Y-114638855D02*
X120695238Y-114676950D01*
X120695238Y-114676950D02*
X120733333Y-114715045D01*
X120733333Y-114715045D02*
X120771429Y-114791236D01*
X120771429Y-114791236D02*
X120771429Y-114905521D01*
X120771429Y-114905521D02*
X120733333Y-114981712D01*
X120733333Y-114981712D02*
X120695238Y-115019807D01*
X120695238Y-115019807D02*
X120619048Y-115057902D01*
X120619048Y-115057902D02*
X120314286Y-115057902D01*
X121457143Y-114905521D02*
X121457143Y-115438855D01*
X121266667Y-114600760D02*
X121076190Y-115172188D01*
X121076190Y-115172188D02*
X121571429Y-115172188D01*
X139390476Y-84238855D02*
X139847619Y-84238855D01*
X139619047Y-85038855D02*
X139619047Y-84238855D01*
X140114286Y-85038855D02*
X140114286Y-84238855D01*
X140114286Y-84238855D02*
X140419048Y-84238855D01*
X140419048Y-84238855D02*
X140495238Y-84276950D01*
X140495238Y-84276950D02*
X140533333Y-84315045D01*
X140533333Y-84315045D02*
X140571429Y-84391236D01*
X140571429Y-84391236D02*
X140571429Y-84505521D01*
X140571429Y-84505521D02*
X140533333Y-84581712D01*
X140533333Y-84581712D02*
X140495238Y-84619807D01*
X140495238Y-84619807D02*
X140419048Y-84657902D01*
X140419048Y-84657902D02*
X140114286Y-84657902D01*
X140838095Y-84238855D02*
X141333333Y-84238855D01*
X141333333Y-84238855D02*
X141066667Y-84543617D01*
X141066667Y-84543617D02*
X141180952Y-84543617D01*
X141180952Y-84543617D02*
X141257143Y-84581712D01*
X141257143Y-84581712D02*
X141295238Y-84619807D01*
X141295238Y-84619807D02*
X141333333Y-84695998D01*
X141333333Y-84695998D02*
X141333333Y-84886474D01*
X141333333Y-84886474D02*
X141295238Y-84962664D01*
X141295238Y-84962664D02*
X141257143Y-85000760D01*
X141257143Y-85000760D02*
X141180952Y-85038855D01*
X141180952Y-85038855D02*
X140952381Y-85038855D01*
X140952381Y-85038855D02*
X140876190Y-85000760D01*
X140876190Y-85000760D02*
X140838095Y-84962664D01*
X134715476Y-153963855D02*
X134715476Y-154611474D01*
X134715476Y-154611474D02*
X134753571Y-154687664D01*
X134753571Y-154687664D02*
X134791666Y-154725760D01*
X134791666Y-154725760D02*
X134867857Y-154763855D01*
X134867857Y-154763855D02*
X135020238Y-154763855D01*
X135020238Y-154763855D02*
X135096428Y-154725760D01*
X135096428Y-154725760D02*
X135134523Y-154687664D01*
X135134523Y-154687664D02*
X135172619Y-154611474D01*
X135172619Y-154611474D02*
X135172619Y-153963855D01*
X135896428Y-154230521D02*
X135896428Y-154763855D01*
X135705952Y-153925760D02*
X135515475Y-154497188D01*
X135515475Y-154497188D02*
X136010714Y-154497188D01*
X135960476Y-96563855D02*
X135960476Y-97211474D01*
X135960476Y-97211474D02*
X135998571Y-97287664D01*
X135998571Y-97287664D02*
X136036666Y-97325760D01*
X136036666Y-97325760D02*
X136112857Y-97363855D01*
X136112857Y-97363855D02*
X136265238Y-97363855D01*
X136265238Y-97363855D02*
X136341428Y-97325760D01*
X136341428Y-97325760D02*
X136379523Y-97287664D01*
X136379523Y-97287664D02*
X136417619Y-97211474D01*
X136417619Y-97211474D02*
X136417619Y-96563855D01*
X137217618Y-97363855D02*
X136760475Y-97363855D01*
X136989047Y-97363855D02*
X136989047Y-96563855D01*
X136989047Y-96563855D02*
X136912856Y-96678140D01*
X136912856Y-96678140D02*
X136836666Y-96754331D01*
X136836666Y-96754331D02*
X136760475Y-96792426D01*
X129590476Y-84163855D02*
X130047619Y-84163855D01*
X129819047Y-84963855D02*
X129819047Y-84163855D01*
X130314286Y-84963855D02*
X130314286Y-84163855D01*
X130314286Y-84163855D02*
X130619048Y-84163855D01*
X130619048Y-84163855D02*
X130695238Y-84201950D01*
X130695238Y-84201950D02*
X130733333Y-84240045D01*
X130733333Y-84240045D02*
X130771429Y-84316236D01*
X130771429Y-84316236D02*
X130771429Y-84430521D01*
X130771429Y-84430521D02*
X130733333Y-84506712D01*
X130733333Y-84506712D02*
X130695238Y-84544807D01*
X130695238Y-84544807D02*
X130619048Y-84582902D01*
X130619048Y-84582902D02*
X130314286Y-84582902D01*
X131038095Y-84163855D02*
X131571429Y-84163855D01*
X131571429Y-84163855D02*
X131228571Y-84963855D01*
X137548809Y-73385045D02*
X137472619Y-73346950D01*
X137472619Y-73346950D02*
X137396428Y-73270760D01*
X137396428Y-73270760D02*
X137282142Y-73156474D01*
X137282142Y-73156474D02*
X137205952Y-73118379D01*
X137205952Y-73118379D02*
X137129761Y-73118379D01*
X137167857Y-73308855D02*
X137091666Y-73270760D01*
X137091666Y-73270760D02*
X137015476Y-73194569D01*
X137015476Y-73194569D02*
X136977380Y-73042188D01*
X136977380Y-73042188D02*
X136977380Y-72775521D01*
X136977380Y-72775521D02*
X137015476Y-72623140D01*
X137015476Y-72623140D02*
X137091666Y-72546950D01*
X137091666Y-72546950D02*
X137167857Y-72508855D01*
X137167857Y-72508855D02*
X137320238Y-72508855D01*
X137320238Y-72508855D02*
X137396428Y-72546950D01*
X137396428Y-72546950D02*
X137472619Y-72623140D01*
X137472619Y-72623140D02*
X137510714Y-72775521D01*
X137510714Y-72775521D02*
X137510714Y-73042188D01*
X137510714Y-73042188D02*
X137472619Y-73194569D01*
X137472619Y-73194569D02*
X137396428Y-73270760D01*
X137396428Y-73270760D02*
X137320238Y-73308855D01*
X137320238Y-73308855D02*
X137167857Y-73308855D01*
X137815475Y-72585045D02*
X137853571Y-72546950D01*
X137853571Y-72546950D02*
X137929761Y-72508855D01*
X137929761Y-72508855D02*
X138120237Y-72508855D01*
X138120237Y-72508855D02*
X138196428Y-72546950D01*
X138196428Y-72546950D02*
X138234523Y-72585045D01*
X138234523Y-72585045D02*
X138272618Y-72661236D01*
X138272618Y-72661236D02*
X138272618Y-72737426D01*
X138272618Y-72737426D02*
X138234523Y-72851712D01*
X138234523Y-72851712D02*
X137777380Y-73308855D01*
X137777380Y-73308855D02*
X138272618Y-73308855D01*
X137978809Y-82365045D02*
X137902619Y-82326950D01*
X137902619Y-82326950D02*
X137826428Y-82250760D01*
X137826428Y-82250760D02*
X137712142Y-82136474D01*
X137712142Y-82136474D02*
X137635952Y-82098379D01*
X137635952Y-82098379D02*
X137559761Y-82098379D01*
X137597857Y-82288855D02*
X137521666Y-82250760D01*
X137521666Y-82250760D02*
X137445476Y-82174569D01*
X137445476Y-82174569D02*
X137407380Y-82022188D01*
X137407380Y-82022188D02*
X137407380Y-81755521D01*
X137407380Y-81755521D02*
X137445476Y-81603140D01*
X137445476Y-81603140D02*
X137521666Y-81526950D01*
X137521666Y-81526950D02*
X137597857Y-81488855D01*
X137597857Y-81488855D02*
X137750238Y-81488855D01*
X137750238Y-81488855D02*
X137826428Y-81526950D01*
X137826428Y-81526950D02*
X137902619Y-81603140D01*
X137902619Y-81603140D02*
X137940714Y-81755521D01*
X137940714Y-81755521D02*
X137940714Y-82022188D01*
X137940714Y-82022188D02*
X137902619Y-82174569D01*
X137902619Y-82174569D02*
X137826428Y-82250760D01*
X137826428Y-82250760D02*
X137750238Y-82288855D01*
X137750238Y-82288855D02*
X137597857Y-82288855D01*
X138702618Y-82288855D02*
X138245475Y-82288855D01*
X138474047Y-82288855D02*
X138474047Y-81488855D01*
X138474047Y-81488855D02*
X138397856Y-81603140D01*
X138397856Y-81603140D02*
X138321666Y-81679331D01*
X138321666Y-81679331D02*
X138245475Y-81717426D01*
X121400476Y-146063855D02*
X121400476Y-146711474D01*
X121400476Y-146711474D02*
X121438571Y-146787664D01*
X121438571Y-146787664D02*
X121476666Y-146825760D01*
X121476666Y-146825760D02*
X121552857Y-146863855D01*
X121552857Y-146863855D02*
X121705238Y-146863855D01*
X121705238Y-146863855D02*
X121781428Y-146825760D01*
X121781428Y-146825760D02*
X121819523Y-146787664D01*
X121819523Y-146787664D02*
X121857619Y-146711474D01*
X121857619Y-146711474D02*
X121857619Y-146063855D01*
X122581428Y-146063855D02*
X122429047Y-146063855D01*
X122429047Y-146063855D02*
X122352856Y-146101950D01*
X122352856Y-146101950D02*
X122314761Y-146140045D01*
X122314761Y-146140045D02*
X122238571Y-146254331D01*
X122238571Y-146254331D02*
X122200475Y-146406712D01*
X122200475Y-146406712D02*
X122200475Y-146711474D01*
X122200475Y-146711474D02*
X122238571Y-146787664D01*
X122238571Y-146787664D02*
X122276666Y-146825760D01*
X122276666Y-146825760D02*
X122352856Y-146863855D01*
X122352856Y-146863855D02*
X122505237Y-146863855D01*
X122505237Y-146863855D02*
X122581428Y-146825760D01*
X122581428Y-146825760D02*
X122619523Y-146787664D01*
X122619523Y-146787664D02*
X122657618Y-146711474D01*
X122657618Y-146711474D02*
X122657618Y-146520998D01*
X122657618Y-146520998D02*
X122619523Y-146444807D01*
X122619523Y-146444807D02*
X122581428Y-146406712D01*
X122581428Y-146406712D02*
X122505237Y-146368617D01*
X122505237Y-146368617D02*
X122352856Y-146368617D01*
X122352856Y-146368617D02*
X122276666Y-146406712D01*
X122276666Y-146406712D02*
X122238571Y-146444807D01*
X122238571Y-146444807D02*
X122200475Y-146520998D01*
X136990476Y-84238855D02*
X137447619Y-84238855D01*
X137219047Y-85038855D02*
X137219047Y-84238855D01*
X137714286Y-85038855D02*
X137714286Y-84238855D01*
X137714286Y-84238855D02*
X138019048Y-84238855D01*
X138019048Y-84238855D02*
X138095238Y-84276950D01*
X138095238Y-84276950D02*
X138133333Y-84315045D01*
X138133333Y-84315045D02*
X138171429Y-84391236D01*
X138171429Y-84391236D02*
X138171429Y-84505521D01*
X138171429Y-84505521D02*
X138133333Y-84581712D01*
X138133333Y-84581712D02*
X138095238Y-84619807D01*
X138095238Y-84619807D02*
X138019048Y-84657902D01*
X138019048Y-84657902D02*
X137714286Y-84657902D01*
X138476190Y-84315045D02*
X138514286Y-84276950D01*
X138514286Y-84276950D02*
X138590476Y-84238855D01*
X138590476Y-84238855D02*
X138780952Y-84238855D01*
X138780952Y-84238855D02*
X138857143Y-84276950D01*
X138857143Y-84276950D02*
X138895238Y-84315045D01*
X138895238Y-84315045D02*
X138933333Y-84391236D01*
X138933333Y-84391236D02*
X138933333Y-84467426D01*
X138933333Y-84467426D02*
X138895238Y-84581712D01*
X138895238Y-84581712D02*
X138438095Y-85038855D01*
X138438095Y-85038855D02*
X138933333Y-85038855D01*
%TO.C,U7*%
X132690000Y-81640000D02*
X134510000Y-81640000D01*
X132690000Y-81690000D02*
X132690000Y-81640000D01*
X132690000Y-84760000D02*
X132690000Y-84710000D01*
X134510000Y-81640000D02*
X134510000Y-81690000D01*
X134510000Y-84710000D02*
X134510000Y-84760000D01*
X134510000Y-84760000D02*
X132690000Y-84760000D01*
X132150000Y-81690000D02*
X131910000Y-81360000D01*
X132390000Y-81360000D01*
X132150000Y-81690000D01*
G36*
X132150000Y-81690000D02*
G01*
X131910000Y-81360000D01*
X132390000Y-81360000D01*
X132150000Y-81690000D01*
G37*
%TO.C,Q4*%
X157940000Y-103140000D02*
X158940000Y-103140000D01*
X157940000Y-104660000D02*
X157940000Y-103140000D01*
X157990000Y-104660000D02*
X157940000Y-104660000D01*
X159890000Y-104660000D02*
X159110000Y-104660000D01*
X160060000Y-103140000D02*
X161060000Y-103140000D01*
X161060000Y-103140000D02*
X161060000Y-104660000D01*
X161060000Y-104660000D02*
X161010000Y-104660000D01*
X159120000Y-105200000D02*
X159450000Y-104960000D01*
X159450000Y-105440000D01*
X159120000Y-105200000D01*
G36*
X159450000Y-105440000D02*
G01*
X159120000Y-105200000D01*
X159450000Y-104960000D01*
X159450000Y-105440000D01*
G37*
%TO.C,C6*%
X139090000Y-66140580D02*
X139090000Y-65859420D01*
X140110000Y-66140580D02*
X140110000Y-65859420D01*
%TO.C,TP6*%
X141350000Y-80300000D02*
G75*
G02*
X139450000Y-80300000I-950000J0D01*
G01*
X139450000Y-80300000D02*
G75*
G02*
X141350000Y-80300000I950000J0D01*
G01*
%TO.C,J5*%
D12*
X156730000Y-85150000D02*
X157630000Y-85150000D01*
X156730000Y-101050000D02*
X156730000Y-85150000D01*
X157630000Y-84600000D02*
X159170000Y-84600000D01*
X157630000Y-85150000D02*
X157630000Y-84600000D01*
X157630000Y-101050000D02*
X156730000Y-101050000D01*
X157630000Y-101050000D02*
X157630000Y-101600000D01*
X157630000Y-101600000D02*
X159170000Y-101600000D01*
X160420000Y-85100000D02*
X160420000Y-101100000D01*
D13*
X157280000Y-84600000D02*
G75*
G02*
X157220000Y-84600000I-30000J0D01*
G01*
X157220000Y-84600000D02*
G75*
G02*
X157280000Y-84600000I30000J0D01*
G01*
D14*
G36*
X158231014Y-85424018D02*
G01*
X157850014Y-85170018D01*
X158231014Y-84916018D01*
X158231014Y-85424018D01*
G37*
%TO.C,R10*%
D11*
X134446359Y-163020000D02*
X134753641Y-163020000D01*
X134446359Y-163780000D02*
X134753641Y-163780000D01*
%TO.C,C36*%
X156940000Y-102692164D02*
X156940000Y-102907836D01*
X157660000Y-102692164D02*
X157660000Y-102907836D01*
%TO.C,R19*%
X140420000Y-165353641D02*
X140420000Y-165046359D01*
X141180000Y-165353641D02*
X141180000Y-165046359D01*
%TO.C,C32*%
X117665000Y-81261252D02*
X117665000Y-80738748D01*
X119135000Y-81261252D02*
X119135000Y-80738748D01*
%TO.C,R3*%
X132870000Y-78753641D02*
X132870000Y-78446359D01*
X133630000Y-78753641D02*
X133630000Y-78446359D01*
%TO.C,C18*%
X136840000Y-165307836D02*
X136840000Y-165092164D01*
X137560000Y-165307836D02*
X137560000Y-165092164D01*
%TO.C,J3*%
X122050000Y-63400000D02*
X122050000Y-70250000D01*
X123200000Y-73950000D02*
X124200000Y-73950000D01*
X132950000Y-63400000D02*
X132950000Y-70250000D01*
%TO.C,C13*%
X139640000Y-154507836D02*
X139640000Y-154292164D01*
X140360000Y-154507836D02*
X140360000Y-154292164D01*
%TO.C,J4*%
D12*
X138650000Y-71380000D02*
X138650000Y-75590000D01*
X139600000Y-71380000D02*
X138650000Y-71380000D01*
X139600000Y-72950000D02*
X139600000Y-71380000D01*
X140870000Y-72950000D02*
X139600000Y-72950000D01*
X142870000Y-72950000D02*
X142330000Y-72950000D01*
X145000000Y-78970000D02*
X140200000Y-78970000D01*
X145600000Y-71380000D02*
X145600000Y-72950000D01*
X145600000Y-72950000D02*
X144330000Y-72950000D01*
X146550000Y-71380000D02*
X145600000Y-71380000D01*
X146550000Y-71380000D02*
X146550000Y-75590000D01*
D13*
X138680000Y-70370000D02*
G75*
G02*
X138620000Y-70370000I-30000J0D01*
G01*
X138620000Y-70370000D02*
G75*
G02*
X138680000Y-70370000I30000J0D01*
G01*
%TO.C,C33*%
D11*
X121961252Y-84015000D02*
X121438748Y-84015000D01*
X121961252Y-85485000D02*
X121438748Y-85485000D01*
%TO.C,C17*%
X157892164Y-155840000D02*
X158107836Y-155840000D01*
X157892164Y-156560000D02*
X158107836Y-156560000D01*
%TO.C,TP1*%
X121950000Y-110400000D02*
G75*
G02*
X120050000Y-110400000I-950000J0D01*
G01*
X120050000Y-110400000D02*
G75*
G02*
X121950000Y-110400000I950000J0D01*
G01*
%TO.C,C34*%
X123815000Y-85088748D02*
X123815000Y-85611252D01*
X125285000Y-85088748D02*
X125285000Y-85611252D01*
%TO.C,R17*%
X123846359Y-117220000D02*
X124153641Y-117220000D01*
X123846359Y-117980000D02*
X124153641Y-117980000D01*
%TO.C,R20*%
X130146359Y-80220000D02*
X130453641Y-80220000D01*
X130146359Y-80980000D02*
X130453641Y-80980000D01*
%TO.C,TP5*%
X124550000Y-82350000D02*
G75*
G02*
X122650000Y-82350000I-950000J0D01*
G01*
X122650000Y-82350000D02*
G75*
G02*
X124550000Y-82350000I950000J0D01*
G01*
%TO.C,R23*%
X161237258Y-80077500D02*
X160762742Y-80077500D01*
X161237258Y-81122500D02*
X160762742Y-81122500D01*
%TO.C,R2*%
X132346359Y-74220000D02*
X132653641Y-74220000D01*
X132346359Y-74980000D02*
X132653641Y-74980000D01*
%TO.C,C16*%
X157892164Y-151440000D02*
X158107836Y-151440000D01*
X157892164Y-152160000D02*
X158107836Y-152160000D01*
%TO.C,D1*%
X126840000Y-74200000D02*
X126840000Y-76200000D01*
X126840000Y-74200000D02*
X130850000Y-74200000D01*
X126840000Y-76200000D02*
X130850000Y-76200000D01*
%TO.C,C31*%
X129040000Y-144307836D02*
X129040000Y-144092164D01*
X129760000Y-144307836D02*
X129760000Y-144092164D01*
%TO.C,R6*%
X136220000Y-107153641D02*
X136220000Y-106846359D01*
X136980000Y-107153641D02*
X136980000Y-106846359D01*
%TO.C,J1*%
D12*
X142380000Y-157460000D02*
X142380000Y-158190000D01*
X142380000Y-160660000D02*
X142380000Y-162570000D01*
X142380000Y-162570000D02*
X143220000Y-162570000D01*
X143220000Y-161940000D02*
X143870000Y-161940000D01*
X143220000Y-162570000D02*
X143220000Y-161940000D01*
X156780000Y-161940000D02*
X156130000Y-161940000D01*
X156780000Y-162570000D02*
X156780000Y-161940000D01*
X157630000Y-157460000D02*
X142380000Y-157460000D01*
X157630000Y-157460000D02*
X157630000Y-158190000D01*
X157630000Y-160660000D02*
X157630000Y-162570000D01*
X157630000Y-162570000D02*
X156780000Y-162570000D01*
D13*
X157760000Y-162770000D02*
G75*
G02*
X157700000Y-162770000I-30000J0D01*
G01*
X157700000Y-162770000D02*
G75*
G02*
X157760000Y-162770000I30000J0D01*
G01*
D14*
G36*
X156525031Y-163336978D02*
G01*
X156017031Y-162955978D01*
X156525031Y-162574978D01*
X156525031Y-163336978D01*
G37*
%TO.C,C9*%
D11*
X138640000Y-107107836D02*
X138640000Y-106892164D01*
X139360000Y-107107836D02*
X139360000Y-106892164D01*
%TO.C,D7*%
X121560000Y-72390000D02*
X117800000Y-72390000D01*
X121560000Y-74410000D02*
X117800000Y-74410000D01*
X121560000Y-74410000D02*
X121560000Y-72390000D01*
%TO.C,U3*%
X121090000Y-75240000D02*
X122910000Y-75240000D01*
X121090000Y-75290000D02*
X121090000Y-75240000D01*
X121090000Y-78360000D02*
X121090000Y-78310000D01*
X122910000Y-75240000D02*
X122910000Y-75290000D01*
X122910000Y-76410000D02*
X122910000Y-77190000D01*
X122910000Y-78310000D02*
X122910000Y-78360000D01*
X122910000Y-78360000D02*
X121090000Y-78360000D01*
X120550000Y-75290000D02*
X120310000Y-74960000D01*
X120790000Y-74960000D01*
X120550000Y-75290000D01*
G36*
X120550000Y-75290000D02*
G01*
X120310000Y-74960000D01*
X120790000Y-74960000D01*
X120550000Y-75290000D01*
G37*
%TO.C,R16*%
X125620000Y-141153641D02*
X125620000Y-140846359D01*
X126380000Y-141153641D02*
X126380000Y-140846359D01*
%TO.C,FB1*%
X137237221Y-153890000D02*
X137562779Y-153890000D01*
X137237221Y-154910000D02*
X137562779Y-154910000D01*
%TO.C,R21*%
X159653641Y-105920000D02*
X159346359Y-105920000D01*
X159653641Y-106680000D02*
X159346359Y-106680000D01*
%TO.C,U5*%
X136490000Y-159040000D02*
X138310000Y-159040000D01*
X136490000Y-159090000D02*
X136490000Y-159040000D01*
X136490000Y-162160000D02*
X136490000Y-162110000D01*
X138310000Y-159040000D02*
X138310000Y-159090000D01*
X138310000Y-160210000D02*
X138310000Y-160990000D01*
X138310000Y-162110000D02*
X138310000Y-162160000D01*
X138310000Y-162160000D02*
X136490000Y-162160000D01*
X135950000Y-159090000D02*
X135710000Y-158760000D01*
X136190000Y-158760000D01*
X135950000Y-159090000D01*
G36*
X135950000Y-159090000D02*
G01*
X135710000Y-158760000D01*
X136190000Y-158760000D01*
X135950000Y-159090000D01*
G37*
%TO.C,C10*%
X134240000Y-157107836D02*
X134240000Y-156892164D01*
X134960000Y-157107836D02*
X134960000Y-156892164D01*
%TO.C,U2*%
X134990000Y-65940000D02*
X136810000Y-65940000D01*
X134990000Y-65990000D02*
X134990000Y-65940000D01*
X134990000Y-69060000D02*
X134990000Y-69010000D01*
X136810000Y-65940000D02*
X136810000Y-65990000D01*
X136810000Y-67110000D02*
X136810000Y-67890000D01*
X136810000Y-69010000D02*
X136810000Y-69060000D01*
X136810000Y-69060000D02*
X134990000Y-69060000D01*
X134450000Y-65990000D02*
X134210000Y-65660000D01*
X134690000Y-65660000D01*
X134450000Y-65990000D01*
G36*
X134450000Y-65990000D02*
G01*
X134210000Y-65660000D01*
X134690000Y-65660000D01*
X134450000Y-65990000D01*
G37*
%TO.C,C7*%
X118490000Y-76940580D02*
X118490000Y-76659420D01*
X119510000Y-76940580D02*
X119510000Y-76659420D01*
%TO.C,R22*%
X157053641Y-79220000D02*
X156746359Y-79220000D01*
X157053641Y-79980000D02*
X156746359Y-79980000D01*
%TO.C,C12*%
X140840000Y-157107836D02*
X140840000Y-156892164D01*
X141560000Y-157107836D02*
X141560000Y-156892164D01*
%TO.C,R15*%
X124420000Y-141153641D02*
X124420000Y-140846359D01*
X125180000Y-141153641D02*
X125180000Y-140846359D01*
%TO.C,TP4*%
X121550000Y-113100000D02*
G75*
G02*
X119650000Y-113100000I-950000J0D01*
G01*
X119650000Y-113100000D02*
G75*
G02*
X121550000Y-113100000I950000J0D01*
G01*
%TO.C,C2*%
X122940000Y-106257836D02*
X122940000Y-106042164D01*
X123660000Y-106257836D02*
X123660000Y-106042164D01*
%TO.C,C15*%
X139640000Y-160707836D02*
X139640000Y-160492164D01*
X140360000Y-160707836D02*
X140360000Y-160492164D01*
%TO.C,Q5*%
X155740000Y-81540000D02*
X155790000Y-81540000D01*
X155740000Y-83060000D02*
X155740000Y-81540000D01*
X156740000Y-83060000D02*
X155740000Y-83060000D01*
X156910000Y-81540000D02*
X157690000Y-81540000D01*
X158810000Y-81540000D02*
X158860000Y-81540000D01*
X158860000Y-81540000D02*
X158860000Y-83060000D01*
X158860000Y-83060000D02*
X157860000Y-83060000D01*
X157680000Y-81000000D02*
X157350000Y-81240000D01*
X157350000Y-80760000D01*
X157680000Y-81000000D01*
G36*
X157680000Y-81000000D02*
G01*
X157350000Y-81240000D01*
X157350000Y-80760000D01*
X157680000Y-81000000D01*
G37*
%TO.C,D6*%
X127940000Y-77600000D02*
X127940000Y-79600000D01*
X127940000Y-77600000D02*
X131950000Y-77600000D01*
X127940000Y-79600000D02*
X131950000Y-79600000D01*
%TO.C,C11*%
X139640000Y-157107836D02*
X139640000Y-156892164D01*
X140360000Y-157107836D02*
X140360000Y-156892164D01*
%TO.C,C19*%
X155090000Y-103459420D02*
X155090000Y-103740580D01*
X156110000Y-103459420D02*
X156110000Y-103740580D01*
%TO.C,C8*%
X125659420Y-78790000D02*
X125940580Y-78790000D01*
X125659420Y-79810000D02*
X125940580Y-79810000D01*
%TO.C,TP3*%
X141100000Y-86400000D02*
G75*
G02*
X139700000Y-86400000I-700000J0D01*
G01*
X139700000Y-86400000D02*
G75*
G02*
X141100000Y-86400000I700000J0D01*
G01*
%TO.C,C3*%
X124490000Y-106740580D02*
X124490000Y-106459420D01*
X125510000Y-106740580D02*
X125510000Y-106459420D01*
%TO.C,R1*%
X127446359Y-87520000D02*
X127753641Y-87520000D01*
X127446359Y-88280000D02*
X127753641Y-88280000D01*
%TO.C,R14*%
X123220000Y-141153641D02*
X123220000Y-140846359D01*
X123980000Y-141153641D02*
X123980000Y-140846359D01*
%TO.C,C5*%
X135390000Y-72140580D02*
X135390000Y-71859420D01*
X136410000Y-72140580D02*
X136410000Y-71859420D01*
%TO.C,C14*%
X134240000Y-160707836D02*
X134240000Y-160492164D01*
X134960000Y-160707836D02*
X134960000Y-160492164D01*
%TO.C,R13*%
X122020000Y-141153641D02*
X122020000Y-140846359D01*
X122780000Y-141153641D02*
X122780000Y-140846359D01*
%TO.C,R4*%
X124520000Y-74953641D02*
X124520000Y-74646359D01*
X125280000Y-74953641D02*
X125280000Y-74646359D01*
%TO.C,U4*%
X136490000Y-155440000D02*
X138310000Y-155440000D01*
X136490000Y-155490000D02*
X136490000Y-155440000D01*
X136490000Y-158560000D02*
X136490000Y-158510000D01*
X138310000Y-155440000D02*
X138310000Y-155490000D01*
X138310000Y-156610000D02*
X138310000Y-157390000D01*
X138310000Y-158510000D02*
X138310000Y-158560000D01*
X138310000Y-158560000D02*
X136490000Y-158560000D01*
X135950000Y-155490000D02*
X135710000Y-155160000D01*
X136190000Y-155160000D01*
X135950000Y-155490000D01*
G36*
X135950000Y-155490000D02*
G01*
X135710000Y-155160000D01*
X136190000Y-155160000D01*
X135950000Y-155490000D01*
G37*
%TO.C,U1*%
X119300000Y-89300000D02*
X119850000Y-89300000D01*
X119300000Y-104700000D02*
X119850000Y-104700000D01*
X119850000Y-89300000D02*
X135250000Y-89300000D01*
X135250000Y-89300000D02*
X135250000Y-104700000D01*
X135250000Y-104700000D02*
X119850000Y-104700000D01*
X135400000Y-89150000D02*
X134350000Y-89150000D01*
X135400000Y-90200000D02*
X135400000Y-89150000D01*
X135400000Y-103800000D02*
X135400000Y-104850000D01*
X135400000Y-104850000D02*
X134350000Y-104850000D01*
%TO.C,C1*%
X120565000Y-107061252D02*
X120565000Y-106538748D01*
X122035000Y-107061252D02*
X122035000Y-106538748D01*
%TO.C,R5*%
X125916359Y-80620000D02*
X126223641Y-80620000D01*
X125916359Y-81380000D02*
X126223641Y-81380000D01*
%TO.C,TP7*%
X128950000Y-84600000D02*
G75*
G02*
X127050000Y-84600000I-950000J0D01*
G01*
X127050000Y-84600000D02*
G75*
G02*
X128950000Y-84600000I950000J0D01*
G01*
%TO.C,D2*%
X155640000Y-153000000D02*
X155640000Y-155000000D01*
X155640000Y-153000000D02*
X159650000Y-153000000D01*
X155640000Y-155000000D02*
X159650000Y-155000000D01*
%TO.C,R9*%
X138020000Y-165353641D02*
X138020000Y-165046359D01*
X138780000Y-165353641D02*
X138780000Y-165046359D01*
%TO.C,Q2*%
X134340000Y-74840000D02*
X135340000Y-74840000D01*
X134340000Y-76360000D02*
X134340000Y-74840000D01*
X134390000Y-76360000D02*
X134340000Y-76360000D01*
X136290000Y-76360000D02*
X135510000Y-76360000D01*
X136460000Y-74840000D02*
X137460000Y-74840000D01*
X137460000Y-74840000D02*
X137460000Y-76360000D01*
X137460000Y-76360000D02*
X137410000Y-76360000D01*
X135520000Y-76900000D02*
X135850000Y-76660000D01*
X135850000Y-77140000D01*
X135520000Y-76900000D01*
G36*
X135850000Y-77140000D02*
G01*
X135520000Y-76900000D01*
X135850000Y-76660000D01*
X135850000Y-77140000D01*
G37*
%TO.C,Q1*%
X135340000Y-77940000D02*
X136860000Y-77940000D01*
X135340000Y-77990000D02*
X135340000Y-77940000D01*
X135340000Y-79890000D02*
X135340000Y-79110000D01*
X135340000Y-81060000D02*
X135340000Y-81010000D01*
X136860000Y-77940000D02*
X136860000Y-78940000D01*
X136860000Y-80060000D02*
X136860000Y-81060000D01*
X136860000Y-81060000D02*
X135340000Y-81060000D01*
X134800000Y-79120000D02*
X135040000Y-79450000D01*
X134560000Y-79450000D01*
X134800000Y-79120000D01*
G36*
X135040000Y-79450000D02*
G01*
X134560000Y-79450000D01*
X134800000Y-79120000D01*
X135040000Y-79450000D01*
G37*
%TO.C,R18*%
X139220000Y-165353641D02*
X139220000Y-165046359D01*
X139980000Y-165353641D02*
X139980000Y-165046359D01*
%TO.C,U6*%
X123890000Y-144390000D02*
X124365000Y-144390000D01*
X123890000Y-144865000D02*
X123890000Y-144390000D01*
X123890000Y-148610000D02*
X123890000Y-148135000D01*
X124365000Y-148610000D02*
X123890000Y-148610000D01*
X127635000Y-144390000D02*
X128110000Y-144390000D01*
X128110000Y-144390000D02*
X128110000Y-144865000D01*
X128110000Y-148135000D02*
X128110000Y-148610000D01*
X128110000Y-148610000D02*
X127635000Y-148610000D01*
X123360000Y-145250000D02*
X123030000Y-145490000D01*
X123030000Y-145010000D01*
X123360000Y-145250000D01*
G36*
X123360000Y-145250000D02*
G01*
X123030000Y-145490000D01*
X123030000Y-145010000D01*
X123360000Y-145250000D01*
G37*
%TO.C,R7*%
X137420000Y-107153641D02*
X137420000Y-106846359D01*
X138180000Y-107153641D02*
X138180000Y-106846359D01*
%TO.C,TP2*%
X138700000Y-86400000D02*
G75*
G02*
X137300000Y-86400000I-700000J0D01*
G01*
X137300000Y-86400000D02*
G75*
G02*
X138700000Y-86400000I700000J0D01*
G01*
%TO.C,R8*%
X135620000Y-165353641D02*
X135620000Y-165046359D01*
X136380000Y-165353641D02*
X136380000Y-165046359D01*
%TO.C,C4*%
X125592164Y-87540000D02*
X125807836Y-87540000D01*
X125592164Y-88260000D02*
X125807836Y-88260000D01*
%TD*%
%LPC*%
D15*
%TO.C,U7*%
X132462500Y-82250000D03*
X132462500Y-83200000D03*
X132462500Y-84150000D03*
X134737500Y-84150000D03*
X134737500Y-83200000D03*
X134737500Y-82250000D03*
%TD*%
D16*
%TO.C,H1*%
X127500000Y-126100000D03*
%TD*%
D17*
%TO.C,Q4*%
X158550000Y-104837500D03*
X160450000Y-104837500D03*
X159500000Y-102962500D03*
%TD*%
D18*
%TO.C,FID3*%
X177000000Y-112500000D03*
%TD*%
D19*
%TO.C,C6*%
X139600000Y-66775000D03*
X139600000Y-65225000D03*
%TD*%
D20*
%TO.C,TP6*%
X140400000Y-80300000D03*
%TD*%
D21*
%TO.C,J5*%
X157400000Y-100350000D03*
X157400000Y-99850000D03*
X157400000Y-99350000D03*
X157400000Y-98850000D03*
X157400000Y-98350000D03*
X157400000Y-97850000D03*
X157400000Y-97350000D03*
X157400000Y-96850000D03*
X157400000Y-96350000D03*
X157400000Y-95850000D03*
X157400000Y-95350000D03*
X157400000Y-94850000D03*
X157400000Y-94350000D03*
X157400000Y-93850000D03*
X157400000Y-93350000D03*
X157400000Y-92850000D03*
X157400000Y-92350000D03*
X157400000Y-91850000D03*
X157400000Y-91350000D03*
X157400000Y-90850000D03*
X157400000Y-90350000D03*
X157400000Y-89850000D03*
X157400000Y-89350000D03*
X157400000Y-88850000D03*
X157400000Y-88350000D03*
X157400000Y-87850000D03*
X157400000Y-87350000D03*
X157400000Y-86850000D03*
X157400000Y-86350000D03*
X157400000Y-85850000D03*
D22*
X159800000Y-101350000D03*
X159800000Y-84850000D03*
%TD*%
D23*
%TO.C,R10*%
X134090000Y-163400000D03*
X135110000Y-163400000D03*
%TD*%
D24*
%TO.C,C36*%
X157300000Y-102320000D03*
X157300000Y-103280000D03*
%TD*%
D25*
%TO.C,R19*%
X140800000Y-165710000D03*
X140800000Y-164690000D03*
%TD*%
D26*
%TO.C,C32*%
X118400000Y-81950000D03*
X118400000Y-80050000D03*
%TD*%
D25*
%TO.C,R3*%
X133250000Y-79110000D03*
X133250000Y-78090000D03*
%TD*%
D27*
%TO.C,C18*%
X137200000Y-165680000D03*
X137200000Y-164720000D03*
%TD*%
D18*
%TO.C,FID2*%
X178500000Y-203500000D03*
%TD*%
D28*
%TO.C,J3*%
X123690000Y-72000000D03*
X126230000Y-72000000D03*
X128770000Y-72000000D03*
X131310000Y-72000000D03*
%TD*%
D27*
%TO.C,C13*%
X140000000Y-154880000D03*
X140000000Y-153920000D03*
%TD*%
D29*
%TO.C,J4*%
X141600000Y-71670000D03*
X143600000Y-71670000D03*
D30*
X139250000Y-77530000D03*
X145950000Y-77530000D03*
%TD*%
D31*
%TO.C,C33*%
X122650000Y-84750000D03*
X120750000Y-84750000D03*
%TD*%
D32*
%TO.C,C17*%
X157520000Y-156200000D03*
X158480000Y-156200000D03*
%TD*%
D33*
%TO.C,H2*%
X130850000Y-176250000D03*
%TD*%
D34*
%TO.C,H14*%
X169100000Y-198375000D03*
%TD*%
D35*
%TO.C,H13*%
X130500000Y-198325000D03*
%TD*%
D16*
%TO.C,H3*%
X174000000Y-126100000D03*
%TD*%
D20*
%TO.C,TP1*%
X121000000Y-110400000D03*
%TD*%
D36*
%TO.C,C34*%
X124550000Y-84400000D03*
X124550000Y-86300000D03*
%TD*%
D23*
%TO.C,R17*%
X123490000Y-117600000D03*
X124510000Y-117600000D03*
%TD*%
%TO.C,R20*%
X129790000Y-80600000D03*
X130810000Y-80600000D03*
%TD*%
D18*
%TO.C,FID1*%
X121500000Y-203500000D03*
%TD*%
D20*
%TO.C,TP5*%
X123600000Y-82350000D03*
%TD*%
D37*
%TO.C,R23*%
X161825000Y-80600000D03*
X160175000Y-80600000D03*
%TD*%
D23*
%TO.C,R2*%
X131990000Y-74600000D03*
X133010000Y-74600000D03*
%TD*%
D38*
%TO.C,H4*%
X171060000Y-145960000D03*
%TD*%
D32*
%TO.C,C16*%
X157520000Y-151800000D03*
X158480000Y-151800000D03*
%TD*%
D39*
%TO.C,D1*%
X127550000Y-75200000D03*
X130850000Y-75200000D03*
%TD*%
D27*
%TO.C,C31*%
X129400000Y-144680000D03*
X129400000Y-143720000D03*
%TD*%
D25*
%TO.C,R6*%
X136600000Y-107510000D03*
X136600000Y-106490000D03*
%TD*%
D40*
%TO.C,J1*%
X144250000Y-162580000D03*
X144750000Y-162580000D03*
X145250000Y-162580000D03*
X145750000Y-162580000D03*
X146250000Y-162580000D03*
X146750000Y-162580000D03*
X147250000Y-162580000D03*
X147750000Y-162580000D03*
X148250000Y-162580000D03*
X148750000Y-162580000D03*
X149250000Y-162580000D03*
X149750000Y-162580000D03*
X150250000Y-162580000D03*
X150750000Y-162580000D03*
X151250000Y-162580000D03*
X151750000Y-162580000D03*
X152250000Y-162580000D03*
X152750000Y-162580000D03*
X153250000Y-162580000D03*
X153750000Y-162580000D03*
X154250000Y-162580000D03*
X154750000Y-162580000D03*
X155250000Y-162580000D03*
X155750000Y-162580000D03*
D41*
X157400000Y-159420000D03*
X142600000Y-159420000D03*
%TD*%
D27*
%TO.C,C9*%
X139000000Y-107480000D03*
X139000000Y-106520000D03*
%TD*%
D42*
%TO.C,D7*%
X120650000Y-73400000D03*
X117750000Y-73400000D03*
%TD*%
D15*
%TO.C,U3*%
X120862500Y-75850000D03*
X120862500Y-76800000D03*
X120862500Y-77750000D03*
X123137500Y-77750000D03*
X123137500Y-75850000D03*
%TD*%
D38*
%TO.C,H6*%
X130600000Y-186990000D03*
%TD*%
D25*
%TO.C,R16*%
X126000000Y-141510000D03*
X126000000Y-140490000D03*
%TD*%
D43*
%TO.C,FB1*%
X136612500Y-154400000D03*
X138187500Y-154400000D03*
%TD*%
D44*
%TO.C,R21*%
X160010000Y-106300000D03*
X158990000Y-106300000D03*
%TD*%
D15*
%TO.C,U5*%
X136262500Y-159650000D03*
X136262500Y-160600000D03*
X136262500Y-161550000D03*
X138537500Y-161550000D03*
X138537500Y-159650000D03*
%TD*%
D27*
%TO.C,C10*%
X134600000Y-157480000D03*
X134600000Y-156520000D03*
%TD*%
D15*
%TO.C,U2*%
X134762500Y-66550000D03*
X134762500Y-67500000D03*
X134762500Y-68450000D03*
X137037500Y-68450000D03*
X137037500Y-66550000D03*
%TD*%
D19*
%TO.C,C7*%
X119000000Y-77575000D03*
X119000000Y-76025000D03*
%TD*%
D44*
%TO.C,R22*%
X157410000Y-79600000D03*
X156390000Y-79600000D03*
%TD*%
D27*
%TO.C,C12*%
X141200000Y-157480000D03*
X141200000Y-156520000D03*
%TD*%
D25*
%TO.C,R15*%
X124800000Y-141510000D03*
X124800000Y-140490000D03*
%TD*%
D20*
%TO.C,TP4*%
X120600000Y-113100000D03*
%TD*%
D27*
%TO.C,C2*%
X123300000Y-106630000D03*
X123300000Y-105670000D03*
%TD*%
%TO.C,C15*%
X140000000Y-161080000D03*
X140000000Y-160120000D03*
%TD*%
D45*
%TO.C,Q5*%
X158250000Y-81362500D03*
X156350000Y-81362500D03*
X157300000Y-83237500D03*
%TD*%
D39*
%TO.C,D6*%
X128650000Y-78600000D03*
X131950000Y-78600000D03*
%TD*%
D27*
%TO.C,C11*%
X140000000Y-157480000D03*
X140000000Y-156520000D03*
%TD*%
D46*
%TO.C,C19*%
X155600000Y-102825000D03*
X155600000Y-104375000D03*
%TD*%
D47*
%TO.C,C8*%
X125025000Y-79300000D03*
X126575000Y-79300000D03*
%TD*%
D38*
%TO.C,H8*%
X128850000Y-137000000D03*
%TD*%
D48*
%TO.C,TP3*%
X140400000Y-86400000D03*
%TD*%
D49*
%TO.C,H9*%
X169200000Y-176200000D03*
%TD*%
D19*
%TO.C,C3*%
X125000000Y-107375000D03*
X125000000Y-105825000D03*
%TD*%
D23*
%TO.C,R1*%
X127090000Y-87900000D03*
X128110000Y-87900000D03*
%TD*%
D25*
%TO.C,R14*%
X123600000Y-141510000D03*
X123600000Y-140490000D03*
%TD*%
D19*
%TO.C,C5*%
X135900000Y-72775000D03*
X135900000Y-71225000D03*
%TD*%
D38*
%TO.C,H10*%
X171250000Y-136800000D03*
%TD*%
D27*
%TO.C,C14*%
X134600000Y-161080000D03*
X134600000Y-160120000D03*
%TD*%
D25*
%TO.C,R13*%
X122400000Y-141510000D03*
X122400000Y-140490000D03*
%TD*%
%TO.C,R4*%
X124900000Y-75310000D03*
X124900000Y-74290000D03*
%TD*%
D15*
%TO.C,U4*%
X136262500Y-156050000D03*
X136262500Y-157000000D03*
X136262500Y-157950000D03*
X138537500Y-157950000D03*
X138537500Y-156050000D03*
%TD*%
D50*
%TO.C,U1*%
X121600000Y-104000000D03*
X122450000Y-104000000D03*
X123300000Y-104000000D03*
X124150000Y-104000000D03*
X125000000Y-104000000D03*
X125850000Y-104000000D03*
X126700000Y-104000000D03*
X127550000Y-104000000D03*
X128400000Y-104000000D03*
X129250000Y-104000000D03*
X130100000Y-104000000D03*
X130950000Y-104000000D03*
X131800000Y-104000000D03*
X132650000Y-104000000D03*
X133500000Y-104000000D03*
D22*
X134550000Y-102950000D03*
X134550000Y-102100000D03*
X134550000Y-101250000D03*
X134550000Y-100400000D03*
X134550000Y-99550000D03*
X134550000Y-98700000D03*
X134550000Y-97850000D03*
X134550000Y-97000000D03*
X134550000Y-96150000D03*
X134550000Y-95300000D03*
X134550000Y-94450000D03*
X134550000Y-93600000D03*
X134550000Y-92750000D03*
X134550000Y-91900000D03*
X134550000Y-91050000D03*
D50*
X133500000Y-90000000D03*
X132650000Y-90000000D03*
X131800000Y-90000000D03*
X130950000Y-90000000D03*
X130100000Y-90000000D03*
X129250000Y-90000000D03*
X128400000Y-90000000D03*
X127550000Y-90000000D03*
X126700000Y-90000000D03*
X125850000Y-90000000D03*
X125000000Y-90000000D03*
X124150000Y-90000000D03*
X123300000Y-90000000D03*
X122450000Y-90000000D03*
X121600000Y-90000000D03*
D22*
X120550000Y-91050000D03*
X120550000Y-91900000D03*
X120550000Y-92750000D03*
X120550000Y-93600000D03*
X120550000Y-94450000D03*
X120550000Y-95300000D03*
X120550000Y-96150000D03*
X120550000Y-97000000D03*
X120550000Y-97850000D03*
X120550000Y-98700000D03*
X120550000Y-99550000D03*
X120550000Y-100400000D03*
X120550000Y-101250000D03*
X120550000Y-102100000D03*
X120550000Y-102950000D03*
D51*
X125900000Y-98650000D03*
D52*
X127550000Y-98650000D03*
X129200000Y-98650000D03*
X125900000Y-97000000D03*
X127550000Y-97000000D03*
X129200000Y-97000000D03*
X125900000Y-95350000D03*
X127550000Y-95350000D03*
X129200000Y-95350000D03*
D53*
X120550000Y-104000000D03*
X134550000Y-104000000D03*
X134550000Y-90000000D03*
X120550000Y-90000000D03*
%TD*%
D26*
%TO.C,C1*%
X121300000Y-107750000D03*
X121300000Y-105850000D03*
%TD*%
D23*
%TO.C,R5*%
X125560000Y-81000000D03*
X126580000Y-81000000D03*
%TD*%
D20*
%TO.C,TP7*%
X128000000Y-84600000D03*
%TD*%
D39*
%TO.C,D2*%
X156350000Y-154000000D03*
X159650000Y-154000000D03*
%TD*%
D25*
%TO.C,R9*%
X138400000Y-165710000D03*
X138400000Y-164690000D03*
%TD*%
D17*
%TO.C,Q2*%
X134950000Y-76537500D03*
X136850000Y-76537500D03*
X135900000Y-74662500D03*
%TD*%
D54*
%TO.C,Q1*%
X135162500Y-78550000D03*
X135162500Y-80450000D03*
X137037500Y-79500000D03*
%TD*%
D25*
%TO.C,R18*%
X139600000Y-165710000D03*
X139600000Y-164690000D03*
%TD*%
D55*
%TO.C,U6*%
X124062500Y-145250000D03*
X124062500Y-145750000D03*
X124062500Y-146250000D03*
X124062500Y-146750000D03*
X124062500Y-147250000D03*
X124062500Y-147750000D03*
D56*
X124750000Y-148437500D03*
X125250000Y-148437500D03*
X125750000Y-148437500D03*
X126250000Y-148437500D03*
X126750000Y-148437500D03*
X127250000Y-148437500D03*
D55*
X127937500Y-147750000D03*
X127937500Y-147250000D03*
X127937500Y-146750000D03*
X127937500Y-146250000D03*
X127937500Y-145750000D03*
X127937500Y-145250000D03*
D56*
X127250000Y-144562500D03*
X126750000Y-144562500D03*
X126250000Y-144562500D03*
X125750000Y-144562500D03*
X125250000Y-144562500D03*
X124750000Y-144562500D03*
D57*
X126000000Y-146500000D03*
%TD*%
D25*
%TO.C,R7*%
X137800000Y-107510000D03*
X137800000Y-106490000D03*
%TD*%
D48*
%TO.C,TP2*%
X138000000Y-86400000D03*
%TD*%
D25*
%TO.C,R8*%
X136000000Y-165710000D03*
X136000000Y-164690000D03*
%TD*%
D32*
%TO.C,C4*%
X125220000Y-87900000D03*
X126180000Y-87900000D03*
%TD*%
%LPD*%
M02*
