%TF.GenerationSoftware,KiCad,Pcbnew,10.0.6*%
%TF.CreationDate,2026-10-08T21:38:41-04:00*%
%TF.ProjectId,ai_calc_v15_lcd,61695f63-616c-4635-9f76-31355f6c6364,v15-LCD*%
%TF.SameCoordinates,Original*%
%TF.FileFunction,Profile,NP*%
%FSLAX46Y46*%
G04 Gerber Fmt 4.6, Leading zero omitted, Abs format (unit mm)*
G04 Created by KiCad (PCBNEW 10.0.6) date 2026-10-08 21:38:41*
%MOMM*%
%LPD*%
G01*
G04 APERTURE LIST*
%TA.AperFunction,Profile*%
%ADD10C,0.100000*%
%TD*%
%TA.AperFunction,Profile*%
%ADD11C,0.050000*%
%TD*%
G04 APERTURE END LIST*
D10*
X114212000Y-119588000D02*
X114613000Y-120920000D01*
D11*
X114276000Y-82900000D02*
X118900000Y-82900000D01*
D10*
X114613000Y-120920000D02*
X115326000Y-127821000D01*
D11*
X114633000Y-79528000D02*
X114276000Y-82900000D01*
D10*
X114768000Y-72007000D02*
X114633000Y-79528000D01*
X115326000Y-127821000D02*
X117073000Y-139697000D01*
X116755000Y-72007000D02*
X114768000Y-72007000D01*
X117073000Y-139697000D02*
X117930000Y-142111000D01*
X117630000Y-71880000D02*
X116755000Y-72007000D01*
D11*
X117770669Y-71834632D02*
X117630000Y-71880000D01*
X117908050Y-71781638D02*
X117770669Y-71834632D01*
D10*
X117930000Y-142111000D02*
X117932000Y-205743000D01*
X117932000Y-205743000D02*
X118147000Y-207194000D01*
D11*
X118042665Y-71721967D02*
X117908050Y-71781638D01*
D10*
X118147000Y-207194000D02*
X118523000Y-208100000D01*
D11*
X118174190Y-71655763D02*
X118042665Y-71721967D01*
X118302308Y-71583185D02*
X118174190Y-71655763D01*
X118426710Y-71504408D02*
X118302308Y-71583185D01*
D10*
X118523000Y-208100000D02*
X119067000Y-208915000D01*
D11*
X118547097Y-71419622D02*
X118426710Y-71504408D01*
X118663179Y-71329031D02*
X118547097Y-71419622D01*
X118774676Y-71232853D02*
X118663179Y-71329031D01*
X118881320Y-71131320D02*
X118774676Y-71232853D01*
X118900000Y-82900000D02*
X118900000Y-114000000D01*
X118900000Y-114000000D02*
X114212000Y-119588000D01*
X118982853Y-71024676D02*
X118881320Y-71131320D01*
D10*
X119067000Y-208915000D02*
X119760000Y-209608000D01*
D11*
X119079031Y-70913179D02*
X118982853Y-71024676D01*
X119169622Y-70797097D02*
X119079031Y-70913179D01*
X119254408Y-70676710D02*
X119169622Y-70797097D01*
X119333185Y-70552308D02*
X119254408Y-70676710D01*
X119405763Y-70424190D02*
X119333185Y-70552308D01*
X119471967Y-70292665D02*
X119405763Y-70424190D01*
X119531638Y-70158050D02*
X119471967Y-70292665D01*
X119584632Y-70020669D02*
X119531638Y-70158050D01*
X119630821Y-69880854D02*
X119584632Y-70020669D01*
X119670093Y-69738940D02*
X119630821Y-69880854D01*
X119702355Y-69595270D02*
X119670093Y-69738940D01*
X119727529Y-69450191D02*
X119702355Y-69595270D01*
X119745554Y-69304051D02*
X119727529Y-69450191D01*
X119756386Y-69157203D02*
X119745554Y-69304051D01*
X119760000Y-69010000D02*
X119756386Y-69157203D01*
D10*
X119760000Y-209608000D02*
X120575000Y-210152000D01*
D11*
X120282092Y-67894760D02*
X119760000Y-69010000D01*
X120382566Y-67808091D02*
X120282092Y-67894760D01*
X120498097Y-67698097D02*
X120382566Y-67808091D01*
D10*
X120575000Y-210152000D02*
X121481000Y-210527000D01*
D11*
X120608091Y-67582566D02*
X120498097Y-67698097D01*
X120650360Y-63266434D02*
X120712283Y-63338221D01*
X120712283Y-63338221D02*
X120810424Y-63463977D01*
X120712283Y-67461778D02*
X120608091Y-67582566D01*
X120810424Y-63463977D02*
X120902276Y-63594396D01*
X120810424Y-67336022D02*
X120712283Y-67461778D01*
X120902276Y-63594396D02*
X120987617Y-63729166D01*
X120902276Y-67205603D02*
X120810424Y-67336022D01*
X120987617Y-63729166D02*
X121066244Y-63867960D01*
X120987617Y-67070833D02*
X120902276Y-67205603D01*
X121066244Y-63867960D02*
X121137965Y-64010445D01*
X121066244Y-66932039D02*
X120987617Y-67070833D01*
X121069000Y-63104000D02*
X120650360Y-63266434D01*
X121137965Y-64010445D02*
X121202608Y-64156278D01*
X121137965Y-66789554D02*
X121066244Y-66932039D01*
X121202608Y-64156278D02*
X121260018Y-64305107D01*
X121202608Y-66643721D02*
X121137965Y-66789554D01*
X121260018Y-64305107D02*
X121310056Y-64456574D01*
X121260018Y-66494892D02*
X121202608Y-66643721D01*
X121310056Y-64456574D02*
X121352601Y-64610314D01*
X121310056Y-66343425D02*
X121260018Y-66494892D01*
X121352601Y-64610314D02*
X121387552Y-64765956D01*
X121352601Y-66189685D02*
X121310056Y-66343425D01*
X121387552Y-64765956D02*
X121414823Y-64923125D01*
X121387552Y-66034043D02*
X121352601Y-66189685D01*
X121414823Y-64923125D02*
X121434350Y-65081444D01*
X121414823Y-65876874D02*
X121387552Y-66034043D01*
X121434350Y-65081444D02*
X121446085Y-65240530D01*
X121434350Y-65718555D02*
X121414823Y-65876874D01*
X121446085Y-65240530D02*
X121450000Y-65400000D01*
X121446085Y-65559469D02*
X121434350Y-65718555D01*
X121450000Y-65400000D02*
X121446085Y-65559469D01*
D10*
X121481000Y-210527000D02*
X122932000Y-210743000D01*
D11*
X122521000Y-62872000D02*
X121069000Y-63104000D01*
D10*
X122932000Y-210743000D02*
X126572000Y-210743000D01*
X126549000Y-209807000D02*
X126702000Y-209038000D01*
X126572000Y-210743000D02*
X126549000Y-209807000D01*
X126702000Y-209038000D02*
X127204000Y-207976000D01*
X127204000Y-207976000D02*
X127701000Y-207370000D01*
X127701000Y-207370000D02*
X128999000Y-206503000D01*
D11*
X127769000Y-62520000D02*
X122521000Y-62872000D01*
D10*
X128999000Y-206503000D02*
X129749000Y-206276000D01*
X129749000Y-206276000D02*
X130922000Y-206218000D01*
X130922000Y-206218000D02*
X132414999Y-206671000D01*
X132414999Y-206671000D02*
X133622000Y-207661000D01*
X133622000Y-207661000D02*
X134358000Y-209038000D01*
X134207000Y-62248000D02*
X127769000Y-62520000D01*
X134358000Y-209038000D02*
X134511000Y-209807000D01*
X134488000Y-210743000D02*
X165554000Y-210743000D01*
X134511000Y-209807000D02*
X134488000Y-210743000D01*
X135979000Y-61987000D02*
X134207000Y-62248000D01*
X147497000Y-61987000D02*
X135979000Y-61987000D01*
X147506000Y-76486000D02*
X147497000Y-61987000D01*
X147648000Y-77052000D02*
X147506000Y-76486000D01*
X147948000Y-77552000D02*
X147648000Y-77052000D01*
X148380000Y-77943000D02*
X147948000Y-77552000D01*
X149096000Y-78240000D02*
X148380000Y-77943000D01*
X165470000Y-209934000D02*
X165547000Y-209153000D01*
X165547000Y-209153000D02*
X165775000Y-208403000D01*
X165554000Y-210743000D02*
X165470000Y-209934000D01*
X165775000Y-208403000D02*
X166378000Y-207396000D01*
X166378000Y-207396000D02*
X166933000Y-206842000D01*
X166933000Y-206842000D02*
X167939000Y-206238000D01*
X167939000Y-206238000D02*
X169470000Y-205934000D01*
X169470000Y-205934000D02*
X171001000Y-206238000D01*
X171001000Y-206238000D02*
X172008000Y-206842000D01*
X172008000Y-206842000D02*
X172562000Y-207396000D01*
X172562000Y-207396000D02*
X173166000Y-208403000D01*
X173166000Y-208403000D02*
X173393000Y-209153000D01*
X173386000Y-210743000D02*
X177557000Y-210719000D01*
X173393000Y-209153000D02*
X173470000Y-209934000D01*
X173470000Y-209934000D02*
X173386000Y-210743000D01*
X177557000Y-210719000D02*
X178518000Y-210528000D01*
X178518000Y-210528000D02*
X179424000Y-210153000D01*
X179424000Y-210153000D02*
X180603000Y-209279000D01*
X180500000Y-83600000D02*
X180500000Y-102600000D01*
X180500000Y-83600000D02*
G75*
G02*
X181500000Y-83600000I500000J0D01*
G01*
X180603000Y-209279000D02*
X181224000Y-208521000D01*
X181224000Y-208521000D02*
X181852000Y-207195000D01*
X181500000Y-83600000D02*
X181500000Y-102600000D01*
X181500000Y-102600000D02*
G75*
G02*
X180500000Y-102600000I-500000J0D01*
G01*
X181852000Y-207195000D02*
X182043000Y-206234000D01*
X182043000Y-206234000D02*
X182070000Y-142111000D01*
X182070000Y-142111000D02*
X182930000Y-139678000D01*
X182930000Y-139678000D02*
X183747000Y-134473000D01*
X183650000Y-78277000D02*
X149096000Y-78240000D01*
D11*
X183650000Y-78277000D02*
X183650000Y-116000000D01*
X183650000Y-116000000D02*
X185858000Y-119170000D01*
D10*
X183747000Y-134473000D02*
X184195000Y-130589000D01*
X184195000Y-130589000D02*
X184671000Y-127850000D01*
X184671000Y-127850000D02*
X185387000Y-120920000D01*
X185387000Y-120920000D02*
X185858000Y-119170000D01*
M02*
