%TF.GenerationSoftware,KiCad,Pcbnew,10.0.6*%
%TF.CreationDate,2026-10-08T21:38:41-04:00*%
%TF.ProjectId,ai_calc_v15_lcd,61695f63-616c-4635-9f76-31355f6c6364,v15-LCD*%
%TF.SameCoordinates,Original*%
%TF.FileFunction,Soldermask,Top*%
%TF.FilePolarity,Negative*%
%FSLAX46Y46*%
G04 Gerber Fmt 4.6, Leading zero omitted, Abs format (unit mm)*
G04 Created by KiCad (PCBNEW 10.0.6) date 2026-10-08 21:38:41*
%MOMM*%
%LPD*%
G01*
G04 APERTURE LIST*
G04 Aperture macros list*
%AMRoundRect*
0 Rectangle with rounded corners*
0 $1 Rounding radius*
0 $2 $3 $4 $5 $6 $7 $8 $9 X,Y pos of 4 corners*
0 Add a 4 corners polygon primitive as box body*
4,1,4,$2,$3,$4,$5,$6,$7,$8,$9,$2,$3,0*
0 Add four circle primitives for the rounded corners*
1,1,$1+$1,$2,$3*
1,1,$1+$1,$4,$5*
1,1,$1+$1,$6,$7*
1,1,$1+$1,$8,$9*
0 Add four rect primitives between the rounded corners*
20,1,$1+$1,$2,$3,$4,$5,0*
20,1,$1+$1,$4,$5,$6,$7,0*
20,1,$1+$1,$6,$7,$8,$9,0*
20,1,$1+$1,$8,$9,$2,$3,0*%
%AMFreePoly0*
4,1,6,0.600000,-0.600000,-0.600000,-0.600000,-0.600000,0.000000,0.000000,0.600000,0.600000,0.600000,0.600000,-0.600000,0.600000,-0.600000,$1*%
G04 Aperture macros list end*
%ADD10RoundRect,0.150000X-0.512500X-0.150000X0.512500X-0.150000X0.512500X0.150000X-0.512500X0.150000X0*%
%ADD11C,6.000000*%
%ADD12RoundRect,0.150000X0.150000X-0.587500X0.150000X0.587500X-0.150000X0.587500X-0.150000X-0.587500X0*%
%ADD13C,2.000000*%
%ADD14RoundRect,0.225000X0.250000X-0.225000X0.250000X0.225000X-0.250000X0.225000X-0.250000X-0.225000X0*%
%ADD15C,1.500000*%
%ADD16R,0.800000X0.300000*%
%ADD17R,0.800000X0.400000*%
%ADD18RoundRect,0.135000X-0.135000X-0.185000X0.135000X-0.185000X0.135000X0.185000X-0.135000X0.185000X0*%
%ADD19RoundRect,0.140000X-0.170000X0.140000X-0.170000X-0.140000X0.170000X-0.140000X0.170000X0.140000X0*%
%ADD20RoundRect,0.135000X0.185000X-0.135000X0.185000X0.135000X-0.185000X0.135000X-0.185000X-0.135000X0*%
%ADD21RoundRect,0.250000X0.475000X-0.250000X0.475000X0.250000X-0.475000X0.250000X-0.475000X-0.250000X0*%
%ADD22RoundRect,0.140000X0.170000X-0.140000X0.170000X0.140000X-0.170000X0.140000X-0.170000X-0.140000X0*%
%ADD23RoundRect,0.153000X-0.357000X-1.347000X0.357000X-1.347000X0.357000X1.347000X-0.357000X1.347000X0*%
%ADD24R,1.000000X3.800000*%
%ADD25R,1.500000X3.400000*%
%ADD26RoundRect,0.250000X0.250000X0.475000X-0.250000X0.475000X-0.250000X-0.475000X0.250000X-0.475000X0*%
%ADD27RoundRect,0.140000X-0.140000X-0.170000X0.140000X-0.170000X0.140000X0.170000X-0.140000X0.170000X0*%
%ADD28O,4.200000X5.000000*%
%ADD29O,4.200000X4.650000*%
%ADD30O,4.200000X4.450000*%
%ADD31RoundRect,0.250000X-0.475000X0.250000X-0.475000X-0.250000X0.475000X-0.250000X0.475000X0.250000X0*%
%ADD32RoundRect,0.200000X0.200000X0.275000X-0.200000X0.275000X-0.200000X-0.275000X0.200000X-0.275000X0*%
%ADD33C,4.200000*%
%ADD34RoundRect,0.225000X-0.225000X-0.375000X0.225000X-0.375000X0.225000X0.375000X-0.225000X0.375000X0*%
%ADD35R,0.300000X1.200000*%
%ADD36R,1.800000X2.000000*%
%ADD37RoundRect,0.250000X0.400000X0.450000X-0.400000X0.450000X-0.400000X-0.450000X0.400000X-0.450000X0*%
%ADD38RoundRect,0.218750X-0.218750X-0.256250X0.218750X-0.256250X0.218750X0.256250X-0.218750X0.256250X0*%
%ADD39RoundRect,0.135000X0.135000X0.185000X-0.135000X0.185000X-0.135000X-0.185000X0.135000X-0.185000X0*%
%ADD40RoundRect,0.150000X-0.150000X0.587500X-0.150000X-0.587500X0.150000X-0.587500X0.150000X0.587500X0*%
%ADD41RoundRect,0.225000X-0.250000X0.225000X-0.250000X-0.225000X0.250000X-0.225000X0.250000X0.225000X0*%
%ADD42RoundRect,0.225000X-0.225000X-0.250000X0.225000X-0.250000X0.225000X0.250000X-0.225000X0.250000X0*%
%ADD43C,1.000000*%
%ADD44O,4.400000X4.800000*%
%ADD45R,0.400000X0.800000*%
%ADD46FreePoly0,90.000000*%
%ADD47R,1.200000X1.200000*%
%ADD48R,0.800000X0.800000*%
%ADD49RoundRect,0.150000X-0.587500X-0.150000X0.587500X-0.150000X0.587500X0.150000X-0.587500X0.150000X0*%
%ADD50RoundRect,0.062500X-0.375000X-0.062500X0.375000X-0.062500X0.375000X0.062500X-0.375000X0.062500X0*%
%ADD51RoundRect,0.062500X-0.062500X-0.375000X0.062500X-0.375000X0.062500X0.375000X-0.062500X0.375000X0*%
%ADD52R,2.600000X2.600000*%
G04 APERTURE END LIST*
D10*
%TO.C,U7*%
X132462500Y-82250000D03*
X132462500Y-83200000D03*
X132462500Y-84150000D03*
X134737500Y-84150000D03*
X134737500Y-83200000D03*
X134737500Y-82250000D03*
%TD*%
D11*
%TO.C,H1*%
X127500000Y-126100000D03*
%TD*%
D12*
%TO.C,Q4*%
X158550000Y-104837500D03*
X160450000Y-104837500D03*
X159500000Y-102962500D03*
%TD*%
D13*
%TO.C,FID3*%
X177000000Y-112500000D03*
%TD*%
D14*
%TO.C,C6*%
X139600000Y-66775000D03*
X139600000Y-65225000D03*
%TD*%
D15*
%TO.C,TP6*%
X140400000Y-80300000D03*
%TD*%
D16*
%TO.C,J5*%
X157400000Y-100350000D03*
X157400000Y-99850000D03*
X157400000Y-99350000D03*
X157400000Y-98850000D03*
X157400000Y-98350000D03*
X157400000Y-97850000D03*
X157400000Y-97350000D03*
X157400000Y-96850000D03*
X157400000Y-96350000D03*
X157400000Y-95850000D03*
X157400000Y-95350000D03*
X157400000Y-94850000D03*
X157400000Y-94350000D03*
X157400000Y-93850000D03*
X157400000Y-93350000D03*
X157400000Y-92850000D03*
X157400000Y-92350000D03*
X157400000Y-91850000D03*
X157400000Y-91350000D03*
X157400000Y-90850000D03*
X157400000Y-90350000D03*
X157400000Y-89850000D03*
X157400000Y-89350000D03*
X157400000Y-88850000D03*
X157400000Y-88350000D03*
X157400000Y-87850000D03*
X157400000Y-87350000D03*
X157400000Y-86850000D03*
X157400000Y-86350000D03*
X157400000Y-85850000D03*
D17*
X159800000Y-101350000D03*
X159800000Y-84850000D03*
%TD*%
D18*
%TO.C,R10*%
X134090000Y-163400000D03*
X135110000Y-163400000D03*
%TD*%
D19*
%TO.C,C36*%
X157300000Y-102320000D03*
X157300000Y-103280000D03*
%TD*%
D20*
%TO.C,R19*%
X140800000Y-165710000D03*
X140800000Y-164690000D03*
%TD*%
D21*
%TO.C,C32*%
X118400000Y-81950000D03*
X118400000Y-80050000D03*
%TD*%
D20*
%TO.C,R3*%
X133250000Y-79110000D03*
X133250000Y-78090000D03*
%TD*%
D22*
%TO.C,C18*%
X137200000Y-165680000D03*
X137200000Y-164720000D03*
%TD*%
D13*
%TO.C,FID2*%
X178500000Y-203500000D03*
%TD*%
D23*
%TO.C,J3*%
X123690000Y-72000000D03*
X126230000Y-72000000D03*
X128770000Y-72000000D03*
X131310000Y-72000000D03*
%TD*%
D22*
%TO.C,C13*%
X140000000Y-154880000D03*
X140000000Y-153920000D03*
%TD*%
D24*
%TO.C,J4*%
X141600000Y-71670000D03*
X143600000Y-71670000D03*
D25*
X139250000Y-77530000D03*
X145950000Y-77530000D03*
%TD*%
D26*
%TO.C,C33*%
X122650000Y-84750000D03*
X120750000Y-84750000D03*
%TD*%
D27*
%TO.C,C17*%
X157520000Y-156200000D03*
X158480000Y-156200000D03*
%TD*%
D28*
%TO.C,H2*%
X130850000Y-176250000D03*
%TD*%
D29*
%TO.C,H14*%
X169100000Y-198375000D03*
%TD*%
D30*
%TO.C,H13*%
X130500000Y-198325000D03*
%TD*%
D11*
%TO.C,H3*%
X174000000Y-126100000D03*
%TD*%
D15*
%TO.C,TP1*%
X121000000Y-110400000D03*
%TD*%
D31*
%TO.C,C34*%
X124550000Y-84400000D03*
X124550000Y-86300000D03*
%TD*%
D18*
%TO.C,R17*%
X123490000Y-117600000D03*
X124510000Y-117600000D03*
%TD*%
%TO.C,R20*%
X129790000Y-80600000D03*
X130810000Y-80600000D03*
%TD*%
D13*
%TO.C,FID1*%
X121500000Y-203500000D03*
%TD*%
D15*
%TO.C,TP5*%
X123600000Y-82350000D03*
%TD*%
D32*
%TO.C,R23*%
X161825000Y-80600000D03*
X160175000Y-80600000D03*
%TD*%
D18*
%TO.C,R2*%
X131990000Y-74600000D03*
X133010000Y-74600000D03*
%TD*%
D33*
%TO.C,H4*%
X171060000Y-145960000D03*
%TD*%
D27*
%TO.C,C16*%
X157520000Y-151800000D03*
X158480000Y-151800000D03*
%TD*%
D34*
%TO.C,D1*%
X127550000Y-75200000D03*
X130850000Y-75200000D03*
%TD*%
D22*
%TO.C,C31*%
X129400000Y-144680000D03*
X129400000Y-143720000D03*
%TD*%
D20*
%TO.C,R6*%
X136600000Y-107510000D03*
X136600000Y-106490000D03*
%TD*%
D35*
%TO.C,J1*%
X144250000Y-162580000D03*
X144750000Y-162580000D03*
X145250000Y-162580000D03*
X145750000Y-162580000D03*
X146250000Y-162580000D03*
X146750000Y-162580000D03*
X147250000Y-162580000D03*
X147750000Y-162580000D03*
X148250000Y-162580000D03*
X148750000Y-162580000D03*
X149250000Y-162580000D03*
X149750000Y-162580000D03*
X150250000Y-162580000D03*
X150750000Y-162580000D03*
X151250000Y-162580000D03*
X151750000Y-162580000D03*
X152250000Y-162580000D03*
X152750000Y-162580000D03*
X153250000Y-162580000D03*
X153750000Y-162580000D03*
X154250000Y-162580000D03*
X154750000Y-162580000D03*
X155250000Y-162580000D03*
X155750000Y-162580000D03*
D36*
X157400000Y-159420000D03*
X142600000Y-159420000D03*
%TD*%
D22*
%TO.C,C9*%
X139000000Y-107480000D03*
X139000000Y-106520000D03*
%TD*%
D37*
%TO.C,D7*%
X120650000Y-73400000D03*
X117750000Y-73400000D03*
%TD*%
D10*
%TO.C,U3*%
X120862500Y-75850000D03*
X120862500Y-76800000D03*
X120862500Y-77750000D03*
X123137500Y-77750000D03*
X123137500Y-75850000D03*
%TD*%
D33*
%TO.C,H6*%
X130600000Y-186990000D03*
%TD*%
D20*
%TO.C,R16*%
X126000000Y-141510000D03*
X126000000Y-140490000D03*
%TD*%
D38*
%TO.C,FB1*%
X136612500Y-154400000D03*
X138187500Y-154400000D03*
%TD*%
D39*
%TO.C,R21*%
X160010000Y-106300000D03*
X158990000Y-106300000D03*
%TD*%
D10*
%TO.C,U5*%
X136262500Y-159650000D03*
X136262500Y-160600000D03*
X136262500Y-161550000D03*
X138537500Y-161550000D03*
X138537500Y-159650000D03*
%TD*%
D22*
%TO.C,C10*%
X134600000Y-157480000D03*
X134600000Y-156520000D03*
%TD*%
D10*
%TO.C,U2*%
X134762500Y-66550000D03*
X134762500Y-67500000D03*
X134762500Y-68450000D03*
X137037500Y-68450000D03*
X137037500Y-66550000D03*
%TD*%
D14*
%TO.C,C7*%
X119000000Y-77575000D03*
X119000000Y-76025000D03*
%TD*%
D39*
%TO.C,R22*%
X157410000Y-79600000D03*
X156390000Y-79600000D03*
%TD*%
D22*
%TO.C,C12*%
X141200000Y-157480000D03*
X141200000Y-156520000D03*
%TD*%
D20*
%TO.C,R15*%
X124800000Y-141510000D03*
X124800000Y-140490000D03*
%TD*%
D15*
%TO.C,TP4*%
X120600000Y-113100000D03*
%TD*%
D22*
%TO.C,C2*%
X123300000Y-106630000D03*
X123300000Y-105670000D03*
%TD*%
%TO.C,C15*%
X140000000Y-161080000D03*
X140000000Y-160120000D03*
%TD*%
D40*
%TO.C,Q5*%
X158250000Y-81362500D03*
X156350000Y-81362500D03*
X157300000Y-83237500D03*
%TD*%
D34*
%TO.C,D6*%
X128650000Y-78600000D03*
X131950000Y-78600000D03*
%TD*%
D22*
%TO.C,C11*%
X140000000Y-157480000D03*
X140000000Y-156520000D03*
%TD*%
D41*
%TO.C,C19*%
X155600000Y-102825000D03*
X155600000Y-104375000D03*
%TD*%
D42*
%TO.C,C8*%
X125025000Y-79300000D03*
X126575000Y-79300000D03*
%TD*%
D33*
%TO.C,H8*%
X128850000Y-137000000D03*
%TD*%
D43*
%TO.C,TP3*%
X140400000Y-86400000D03*
%TD*%
D44*
%TO.C,H9*%
X169200000Y-176200000D03*
%TD*%
D14*
%TO.C,C3*%
X125000000Y-107375000D03*
X125000000Y-105825000D03*
%TD*%
D18*
%TO.C,R1*%
X127090000Y-87900000D03*
X128110000Y-87900000D03*
%TD*%
D20*
%TO.C,R14*%
X123600000Y-141510000D03*
X123600000Y-140490000D03*
%TD*%
D14*
%TO.C,C5*%
X135900000Y-72775000D03*
X135900000Y-71225000D03*
%TD*%
D33*
%TO.C,H10*%
X171250000Y-136800000D03*
%TD*%
D22*
%TO.C,C14*%
X134600000Y-161080000D03*
X134600000Y-160120000D03*
%TD*%
D20*
%TO.C,R13*%
X122400000Y-141510000D03*
X122400000Y-140490000D03*
%TD*%
%TO.C,R4*%
X124900000Y-75310000D03*
X124900000Y-74290000D03*
%TD*%
D10*
%TO.C,U4*%
X136262500Y-156050000D03*
X136262500Y-157000000D03*
X136262500Y-157950000D03*
X138537500Y-157950000D03*
X138537500Y-156050000D03*
%TD*%
D45*
%TO.C,U1*%
X121600000Y-104000000D03*
X122450000Y-104000000D03*
X123300000Y-104000000D03*
X124150000Y-104000000D03*
X125000000Y-104000000D03*
X125850000Y-104000000D03*
X126700000Y-104000000D03*
X127550000Y-104000000D03*
X128400000Y-104000000D03*
X129250000Y-104000000D03*
X130100000Y-104000000D03*
X130950000Y-104000000D03*
X131800000Y-104000000D03*
X132650000Y-104000000D03*
X133500000Y-104000000D03*
D17*
X134550000Y-102950000D03*
X134550000Y-102100000D03*
X134550000Y-101250000D03*
X134550000Y-100400000D03*
X134550000Y-99550000D03*
X134550000Y-98700000D03*
X134550000Y-97850000D03*
X134550000Y-97000000D03*
X134550000Y-96150000D03*
X134550000Y-95300000D03*
X134550000Y-94450000D03*
X134550000Y-93600000D03*
X134550000Y-92750000D03*
X134550000Y-91900000D03*
X134550000Y-91050000D03*
D45*
X133500000Y-90000000D03*
X132650000Y-90000000D03*
X131800000Y-90000000D03*
X130950000Y-90000000D03*
X130100000Y-90000000D03*
X129250000Y-90000000D03*
X128400000Y-90000000D03*
X127550000Y-90000000D03*
X126700000Y-90000000D03*
X125850000Y-90000000D03*
X125000000Y-90000000D03*
X124150000Y-90000000D03*
X123300000Y-90000000D03*
X122450000Y-90000000D03*
X121600000Y-90000000D03*
D17*
X120550000Y-91050000D03*
X120550000Y-91900000D03*
X120550000Y-92750000D03*
X120550000Y-93600000D03*
X120550000Y-94450000D03*
X120550000Y-95300000D03*
X120550000Y-96150000D03*
X120550000Y-97000000D03*
X120550000Y-97850000D03*
X120550000Y-98700000D03*
X120550000Y-99550000D03*
X120550000Y-100400000D03*
X120550000Y-101250000D03*
X120550000Y-102100000D03*
X120550000Y-102950000D03*
D46*
X125900000Y-98650000D03*
D47*
X127550000Y-98650000D03*
X129200000Y-98650000D03*
X125900000Y-97000000D03*
X127550000Y-97000000D03*
X129200000Y-97000000D03*
X125900000Y-95350000D03*
X127550000Y-95350000D03*
X129200000Y-95350000D03*
D48*
X120550000Y-104000000D03*
X134550000Y-104000000D03*
X134550000Y-90000000D03*
X120550000Y-90000000D03*
%TD*%
D21*
%TO.C,C1*%
X121300000Y-107750000D03*
X121300000Y-105850000D03*
%TD*%
D18*
%TO.C,R5*%
X125560000Y-81000000D03*
X126580000Y-81000000D03*
%TD*%
D15*
%TO.C,TP7*%
X128000000Y-84600000D03*
%TD*%
D34*
%TO.C,D2*%
X156350000Y-154000000D03*
X159650000Y-154000000D03*
%TD*%
D20*
%TO.C,R9*%
X138400000Y-165710000D03*
X138400000Y-164690000D03*
%TD*%
D12*
%TO.C,Q2*%
X134950000Y-76537500D03*
X136850000Y-76537500D03*
X135900000Y-74662500D03*
%TD*%
D49*
%TO.C,Q1*%
X135162500Y-78550000D03*
X135162500Y-80450000D03*
X137037500Y-79500000D03*
%TD*%
D20*
%TO.C,R18*%
X139600000Y-165710000D03*
X139600000Y-164690000D03*
%TD*%
D50*
%TO.C,U6*%
X124062500Y-145250000D03*
X124062500Y-145750000D03*
X124062500Y-146250000D03*
X124062500Y-146750000D03*
X124062500Y-147250000D03*
X124062500Y-147750000D03*
D51*
X124750000Y-148437500D03*
X125250000Y-148437500D03*
X125750000Y-148437500D03*
X126250000Y-148437500D03*
X126750000Y-148437500D03*
X127250000Y-148437500D03*
D50*
X127937500Y-147750000D03*
X127937500Y-147250000D03*
X127937500Y-146750000D03*
X127937500Y-146250000D03*
X127937500Y-145750000D03*
X127937500Y-145250000D03*
D51*
X127250000Y-144562500D03*
X126750000Y-144562500D03*
X126250000Y-144562500D03*
X125750000Y-144562500D03*
X125250000Y-144562500D03*
X124750000Y-144562500D03*
D52*
X126000000Y-146500000D03*
%TD*%
D20*
%TO.C,R7*%
X137800000Y-107510000D03*
X137800000Y-106490000D03*
%TD*%
D43*
%TO.C,TP2*%
X138000000Y-86400000D03*
%TD*%
D20*
%TO.C,R8*%
X136000000Y-165710000D03*
X136000000Y-164690000D03*
%TD*%
D27*
%TO.C,C4*%
X125220000Y-87900000D03*
X126180000Y-87900000D03*
%TD*%
M02*
