%TF.GenerationSoftware,KiCad,Pcbnew,10.0.6*%
%TF.CreationDate,2026-10-03T10:09:03-04:00*%
%TF.ProjectId,ai_calc,61695f63-616c-4632-9e6b-696361645f70,0.1-geometry*%
%TF.SameCoordinates,Original*%
%TF.FileFunction,Drillmap*%
%TF.FilePolarity,Positive*%
%FSLAX45Y45*%
G04 Gerber Fmt 4.5, Leading zero omitted, Abs format (unit mm)*
G04 Created by KiCad (PCBNEW 10.0.6) date 2026-10-03 10:09:03*
%MOMM*%
%LPD*%
G01*
G04 APERTURE LIST*
%ADD10C,0.100000*%
%ADD11C,0.050000*%
%ADD12C,0.200000*%
G04 APERTURE END LIST*
D10*
X11384100Y-11509900D02*
X11399800Y-11784100D01*
X11386500Y-9540400D02*
X11384100Y-11509900D01*
X11397300Y-9456800D02*
X11386500Y-9540400D01*
X11397400Y-8741700D02*
X11397300Y-9456800D01*
X11399800Y-11784100D02*
X11421200Y-11958800D01*
X11413000Y-8427800D02*
X11397400Y-8741700D01*
X11421200Y-11958800D02*
X11461300Y-12092000D01*
X11461300Y-12092000D02*
X11532600Y-12782100D01*
X11463300Y-7952800D02*
X11413000Y-8427800D01*
X11476800Y-7200700D02*
X11463300Y-7952800D01*
X11532600Y-12782100D02*
X11707300Y-13969700D01*
X11675500Y-7200700D02*
X11476800Y-7200700D01*
X11707300Y-13969700D02*
X11793000Y-14211100D01*
X11763000Y-7188000D02*
X11675500Y-7200700D01*
D11*
X11777067Y-7183463D02*
X11763000Y-7188000D01*
X11790805Y-7178164D02*
X11777067Y-7183463D01*
D10*
X11793000Y-14211100D02*
X11793200Y-20574300D01*
X11793200Y-20574300D02*
X11814700Y-20719400D01*
D11*
X11804266Y-7172197D02*
X11790805Y-7178164D01*
D10*
X11814700Y-20719400D02*
X11852300Y-20810000D01*
D11*
X11817419Y-7165576D02*
X11804266Y-7172197D01*
X11830231Y-7158318D02*
X11817419Y-7165576D01*
X11842671Y-7150441D02*
X11830231Y-7158318D01*
D10*
X11852300Y-20810000D02*
X11906700Y-20891500D01*
D11*
X11854710Y-7141962D02*
X11842671Y-7150441D01*
X11866318Y-7132903D02*
X11854710Y-7141962D01*
X11877468Y-7123285D02*
X11866318Y-7132903D01*
X11888132Y-7113132D02*
X11877468Y-7123285D01*
X11898285Y-7102468D02*
X11888132Y-7113132D01*
D10*
X11906700Y-20891500D02*
X11976000Y-20960800D01*
D11*
X11907903Y-7091318D02*
X11898285Y-7102468D01*
X11916962Y-7079710D02*
X11907903Y-7091318D01*
X11925441Y-7067671D02*
X11916962Y-7079710D01*
X11933318Y-7055231D02*
X11925441Y-7067671D01*
X11940576Y-7042419D02*
X11933318Y-7055231D01*
X11947197Y-7029266D02*
X11940576Y-7042419D01*
X11953164Y-7015805D02*
X11947197Y-7029266D01*
X11958463Y-7002067D02*
X11953164Y-7015805D01*
X11963082Y-6988085D02*
X11958463Y-7002067D01*
X11967009Y-6973894D02*
X11963082Y-6988085D01*
X11970235Y-6959527D02*
X11967009Y-6973894D01*
X11972753Y-6945019D02*
X11970235Y-6959527D01*
X11974555Y-6930405D02*
X11972753Y-6945019D01*
X11975639Y-6915720D02*
X11974555Y-6930405D01*
X11976000Y-6901000D02*
X11975639Y-6915720D01*
D10*
X11976000Y-20960800D02*
X12057500Y-21015200D01*
D11*
X12028209Y-6789476D02*
X11976000Y-6901000D01*
X12038257Y-6780809D02*
X12028209Y-6789476D01*
X12049810Y-6769810D02*
X12038257Y-6780809D01*
D10*
X12057500Y-21015200D02*
X12148100Y-21052700D01*
D11*
X12060809Y-6758257D02*
X12049810Y-6769810D01*
X12065036Y-6326643D02*
X12071228Y-6333822D01*
X12071228Y-6333822D02*
X12081042Y-6346398D01*
X12071228Y-6746178D02*
X12060809Y-6758257D01*
X12081042Y-6346398D02*
X12090228Y-6359440D01*
X12081042Y-6733602D02*
X12071228Y-6746178D01*
X12090228Y-6359440D02*
X12098762Y-6372917D01*
X12090228Y-6720560D02*
X12081042Y-6733602D01*
X12098762Y-6372917D02*
X12106624Y-6386796D01*
X12098762Y-6707083D02*
X12090228Y-6720560D01*
X12106624Y-6386796D02*
X12113796Y-6401044D01*
X12106624Y-6693204D02*
X12098762Y-6707083D01*
X12106900Y-6310400D02*
X12065036Y-6326643D01*
X12113796Y-6401044D02*
X12120261Y-6415628D01*
X12113796Y-6678955D02*
X12106624Y-6693204D01*
X12120261Y-6415628D02*
X12126002Y-6430511D01*
X12120261Y-6664372D02*
X12113796Y-6678955D01*
X12126002Y-6430511D02*
X12131006Y-6445657D01*
X12126002Y-6649489D02*
X12120261Y-6664372D01*
X12131006Y-6445657D02*
X12135260Y-6461031D01*
X12131006Y-6634342D02*
X12126002Y-6649489D01*
X12135260Y-6461031D02*
X12138755Y-6476596D01*
X12135260Y-6618968D02*
X12131006Y-6634342D01*
X12138755Y-6476596D02*
X12141482Y-6492312D01*
X12138755Y-6603404D02*
X12135260Y-6618968D01*
X12141482Y-6492312D02*
X12143435Y-6508144D01*
X12141482Y-6587687D02*
X12138755Y-6603404D01*
X12143435Y-6508144D02*
X12144608Y-6524053D01*
X12143435Y-6571855D02*
X12141482Y-6587687D01*
X12144608Y-6524053D02*
X12145000Y-6540000D01*
X12144608Y-6555947D02*
X12143435Y-6571855D01*
X12145000Y-6540000D02*
X12144608Y-6555947D01*
D10*
X12148100Y-21052700D02*
X12293200Y-21074300D01*
D11*
X12252100Y-6287200D02*
X12106900Y-6310400D01*
D10*
X12293200Y-21074300D02*
X12657200Y-21074300D01*
X12654900Y-20980700D02*
X12670200Y-20903800D01*
X12657200Y-21074300D02*
X12654900Y-20980700D01*
X12670200Y-20903800D02*
X12720400Y-20797600D01*
X12720400Y-20797600D02*
X12770100Y-20737000D01*
X12770100Y-20737000D02*
X12899900Y-20650300D01*
D11*
X12776900Y-6252000D02*
X12252100Y-6287200D01*
D10*
X12899900Y-20650300D02*
X12974900Y-20627600D01*
X12974900Y-20627600D02*
X13092200Y-20621800D01*
X13092200Y-20621800D02*
X13241500Y-20667100D01*
X13241500Y-20667100D02*
X13362200Y-20766100D01*
X13362200Y-20766100D02*
X13435800Y-20903800D01*
X13420700Y-6224800D02*
X12776900Y-6252000D01*
X13435800Y-20903800D02*
X13451100Y-20980700D01*
X13448800Y-21074300D02*
X16555400Y-21074300D01*
X13451100Y-20980700D02*
X13448800Y-21074300D01*
X13597900Y-6198700D02*
X13420700Y-6224800D01*
X14749700Y-6198700D02*
X13597900Y-6198700D01*
X14750600Y-7648600D02*
X14749700Y-6198700D01*
X14764800Y-7705200D02*
X14750600Y-7648600D01*
X14794800Y-7755200D02*
X14764800Y-7705200D01*
X14838000Y-7794300D02*
X14794800Y-7755200D01*
X14909600Y-7824000D02*
X14838000Y-7794300D01*
X16547000Y-20993400D02*
X16554700Y-20915300D01*
X16554700Y-20915300D02*
X16577500Y-20840300D01*
X16555400Y-21074300D02*
X16547000Y-20993400D01*
X16577500Y-20840300D02*
X16637800Y-20739600D01*
X16637800Y-20739600D02*
X16693300Y-20684200D01*
X16693300Y-20684200D02*
X16793900Y-20623800D01*
X16793900Y-20623800D02*
X16947000Y-20593400D01*
X16947000Y-20593400D02*
X17100100Y-20623800D01*
X17100100Y-20623800D02*
X17200800Y-20684200D01*
X17200800Y-20684200D02*
X17256200Y-20739600D01*
D11*
X17240000Y-8633000D02*
X17240000Y-9933000D01*
X17240000Y-8633000D02*
G75*
G02*
X17340000Y-8633000I50000J0D01*
G01*
D10*
X17256200Y-20739600D02*
X17316600Y-20840300D01*
X17316600Y-20840300D02*
X17339300Y-20915300D01*
X17338600Y-21074300D02*
X17755700Y-21071900D01*
X17339300Y-20915300D02*
X17347000Y-20993400D01*
D11*
X17340000Y-8633000D02*
X17340000Y-9933000D01*
X17340000Y-9933000D02*
G75*
G02*
X17240000Y-9933000I-50000J0D01*
G01*
D10*
X17347000Y-20993400D02*
X17338600Y-21074300D01*
X17755700Y-21071900D02*
X17851800Y-21052800D01*
X17851800Y-21052800D02*
X17942400Y-21015300D01*
X17942400Y-21015300D02*
X18060300Y-20927900D01*
X18060300Y-20927900D02*
X18122400Y-20852100D01*
X18122400Y-20852100D02*
X18185200Y-20719500D01*
X18185200Y-20719500D02*
X18204300Y-20623400D01*
X18204300Y-20623400D02*
X18207000Y-14211100D01*
X18207000Y-14211100D02*
X18293000Y-13967800D01*
X18293000Y-13967800D02*
X18374700Y-13447300D01*
X18374700Y-13447300D02*
X18419500Y-13058900D01*
X18419500Y-13058900D02*
X18467100Y-12785000D01*
X18467100Y-12785000D02*
X18538700Y-12092000D01*
X18536400Y-7827800D02*
X14909600Y-7824000D01*
X18538700Y-12092000D02*
X18585800Y-11917000D01*
X18550000Y-8138300D02*
X18536400Y-7827800D01*
X18585800Y-11917000D02*
X18615900Y-11509900D01*
X18587000Y-8427800D02*
X18550000Y-8138300D01*
X18602600Y-8741700D02*
X18587000Y-8427800D01*
X18602700Y-9456800D02*
X18602600Y-8741700D01*
X18615900Y-9589400D02*
X18602700Y-9456800D01*
X18615900Y-11509900D02*
X18615900Y-9589400D01*
D12*
D10*
X11585000Y-7585000D02*
X11615000Y-7615000D01*
X11615000Y-7585000D02*
X11585000Y-7615000D01*
X11585000Y-8185000D02*
X11615000Y-8215000D01*
X11615000Y-8185000D02*
X11585000Y-8215000D01*
X11585000Y-11185000D02*
X11615000Y-11215000D01*
X11615000Y-11185000D02*
X11585000Y-11215000D01*
X11585000Y-11785000D02*
X11615000Y-11815000D01*
X11615000Y-11785000D02*
X11585000Y-11815000D01*
X11585000Y-12385000D02*
X11615000Y-12415000D01*
X11615000Y-12385000D02*
X11585000Y-12415000D01*
X11820000Y-7930000D02*
X11850000Y-7960000D01*
X11850000Y-7930000D02*
X11820000Y-7960000D01*
X11837700Y-12079500D02*
X11867700Y-12109500D01*
X11867700Y-12079500D02*
X11837700Y-12109500D01*
X11973768Y-7637500D02*
X12003768Y-7667500D01*
X12003768Y-7637500D02*
X11973768Y-7667500D01*
X11976560Y-12709790D02*
X12006560Y-12739790D01*
X12006560Y-12709790D02*
X11976560Y-12739790D01*
X11976580Y-13015520D02*
X12006580Y-13045520D01*
X12006580Y-13015520D02*
X11976580Y-13045520D01*
X12040000Y-9080000D02*
X12070000Y-9110000D01*
X12070000Y-9080000D02*
X12040000Y-9110000D01*
X12040000Y-9420000D02*
X12070000Y-9450000D01*
X12070000Y-9420000D02*
X12040000Y-9450000D01*
X12040000Y-9760000D02*
X12070000Y-9790000D01*
X12070000Y-9760000D02*
X12040000Y-9790000D01*
X12040000Y-10100000D02*
X12070000Y-10130000D01*
X12070000Y-10100000D02*
X12040000Y-10130000D01*
X12085000Y-8185000D02*
X12115000Y-8215000D01*
X12115000Y-8185000D02*
X12085000Y-8215000D01*
X12087500Y-9324952D02*
X12117500Y-9354952D01*
X12117500Y-9324952D02*
X12087500Y-9354952D01*
X12087500Y-9664952D02*
X12117500Y-9694952D01*
X12117500Y-9664952D02*
X12087500Y-9694952D01*
X12087500Y-10004952D02*
X12117500Y-10034952D01*
X12117500Y-10004952D02*
X12087500Y-10034952D01*
X12087500Y-10344952D02*
X12117500Y-10374952D01*
X12117500Y-10344952D02*
X12087500Y-10374952D01*
X12098950Y-12382609D02*
X12128950Y-12412609D01*
X12128950Y-12382609D02*
X12098950Y-12412609D01*
X12122272Y-9212500D02*
X12152272Y-9242500D01*
X12152272Y-9212500D02*
X12122272Y-9242500D01*
X12122272Y-9552500D02*
X12152272Y-9582500D01*
X12152272Y-9552500D02*
X12122272Y-9582500D01*
X12122272Y-9892500D02*
X12152272Y-9922500D01*
X12152272Y-9892500D02*
X12122272Y-9922500D01*
X12122272Y-10232500D02*
X12152272Y-10262500D01*
X12152272Y-10232500D02*
X12122272Y-10262500D01*
X12122272Y-10432500D02*
X12152272Y-10462500D01*
X12152272Y-10432500D02*
X12122272Y-10462500D01*
X12135000Y-9090000D02*
X12165000Y-9120000D01*
X12165000Y-9090000D02*
X12135000Y-9120000D01*
X12135000Y-9430000D02*
X12165000Y-9460000D01*
X12165000Y-9430000D02*
X12135000Y-9460000D01*
X12135000Y-9770000D02*
X12165000Y-9800000D01*
X12165000Y-9770000D02*
X12135000Y-9800000D01*
X12135000Y-10110000D02*
X12165000Y-10140000D01*
X12165000Y-10110000D02*
X12135000Y-10140000D01*
X12142400Y-19792130D02*
X12172400Y-19822130D01*
X12172400Y-19792130D02*
X12142400Y-19822130D01*
X12144720Y-18579810D02*
X12174720Y-18609810D01*
X12174720Y-18579810D02*
X12144720Y-18609810D01*
X12145000Y-8750950D02*
X12175000Y-8780950D01*
X12175000Y-8750950D02*
X12145000Y-8780950D01*
X12152150Y-10916660D02*
X12182150Y-10946660D01*
X12182150Y-10916660D02*
X12152150Y-10946660D01*
X12157583Y-11360000D02*
X12187583Y-11390000D01*
X12187583Y-11360000D02*
X12157583Y-11390000D01*
X12170750Y-8638800D02*
X12200750Y-8668800D01*
X12200750Y-8638800D02*
X12170750Y-8668800D01*
X12178750Y-10660933D02*
X12208750Y-10690933D01*
X12208750Y-10660933D02*
X12178750Y-10690933D01*
X12185000Y-6385000D02*
X12215000Y-6415000D01*
X12215000Y-6385000D02*
X12185000Y-6415000D01*
X12185000Y-6985000D02*
X12215000Y-7015000D01*
X12215000Y-6985000D02*
X12185000Y-7015000D01*
X12185000Y-8185000D02*
X12215000Y-8215000D01*
X12215000Y-8185000D02*
X12185000Y-8215000D01*
X12185000Y-9985000D02*
X12215000Y-10015000D01*
X12215000Y-9985000D02*
X12185000Y-10015000D01*
X12185000Y-20785000D02*
X12215000Y-20815000D01*
X12215000Y-20785000D02*
X12185000Y-20815000D01*
X12192500Y-7665000D02*
X12222500Y-7695000D01*
X12222500Y-7665000D02*
X12192500Y-7695000D01*
X12204270Y-17473110D02*
X12234270Y-17503110D01*
X12234270Y-17473110D02*
X12204270Y-17503110D01*
X12220000Y-10385000D02*
X12250000Y-10415000D01*
X12250000Y-10385000D02*
X12220000Y-10415000D01*
X12225000Y-12866270D02*
X12255000Y-12896270D01*
X12255000Y-12866270D02*
X12225000Y-12896270D01*
X12230000Y-10480000D02*
X12260000Y-10510000D01*
X12260000Y-10480000D02*
X12230000Y-10510000D01*
X12240522Y-10593500D02*
X12270522Y-10623500D01*
X12270522Y-10593500D02*
X12240522Y-10623500D01*
X12264470Y-16533660D02*
X12294470Y-16563660D01*
X12294470Y-16533660D02*
X12264470Y-16563660D01*
X12319100Y-8883700D02*
X12349100Y-8913700D01*
X12349100Y-8883700D02*
X12319100Y-8913700D01*
X12319100Y-9083700D02*
X12349100Y-9113700D01*
X12349100Y-9083700D02*
X12319100Y-9113700D01*
X12320490Y-15503900D02*
X12350490Y-15533900D01*
X12350490Y-15503900D02*
X12320490Y-15533900D01*
X12322700Y-12439500D02*
X12352700Y-12469500D01*
X12352700Y-12439500D02*
X12322700Y-12469500D01*
X12330000Y-8275000D02*
X12360000Y-8305000D01*
X12360000Y-8275000D02*
X12330000Y-8305000D01*
X12345000Y-12579790D02*
X12375000Y-12609790D01*
X12375000Y-12579790D02*
X12345000Y-12609790D01*
X12354710Y-14391770D02*
X12384710Y-14421770D01*
X12384710Y-14391770D02*
X12354710Y-14421770D01*
X12391570Y-10610890D02*
X12421570Y-10640890D01*
X12421570Y-10610890D02*
X12391570Y-10640890D01*
X12397000Y-10477770D02*
X12427000Y-10507770D01*
X12427000Y-10477770D02*
X12397000Y-10507770D01*
X12398950Y-12382609D02*
X12428950Y-12412609D01*
X12428950Y-12382609D02*
X12398950Y-12412609D01*
X12400000Y-9149545D02*
X12430000Y-9179545D01*
X12430000Y-9149545D02*
X12400000Y-9179545D01*
X12405546Y-8659500D02*
X12435546Y-8689500D01*
X12435546Y-8659500D02*
X12405546Y-8689500D01*
X12432790Y-8758080D02*
X12462790Y-8788080D01*
X12462790Y-8758080D02*
X12432790Y-8788080D01*
X12436000Y-11667610D02*
X12466000Y-11697610D01*
X12466000Y-11667610D02*
X12436000Y-11697610D01*
X12437500Y-9067272D02*
X12467500Y-9097272D01*
X12467500Y-9067272D02*
X12437500Y-9097272D01*
X12445000Y-10820000D02*
X12475000Y-10850000D01*
X12475000Y-10820000D02*
X12445000Y-10850000D01*
X12465000Y-13784690D02*
X12495000Y-13814690D01*
X12495000Y-13784690D02*
X12465000Y-13814690D01*
X12495000Y-11130000D02*
X12525000Y-11160000D01*
X12525000Y-11130000D02*
X12495000Y-11160000D01*
X12535830Y-8696670D02*
X12565830Y-8726670D01*
X12565830Y-8696670D02*
X12535830Y-8726670D01*
X12545040Y-12959040D02*
X12575040Y-12989040D01*
X12575040Y-12959040D02*
X12545040Y-12989040D01*
X12555140Y-7596130D02*
X12585140Y-7626130D01*
X12585140Y-7596130D02*
X12555140Y-7626130D01*
X12565000Y-8045000D02*
X12595000Y-8075000D01*
X12595000Y-8045000D02*
X12565000Y-8075000D01*
X12565000Y-8584120D02*
X12595000Y-8614120D01*
X12595000Y-8584120D02*
X12565000Y-8614120D01*
X12598442Y-14648442D02*
X12628442Y-14678442D01*
X12628442Y-14648442D02*
X12598442Y-14678442D01*
X12626980Y-7156350D02*
X12656980Y-7186350D01*
X12656980Y-7156350D02*
X12626980Y-7186350D01*
X12655000Y-9074350D02*
X12685000Y-9104350D01*
X12685000Y-9074350D02*
X12655000Y-9104350D01*
X12663750Y-14548421D02*
X12693750Y-14578421D01*
X12693750Y-14548421D02*
X12663750Y-14578421D01*
X12670280Y-8880590D02*
X12700280Y-8910590D01*
X12700280Y-8880590D02*
X12670280Y-8910590D01*
X12670810Y-15144320D02*
X12700810Y-15174320D01*
X12700810Y-15144320D02*
X12670810Y-15174320D01*
X12675000Y-10590000D02*
X12705000Y-10620000D01*
X12705000Y-10590000D02*
X12675000Y-10620000D01*
X12675000Y-10950000D02*
X12705000Y-10980000D01*
X12705000Y-10950000D02*
X12675000Y-10980000D01*
X12675740Y-15030910D02*
X12705740Y-15060910D01*
X12705740Y-15030910D02*
X12675740Y-15060910D01*
X12686000Y-7260713D02*
X12716000Y-7290713D01*
X12716000Y-7260713D02*
X12686000Y-7290713D01*
X12690000Y-9520000D02*
X12720000Y-9550000D01*
X12720000Y-9520000D02*
X12690000Y-9550000D01*
X12690000Y-9685000D02*
X12720000Y-9715000D01*
X12720000Y-9685000D02*
X12690000Y-9715000D01*
X12690000Y-9850000D02*
X12720000Y-9880000D01*
X12720000Y-9850000D02*
X12690000Y-9880000D01*
X12700750Y-14067820D02*
X12730750Y-14097820D01*
X12730750Y-14067820D02*
X12700750Y-14097820D01*
X12720000Y-8045000D02*
X12750000Y-8075000D01*
X12750000Y-8045000D02*
X12720000Y-8075000D01*
X12720050Y-13102973D02*
X12750050Y-13132973D01*
X12750050Y-13102973D02*
X12720050Y-13132973D01*
X12739100Y-7503700D02*
X12769100Y-7533700D01*
X12769100Y-7503700D02*
X12739100Y-7533700D01*
X12740000Y-9245000D02*
X12770000Y-9275000D01*
X12770000Y-9245000D02*
X12740000Y-9275000D01*
X12742500Y-7915000D02*
X12772500Y-7945000D01*
X12772500Y-7915000D02*
X12742500Y-7945000D01*
X12764180Y-15040390D02*
X12794180Y-15070390D01*
X12794180Y-15040390D02*
X12764180Y-15070390D01*
X12778750Y-14449250D02*
X12808750Y-14479250D01*
X12808750Y-14449250D02*
X12778750Y-14479250D01*
X12785000Y-6385000D02*
X12815000Y-6415000D01*
X12815000Y-6385000D02*
X12785000Y-6415000D01*
X12785000Y-8185000D02*
X12815000Y-8215000D01*
X12815000Y-8185000D02*
X12785000Y-8215000D01*
X12785000Y-9385000D02*
X12815000Y-9415000D01*
X12815000Y-9385000D02*
X12785000Y-9415000D01*
X12785000Y-9985000D02*
X12815000Y-10015000D01*
X12815000Y-9985000D02*
X12785000Y-10015000D01*
X12785000Y-15985000D02*
X12815000Y-16015000D01*
X12815000Y-15985000D02*
X12785000Y-16015000D01*
X12796000Y-8697100D02*
X12826000Y-8727100D01*
X12826000Y-8697100D02*
X12796000Y-8727100D01*
X12805000Y-8450000D02*
X12835000Y-8480000D01*
X12835000Y-8450000D02*
X12805000Y-8480000D01*
X12815000Y-9020000D02*
X12845000Y-9050000D01*
X12845000Y-9020000D02*
X12815000Y-9050000D01*
X12826780Y-7621070D02*
X12856780Y-7651070D01*
X12856780Y-7621070D02*
X12826780Y-7651070D01*
X12835000Y-10610000D02*
X12865000Y-10640000D01*
X12865000Y-10610000D02*
X12835000Y-10640000D01*
X12855000Y-9520000D02*
X12885000Y-9550000D01*
X12885000Y-9520000D02*
X12855000Y-9550000D01*
X12855000Y-9685000D02*
X12885000Y-9715000D01*
X12885000Y-9685000D02*
X12855000Y-9715000D01*
X12855000Y-9850000D02*
X12885000Y-9880000D01*
X12885000Y-9850000D02*
X12855000Y-9880000D01*
X12868220Y-14715550D02*
X12898220Y-14745550D01*
X12898220Y-14715550D02*
X12868220Y-14745550D01*
X12875000Y-10755000D02*
X12905000Y-10785000D01*
X12905000Y-10755000D02*
X12875000Y-10785000D01*
X12895000Y-7007500D02*
X12925000Y-7037500D01*
X12925000Y-7007500D02*
X12895000Y-7037500D01*
X12900000Y-10365000D02*
X12930000Y-10395000D01*
X12930000Y-10365000D02*
X12900000Y-10395000D01*
X12914910Y-14266000D02*
X12944910Y-14296000D01*
X12944910Y-14266000D02*
X12914910Y-14296000D01*
X12930000Y-10695000D02*
X12960000Y-10725000D01*
X12960000Y-10695000D02*
X12930000Y-10725000D01*
X12932750Y-16021650D02*
X12962750Y-16051650D01*
X12962750Y-16021650D02*
X12932750Y-16051650D01*
X12945000Y-8555000D02*
X12975000Y-8585000D01*
X12975000Y-8555000D02*
X12945000Y-8585000D01*
X12973710Y-7422000D02*
X13003710Y-7452000D01*
X13003710Y-7422000D02*
X12973710Y-7452000D01*
X12973710Y-7593670D02*
X13003710Y-7623670D01*
X13003710Y-7593670D02*
X12973710Y-7623670D01*
X12994050Y-7724110D02*
X13024050Y-7754110D01*
X13024050Y-7724110D02*
X12994050Y-7754110D01*
X12995000Y-11190800D02*
X13025000Y-11220800D01*
X13025000Y-11190800D02*
X12995000Y-11220800D01*
X13000000Y-7205000D02*
X13030000Y-7235000D01*
X13030000Y-7205000D02*
X13000000Y-7235000D01*
X13020000Y-9520000D02*
X13050000Y-9550000D01*
X13050000Y-9520000D02*
X13020000Y-9550000D01*
X13020000Y-9685000D02*
X13050000Y-9715000D01*
X13050000Y-9685000D02*
X13020000Y-9715000D01*
X13020000Y-9850000D02*
X13050000Y-9880000D01*
X13050000Y-9850000D02*
X13020000Y-9880000D01*
X13023970Y-8119080D02*
X13053970Y-8149080D01*
X13053970Y-8119080D02*
X13023970Y-8149080D01*
X13027320Y-15773580D02*
X13057320Y-15803580D01*
X13057320Y-15773580D02*
X13027320Y-15803580D01*
X13027320Y-15933920D02*
X13057320Y-15963920D01*
X13057320Y-15933920D02*
X13027320Y-15963920D01*
X13029290Y-14716690D02*
X13059290Y-14746690D01*
X13059290Y-14716690D02*
X13029290Y-14746690D01*
X13029590Y-14187210D02*
X13059590Y-14217210D01*
X13059590Y-14187210D02*
X13029590Y-14217210D01*
X13034510Y-16128440D02*
X13064510Y-16158440D01*
X13064510Y-16128440D02*
X13034510Y-16158440D01*
X13035690Y-14035140D02*
X13065690Y-14065140D01*
X13065690Y-14035140D02*
X13035690Y-14065140D01*
X13060000Y-10205000D02*
X13090000Y-10235000D01*
X13090000Y-10205000D02*
X13060000Y-10235000D01*
X13076195Y-6805000D02*
X13106195Y-6835000D01*
X13106195Y-6805000D02*
X13076195Y-6835000D01*
X13110000Y-8305000D02*
X13140000Y-8335000D01*
X13140000Y-8305000D02*
X13110000Y-8335000D01*
X13118340Y-12943140D02*
X13148340Y-12973140D01*
X13148340Y-12943140D02*
X13118340Y-12973140D01*
X13145000Y-10290000D02*
X13175000Y-10320000D01*
X13175000Y-10290000D02*
X13145000Y-10320000D01*
X13154440Y-15724470D02*
X13184440Y-15754470D01*
X13184440Y-15724470D02*
X13154440Y-15754470D01*
X13164840Y-8865980D02*
X13194840Y-8895980D01*
X13194840Y-8865980D02*
X13164840Y-8895980D01*
X13197990Y-8582340D02*
X13227990Y-8612340D01*
X13227990Y-8582340D02*
X13197990Y-8612340D01*
X13204120Y-19145030D02*
X13234120Y-19175030D01*
X13234120Y-19145030D02*
X13204120Y-19175030D01*
X13229920Y-15712200D02*
X13259920Y-15742200D01*
X13259920Y-15712200D02*
X13229920Y-15742200D01*
X13244620Y-10290370D02*
X13274620Y-10320370D01*
X13274620Y-10290370D02*
X13244620Y-10320370D01*
X13255000Y-16295000D02*
X13285000Y-16325000D01*
X13285000Y-16295000D02*
X13255000Y-16325000D01*
X13261120Y-9076550D02*
X13291120Y-9106550D01*
X13291120Y-9076550D02*
X13261120Y-9106550D01*
X13266190Y-13538150D02*
X13296190Y-13568150D01*
X13296190Y-13538150D02*
X13266190Y-13568150D01*
X13266500Y-7722986D02*
X13296500Y-7752986D01*
X13296500Y-7722986D02*
X13266500Y-7752986D01*
X13284300Y-9249980D02*
X13314300Y-9279980D01*
X13314300Y-9249980D02*
X13284300Y-9279980D01*
X13286000Y-7587000D02*
X13316000Y-7617000D01*
X13316000Y-7587000D02*
X13286000Y-7617000D01*
X13288249Y-15548000D02*
X13318249Y-15578000D01*
X13318249Y-15548000D02*
X13288249Y-15578000D01*
X13292970Y-9325330D02*
X13322970Y-9355330D01*
X13322970Y-9325330D02*
X13292970Y-9355330D01*
X13316680Y-8480860D02*
X13346680Y-8510860D01*
X13346680Y-8480860D02*
X13316680Y-8510860D01*
X13325000Y-10915000D02*
X13355000Y-10945000D01*
X13355000Y-10915000D02*
X13325000Y-10945000D01*
X13337630Y-18567290D02*
X13367630Y-18597290D01*
X13367630Y-18567290D02*
X13337630Y-18597290D01*
X13385000Y-6385000D02*
X13415000Y-6415000D01*
X13415000Y-6385000D02*
X13385000Y-6415000D01*
X13385000Y-12385000D02*
X13415000Y-12415000D01*
X13415000Y-12385000D02*
X13385000Y-12415000D01*
X13385000Y-13585000D02*
X13415000Y-13615000D01*
X13415000Y-13585000D02*
X13385000Y-13615000D01*
X13385000Y-15385000D02*
X13415000Y-15415000D01*
X13415000Y-15385000D02*
X13385000Y-15415000D01*
X13385000Y-16315000D02*
X13415000Y-16345000D01*
X13415000Y-16315000D02*
X13385000Y-16345000D01*
X13385000Y-16585000D02*
X13415000Y-16615000D01*
X13415000Y-16585000D02*
X13385000Y-16615000D01*
X13451030Y-16585720D02*
X13481030Y-16615720D01*
X13481030Y-16585720D02*
X13451030Y-16615720D01*
X13455000Y-16400344D02*
X13485000Y-16430344D01*
X13485000Y-16400344D02*
X13455000Y-16430344D01*
X13482170Y-8134690D02*
X13512170Y-8164690D01*
X13512170Y-8134690D02*
X13482170Y-8164690D01*
X13486232Y-7157500D02*
X13516232Y-7187500D01*
X13516232Y-7157500D02*
X13486232Y-7187500D01*
X13504957Y-12454550D02*
X13534957Y-12484550D01*
X13534957Y-12454550D02*
X13504957Y-12484550D01*
X13526240Y-10393980D02*
X13556240Y-10423980D01*
X13556240Y-10393980D02*
X13526240Y-10423980D01*
X13555260Y-9226860D02*
X13585260Y-9256860D01*
X13585260Y-9226860D02*
X13555260Y-9256860D01*
X13558370Y-10725800D02*
X13588370Y-10755800D01*
X13588370Y-10725800D02*
X13558370Y-10755800D01*
X13568720Y-16350940D02*
X13598720Y-16380940D01*
X13598720Y-16350940D02*
X13568720Y-16380940D01*
X13569150Y-6884260D02*
X13599150Y-6914260D01*
X13599150Y-6884260D02*
X13569150Y-6914260D01*
X13577980Y-8610180D02*
X13607980Y-8640180D01*
X13607980Y-8610180D02*
X13577980Y-8640180D01*
X13609100Y-15583700D02*
X13639100Y-15613700D01*
X13639100Y-15583700D02*
X13609100Y-15613700D01*
X13627400Y-8020470D02*
X13657400Y-8050470D01*
X13657400Y-8020470D02*
X13627400Y-8050470D01*
X13642630Y-11792750D02*
X13672630Y-11822750D01*
X13672630Y-11792750D02*
X13642630Y-11822750D01*
X13655910Y-7459570D02*
X13685910Y-7489570D01*
X13685910Y-7459570D02*
X13655910Y-7489570D01*
X13665000Y-10910000D02*
X13695000Y-10940000D01*
X13695000Y-10910000D02*
X13665000Y-10940000D01*
X13665000Y-10995000D02*
X13695000Y-11025000D01*
X13695000Y-10995000D02*
X13665000Y-11025000D01*
X13665000Y-11165000D02*
X13695000Y-11195000D01*
X13695000Y-11165000D02*
X13665000Y-11195000D01*
X13669100Y-7643700D02*
X13699100Y-7673700D01*
X13699100Y-7643700D02*
X13669100Y-7673700D01*
X13671900Y-14779170D02*
X13701900Y-14809170D01*
X13701900Y-14779170D02*
X13671900Y-14809170D01*
X13672160Y-13756900D02*
X13702160Y-13786900D01*
X13702160Y-13756900D02*
X13672160Y-13786900D01*
X13672830Y-10827190D02*
X13702830Y-10857190D01*
X13702830Y-10827190D02*
X13672830Y-10857190D01*
X13712000Y-6629390D02*
X13742000Y-6659390D01*
X13742000Y-6629390D02*
X13712000Y-6659390D01*
X13731350Y-16094430D02*
X13761350Y-16124430D01*
X13761350Y-16094430D02*
X13731350Y-16124430D01*
X13787500Y-16045000D02*
X13817500Y-16075000D01*
X13817500Y-16045000D02*
X13787500Y-16075000D01*
X13824520Y-12923940D02*
X13854520Y-12953940D01*
X13854520Y-12923940D02*
X13824520Y-12953940D01*
X13824520Y-13817700D02*
X13854520Y-13847700D01*
X13854520Y-13817700D02*
X13824520Y-13847700D01*
X13825420Y-14542840D02*
X13855420Y-14572840D01*
X13855420Y-14542840D02*
X13825420Y-14572840D01*
X13825750Y-12841340D02*
X13855750Y-12871340D01*
X13855750Y-12841340D02*
X13825750Y-12871340D01*
X13835000Y-9450000D02*
X13865000Y-9480000D01*
X13865000Y-9450000D02*
X13835000Y-9480000D01*
X13835000Y-10910000D02*
X13865000Y-10940000D01*
X13865000Y-10910000D02*
X13835000Y-10940000D01*
X13835000Y-10995000D02*
X13865000Y-11025000D01*
X13865000Y-10995000D02*
X13835000Y-11025000D01*
X13835000Y-11080000D02*
X13865000Y-11110000D01*
X13865000Y-11080000D02*
X13835000Y-11110000D01*
X13835000Y-11165000D02*
X13865000Y-11195000D01*
X13865000Y-11165000D02*
X13835000Y-11195000D01*
X13835000Y-11250000D02*
X13865000Y-11280000D01*
X13865000Y-11250000D02*
X13835000Y-11280000D01*
X13852000Y-10634000D02*
X13882000Y-10664000D01*
X13882000Y-10634000D02*
X13852000Y-10664000D01*
X13871960Y-12157750D02*
X13901960Y-12187750D01*
X13901960Y-12157750D02*
X13871960Y-12187750D01*
X13912170Y-13873460D02*
X13942170Y-13903460D01*
X13942170Y-13873460D02*
X13912170Y-13903460D01*
X13936160Y-7001030D02*
X13966160Y-7031030D01*
X13966160Y-7001030D02*
X13936160Y-7031030D01*
X13956000Y-15555000D02*
X13986000Y-15585000D01*
X13986000Y-15555000D02*
X13956000Y-15585000D01*
X13956430Y-15819250D02*
X13986430Y-15849250D01*
X13986430Y-15819250D02*
X13956430Y-15849250D01*
X13959478Y-10678500D02*
X13989478Y-10708500D01*
X13989478Y-10678500D02*
X13959478Y-10708500D01*
X13962410Y-16628340D02*
X13992410Y-16658340D01*
X13992410Y-16628340D02*
X13962410Y-16658340D01*
X13969100Y-16463700D02*
X13999100Y-16493700D01*
X13999100Y-16463700D02*
X13969100Y-16493700D01*
X13985000Y-6385000D02*
X14015000Y-6415000D01*
X14015000Y-6385000D02*
X13985000Y-6415000D01*
X13985000Y-7585000D02*
X14015000Y-7615000D01*
X14015000Y-7585000D02*
X13985000Y-7615000D01*
X13985000Y-8185000D02*
X14015000Y-8215000D01*
X14015000Y-8185000D02*
X13985000Y-8215000D01*
X13985000Y-8785000D02*
X14015000Y-8815000D01*
X14015000Y-8785000D02*
X13985000Y-8815000D01*
X13985000Y-11785000D02*
X14015000Y-11815000D01*
X14015000Y-11785000D02*
X13985000Y-11815000D01*
X13985000Y-12985000D02*
X14015000Y-13015000D01*
X14015000Y-12985000D02*
X13985000Y-13015000D01*
X13985000Y-14185000D02*
X14015000Y-14215000D01*
X14015000Y-14185000D02*
X13985000Y-14215000D01*
X13985000Y-16175000D02*
X14015000Y-16205000D01*
X14015000Y-16175000D02*
X13985000Y-16205000D01*
X13985000Y-20785000D02*
X14015000Y-20815000D01*
X14015000Y-20785000D02*
X13985000Y-20815000D01*
X14019150Y-14055697D02*
X14049150Y-14085697D01*
X14049150Y-14055697D02*
X14019150Y-14085697D01*
X14027940Y-14580630D02*
X14057940Y-14610630D01*
X14057940Y-14580630D02*
X14027940Y-14610630D01*
X14040000Y-7738000D02*
X14070000Y-7768000D01*
X14070000Y-7738000D02*
X14040000Y-7768000D01*
X14055000Y-16250000D02*
X14085000Y-16280000D01*
X14085000Y-16250000D02*
X14055000Y-16280000D01*
X14056310Y-15095890D02*
X14086310Y-15125890D01*
X14086310Y-15095890D02*
X14056310Y-15125890D01*
X14058660Y-12266440D02*
X14088660Y-12296440D01*
X14088660Y-12266440D02*
X14058660Y-12296440D01*
X14058660Y-13869610D02*
X14088660Y-13899610D01*
X14088660Y-13869610D02*
X14058660Y-13899610D01*
X14062220Y-15935720D02*
X14092220Y-15965720D01*
X14092220Y-15935720D02*
X14062220Y-15965720D01*
X14071000Y-15377000D02*
X14101000Y-15407000D01*
X14101000Y-15377000D02*
X14071000Y-15407000D01*
X14075500Y-15482847D02*
X14105500Y-15512847D01*
X14105500Y-15482847D02*
X14075500Y-15512847D01*
X14117510Y-17643220D02*
X14147510Y-17673220D01*
X14147510Y-17643220D02*
X14117510Y-17673220D01*
X14143533Y-16644493D02*
X14173533Y-16674493D01*
X14173533Y-16644493D02*
X14143533Y-16674493D01*
X14148000Y-15565120D02*
X14178000Y-15595120D01*
X14178000Y-15565120D02*
X14148000Y-15595120D01*
X14151950Y-6872820D02*
X14181950Y-6902820D01*
X14181950Y-6872820D02*
X14151950Y-6902820D01*
X14159100Y-16483700D02*
X14189100Y-16513700D01*
X14189100Y-16483700D02*
X14159100Y-16513700D01*
X14170720Y-14580630D02*
X14200720Y-14610630D01*
X14200720Y-14580630D02*
X14170720Y-14610630D01*
X14170970Y-14692860D02*
X14200970Y-14722860D01*
X14200970Y-14692860D02*
X14170970Y-14722860D01*
X14178571Y-9568750D02*
X14208571Y-9598750D01*
X14208571Y-9568750D02*
X14178571Y-9598750D01*
X14179150Y-12941520D02*
X14209150Y-12971520D01*
X14209150Y-12941520D02*
X14179150Y-12971520D01*
X14182480Y-15712200D02*
X14212480Y-15742200D01*
X14212480Y-15712200D02*
X14182480Y-15742200D01*
X14195000Y-15415000D02*
X14225000Y-15445000D01*
X14225000Y-15415000D02*
X14195000Y-15445000D01*
X14218760Y-16702040D02*
X14248760Y-16732040D01*
X14248760Y-16702040D02*
X14218760Y-16732040D01*
X14218760Y-16842750D02*
X14248760Y-16872750D01*
X14248760Y-16842750D02*
X14218760Y-16872750D01*
X14225910Y-14636690D02*
X14255910Y-14666690D01*
X14255910Y-14636690D02*
X14225910Y-14666690D01*
X14235933Y-7274500D02*
X14265933Y-7304500D01*
X14265933Y-7274500D02*
X14235933Y-7304500D01*
X14245000Y-15627000D02*
X14275000Y-15657000D01*
X14275000Y-15627000D02*
X14245000Y-15657000D01*
X14319000Y-16331000D02*
X14349000Y-16361000D01*
X14349000Y-16331000D02*
X14319000Y-16361000D01*
X14338571Y-9568750D02*
X14368571Y-9598750D01*
X14368571Y-9568750D02*
X14338571Y-9598750D01*
X14355000Y-15575000D02*
X14385000Y-15605000D01*
X14385000Y-15575000D02*
X14355000Y-15605000D01*
X14399100Y-16373700D02*
X14429100Y-16403700D01*
X14429100Y-16373700D02*
X14399100Y-16403700D01*
X14532970Y-17643220D02*
X14562970Y-17673220D01*
X14562970Y-17643220D02*
X14532970Y-17673220D01*
X14550000Y-16405000D02*
X14580000Y-16435000D01*
X14580000Y-16405000D02*
X14550000Y-16435000D01*
X14585000Y-6385000D02*
X14615000Y-6415000D01*
X14615000Y-6385000D02*
X14585000Y-6415000D01*
X14585000Y-6985000D02*
X14615000Y-7015000D01*
X14615000Y-6985000D02*
X14585000Y-7015000D01*
X14585000Y-8185000D02*
X14615000Y-8215000D01*
X14615000Y-8185000D02*
X14585000Y-8215000D01*
X14585000Y-8785000D02*
X14615000Y-8815000D01*
X14615000Y-8785000D02*
X14585000Y-8815000D01*
X14585000Y-20785000D02*
X14615000Y-20815000D01*
X14615000Y-20785000D02*
X14585000Y-20815000D01*
X14589100Y-16507830D02*
X14619100Y-16537830D01*
X14619100Y-16507830D02*
X14589100Y-16537830D01*
X14645000Y-7932856D02*
X14675000Y-7962856D01*
X14675000Y-7932856D02*
X14645000Y-7962856D01*
X14725000Y-16545000D02*
X14755000Y-16575000D01*
X14755000Y-16545000D02*
X14725000Y-16575000D01*
X14850600Y-14182380D02*
X14880600Y-14212380D01*
X14880600Y-14182380D02*
X14850600Y-14212380D01*
X14874150Y-14283171D02*
X14904150Y-14313171D01*
X14904150Y-14283171D02*
X14874150Y-14313171D01*
X14935000Y-15760000D02*
X14965000Y-15790000D01*
X14965000Y-15760000D02*
X14935000Y-15790000D01*
X14985100Y-14835300D02*
X15015100Y-14865300D01*
X15015100Y-14835300D02*
X14985100Y-14865300D01*
X15008160Y-15705160D02*
X15038160Y-15735160D01*
X15038160Y-15705160D02*
X15008160Y-15735160D01*
X15110000Y-16033000D02*
X15140000Y-16063000D01*
X15140000Y-16033000D02*
X15110000Y-16063000D01*
X15110000Y-16140000D02*
X15140000Y-16170000D01*
X15140000Y-16140000D02*
X15110000Y-16170000D01*
X15126350Y-15900550D02*
X15156350Y-15930550D01*
X15156350Y-15900550D02*
X15126350Y-15930550D01*
X15167600Y-15201890D02*
X15197600Y-15231890D01*
X15197600Y-15201890D02*
X15167600Y-15231890D01*
X15185000Y-8785000D02*
X15215000Y-8815000D01*
X15215000Y-8785000D02*
X15185000Y-8815000D01*
X15185000Y-9385000D02*
X15215000Y-9415000D01*
X15215000Y-9385000D02*
X15185000Y-9415000D01*
X15185000Y-20785000D02*
X15215000Y-20815000D01*
X15215000Y-20785000D02*
X15185000Y-20815000D01*
X15189110Y-15343300D02*
X15219110Y-15373300D01*
X15219110Y-15343300D02*
X15189110Y-15373300D01*
X15252230Y-19718240D02*
X15282230Y-19748240D01*
X15282230Y-19718240D02*
X15252230Y-19748240D01*
X15357400Y-15373990D02*
X15387400Y-15403990D01*
X15387400Y-15373990D02*
X15357400Y-15403990D01*
X15453600Y-14785600D02*
X15483600Y-14815600D01*
X15483600Y-14785600D02*
X15453600Y-14815600D01*
X15505131Y-10725170D02*
X15535131Y-10755170D01*
X15535131Y-10725170D02*
X15505131Y-10755170D01*
X15561060Y-18054110D02*
X15591060Y-18084110D01*
X15591060Y-18054110D02*
X15561060Y-18084110D01*
X15660120Y-15637930D02*
X15690120Y-15667930D01*
X15690120Y-15637930D02*
X15660120Y-15667930D01*
X15677130Y-15485610D02*
X15707130Y-15515610D01*
X15707130Y-15485610D02*
X15677130Y-15515610D01*
X15705000Y-9605500D02*
X15735000Y-9635500D01*
X15735000Y-9605500D02*
X15705000Y-9635500D01*
X15710000Y-10603000D02*
X15740000Y-10633000D01*
X15740000Y-10603000D02*
X15710000Y-10633000D01*
X15765000Y-9905000D02*
X15795000Y-9935000D01*
X15795000Y-9905000D02*
X15765000Y-9935000D01*
X15785000Y-11785000D02*
X15815000Y-11815000D01*
X15815000Y-11785000D02*
X15785000Y-11815000D01*
X15785000Y-12985000D02*
X15815000Y-13015000D01*
X15815000Y-12985000D02*
X15785000Y-13015000D01*
X15785000Y-20185000D02*
X15815000Y-20215000D01*
X15815000Y-20185000D02*
X15785000Y-20215000D01*
X15785000Y-20785000D02*
X15815000Y-20815000D01*
X15815000Y-20785000D02*
X15785000Y-20815000D01*
X15800050Y-15721880D02*
X15830050Y-15751880D01*
X15830050Y-15721880D02*
X15800050Y-15751880D01*
X15859090Y-15316490D02*
X15889090Y-15346490D01*
X15889090Y-15316490D02*
X15859090Y-15346490D01*
X15865900Y-18799486D02*
X15895900Y-18829486D01*
X15895900Y-18799486D02*
X15865900Y-18829486D01*
X15880000Y-15234670D02*
X15910000Y-15264670D01*
X15910000Y-15234670D02*
X15880000Y-15264670D01*
X15900620Y-18885460D02*
X15930620Y-18915460D01*
X15930620Y-18885460D02*
X15900620Y-18915460D01*
X15942500Y-10808000D02*
X15972500Y-10838000D01*
X15972500Y-10808000D02*
X15942500Y-10838000D01*
X16100000Y-10610000D02*
X16130000Y-10640000D01*
X16130000Y-10610000D02*
X16100000Y-10640000D01*
X16242500Y-9510000D02*
X16272500Y-9540000D01*
X16272500Y-9510000D02*
X16242500Y-9540000D01*
X16351183Y-10024453D02*
X16381183Y-10054453D01*
X16381183Y-10024453D02*
X16351183Y-10054453D01*
X16355000Y-10125000D02*
X16385000Y-10155000D01*
X16385000Y-10125000D02*
X16355000Y-10155000D01*
X16385000Y-12385000D02*
X16415000Y-12415000D01*
X16415000Y-12385000D02*
X16385000Y-12415000D01*
X16385000Y-13585000D02*
X16415000Y-13615000D01*
X16415000Y-13585000D02*
X16385000Y-13615000D01*
X16385000Y-20785000D02*
X16415000Y-20815000D01*
X16415000Y-20785000D02*
X16385000Y-20815000D01*
X16605938Y-9592444D02*
X16635938Y-9622444D01*
X16635938Y-9592444D02*
X16605938Y-9622444D01*
X16615000Y-10845000D02*
X16645000Y-10875000D01*
X16645000Y-10845000D02*
X16615000Y-10875000D01*
X16645000Y-8908000D02*
X16675000Y-8938000D01*
X16675000Y-8908000D02*
X16645000Y-8938000D01*
X16645000Y-9068000D02*
X16675000Y-9098000D01*
X16675000Y-9068000D02*
X16645000Y-9098000D01*
X16645000Y-9228000D02*
X16675000Y-9258000D01*
X16675000Y-9228000D02*
X16645000Y-9258000D01*
X16645000Y-9388000D02*
X16675000Y-9418000D01*
X16675000Y-9388000D02*
X16645000Y-9418000D01*
X16645000Y-9708000D02*
X16675000Y-9738000D01*
X16675000Y-9708000D02*
X16645000Y-9738000D01*
X16645000Y-9868000D02*
X16675000Y-9898000D01*
X16675000Y-9868000D02*
X16645000Y-9898000D01*
X16714490Y-12339130D02*
X16744490Y-12369130D01*
X16744490Y-12339130D02*
X16714490Y-12369130D01*
X16815000Y-10210000D02*
X16845000Y-10240000D01*
X16845000Y-10210000D02*
X16815000Y-10240000D01*
X16815000Y-10290000D02*
X16845000Y-10320000D01*
X16845000Y-10290000D02*
X16815000Y-10320000D01*
X16815000Y-10450000D02*
X16845000Y-10480000D01*
X16845000Y-10450000D02*
X16815000Y-10480000D01*
X16815000Y-10530000D02*
X16845000Y-10560000D01*
X16845000Y-10530000D02*
X16815000Y-10560000D01*
X16815000Y-10610000D02*
X16845000Y-10640000D01*
X16845000Y-10610000D02*
X16815000Y-10640000D01*
X16834750Y-19166710D02*
X16864750Y-19196710D01*
X16864750Y-19166710D02*
X16834750Y-19196710D01*
X16860000Y-11115000D02*
X16890000Y-11145000D01*
X16890000Y-11115000D02*
X16860000Y-11145000D01*
X16985000Y-10990000D02*
X17015000Y-11020000D01*
X17015000Y-10990000D02*
X16985000Y-11020000D01*
X16985000Y-11785000D02*
X17015000Y-11815000D01*
X17015000Y-11785000D02*
X16985000Y-11815000D01*
X16985000Y-14185000D02*
X17015000Y-14215000D01*
X17015000Y-14185000D02*
X16985000Y-14215000D01*
X16985000Y-18385000D02*
X17015000Y-18415000D01*
X17015000Y-18385000D02*
X16985000Y-18415000D01*
X17015000Y-8588000D02*
X17045000Y-8618000D01*
X17045000Y-8588000D02*
X17015000Y-8618000D01*
X17015000Y-8748000D02*
X17045000Y-8778000D01*
X17045000Y-8748000D02*
X17015000Y-8778000D01*
X17015000Y-8908000D02*
X17045000Y-8938000D01*
X17045000Y-8908000D02*
X17015000Y-8938000D01*
X17015000Y-9068000D02*
X17045000Y-9098000D01*
X17045000Y-9068000D02*
X17015000Y-9098000D01*
X17015000Y-9228000D02*
X17045000Y-9258000D01*
X17045000Y-9228000D02*
X17015000Y-9258000D01*
X17015000Y-9388000D02*
X17045000Y-9418000D01*
X17045000Y-9388000D02*
X17015000Y-9418000D01*
X17015000Y-9708000D02*
X17045000Y-9738000D01*
X17045000Y-9708000D02*
X17015000Y-9738000D01*
X17015000Y-9868000D02*
X17045000Y-9898000D01*
X17045000Y-9868000D02*
X17015000Y-9898000D01*
X17015000Y-10028000D02*
X17045000Y-10058000D01*
X17045000Y-10028000D02*
X17015000Y-10058000D01*
X17030000Y-10675000D02*
X17060000Y-10705000D01*
X17060000Y-10675000D02*
X17030000Y-10705000D01*
X17039850Y-19556710D02*
X17069850Y-19586710D01*
X17069850Y-19556710D02*
X17039850Y-19586710D01*
X17053170Y-13214880D02*
X17083170Y-13244880D01*
X17083170Y-13214880D02*
X17053170Y-13244880D01*
X17057470Y-17217060D02*
X17087470Y-17247060D01*
X17087470Y-17217060D02*
X17057470Y-17247060D01*
X17058740Y-18167880D02*
X17088740Y-18197880D01*
X17088740Y-18167880D02*
X17058740Y-18197880D01*
X17200650Y-14106570D02*
X17230650Y-14136570D01*
X17230650Y-14106570D02*
X17200650Y-14136570D01*
X17585000Y-13585000D02*
X17615000Y-13615000D01*
X17615000Y-13585000D02*
X17585000Y-13615000D01*
X17585000Y-20785000D02*
X17615000Y-20815000D01*
X17615000Y-20785000D02*
X17585000Y-20815000D01*
X17609980Y-16451540D02*
X17639980Y-16481540D01*
X17639980Y-16451540D02*
X17609980Y-16481540D01*
X17730865Y-13620050D02*
X17760865Y-13650050D01*
X17760865Y-13620050D02*
X17730865Y-13650050D01*
X17805000Y-9093000D02*
X17835000Y-9123000D01*
X17835000Y-9093000D02*
X17805000Y-9123000D01*
X17805000Y-9193000D02*
X17835000Y-9223000D01*
X17835000Y-9193000D02*
X17805000Y-9223000D01*
X17805000Y-9293000D02*
X17835000Y-9323000D01*
X17835000Y-9293000D02*
X17805000Y-9323000D01*
X17805000Y-9493000D02*
X17835000Y-9523000D01*
X17835000Y-9493000D02*
X17805000Y-9523000D01*
X17945000Y-11015000D02*
X17975000Y-11045000D01*
X17975000Y-11015000D02*
X17945000Y-11045000D01*
X18045000Y-10825000D02*
X18075000Y-10855000D01*
X18075000Y-10825000D02*
X18045000Y-10855000D01*
X18080000Y-9043000D02*
X18110000Y-9073000D01*
X18110000Y-9043000D02*
X18080000Y-9073000D01*
X18080000Y-9143000D02*
X18110000Y-9173000D01*
X18110000Y-9143000D02*
X18080000Y-9173000D01*
X18080000Y-9243000D02*
X18110000Y-9273000D01*
X18110000Y-9243000D02*
X18080000Y-9273000D01*
X18080000Y-9343000D02*
X18110000Y-9373000D01*
X18110000Y-9343000D02*
X18080000Y-9373000D01*
X18080000Y-9443000D02*
X18110000Y-9473000D01*
X18110000Y-9443000D02*
X18080000Y-9473000D01*
X18185000Y-11785000D02*
X18215000Y-11815000D01*
X18215000Y-11785000D02*
X18185000Y-11815000D01*
X18185000Y-12385000D02*
X18215000Y-12415000D01*
X18215000Y-12385000D02*
X18185000Y-12415000D01*
X18185000Y-12985000D02*
X18215000Y-13015000D01*
X18215000Y-12985000D02*
X18185000Y-13015000D01*
X18185000Y-13585000D02*
X18215000Y-13615000D01*
X18215000Y-13585000D02*
X18185000Y-13615000D01*
D12*
X11639877Y-21390784D02*
X11639877Y-21190784D01*
X11639877Y-21190784D02*
X11687496Y-21190784D01*
X11687496Y-21190784D02*
X11716067Y-21200308D01*
X11716067Y-21200308D02*
X11735115Y-21219355D01*
X11735115Y-21219355D02*
X11744639Y-21238403D01*
X11744639Y-21238403D02*
X11754162Y-21276498D01*
X11754162Y-21276498D02*
X11754162Y-21305070D01*
X11754162Y-21305070D02*
X11744639Y-21343165D01*
X11744639Y-21343165D02*
X11735115Y-21362212D01*
X11735115Y-21362212D02*
X11716067Y-21381260D01*
X11716067Y-21381260D02*
X11687496Y-21390784D01*
X11687496Y-21390784D02*
X11639877Y-21390784D01*
X11839877Y-21390784D02*
X11839877Y-21257450D01*
X11839877Y-21295546D02*
X11849401Y-21276498D01*
X11849401Y-21276498D02*
X11858924Y-21266974D01*
X11858924Y-21266974D02*
X11877972Y-21257450D01*
X11877972Y-21257450D02*
X11897020Y-21257450D01*
X11963686Y-21390784D02*
X11963686Y-21257450D01*
X11963686Y-21190784D02*
X11954162Y-21200308D01*
X11954162Y-21200308D02*
X11963686Y-21209831D01*
X11963686Y-21209831D02*
X11973210Y-21200308D01*
X11973210Y-21200308D02*
X11963686Y-21190784D01*
X11963686Y-21190784D02*
X11963686Y-21209831D01*
X12087496Y-21390784D02*
X12068448Y-21381260D01*
X12068448Y-21381260D02*
X12058924Y-21362212D01*
X12058924Y-21362212D02*
X12058924Y-21190784D01*
X12192258Y-21390784D02*
X12173210Y-21381260D01*
X12173210Y-21381260D02*
X12163686Y-21362212D01*
X12163686Y-21362212D02*
X12163686Y-21190784D01*
X12420829Y-21390784D02*
X12420829Y-21190784D01*
X12420829Y-21190784D02*
X12487496Y-21333641D01*
X12487496Y-21333641D02*
X12554162Y-21190784D01*
X12554162Y-21190784D02*
X12554162Y-21390784D01*
X12735115Y-21390784D02*
X12735115Y-21286022D01*
X12735115Y-21286022D02*
X12725591Y-21266974D01*
X12725591Y-21266974D02*
X12706543Y-21257450D01*
X12706543Y-21257450D02*
X12668448Y-21257450D01*
X12668448Y-21257450D02*
X12649401Y-21266974D01*
X12735115Y-21381260D02*
X12716067Y-21390784D01*
X12716067Y-21390784D02*
X12668448Y-21390784D01*
X12668448Y-21390784D02*
X12649401Y-21381260D01*
X12649401Y-21381260D02*
X12639877Y-21362212D01*
X12639877Y-21362212D02*
X12639877Y-21343165D01*
X12639877Y-21343165D02*
X12649401Y-21324117D01*
X12649401Y-21324117D02*
X12668448Y-21314593D01*
X12668448Y-21314593D02*
X12716067Y-21314593D01*
X12716067Y-21314593D02*
X12735115Y-21305070D01*
X12830353Y-21257450D02*
X12830353Y-21457450D01*
X12830353Y-21266974D02*
X12849401Y-21257450D01*
X12849401Y-21257450D02*
X12887496Y-21257450D01*
X12887496Y-21257450D02*
X12906543Y-21266974D01*
X12906543Y-21266974D02*
X12916067Y-21276498D01*
X12916067Y-21276498D02*
X12925591Y-21295546D01*
X12925591Y-21295546D02*
X12925591Y-21352689D01*
X12925591Y-21352689D02*
X12916067Y-21371736D01*
X12916067Y-21371736D02*
X12906543Y-21381260D01*
X12906543Y-21381260D02*
X12887496Y-21390784D01*
X12887496Y-21390784D02*
X12849401Y-21390784D01*
X12849401Y-21390784D02*
X12830353Y-21381260D01*
X13011305Y-21371736D02*
X13020829Y-21381260D01*
X13020829Y-21381260D02*
X13011305Y-21390784D01*
X13011305Y-21390784D02*
X13001782Y-21381260D01*
X13001782Y-21381260D02*
X13011305Y-21371736D01*
X13011305Y-21371736D02*
X13011305Y-21390784D01*
X13011305Y-21266974D02*
X13020829Y-21276498D01*
X13020829Y-21276498D02*
X13011305Y-21286022D01*
X13011305Y-21286022D02*
X13001782Y-21276498D01*
X13001782Y-21276498D02*
X13011305Y-21266974D01*
X13011305Y-21266974D02*
X13011305Y-21286022D01*
D10*
X11349100Y-21704300D02*
X11379100Y-21734300D01*
X11379100Y-21704300D02*
X11349100Y-21734300D01*
D12*
X11677972Y-21610784D02*
X11697020Y-21610784D01*
X11697020Y-21610784D02*
X11716067Y-21620308D01*
X11716067Y-21620308D02*
X11725591Y-21629831D01*
X11725591Y-21629831D02*
X11735115Y-21648879D01*
X11735115Y-21648879D02*
X11744639Y-21686974D01*
X11744639Y-21686974D02*
X11744639Y-21734593D01*
X11744639Y-21734593D02*
X11735115Y-21772689D01*
X11735115Y-21772689D02*
X11725591Y-21791736D01*
X11725591Y-21791736D02*
X11716067Y-21801260D01*
X11716067Y-21801260D02*
X11697020Y-21810784D01*
X11697020Y-21810784D02*
X11677972Y-21810784D01*
X11677972Y-21810784D02*
X11658924Y-21801260D01*
X11658924Y-21801260D02*
X11649401Y-21791736D01*
X11649401Y-21791736D02*
X11639877Y-21772689D01*
X11639877Y-21772689D02*
X11630353Y-21734593D01*
X11630353Y-21734593D02*
X11630353Y-21686974D01*
X11630353Y-21686974D02*
X11639877Y-21648879D01*
X11639877Y-21648879D02*
X11649401Y-21629831D01*
X11649401Y-21629831D02*
X11658924Y-21620308D01*
X11658924Y-21620308D02*
X11677972Y-21610784D01*
X11830353Y-21791736D02*
X11839877Y-21801260D01*
X11839877Y-21801260D02*
X11830353Y-21810784D01*
X11830353Y-21810784D02*
X11820829Y-21801260D01*
X11820829Y-21801260D02*
X11830353Y-21791736D01*
X11830353Y-21791736D02*
X11830353Y-21810784D01*
X11906543Y-21610784D02*
X12030353Y-21610784D01*
X12030353Y-21610784D02*
X11963686Y-21686974D01*
X11963686Y-21686974D02*
X11992258Y-21686974D01*
X11992258Y-21686974D02*
X12011305Y-21696498D01*
X12011305Y-21696498D02*
X12020829Y-21706022D01*
X12020829Y-21706022D02*
X12030353Y-21725070D01*
X12030353Y-21725070D02*
X12030353Y-21772689D01*
X12030353Y-21772689D02*
X12020829Y-21791736D01*
X12020829Y-21791736D02*
X12011305Y-21801260D01*
X12011305Y-21801260D02*
X11992258Y-21810784D01*
X11992258Y-21810784D02*
X11935115Y-21810784D01*
X11935115Y-21810784D02*
X11916067Y-21801260D01*
X11916067Y-21801260D02*
X11906543Y-21791736D01*
X12154162Y-21610784D02*
X12173210Y-21610784D01*
X12173210Y-21610784D02*
X12192258Y-21620308D01*
X12192258Y-21620308D02*
X12201782Y-21629831D01*
X12201782Y-21629831D02*
X12211305Y-21648879D01*
X12211305Y-21648879D02*
X12220829Y-21686974D01*
X12220829Y-21686974D02*
X12220829Y-21734593D01*
X12220829Y-21734593D02*
X12211305Y-21772689D01*
X12211305Y-21772689D02*
X12201782Y-21791736D01*
X12201782Y-21791736D02*
X12192258Y-21801260D01*
X12192258Y-21801260D02*
X12173210Y-21810784D01*
X12173210Y-21810784D02*
X12154162Y-21810784D01*
X12154162Y-21810784D02*
X12135115Y-21801260D01*
X12135115Y-21801260D02*
X12125591Y-21791736D01*
X12125591Y-21791736D02*
X12116067Y-21772689D01*
X12116067Y-21772689D02*
X12106543Y-21734593D01*
X12106543Y-21734593D02*
X12106543Y-21686974D01*
X12106543Y-21686974D02*
X12116067Y-21648879D01*
X12116067Y-21648879D02*
X12125591Y-21629831D01*
X12125591Y-21629831D02*
X12135115Y-21620308D01*
X12135115Y-21620308D02*
X12154162Y-21610784D01*
X12344639Y-21610784D02*
X12363686Y-21610784D01*
X12363686Y-21610784D02*
X12382734Y-21620308D01*
X12382734Y-21620308D02*
X12392258Y-21629831D01*
X12392258Y-21629831D02*
X12401782Y-21648879D01*
X12401782Y-21648879D02*
X12411305Y-21686974D01*
X12411305Y-21686974D02*
X12411305Y-21734593D01*
X12411305Y-21734593D02*
X12401782Y-21772689D01*
X12401782Y-21772689D02*
X12392258Y-21791736D01*
X12392258Y-21791736D02*
X12382734Y-21801260D01*
X12382734Y-21801260D02*
X12363686Y-21810784D01*
X12363686Y-21810784D02*
X12344639Y-21810784D01*
X12344639Y-21810784D02*
X12325591Y-21801260D01*
X12325591Y-21801260D02*
X12316067Y-21791736D01*
X12316067Y-21791736D02*
X12306543Y-21772689D01*
X12306543Y-21772689D02*
X12297020Y-21734593D01*
X12297020Y-21734593D02*
X12297020Y-21686974D01*
X12297020Y-21686974D02*
X12306543Y-21648879D01*
X12306543Y-21648879D02*
X12316067Y-21629831D01*
X12316067Y-21629831D02*
X12325591Y-21620308D01*
X12325591Y-21620308D02*
X12344639Y-21610784D01*
X12497020Y-21810784D02*
X12497020Y-21677450D01*
X12497020Y-21696498D02*
X12506543Y-21686974D01*
X12506543Y-21686974D02*
X12525591Y-21677450D01*
X12525591Y-21677450D02*
X12554163Y-21677450D01*
X12554163Y-21677450D02*
X12573210Y-21686974D01*
X12573210Y-21686974D02*
X12582734Y-21706022D01*
X12582734Y-21706022D02*
X12582734Y-21810784D01*
X12582734Y-21706022D02*
X12592258Y-21686974D01*
X12592258Y-21686974D02*
X12611305Y-21677450D01*
X12611305Y-21677450D02*
X12639877Y-21677450D01*
X12639877Y-21677450D02*
X12658924Y-21686974D01*
X12658924Y-21686974D02*
X12668448Y-21706022D01*
X12668448Y-21706022D02*
X12668448Y-21810784D01*
X12763686Y-21810784D02*
X12763686Y-21677450D01*
X12763686Y-21696498D02*
X12773210Y-21686974D01*
X12773210Y-21686974D02*
X12792258Y-21677450D01*
X12792258Y-21677450D02*
X12820829Y-21677450D01*
X12820829Y-21677450D02*
X12839877Y-21686974D01*
X12839877Y-21686974D02*
X12849401Y-21706022D01*
X12849401Y-21706022D02*
X12849401Y-21810784D01*
X12849401Y-21706022D02*
X12858924Y-21686974D01*
X12858924Y-21686974D02*
X12877972Y-21677450D01*
X12877972Y-21677450D02*
X12906543Y-21677450D01*
X12906543Y-21677450D02*
X12925591Y-21686974D01*
X12925591Y-21686974D02*
X12935115Y-21706022D01*
X12935115Y-21706022D02*
X12935115Y-21810784D01*
X13325591Y-21601260D02*
X13154163Y-21858403D01*
X13582734Y-21610784D02*
X13601782Y-21610784D01*
X13601782Y-21610784D02*
X13620829Y-21620308D01*
X13620829Y-21620308D02*
X13630353Y-21629831D01*
X13630353Y-21629831D02*
X13639877Y-21648879D01*
X13639877Y-21648879D02*
X13649401Y-21686974D01*
X13649401Y-21686974D02*
X13649401Y-21734593D01*
X13649401Y-21734593D02*
X13639877Y-21772689D01*
X13639877Y-21772689D02*
X13630353Y-21791736D01*
X13630353Y-21791736D02*
X13620829Y-21801260D01*
X13620829Y-21801260D02*
X13601782Y-21810784D01*
X13601782Y-21810784D02*
X13582734Y-21810784D01*
X13582734Y-21810784D02*
X13563686Y-21801260D01*
X13563686Y-21801260D02*
X13554163Y-21791736D01*
X13554163Y-21791736D02*
X13544639Y-21772689D01*
X13544639Y-21772689D02*
X13535115Y-21734593D01*
X13535115Y-21734593D02*
X13535115Y-21686974D01*
X13535115Y-21686974D02*
X13544639Y-21648879D01*
X13544639Y-21648879D02*
X13554163Y-21629831D01*
X13554163Y-21629831D02*
X13563686Y-21620308D01*
X13563686Y-21620308D02*
X13582734Y-21610784D01*
X13735115Y-21791736D02*
X13744639Y-21801260D01*
X13744639Y-21801260D02*
X13735115Y-21810784D01*
X13735115Y-21810784D02*
X13725591Y-21801260D01*
X13725591Y-21801260D02*
X13735115Y-21791736D01*
X13735115Y-21791736D02*
X13735115Y-21810784D01*
X13868448Y-21610784D02*
X13887496Y-21610784D01*
X13887496Y-21610784D02*
X13906544Y-21620308D01*
X13906544Y-21620308D02*
X13916067Y-21629831D01*
X13916067Y-21629831D02*
X13925591Y-21648879D01*
X13925591Y-21648879D02*
X13935115Y-21686974D01*
X13935115Y-21686974D02*
X13935115Y-21734593D01*
X13935115Y-21734593D02*
X13925591Y-21772689D01*
X13925591Y-21772689D02*
X13916067Y-21791736D01*
X13916067Y-21791736D02*
X13906544Y-21801260D01*
X13906544Y-21801260D02*
X13887496Y-21810784D01*
X13887496Y-21810784D02*
X13868448Y-21810784D01*
X13868448Y-21810784D02*
X13849401Y-21801260D01*
X13849401Y-21801260D02*
X13839877Y-21791736D01*
X13839877Y-21791736D02*
X13830353Y-21772689D01*
X13830353Y-21772689D02*
X13820829Y-21734593D01*
X13820829Y-21734593D02*
X13820829Y-21686974D01*
X13820829Y-21686974D02*
X13830353Y-21648879D01*
X13830353Y-21648879D02*
X13839877Y-21629831D01*
X13839877Y-21629831D02*
X13849401Y-21620308D01*
X13849401Y-21620308D02*
X13868448Y-21610784D01*
X14125591Y-21810784D02*
X14011306Y-21810784D01*
X14068448Y-21810784D02*
X14068448Y-21610784D01*
X14068448Y-21610784D02*
X14049401Y-21639355D01*
X14049401Y-21639355D02*
X14030353Y-21658403D01*
X14030353Y-21658403D02*
X14011306Y-21667927D01*
X14316067Y-21810784D02*
X14201782Y-21810784D01*
X14258925Y-21810784D02*
X14258925Y-21610784D01*
X14258925Y-21610784D02*
X14239877Y-21639355D01*
X14239877Y-21639355D02*
X14220829Y-21658403D01*
X14220829Y-21658403D02*
X14201782Y-21667927D01*
X14430353Y-21696498D02*
X14411306Y-21686974D01*
X14411306Y-21686974D02*
X14401782Y-21677450D01*
X14401782Y-21677450D02*
X14392258Y-21658403D01*
X14392258Y-21658403D02*
X14392258Y-21648879D01*
X14392258Y-21648879D02*
X14401782Y-21629831D01*
X14401782Y-21629831D02*
X14411306Y-21620308D01*
X14411306Y-21620308D02*
X14430353Y-21610784D01*
X14430353Y-21610784D02*
X14468448Y-21610784D01*
X14468448Y-21610784D02*
X14487496Y-21620308D01*
X14487496Y-21620308D02*
X14497020Y-21629831D01*
X14497020Y-21629831D02*
X14506544Y-21648879D01*
X14506544Y-21648879D02*
X14506544Y-21658403D01*
X14506544Y-21658403D02*
X14497020Y-21677450D01*
X14497020Y-21677450D02*
X14487496Y-21686974D01*
X14487496Y-21686974D02*
X14468448Y-21696498D01*
X14468448Y-21696498D02*
X14430353Y-21696498D01*
X14430353Y-21696498D02*
X14411306Y-21706022D01*
X14411306Y-21706022D02*
X14401782Y-21715546D01*
X14401782Y-21715546D02*
X14392258Y-21734593D01*
X14392258Y-21734593D02*
X14392258Y-21772689D01*
X14392258Y-21772689D02*
X14401782Y-21791736D01*
X14401782Y-21791736D02*
X14411306Y-21801260D01*
X14411306Y-21801260D02*
X14430353Y-21810784D01*
X14430353Y-21810784D02*
X14468448Y-21810784D01*
X14468448Y-21810784D02*
X14487496Y-21801260D01*
X14487496Y-21801260D02*
X14497020Y-21791736D01*
X14497020Y-21791736D02*
X14506544Y-21772689D01*
X14506544Y-21772689D02*
X14506544Y-21734593D01*
X14506544Y-21734593D02*
X14497020Y-21715546D01*
X14497020Y-21715546D02*
X14487496Y-21706022D01*
X14487496Y-21706022D02*
X14468448Y-21696498D01*
X14582734Y-21610784D02*
X14582734Y-21648879D01*
X14658925Y-21610784D02*
X14658925Y-21648879D01*
X14954163Y-21886974D02*
X14944639Y-21877450D01*
X14944639Y-21877450D02*
X14925591Y-21848879D01*
X14925591Y-21848879D02*
X14916068Y-21829831D01*
X14916068Y-21829831D02*
X14906544Y-21801260D01*
X14906544Y-21801260D02*
X14897020Y-21753641D01*
X14897020Y-21753641D02*
X14897020Y-21715546D01*
X14897020Y-21715546D02*
X14906544Y-21667927D01*
X14906544Y-21667927D02*
X14916068Y-21639355D01*
X14916068Y-21639355D02*
X14925591Y-21620308D01*
X14925591Y-21620308D02*
X14944639Y-21591736D01*
X14944639Y-21591736D02*
X14954163Y-21582212D01*
X15011306Y-21610784D02*
X15135115Y-21610784D01*
X15135115Y-21610784D02*
X15068448Y-21686974D01*
X15068448Y-21686974D02*
X15097020Y-21686974D01*
X15097020Y-21686974D02*
X15116068Y-21696498D01*
X15116068Y-21696498D02*
X15125591Y-21706022D01*
X15125591Y-21706022D02*
X15135115Y-21725070D01*
X15135115Y-21725070D02*
X15135115Y-21772689D01*
X15135115Y-21772689D02*
X15125591Y-21791736D01*
X15125591Y-21791736D02*
X15116068Y-21801260D01*
X15116068Y-21801260D02*
X15097020Y-21810784D01*
X15097020Y-21810784D02*
X15039877Y-21810784D01*
X15039877Y-21810784D02*
X15020829Y-21801260D01*
X15020829Y-21801260D02*
X15011306Y-21791736D01*
X15306544Y-21677450D02*
X15306544Y-21810784D01*
X15258925Y-21601260D02*
X15211306Y-21744117D01*
X15211306Y-21744117D02*
X15335115Y-21744117D01*
X15392258Y-21610784D02*
X15516068Y-21610784D01*
X15516068Y-21610784D02*
X15449401Y-21686974D01*
X15449401Y-21686974D02*
X15477972Y-21686974D01*
X15477972Y-21686974D02*
X15497020Y-21696498D01*
X15497020Y-21696498D02*
X15506544Y-21706022D01*
X15506544Y-21706022D02*
X15516068Y-21725070D01*
X15516068Y-21725070D02*
X15516068Y-21772689D01*
X15516068Y-21772689D02*
X15506544Y-21791736D01*
X15506544Y-21791736D02*
X15497020Y-21801260D01*
X15497020Y-21801260D02*
X15477972Y-21810784D01*
X15477972Y-21810784D02*
X15420829Y-21810784D01*
X15420829Y-21810784D02*
X15401782Y-21801260D01*
X15401782Y-21801260D02*
X15392258Y-21791736D01*
X15754163Y-21810784D02*
X15754163Y-21610784D01*
X15839877Y-21810784D02*
X15839877Y-21706022D01*
X15839877Y-21706022D02*
X15830353Y-21686974D01*
X15830353Y-21686974D02*
X15811306Y-21677450D01*
X15811306Y-21677450D02*
X15782734Y-21677450D01*
X15782734Y-21677450D02*
X15763687Y-21686974D01*
X15763687Y-21686974D02*
X15754163Y-21696498D01*
X15963687Y-21810784D02*
X15944639Y-21801260D01*
X15944639Y-21801260D02*
X15935115Y-21791736D01*
X15935115Y-21791736D02*
X15925591Y-21772689D01*
X15925591Y-21772689D02*
X15925591Y-21715546D01*
X15925591Y-21715546D02*
X15935115Y-21696498D01*
X15935115Y-21696498D02*
X15944639Y-21686974D01*
X15944639Y-21686974D02*
X15963687Y-21677450D01*
X15963687Y-21677450D02*
X15992258Y-21677450D01*
X15992258Y-21677450D02*
X16011306Y-21686974D01*
X16011306Y-21686974D02*
X16020830Y-21696498D01*
X16020830Y-21696498D02*
X16030353Y-21715546D01*
X16030353Y-21715546D02*
X16030353Y-21772689D01*
X16030353Y-21772689D02*
X16020830Y-21791736D01*
X16020830Y-21791736D02*
X16011306Y-21801260D01*
X16011306Y-21801260D02*
X15992258Y-21810784D01*
X15992258Y-21810784D02*
X15963687Y-21810784D01*
X16144639Y-21810784D02*
X16125591Y-21801260D01*
X16125591Y-21801260D02*
X16116068Y-21782212D01*
X16116068Y-21782212D02*
X16116068Y-21610784D01*
X16297020Y-21801260D02*
X16277972Y-21810784D01*
X16277972Y-21810784D02*
X16239877Y-21810784D01*
X16239877Y-21810784D02*
X16220830Y-21801260D01*
X16220830Y-21801260D02*
X16211306Y-21782212D01*
X16211306Y-21782212D02*
X16211306Y-21706022D01*
X16211306Y-21706022D02*
X16220830Y-21686974D01*
X16220830Y-21686974D02*
X16239877Y-21677450D01*
X16239877Y-21677450D02*
X16277972Y-21677450D01*
X16277972Y-21677450D02*
X16297020Y-21686974D01*
X16297020Y-21686974D02*
X16306544Y-21706022D01*
X16306544Y-21706022D02*
X16306544Y-21725070D01*
X16306544Y-21725070D02*
X16211306Y-21744117D01*
X16382734Y-21801260D02*
X16401782Y-21810784D01*
X16401782Y-21810784D02*
X16439877Y-21810784D01*
X16439877Y-21810784D02*
X16458925Y-21801260D01*
X16458925Y-21801260D02*
X16468449Y-21782212D01*
X16468449Y-21782212D02*
X16468449Y-21772689D01*
X16468449Y-21772689D02*
X16458925Y-21753641D01*
X16458925Y-21753641D02*
X16439877Y-21744117D01*
X16439877Y-21744117D02*
X16411306Y-21744117D01*
X16411306Y-21744117D02*
X16392258Y-21734593D01*
X16392258Y-21734593D02*
X16382734Y-21715546D01*
X16382734Y-21715546D02*
X16382734Y-21706022D01*
X16382734Y-21706022D02*
X16392258Y-21686974D01*
X16392258Y-21686974D02*
X16411306Y-21677450D01*
X16411306Y-21677450D02*
X16439877Y-21677450D01*
X16439877Y-21677450D02*
X16458925Y-21686974D01*
X16535115Y-21886974D02*
X16544639Y-21877450D01*
X16544639Y-21877450D02*
X16563687Y-21848879D01*
X16563687Y-21848879D02*
X16573211Y-21829831D01*
X16573211Y-21829831D02*
X16582734Y-21801260D01*
X16582734Y-21801260D02*
X16592258Y-21753641D01*
X16592258Y-21753641D02*
X16592258Y-21715546D01*
X16592258Y-21715546D02*
X16582734Y-21667927D01*
X16582734Y-21667927D02*
X16573211Y-21639355D01*
X16573211Y-21639355D02*
X16563687Y-21620308D01*
X16563687Y-21620308D02*
X16544639Y-21591736D01*
X16544639Y-21591736D02*
X16535115Y-21582212D01*
M02*
