  0
SECTION
  2
HEADER
  9
$ACADVER
  1
AC1024
  9
$ACADMAINTVER
 70
6
  9
$DWGCODEPAGE
  3
ANSI_1252
  9
$LASTSAVEDBY
  1
ezdxf
  9
$INSBASE
 10
0.0
 20
0.0
 30
0.0
  9
$EXTMIN
 10
1e+20
 20
1e+20
 30
1e+20
  9
$EXTMAX
 10
-1e+20
 20
-1e+20
 30
-1e+20
  9
$LIMMIN
 10
0.0
 20
0.0
  9
$LIMMAX
 10
420.0
 20
297.0
  9
$ORTHOMODE
 70
0
  9
$REGENMODE
 70
1
  9
$FILLMODE
 70
1
  9
$QTEXTMODE
 70
0
  9
$MIRRTEXT
 70
1
  9
$LTSCALE
 40
1.0
  9
$ATTMODE
 70
1
  9
$TEXTSIZE
 40
2.5
  9
$TRACEWID
 40
1.0
  9
$TEXTSTYLE
  7
OpenSans
  9
$CLAYER
  8
0
  9
$CELTYPE
  6
ByLayer
  9
$CECOLOR
 62
256
  9
$CELTSCALE
 40
1.0
  9
$DISPSILH
 70
0
  9
$DIMSCALE
 40
1.0
  9
$DIMASZ
 40
0.175
  9
$DIMEXO
 40
0.125
  9
$DIMDLI
 40
3.75
  9
$DIMRND
 40
0.0
  9
$DIMDLE
 40
0.0
  9
$DIMEXE
 40
0.375
  9
$DIMTP
 40
0.0
  9
$DIMTM
 40
0.0
  9
$DIMTXT
 40
0.25
  9
$DIMCEN
 40
2.5
  9
$DIMTSZ
 40
0.0
  9
$DIMTOL
 70
0
  9
$DIMLIM
 70
0
  9
$DIMTIH
 70
0
  9
$DIMTOH
 70
0
  9
$DIMSE1
 70
0
  9
$DIMSE2
 70
0
  9
$DIMTAD
 70
1
  9
$DIMZIN
 70
12
  9
$DIMBLK
  1
ARCHTICK
  9
$DIMASO
 70
1
  9
$DIMSHO
 70
1
  9
$DIMPOST
  1

  9
$DIMAPOST
  1

  9
$DIMALT
 70
0
  9
$DIMALTD
 70
3
  9
$DIMALTF
 40
0.03937007874
  9
$DIMLFAC
 40
100.0
  9
$DIMTOFL
 70
1
  9
$DIMTVP
 40
0.0
  9
$DIMTIX
 70
0
  9
$DIMSOXD
 70
0
  9
$DIMSAH
 70
0
  9
$DIMBLK1
  1

  9
$DIMBLK2
  1

  9
$DIMSTYLE
  2
EZDXF
  9
$DIMCLRD
 70
0
  9
$DIMCLRE
 70
0
  9
$DIMCLRT
 70
0
  9
$DIMTFAC
 40
0.5
  9
$DIMGAP
 40
0.1
  9
$DIMJUST
 70
0
  9
$DIMSD1
 70
0
  9
$DIMSD2
 70
0
  9
$DIMTOLJ
 70
0
  9
$DIMTZIN
 70
8
  9
$DIMALTZ
 70
0
  9
$DIMALTTZ
 70
0
  9
$DIMUPT
 70
1
  9
$DIMDEC
 70
2
  9
$DIMTDEC
 70
2
  9
$DIMALTU
 70
2
  9
$DIMALTTD
 70
3
  9
$DIMTXSTY
  7
OpenSansCondensed-Light
  9
$DIMAUNIT
 70
0
  9
$DIMADEC
 70
2
  9
$DIMALTRND
 40
0.0
  9
$DIMAZIN
 70
3
  9
$DIMDSEP
 70
46
  9
$DIMATFIT
 70
3
  9
$DIMFRAC
 70
0
  9
$DIMLDRBLK
  1

  9
$DIMLUNIT
 70
2
  9
$DIMLWD
 70
-2
  9
$DIMLWE
 70
-2
  9
$DIMTMOVE
 70
2
  9
$DIMFXL
 40
1.0
  9
$DIMFXLON
 70
0
  9
$DIMJOGANG
 40
0.785398163397
  9
$DIMTFILL
 70
0
  9
$DIMTFILLCLR
 70
0
  9
$DIMARCSYM
 70
0
  9
$DIMLTYPE
  6

  9
$DIMLTEX1
  6

  9
$DIMLTEX2
  6

  9
$DIMTXTDIRECTION
 70
0
  9
$LUNITS
 70
2
  9
$LUPREC
 70
4
  9
$SKETCHINC
 40
1.0
  9
$FILLETRAD
 40
10.0
  9
$AUNITS
 70
0
  9
$AUPREC
 70
2
  9
$MENU
  1
.
  9
$ELEVATION
 40
0.0
  9
$PELEVATION
 40
0.0
  9
$THICKNESS
 40
0.0
  9
$LIMCHECK
 70
0
  9
$CHAMFERA
 40
0.0
  9
$CHAMFERB
 40
0.0
  9
$CHAMFERC
 40
0.0
  9
$CHAMFERD
 40
0.0
  9
$SKPOLY
 70
0
  9
$TDCREATE
 40
2461316.069537037
  9
$TDUCREATE
 40
2458532.153996898
  9
$TDUPDATE
 40
2461316.069537037
  9
$TDUUPDATE
 40
2458532.1544311
  9
$TDINDWG
 40
0.0
  9
$TDUSRTIMER
 40
0.0
  9
$USRTIMER
 70
1
  9
$ANGBASE
 50
0.0
  9
$ANGDIR
 70
0
  9
$PDMODE
 70
0
  9
$PDSIZE
 40
0.0
  9
$PLINEWID
 40
0.0
  9
$SPLFRAME
 70
0
  9
$SPLINETYPE
 70
6
  9
$SPLINESEGS
 70
8
  9
$HANDSEED
  5
116
  9
$SURFTAB1
 70
6
  9
$SURFTAB2
 70
6
  9
$SURFTYPE
 70
6
  9
$SURFU
 70
6
  9
$SURFV
 70
6
  9
$UCSBASE
  2

  9
$UCSNAME
  2

  9
$UCSORG
 10
0.0
 20
0.0
 30
0.0
  9
$UCSXDIR
 10
1.0
 20
0.0
 30
0.0
  9
$UCSYDIR
 10
0.0
 20
1.0
 30
0.0
  9
$UCSORTHOREF
  2

  9
$UCSORTHOVIEW
 70
0
  9
$UCSORGTOP
 10
0.0
 20
0.0
 30
0.0
  9
$UCSORGBOTTOM
 10
0.0
 20
0.0
 30
0.0
  9
$UCSORGLEFT
 10
0.0
 20
0.0
 30
0.0
  9
$UCSORGRIGHT
 10
0.0
 20
0.0
 30
0.0
  9
$UCSORGFRONT
 10
0.0
 20
0.0
 30
0.0
  9
$UCSORGBACK
 10
0.0
 20
0.0
 30
0.0
  9
$PUCSBASE
  2

  9
$PUCSNAME
  2

  9
$PUCSORG
 10
0.0
 20
0.0
 30
0.0
  9
$PUCSXDIR
 10
1.0
 20
0.0
 30
0.0
  9
$PUCSYDIR
 10
0.0
 20
1.0
 30
0.0
  9
$PUCSORTHOREF
  2

  9
$PUCSORTHOVIEW
 70
0
  9
$PUCSORGTOP
 10
0.0
 20
0.0
 30
0.0
  9
$PUCSORGBOTTOM
 10
0.0
 20
0.0
 30
0.0
  9
$PUCSORGLEFT
 10
0.0
 20
0.0
 30
0.0
  9
$PUCSORGRIGHT
 10
0.0
 20
0.0
 30
0.0
  9
$PUCSORGFRONT
 10
0.0
 20
0.0
 30
0.0
  9
$PUCSORGBACK
 10
0.0
 20
0.0
 30
0.0
  9
$USERI1
 70
0
  9
$USERI2
 70
0
  9
$USERI3
 70
0
  9
$USERI4
 70
0
  9
$USERI5
 70
0
  9
$USERR1
 40
0.0
  9
$USERR2
 40
0.0
  9
$USERR3
 40
0.0
  9
$USERR4
 40
0.0
  9
$USERR5
 40
0.0
  9
$WORLDVIEW
 70
1
  9
$SHADEDGE
 70
3
  9
$SHADEDIF
 70
70
  9
$TILEMODE
 70
1
  9
$MAXACTVP
 70
64
  9
$PINSBASE
 10
0.0
 20
0.0
 30
0.0
  9
$PLIMCHECK
 70
0
  9
$PEXTMIN
 10
1e+20
 20
1e+20
 30
1e+20
  9
$PEXTMAX
 10
-1e+20
 20
-1e+20
 30
-1e+20
  9
$PLIMMIN
 10
0.0
 20
0.0
  9
$PLIMMAX
 10
420.0
 20
297.0
  9
$UNITMODE
 70
0
  9
$VISRETAIN
 70
1
  9
$PLINEGEN
 70
0
  9
$PSLTSCALE
 70
1
  9
$TREEDEPTH
 70
3020
  9
$CMLSTYLE
  2
Standard
  9
$CMLJUST
 70
0
  9
$CMLSCALE
 40
20.0
  9
$PROXYGRAPHICS
 70
1
  9
$MEASUREMENT
 70
1
  9
$CELWEIGHT
370
-1
  9
$ENDCAPS
280
0
  9
$JOINSTYLE
280
0
  9
$LWDISPLAY
290
0
  9
$INSUNITS
 70
4
  9
$HYPERLINKBASE
  1

  9
$STYLESHEET
  1

  9
$XEDIT
290
1
  9
$CEPSNTYPE
380
0
  9
$PSTYLEMODE
290
1
  9
$FINGERPRINTGUID
  2
{A47B6B17-A410-4DB3-8BFC-296D5662EBE7}
  9
$VERSIONGUID
  2
{521E4348-4B50-4FAA-B2AE-C588E89EB9F9}
  9
$EXTNAMES
290
1
  9
$PSVPSCALE
 40
0.0
  9
$OLESTARTUP
290
0
  9
$SORTENTS
280
127
  9
$INDEXCTL
280
0
  9
$HIDETEXT
280
1
  9
$XCLIPFRAME
280
1
  9
$HALOGAP
280
0
  9
$OBSCOLOR
 70
257
  9
$OBSLTYPE
280
0
  9
$INTERSECTIONDISPLAY
280
0
  9
$INTERSECTIONCOLOR
 70
257
  9
$DIMASSOC
280
2
  9
$PROJECTNAME
  1

  9
$CAMERADISPLAY
290
0
  9
$LENSLENGTH
 40
50.0
  9
$CAMERAHEIGHT
 40
0.0
  9
$STEPSPERSEC
 40
24.0
  9
$STEPSIZE
 40
100.0
  9
$3DDWFPREC
 40
2.0
  9
$PSOLWIDTH
 40
0.005
  9
$PSOLHEIGHT
 40
0.08
  9
$LOFTANG1
 40
1.570796326795
  9
$LOFTANG2
 40
1.570796326795
  9
$LOFTMAG1
 40
0.0
  9
$LOFTMAG2
 40
0.0
  9
$LOFTPARAM
 70
7
  9
$LOFTNORMALS
280
1
  9
$LATITUDE
 40
37.795
  9
$LONGITUDE
 40
-122.394
  9
$NORTHDIRECTION
 40
0.0
  9
$TIMEZONE
 70
-8000
  9
$LIGHTGLYPHDISPLAY
280
1
  9
$TILEMODELIGHTSYNCH
280
1
  9
$CMATERIAL
347
20
  9
$SOLIDHIST
280
0
  9
$SHOWHIST
280
1
  9
$DWFFRAME
280
2
  9
$DGNFRAME
280
2
  9
$REALWORLDSCALE
290
1
  9
$INTERFERECOLOR
 62
256
  9
$CSHADOW
280
0
  9
$SHADOWPLANELOCATION
 40
0.0
  0
ENDSEC
  0
SECTION
  2
CLASSES
  0
CLASS
  1
ACDBDICTIONARYWDFLT
  2
AcDbDictionaryWithDefault
  3
ObjectDBX Classes
 90
0
 91
0
280
0
281
0
  0
CLASS
  1
SUN
  2
AcDbSun
  3
SCENEOE
 90
1153
 91
0
280
0
281
0
  0
CLASS
  1
VISUALSTYLE
  2
AcDbVisualStyle
  3
ObjectDBX Classes
 90
4095
 91
0
280
0
281
0
  0
CLASS
  1
MATERIAL
  2
AcDbMaterial
  3
ObjectDBX Classes
 90
1153
 91
0
280
0
281
0
  0
CLASS
  1
SCALE
  2
AcDbScale
  3
ObjectDBX Classes
 90
1153
 91
0
280
0
281
0
  0
CLASS
  1
TABLESTYLE
  2
AcDbTableStyle
  3
ObjectDBX Classes
 90
4095
 91
0
280
0
281
0
  0
CLASS
  1
MLEADERSTYLE
  2
AcDbMLeaderStyle
  3
ACDB_MLEADERSTYLE_CLASS
 90
4095
 91
0
280
0
281
0
  0
CLASS
  1
DICTIONARYVAR
  2
AcDbDictionaryVar
  3
ObjectDBX Classes
 90
0
 91
0
280
0
281
0
  0
CLASS
  1
CELLSTYLEMAP
  2
AcDbCellStyleMap
  3
ObjectDBX Classes
 90
1152
 91
0
280
0
281
0
  0
CLASS
  1
MENTALRAYRENDERSETTINGS
  2
AcDbMentalRayRenderSettings
  3
SCENEOE
 90
1024
 91
0
280
0
281
0
  0
CLASS
  1
ACDBDETAILVIEWSTYLE
  2
AcDbDetailViewStyle
  3
ObjectDBX Classes
 90
1025
 91
0
280
0
281
0
  0
CLASS
  1
ACDBSECTIONVIEWSTYLE
  2
AcDbSectionViewStyle
  3
ObjectDBX Classes
 90
1025
 91
0
280
0
281
0
  0
CLASS
  1
RASTERVARIABLES
  2
AcDbRasterVariables
  3
ISM
 90
0
 91
0
280
0
281
0
  0
CLASS
  1
LAYOUT
  2
AcDbLayout
  3
ObjectDBX Classes
 90
0
 91
0
280
0
281
0
  0
CLASS
  1
ACDBPLACEHOLDER
  2
AcDbPlaceHolder
  3
ObjectDBX Classes
 90
0
 91
0
280
0
281
0
  0
ENDSEC
  0
SECTION
  2
TABLES
  0
TABLE
  2
VPORT
  5
8
330
0
100
AcDbSymbolTable
 70
1
  0
VPORT
  5
23
330
8
100
AcDbSymbolTableRecord
100
AcDbViewportTableRecord
  2
*Active
 70
0
 10
0.0
 20
0.0
 11
1.0
 21
1.0
 12
0.0
 22
0.0
 13
0.0
 23
0.0
 14
0.5
 24
0.5
 15
0.5
 25
0.5
 16
0.0
 26
0.0
 36
1.0
 17
0.0
 27
0.0
 37
0.0
 40
1000.0
 41
1.34
 42
50.0
 43
0.0
 44
0.0
 50
0.0
 51
0.0
 71
0
 72
1000
 73
1
 74
3
 75
0
 76
0
 77
0
 78
0
281
0
 65
0
146
0.0
  0
ENDTAB
  0
TABLE
  2
LTYPE
  5
2
330
0
100
AcDbSymbolTable
 70
21
  0
LTYPE
  5
24
330
2
100
AcDbSymbolTableRecord
100
AcDbLinetypeTableRecord
  2
ByBlock
 70
0
  3

 72
65
 73
0
 40
0.0
  0
LTYPE
  5
25
330
2
100
AcDbSymbolTableRecord
100
AcDbLinetypeTableRecord
  2
ByLayer
 70
0
  3

 72
65
 73
0
 40
0.0
  0
LTYPE
  5
26
330
2
100
AcDbSymbolTableRecord
100
AcDbLinetypeTableRecord
  2
Continuous
 70
0
  3

 72
65
 73
0
 40
0.0
  0
LTYPE
  5
2F
330
2
100
AcDbSymbolTableRecord
100
AcDbLinetypeTableRecord
  2
CENTER
 70
0
  3
Center ____ _ ____ _ ____ _ ____ _ ____ _ ____
 72
65
 73
4
 40
5.08
 49
3.175
 74
0
 49
-0.635
 74
0
 49
0.635
 74
0
 49
-0.635
 74
0
  0
LTYPE
  5
30
330
2
100
AcDbSymbolTableRecord
100
AcDbLinetypeTableRecord
  2
CENTERX2
 70
0
  3
Center (2x) ________  __  ________  __  ________
 72
65
 73
4
 40
8.89
 49
6.35
 74
0
 49
-0.635
 74
0
 49
1.27
 74
0
 49
-0.635
 74
0
  0
LTYPE
  5
31
330
2
100
AcDbSymbolTableRecord
100
AcDbLinetypeTableRecord
  2
CENTER2
 70
0
  3
Center (.5x) ____ _ ____ _ ____ _ ____ _ ____
 72
65
 73
4
 40
2.54
 49
1.587
 74
0
 49
-0.318
 74
0
 49
0.318
 74
0
 49
-0.318
 74
0
  0
LTYPE
  5
32
330
2
100
AcDbSymbolTableRecord
100
AcDbLinetypeTableRecord
  2
DASHED
 70
0
  3
Dashed __ __ __ __ __ __ __ __ __ __ __ __ __ _
 72
65
 73
2
 40
1.524
 49
1.27
 74
0
 49
-0.254
 74
0
  0
LTYPE
  5
33
330
2
100
AcDbSymbolTableRecord
100
AcDbLinetypeTableRecord
  2
DASHEDX2
 70
0
  3
Dashed (2x) ____  ____  ____  ____  ____  ____
 72
65
 73
2
 40
3.048
 49
2.54
 74
0
 49
-0.508
 74
0
  0
LTYPE
  5
34
330
2
100
AcDbSymbolTableRecord
100
AcDbLinetypeTableRecord
  2
DASHED2
 70
0
  3
Dashed (.5x) _ _ _ _ _ _ _ _ _ _ _ _ _ _
 72
65
 73
2
 40
0.762
 49
0.635
 74
0
 49
-0.127
 74
0
  0
LTYPE
  5
35
330
2
100
AcDbSymbolTableRecord
100
AcDbLinetypeTableRecord
  2
PHANTOM
 70
0
  3
Phantom ______  __  __  ______  __  __  ______
 72
65
 73
6
 40
6.35
 49
3.175
 74
0
 49
-0.635
 74
0
 49
0.635
 74
0
 49
-0.635
 74
0
 49
0.635
 74
0
 49
-0.635
 74
0
  0
LTYPE
  5
36
330
2
100
AcDbSymbolTableRecord
100
AcDbLinetypeTableRecord
  2
PHANTOMX2
 70
0
  3
Phantom (2x)____________    ____    ____    ____________
 72
65
 73
6
 40
10.795
 49
6.35
 74
0
 49
-0.635
 74
0
 49
1.27
 74
0
 49
-0.635
 74
0
 49
1.27
 74
0
 49
-0.635
 74
0
  0
LTYPE
  5
37
330
2
100
AcDbSymbolTableRecord
100
AcDbLinetypeTableRecord
  2
PHANTOM2
 70
0
  3
Phantom (.5x) ___ _ _ ___ _ _ ___ _ _ ___ _ _ ___
 72
65
 73
6
 40
3.175
 49
1.587
 74
0
 49
-0.318
 74
0
 49
0.318
 74
0
 49
-0.318
 74
0
 49
0.318
 74
0
 49
-0.318
 74
0
  0
LTYPE
  5
38
330
2
100
AcDbSymbolTableRecord
100
AcDbLinetypeTableRecord
  2
DASHDOT
 70
0
  3
Dash dot __ . __ . __ . __ . __ . __ . __ . __
 72
65
 73
4
 40
3.556
 49
2.54
 74
0
 49
-0.508
 74
0
 49
0.0
 74
0
 49
-0.508
 74
0
  0
LTYPE
  5
39
330
2
100
AcDbSymbolTableRecord
100
AcDbLinetypeTableRecord
  2
DASHDOTX2
 70
0
  3
Dash dot (2x) ____  .  ____  .  ____  .  ____
 72
65
 73
4
 40
6.096
 49
5.08
 74
0
 49
-0.508
 74
0
 49
0.0
 74
0
 49
-0.508
 74
0
  0
LTYPE
  5
3A
330
2
100
AcDbSymbolTableRecord
100
AcDbLinetypeTableRecord
  2
DASHDOT2
 70
0
  3
Dash dot (.5x) _ . _ . _ . _ . _ . _ . _ . _
 72
65
 73
4
 40
1.778
 49
1.27
 74
0
 49
-0.254
 74
0
 49
0.0
 74
0
 49
-0.254
 74
0
  0
LTYPE
  5
3B
330
2
100
AcDbSymbolTableRecord
100
AcDbLinetypeTableRecord
  2
DOT
 70
0
  3
Dot .  .  .  .  .  .  .  .  .  .  .  .  .  .  .  .
 72
65
 73
2
 40
0.508
 49
0.0
 74
0
 49
-0.508
 74
0
  0
LTYPE
  5
3C
330
2
100
AcDbSymbolTableRecord
100
AcDbLinetypeTableRecord
  2
DOTX2
 70
0
  3
Dot (2x) .    .    .    .    .    .    .    . 
 72
65
 73
2
 40
1.016
 49
0.0
 74
0
 49
-1.016
 74
0
  0
LTYPE
  5
3D
330
2
100
AcDbSymbolTableRecord
100
AcDbLinetypeTableRecord
  2
DOT2
 70
0
  3
Dot (.5) . . . . . . . . . . . . . . . . . . . 
 72
65
 73
2
 40
0.254
 49
0.0
 74
0
 49
-0.254
 74
0
  0
LTYPE
  5
3E
330
2
100
AcDbSymbolTableRecord
100
AcDbLinetypeTableRecord
  2
DIVIDE
 70
0
  3
Divide __ . . __ . . __ . . __ . . __ . . __
 72
65
 73
6
 40
4.064
 49
2.54
 74
0
 49
-0.508
 74
0
 49
0.0
 74
0
 49
-0.508
 74
0
 49
0.0
 74
0
 49
-0.508
 74
0
  0
LTYPE
  5
3F
330
2
100
AcDbSymbolTableRecord
100
AcDbLinetypeTableRecord
  2
DIVIDEX2
 70
0
  3
Divide (2x) ____  . .  ____  . .  ____  . .  ____
 72
65
 73
6
 40
6.604
 49
5.08
 74
0
 49
-0.508
 74
0
 49
0.0
 74
0
 49
-0.508
 74
0
 49
0.0
 74
0
 49
-0.508
 74
0
  0
LTYPE
  5
40
330
2
100
AcDbSymbolTableRecord
100
AcDbLinetypeTableRecord
  2
DIVIDE2
 70
0
  3
Divide(.5x) _ . _ . _ . _ . _ . _ . _ . _
 72
65
 73
6
 40
2.032
 49
1.27
 74
0
 49
-0.254
 74
0
 49
0.0
 74
0
 49
-0.254
 74
0
 49
0.0
 74
0
 49
-0.254
 74
0
  0
ENDTAB
  0
TABLE
  2
LAYER
  5
1
330
0
100
AcDbSymbolTable
 70
13
  0
LAYER
  5
27
330
1
100
AcDbSymbolTableRecord
100
AcDbLayerTableRecord
  2
0
 70
0
 62
7
  6
Continuous
370
-3
390
13
347
21
  0
LAYER
  5
28
330
1
100
AcDbSymbolTableRecord
100
AcDbLayerTableRecord
  2
Defpoints
 70
0
 62
7
  6
Continuous
290
0
370
-3
390
13
347
21
  0
LAYER
  5
8A
330
1
100
AcDbSymbolTableRecord
100
AcDbLayerTableRecord
  2
EDGE_CUTS
 70
0
 62
7
  6
Continuous
370
-3
390
13
347
21
  0
LAYER
  5
8B
330
1
100
AcDbSymbolTableRecord
100
AcDbLayerTableRecord
  2
HOLES
 70
0
 62
2
  6
Continuous
370
-3
390
13
347
21
  0
LAYER
  5
8C
330
1
100
AcDbSymbolTableRecord
100
AcDbLayerTableRecord
  2
OUTER_SHELL
 70
0
 62
8
  6
Continuous
370
-3
390
13
347
21
  0
LAYER
  5
8D
330
1
100
AcDbSymbolTableRecord
100
AcDbLayerTableRecord
  2
WINDOW
 70
0
 62
6
  6
Continuous
370
-3
390
13
347
21
  0
LAYER
  5
8E
330
1
100
AcDbSymbolTableRecord
100
AcDbLayerTableRecord
  2
EPAPER
 70
0
 62
30
  6
Continuous
370
-3
390
13
347
21
  0
LAYER
  5
8F
330
1
100
AcDbSymbolTableRecord
100
AcDbLayerTableRecord
  2
CAMERA
 70
0
 62
1
  6
Continuous
370
-3
390
13
347
21
  0
LAYER
  5
90
330
1
100
AcDbSymbolTableRecord
100
AcDbLayerTableRecord
  2
MAGNET
 70
0
 62
3
  6
Continuous
370
-3
390
13
347
21
  0
LAYER
  5
91
330
1
100
AcDbSymbolTableRecord
100
AcDbLayerTableRecord
  2
BATTERY
 70
0
 62
140
  6
Continuous
370
-3
390
13
347
21
  0
LAYER
  5
92
330
1
100
AcDbSymbolTableRecord
100
AcDbLayerTableRecord
  2
KEYPADS
 70
0
 62
4
  6
Continuous
370
-3
390
13
347
21
  0
LAYER
  5
93
330
1
100
AcDbSymbolTableRecord
100
AcDbLayerTableRecord
  2
BACK_PINS
 70
0
 62
5
  6
Continuous
370
-3
390
13
347
21
  0
LAYER
  5
94
330
1
100
AcDbSymbolTableRecord
100
AcDbLayerTableRecord
  2
VERIFY
 70
0
 62
1
  6
Continuous
370
-3
390
13
347
21
  0
ENDTAB
  0
TABLE
  2
STYLE
  5
5
330
0
100
AcDbSymbolTable
 70
26
  0
STYLE
  5
29
330
5
100
AcDbSymbolTableRecord
100
AcDbTextStyleTableRecord
  2
Standard
 70
0
 40
0.0
 41
1.0
 50
0.0
 71
0
 42
2.5
  3
txt
  4

  0
STYLE
  5
41
330
5
100
AcDbSymbolTableRecord
100
AcDbTextStyleTableRecord
  2
OpenSans-Light
 70
0
 40
0.0
 41
1.0
 50
0.0
 71
0
 42
2.5
  3
OpenSans-Light.ttf
  4

  0
STYLE
  5
42
330
5
100
AcDbSymbolTableRecord
100
AcDbTextStyleTableRecord
  2
OpenSans-Light-Italic
 70
0
 40
0.0
 41
1.0
 50
0.0
 71
0
 42
2.5
  3
OpenSans-LightItalic.ttf
  4

  0
STYLE
  5
43
330
5
100
AcDbSymbolTableRecord
100
AcDbTextStyleTableRecord
  2
OpenSans
 70
0
 40
0.0
 41
1.0
 50
0.0
 71
0
 42
2.5
  3
OpenSans-Regular.ttf
  4

  0
STYLE
  5
44
330
5
100
AcDbSymbolTableRecord
100
AcDbTextStyleTableRecord
  2
OpenSans-Italic
 70
0
 40
0.0
 41
1.0
 50
0.0
 71
0
 42
2.5
  3
OpenSans-Italic.ttf
  4

  0
STYLE
  5
45
330
5
100
AcDbSymbolTableRecord
100
AcDbTextStyleTableRecord
  2
OpenSans-SemiBold
 70
0
 40
0.0
 41
1.0
 50
0.0
 71
0
 42
2.5
  3
OpenSans-SemiBold.ttf
  4

  0
STYLE
  5
46
330
5
100
AcDbSymbolTableRecord
100
AcDbTextStyleTableRecord
  2
OpenSans-SemiBoldItalic
 70
0
 40
0.0
 41
1.0
 50
0.0
 71
0
 42
2.5
  3
OpenSans-SemiBoldItalic.ttf
  4

  0
STYLE
  5
47
330
5
100
AcDbSymbolTableRecord
100
AcDbTextStyleTableRecord
  2
OpenSans-Bold
 70
0
 40
0.0
 41
1.0
 50
0.0
 71
0
 42
2.5
  3
OpenSans-Bold.ttf
  4

  0
STYLE
  5
48
330
5
100
AcDbSymbolTableRecord
100
AcDbTextStyleTableRecord
  2
OpenSans-BoldItalic
 70
0
 40
0.0
 41
1.0
 50
0.0
 71
0
 42
2.5
  3
OpenSans-BoldItalic.ttf
  4

  0
STYLE
  5
49
330
5
100
AcDbSymbolTableRecord
100
AcDbTextStyleTableRecord
  2
OpenSans-ExtraBold
 70
0
 40
0.0
 41
1.0
 50
0.0
 71
0
 42
2.5
  3
OpenSans-ExtraBold.ttf
  4

  0
STYLE
  5
4A
330
5
100
AcDbSymbolTableRecord
100
AcDbTextStyleTableRecord
  2
OpenSans-ExtraBoldItalic
 70
0
 40
0.0
 41
1.0
 50
0.0
 71
0
 42
2.5
  3
OpenSans-ExtraBoldItalic.ttf
  4

  0
STYLE
  5
4B
330
5
100
AcDbSymbolTableRecord
100
AcDbTextStyleTableRecord
  2
OpenSansCondensed-Bold
 70
0
 40
0.0
 41
1.0
 50
0.0
 71
0
 42
2.5
  3
OpenSansCondensed-Bold.ttf
  4

  0
STYLE
  5
4C
330
5
100
AcDbSymbolTableRecord
100
AcDbTextStyleTableRecord
  2
OpenSansCondensed-Light
 70
0
 40
0.0
 41
1.0
 50
0.0
 71
0
 42
2.5
  3
OpenSansCondensed-Light.ttf
  4

  0
STYLE
  5
4D
330
5
100
AcDbSymbolTableRecord
100
AcDbTextStyleTableRecord
  2
OpenSansCondensed-Italic
 70
0
 40
0.0
 41
1.0
 50
0.0
 71
0
 42
2.5
  3
OpenSansCondensed-LightItalic.ttf
  4

  0
STYLE
  5
4E
330
5
100
AcDbSymbolTableRecord
100
AcDbTextStyleTableRecord
  2
LiberationSans
 70
0
 40
0.0
 41
1.0
 50
0.0
 71
0
 42
2.5
  3
LiberationSans-Regular.ttf
  4

  0
STYLE
  5
4F
330
5
100
AcDbSymbolTableRecord
100
AcDbTextStyleTableRecord
  2
LiberationSans-Bold
 70
0
 40
0.0
 41
1.0
 50
0.0
 71
0
 42
2.5
  3
LiberationSans-Bold.ttf
  4

  0
STYLE
  5
50
330
5
100
AcDbSymbolTableRecord
100
AcDbTextStyleTableRecord
  2
LiberationSans-BoldItalic
 70
0
 40
0.0
 41
1.0
 50
0.0
 71
0
 42
2.5
  3
LiberationSans-BoldItalic.ttf
  4

  0
STYLE
  5
51
330
5
100
AcDbSymbolTableRecord
100
AcDbTextStyleTableRecord
  2
LiberationSans-Italic
 70
0
 40
0.0
 41
1.0
 50
0.0
 71
0
 42
2.5
  3
LiberationSans-Italic.ttf
  4

  0
STYLE
  5
52
330
5
100
AcDbSymbolTableRecord
100
AcDbTextStyleTableRecord
  2
LiberationSerif
 70
0
 40
0.0
 41
1.0
 50
0.0
 71
0
 42
2.5
  3
LiberationSerif-Regular.ttf
  4

  0
STYLE
  5
53
330
5
100
AcDbSymbolTableRecord
100
AcDbTextStyleTableRecord
  2
LiberationSerif-Bold
 70
0
 40
0.0
 41
1.0
 50
0.0
 71
0
 42
2.5
  3
LiberationSerif-Bold.ttf
  4

  0
STYLE
  5
54
330
5
100
AcDbSymbolTableRecord
100
AcDbTextStyleTableRecord
  2
LiberationSerif-BoldItalic
 70
0
 40
0.0
 41
1.0
 50
0.0
 71
0
 42
2.5
  3
LiberationSerif-BoldItalic.ttf
  4

  0
STYLE
  5
55
330
5
100
AcDbSymbolTableRecord
100
AcDbTextStyleTableRecord
  2
LiberationSerif-Italic
 70
0
 40
0.0
 41
1.0
 50
0.0
 71
0
 42
2.5
  3
LiberationSerif-Italic.ttf
  4

  0
STYLE
  5
56
330
5
100
AcDbSymbolTableRecord
100
AcDbTextStyleTableRecord
  2
LiberationMono
 70
0
 40
0.0
 41
1.0
 50
0.0
 71
0
 42
2.5
  3
LiberationMono-Regular.ttf
  4

  0
STYLE
  5
57
330
5
100
AcDbSymbolTableRecord
100
AcDbTextStyleTableRecord
  2
LiberationMono-Bold
 70
0
 40
0.0
 41
1.0
 50
0.0
 71
0
 42
2.5
  3
LiberationMono-Bold.ttf
  4

  0
STYLE
  5
58
330
5
100
AcDbSymbolTableRecord
100
AcDbTextStyleTableRecord
  2
LiberationMono-BoldItalic
 70
0
 40
0.0
 41
1.0
 50
0.0
 71
0
 42
2.5
  3
LiberationMono-BoldItalic.ttf
  4

  0
STYLE
  5
59
330
5
100
AcDbSymbolTableRecord
100
AcDbTextStyleTableRecord
  2
LiberationMono-Italic
 70
0
 40
0.0
 41
1.0
 50
0.0
 71
0
 42
2.5
  3
LiberationMono-Italic.ttf
  4

  0
ENDTAB
  0
TABLE
  2
VIEW
  5
7
330
0
100
AcDbSymbolTable
 70
0
  0
ENDTAB
  0
TABLE
  2
UCS
  5
6
330
0
100
AcDbSymbolTable
 70
0
  0
ENDTAB
  0
TABLE
  2
APPID
  5
3
330
0
100
AcDbSymbolTable
 70
3
  0
APPID
  5
2A
330
3
100
AcDbSymbolTableRecord
100
AcDbRegAppTableRecord
  2
ACAD
 70
0
  0
APPID
  5
113
330
3
100
AcDbSymbolTableRecord
100
AcDbRegAppTableRecord
  2
HATCHBACKGROUNDCOLOR
 70
0
  0
APPID
  5
114
330
3
100
AcDbSymbolTableRecord
100
AcDbRegAppTableRecord
  2
EZDXF
 70
0
  0
ENDTAB
  0
TABLE
  2
DIMSTYLE
  5
4
330
0
100
AcDbSymbolTable
 70
12
100
AcDbDimStyleTable
  0
DIMSTYLE
105
2B
330
4
100
AcDbSymbolTableRecord
100
AcDbDimStyleTableRecord
  2
Standard
 70
0
 40
1.0
 41
2.5
 42
0.625
 43
3.75
 44
1.25
 45
0.0
 46
0.0
 47
0.0
 48
0.0
 49
2.5
140
2.5
141
2.5
142
0.0
143
0.03937007874
144
1.0
145
0.0
146
1.0
147
0.625
148
0.0
 69
0
 70
0
 71
0
 72
0
 73
0
 74
0
 75
0
 76
0
 77
1
 78
8
 79
3
170
0
171
3
172
1
173
0
174
0
175
0
176
0
177
0
178
0
179
2
271
2
272
2
273
2
274
3
275
0
276
0
277
2
278
44
279
0
280
0
281
0
282
0
283
0
284
8
285
0
286
0
288
0
289
3
290
0
371
-2
372
-2
  0
DIMSTYLE
105
73
330
4
100
AcDbSymbolTableRecord
100
AcDbDimStyleTableRecord
  2
EZDXF
 70
0
 40
1.0
 41
0.175
 42
0.125
 43
3.75
 44
0.375
 45
0.0
 46
0.0
 47
0.0
 48
0.0
 49
2.5
140
0.25
141
2.5
142
0.0
143
0.03937007874
144
100.0
145
0.0
146
0.5
147
0.1
148
0.0
 69
0
 70
0
 71
0
 72
0
 73
0
 74
0
 75
0
 76
0
 77
1
 78
12
 79
3
170
0
171
3
172
1
173
0
174
0
175
0
176
0
177
0
178
0
179
2
271
2
272
2
273
2
274
3
275
0
276
0
277
2
278
46
279
2
280
0
281
0
282
0
283
0
284
8
285
0
286
0
288
1
289
3
290
0
340
4C
342
74
371
-2
372
-2
  0
DIMSTYLE
105
7C
330
4
100
AcDbSymbolTableRecord
100
AcDbDimStyleTableRecord
  2
EZ_M_100_H25_CM
 70
0
 40
1.0
 41
0.25
 42
0.125
 43
3.75
 44
0.375
 45
0.0
 46
0.0
 47
0.0
 48
0.0
 49
2.5
140
0.25
141
2.5
142
0.125
143
0.03937007874
144
100.0
145
0.0
146
0.5
147
0.1
148
0.0
 69
0
 70
0
 71
0
 72
0
 73
0
 74
0
 75
0
 76
0
 77
1
 78
12
 79
3
170
0
171
3
172
1
173
0
174
0
175
0
176
0
177
0
178
0
179
2
271
2
272
2
273
2
274
3
275
0
276
0
277
2
278
46
279
2
280
0
281
0
282
0
283
0
284
8
285
0
286
0
288
1
289
3
290
0
340
4C
371
-2
372
-2
  0
DIMSTYLE
105
7D
330
4
100
AcDbSymbolTableRecord
100
AcDbDimStyleTableRecord
  2
EZ_M_50_H25_CM
 70
0
 40
1.0
 41
0.125
 42
0.0625
 43
3.75
 44
0.1875
 45
0.0
 46
0.0
 47
0.0
 48
0.0
 49
2.5
140
0.125
141
2.5
142
0.0625
143
0.03937007874
144
100.0
145
0.0
146
0.5
147
0.05
148
0.0
 69
0
 70
0
 71
0
 72
0
 73
0
 74
0
 75
0
 76
0
 77
1
 78
12
 79
3
170
0
171
3
172
1
173
0
174
0
175
0
176
0
177
0
178
0
179
2
271
2
272
2
273
2
274
3
275
0
276
0
277
2
278
46
279
2
280
0
281
0
282
0
283
0
284
8
285
0
286
0
288
1
289
3
290
0
340
4C
371
-2
372
-2
  0
DIMSTYLE
105
7E
330
4
100
AcDbSymbolTableRecord
100
AcDbDimStyleTableRecord
  2
EZ_M_25_H25_CM
 70
0
 40
1.0
 41
0.0625
 42
0.03125
 43
3.75
 44
0.09375
 45
0.0
 46
0.0
 47
0.0
 48
0.0
 49
2.5
140
0.0625
141
2.5
142
0.03125
143
0.03937007874
144
100.0
145
0.0
146
0.5
147
0.025
148
0.0
 69
0
 70
0
 71
0
 72
0
 73
0
 74
0
 75
0
 76
0
 77
1
 78
12
 79
3
170
0
171
3
172
1
173
0
174
0
175
0
176
0
177
0
178
0
179
2
271
2
272
2
273
2
274
3
275
0
276
0
277
2
278
46
279
2
280
0
281
0
282
0
283
0
284
8
285
0
286
0
288
1
289
3
290
0
340
4C
371
-2
372
-2
  0
DIMSTYLE
105
7F
330
4
100
AcDbSymbolTableRecord
100
AcDbDimStyleTableRecord
  2
EZ_M_20_H25_CM
 70
0
 40
1.0
 41
0.05
 42
0.025
 43
3.75
 44
0.07500000000000001
 45
0.0
 46
0.0
 47
0.0
 48
0.0
 49
2.5
140
0.05
141
2.5
142
0.025
143
0.03937007874
144
100.0
145
0.0
146
0.5
147
0.020000000000000004
148
0.0
 69
0
 70
0
 71
0
 72
0
 73
0
 74
0
 75
0
 76
0
 77
1
 78
12
 79
3
170
0
171
3
172
1
173
0
174
0
175
0
176
0
177
0
178
0
179
2
271
2
272
2
273
2
274
3
275
0
276
0
277
2
278
46
279
2
280
0
281
0
282
0
283
0
284
8
285
0
286
0
288
1
289
3
290
0
340
4C
371
-2
372
-2
  0
DIMSTYLE
105
80
330
4
100
AcDbSymbolTableRecord
100
AcDbDimStyleTableRecord
  2
EZ_M_10_H25_CM
 70
0
 40
1.0
 41
0.025
 42
0.0125
 43
3.75
 44
0.037500000000000006
 45
0.0
 46
0.0
 47
0.0
 48
0.0
 49
2.5
140
0.025
141
2.5
142
0.0125
143
0.03937007874
144
100.0
145
0.0
146
0.5
147
0.010000000000000002
148
0.0
 69
0
 70
0
 71
0
 72
0
 73
0
 74
0
 75
0
 76
0
 77
1
 78
12
 79
3
170
0
171
3
172
1
173
0
174
0
175
0
176
0
177
0
178
0
179
2
271
2
272
2
273
2
274
3
275
0
276
0
277
2
278
46
279
2
280
0
281
0
282
0
283
0
284
8
285
0
286
0
288
1
289
3
290
0
340
4C
371
-2
372
-2
  0
DIMSTYLE
105
81
330
4
100
AcDbSymbolTableRecord
100
AcDbDimStyleTableRecord
  2
EZ_M_5_H25_CM
 70
0
 40
1.0
 41
0.0125
 42
0.00625
 43
3.75
 44
0.018750000000000003
 45
0.0
 46
0.0
 47
0.0
 48
0.0
 49
2.5
140
0.0125
141
2.5
142
0.00625
143
0.03937007874
144
100.0
145
0.0
146
0.5
147
0.005000000000000001
148
0.0
 69
0
 70
0
 71
0
 72
0
 73
0
 74
0
 75
0
 76
0
 77
1
 78
12
 79
3
170
0
171
3
172
1
173
0
174
0
175
0
176
0
177
0
178
0
179
2
271
2
272
2
273
2
274
3
275
0
276
0
277
2
278
46
279
2
280
0
281
0
282
0
283
0
284
8
285
0
286
0
288
1
289
3
290
0
340
4C
371
-2
372
-2
  0
DIMSTYLE
105
82
330
4
100
AcDbSymbolTableRecord
100
AcDbDimStyleTableRecord
  2
EZ_M_1_H25_CM
 70
0
 40
1.0
 41
0.0025
 42
0.00125
 43
3.75
 44
0.00375
 45
0.0
 46
0.0
 47
0.0
 48
0.0
 49
2.5
140
0.0025
141
2.5
142
0.00125
143
0.03937007874
144
100.0
145
0.0
146
0.5
147
0.001
148
0.0
 69
0
 70
0
 71
0
 72
0
 73
0
 74
0
 75
0
 76
0
 77
1
 78
12
 79
3
170
0
171
3
172
1
173
0
174
0
175
0
176
0
177
0
178
0
179
2
271
2
272
2
273
2
274
3
275
0
276
0
277
2
278
46
279
2
280
0
281
0
282
0
283
0
284
8
285
0
286
0
288
1
289
3
290
0
340
4C
371
-2
372
-2
  0
DIMSTYLE
105
83
330
4
100
AcDbSymbolTableRecord
100
AcDbDimStyleTableRecord
  2
EZ_RADIUS
 70
0
 40
1.0
 41
0.25
 42
0.125
 43
3.75
 44
0.375
 45
0.0
 46
0.0
 47
0.0
 48
0.0
 49
2.5
140
0.25
141
0.0
142
0.0
143
0.03937007874
144
100.0
145
0.0
146
0.5
147
0.1
148
0.0
 69
0
 70
0
 71
0
 72
0
 73
0
 74
0
 75
0
 76
0
 77
1
 78
12
 79
3
170
0
171
3
172
0
173
0
174
0
175
0
176
0
177
0
178
0
179
2
271
2
272
2
273
2
274
3
275
0
276
0
277
2
278
46
279
1
280
0
281
0
282
0
283
0
284
8
285
0
286
0
288
1
289
3
290
0
340
4C
342
84
371
-2
372
-2
  0
DIMSTYLE
105
88
330
4
100
AcDbSymbolTableRecord
100
AcDbDimStyleTableRecord
  2
EZ_RADIUS_INSIDE
 70
0
 40
1.0
 41
0.25
 42
0.125
 43
3.75
 44
0.375
 45
0.0
 46
0.0
 47
0.0
 48
0.0
 49
2.5
140
0.25
141
0.0
142
0.0
143
0.03937007874
144
100.0
145
0.0
146
0.5
147
0.1
148
0.0
 69
0
 70
0
 71
0
 72
0
 73
0
 74
0
 75
0
 76
0
 77
0
 78
12
 79
3
170
0
171
3
172
0
173
0
174
1
175
0
176
0
177
0
178
0
179
2
271
2
272
2
273
2
274
3
275
0
276
0
277
2
278
46
279
0
280
0
281
0
282
0
283
0
284
8
285
0
286
0
288
1
289
0
290
0
340
4C
342
84
371
-2
372
-2
  0
DIMSTYLE
105
89
330
4
100
AcDbSymbolTableRecord
100
AcDbDimStyleTableRecord
  2
EZ_CURVED
 70
0
 40
1.0
 41
0.25
 42
0.125
 43
3.75
 44
0.375
 45
0.0
 46
0.0
 47
0.0
 48
0.0
 49
2.5
140
0.25
141
2.5
142
0.0
143
0.03937007874
144
100.0
145
0.0
146
0.5
147
0.1
148
0.0
 69
0
 70
0
 71
0
 72
0
 73
0
 74
0
 75
0
 76
0
 77
1
 78
12
 79
2
 90
2
170
0
171
3
172
1
173
0
174
0
175
0
176
0
177
0
178
0
179
2
271
2
272
2
273
2
274
3
275
0
276
0
277
2
278
46
279
2
280
0
281
0
282
0
283
0
284
8
285
0
286
0
288
1
289
3
290
0
340
4C
371
-2
372
-2
  0
ENDTAB
  0
TABLE
  2
BLOCK_RECORD
  5
9
330
0
100
AcDbSymbolTable
 70
5
  0
BLOCK_RECORD
  5
17
330
9
100
AcDbSymbolTableRecord
100
AcDbBlockTableRecord
  2
*Model_Space
340
1A
 70
0
280
1
281
0
  0
BLOCK_RECORD
  5
1B
330
9
100
AcDbSymbolTableRecord
100
AcDbBlockTableRecord
  2
*Paper_Space
340
1E
 70
0
280
1
281
0
  0
BLOCK_RECORD
  5
74
330
9
100
AcDbSymbolTableRecord
100
AcDbBlockTableRecord
  2
_ARCHTICK
340
0
 70
0
280
1
281
0
  0
BLOCK_RECORD
  5
78
330
9
100
AcDbSymbolTableRecord
100
AcDbBlockTableRecord
  2
_CLOSEDFILLED
340
0
 70
0
280
1
281
0
  0
BLOCK_RECORD
  5
84
330
9
100
AcDbSymbolTableRecord
100
AcDbBlockTableRecord
  2
_CLOSEDBLANK
340
0
 70
0
280
1
281
0
  0
ENDTAB
  0
ENDSEC
  0
SECTION
  2
BLOCKS
  0
BLOCK
  5
18
330
17
100
AcDbEntity
  8
0
100
AcDbBlockBegin
  2
*Model_Space
 70
0
 10
0.0
 20
0.0
 30
0.0
  3
*Model_Space
  1

  0
ENDBLK
  5
19
330
17
100
AcDbEntity
  8
0
100
AcDbBlockEnd
  0
BLOCK
  5
1C
330
1B
100
AcDbEntity
  8
0
100
AcDbBlockBegin
  2
*Paper_Space
 70
0
 10
0.0
 20
0.0
 30
0.0
  3
*Paper_Space
  1

  0
ENDBLK
  5
1D
330
1B
100
AcDbEntity
  8
0
100
AcDbBlockEnd
  0
BLOCK
  5
75
330
74
100
AcDbEntity
  8
0
100
AcDbBlockBegin
  2
_ARCHTICK
 70
0
 10
0.0
 20
0.0
 30
0.0
  3
_ARCHTICK
  1

  0
LWPOLYLINE
  5
77
330
74
100
AcDbEntity
  8
0
  6
BYBLOCK
 62
0
100
AcDbPolyline
 90
2
 70
0
 43
0.15
 10
-0.5
 20
-0.5
 10
0.5
 20
0.5
  0
ENDBLK
  5
76
330
74
100
AcDbEntity
  8
0
100
AcDbBlockEnd
  0
BLOCK
  5
79
330
78
100
AcDbEntity
  8
0
100
AcDbBlockBegin
  2
_CLOSEDFILLED
 70
0
 10
0.0
 20
0.0
 30
0.0
  3
_CLOSEDFILLED
  1

  0
SOLID
  5
7B
330
78
100
AcDbEntity
  8
0
  6
BYBLOCK
 62
0
100
AcDbTrace
 10
-1.0
 20
0.16439898372402537
 30
0.0
 11
0.0
 21
0.0
 31
0.0
 12
-1.0
 22
-0.16439898372402537
 32
0.0
 13
-1.0
 23
-0.16439898372402537
 33
0.0
  0
ENDBLK
  5
7A
330
78
100
AcDbEntity
  8
0
100
AcDbBlockEnd
  0
BLOCK
  5
85
330
84
100
AcDbEntity
  8
0
100
AcDbBlockBegin
  2
_CLOSEDBLANK
 70
0
 10
0.0
 20
0.0
 30
0.0
  3
_CLOSEDBLANK
  1

  0
LWPOLYLINE
  5
87
330
84
100
AcDbEntity
  8
0
  6
BYBLOCK
 62
0
100
AcDbPolyline
 90
3
 70
1
 10
-1.0
 20
0.16439898372402537
 10
0.0
 20
0.0
 10
-1.0
 20
-0.16439898372402537
  0
ENDBLK
  5
86
330
84
100
AcDbEntity
  8
0
100
AcDbBlockEnd
  0
ENDSEC
  0
SECTION
  2
ENTITIES
  0
LWPOLYLINE
  5
95
330
17
100
AcDbEntity
  8
EDGE_CUTS
100
AcDbPolyline
 90
97
 70
1
 10
113.865
 20
-95.404
 10
113.841
 20
-115.099
 10
113.998
 20
-117.841
 10
114.212
 20
-119.588
 10
114.613
 20
-120.92
 10
115.326
 20
-127.821
 10
117.073
 20
-139.697
 10
117.93
 20
-142.111
 10
117.932
 20
-205.743
 10
118.147
 20
-207.194
 10
118.523
 20
-208.1
 10
119.067
 20
-208.915
 10
119.76
 20
-209.608
 10
120.575
 20
-210.152
 10
121.481
 20
-210.527
 10
122.932
 20
-210.743
 10
126.572
 20
-210.743
 10
126.549
 20
-209.807
 10
126.702
 20
-209.038
 10
127.204
 20
-207.976
 10
127.701
 20
-207.37
 10
128.999
 20
-206.503
 10
129.749
 20
-206.276
 10
130.922
 20
-206.218
 10
132.415
 20
-206.671
 10
133.622
 20
-207.661
 10
134.358
 20
-209.038
 10
134.511
 20
-209.807
 10
134.488
 20
-210.743
 10
165.554
 20
-210.743
 10
165.47
 20
-209.934
 10
165.547
 20
-209.153
 10
165.775
 20
-208.403
 10
166.378
 20
-207.396
 10
166.933
 20
-206.842
 10
167.939
 20
-206.238
 10
169.47
 20
-205.934
 10
171.001
 20
-206.238
 10
172.008
 20
-206.842
 10
172.562
 20
-207.396
 10
173.166
 20
-208.403
 10
173.393
 20
-209.153
 10
173.47
 20
-209.934
 10
173.386
 20
-210.743
 10
177.557
 20
-210.719
 10
178.518
 20
-210.528
 10
179.424
 20
-210.153
 10
180.603
 20
-209.279
 10
181.224
 20
-208.521
 10
181.852
 20
-207.195
 10
182.043
 20
-206.234
 10
182.07
 20
-142.111
 10
182.93
 20
-139.678
 10
183.747
 20
-134.473
 10
184.195
 20
-130.589
 10
184.671
 20
-127.85
 10
185.387
 20
-120.92
 10
185.858
 20
-119.17
 10
186.159
 20
-115.099
 10
186.159
 20
-95.894
 10
186.027
 20
-94.568
 10
186.026
 20
-87.417
 10
185.87
 20
-84.278
 10
185.5
 20
-81.383
 10
185.364
 20
-78.278
 10
149.096
 20
-78.24
 10
148.38
 20
-77.943
 10
147.948
 20
-77.552
 10
147.648
 20
-77.052
 10
147.506
 20
-76.486
 10
147.497
 20
-61.987
 10
135.979
 20
-61.987
 10
134.207
 20
-62.248
 10
127.769
 20
-62.52
 10
122.521
 20
-62.872
 10
121.069
 20
-63.104
 10
119.685
 20
-63.641
 10
118.221
 20
-64.823
 10
117.048
 20
-65.481
 10
116.418
 20
-66.007
 10
117.34
 20
-66.064
 10
117.903
 20
-66.235
 10
118.658
 20
-66.688
 10
119.249
 20
-67.34
 10
119.626
 20
-68.136
 10
119.755
 20
-69.007
 10
119.626
 20
-69.877
 10
119.249
 20
-70.673
 10
118.422
 20
-71.501
 10
117.626
 20
-71.877
 10
116.755
 20
-72.007
 10
114.768
 20
-72.007
 10
114.633
 20
-79.528
 10
114.13
 20
-84.278
 10
113.974
 20
-87.417
 10
113.973
 20
-94.568
 10
113.865
 20
-95.404
  0
LWPOLYLINE
  5
96
330
17
100
AcDbEntity
  8
OUTER_SHELL
100
AcDbPolyline
 90
83
 70
1
 10
134.106
 20
-60.132
 10
134.106
 20
-60.397
 10
121.788
 20
-61.06
 10
118.477
 20
-61.325
 10
117.417
 20
-61.589
 10
117.152
 20
-61.854
 10
117.152
 20
-63.311
 10
115.033
 20
-63.444
 10
114.768
 20
-63.709
 10
113.841
 20
-65.166
 10
113.841
 20
-65.563
 10
113.576
 20
-65.695
 10
113.046
 20
-67.55
 10
112.781
 20
-79.47
 10
112.119
 20
-86.225
 10
111.987
 20
-116.291
 10
112.252
 20
-120.132
 10
112.781
 20
-121.192
 10
113.444
 20
-128.477
 10
113.974
 20
-130.861
 10
114.636
 20
-136.821
 10
115.033
 20
-138.278
 10
115.166
 20
-140.927
 10
115.828
 20
-144.901
 10
116.225
 20
-149.536
 10
116.623
 20
-167.682
 10
117.02
 20
-176.689
 10
116.887
 20
-181.589
 10
117.152
 20
-187.285
 10
117.152
 20
-201.06
 10
117.285
 20
-204.636
 10
117.55
 20
-205.96
 10
118.212
 20
-207.947
 10
119.007
 20
-209.404
 10
119.669
 20
-210.331
 10
121.788
 20
-212.318
 10
125.762
 20
-214.437
 10
128.411
 20
-215.232
 10
132.781
 20
-216.159
 10
137.682
 20
-216.954
 10
143.377
 20
-217.483
 10
143.377
 20
-217.748
 10
156.623
 20
-217.748
 10
156.623
 20
-217.483
 10
162.318
 20
-216.954
 10
171.589
 20
-215.232
 10
175.43
 20
-213.907
 10
177.815
 20
-212.583
 10
179.007
 20
-211.656
 10
180.331
 20
-210.331
 10
181.523
 20
-208.477
 10
182.318
 20
-206.49
 10
182.715
 20
-204.636
 10
182.848
 20
-187.285
 10
183.113
 20
-181.589
 10
182.98
 20
-176.689
 10
183.377
 20
-167.682
 10
183.775
 20
-149.536
 10
184.172
 20
-144.901
 10
184.834
 20
-140.927
 10
184.967
 20
-138.278
 10
185.364
 20
-136.821
 10
186.026
 20
-130.861
 10
186.556
 20
-128.477
 10
187.219
 20
-121.192
 10
187.748
 20
-120.132
 10
188.013
 20
-116.291
 10
187.881
 20
-86.225
 10
187.219
 20
-79.47
 10
187.086
 20
-70.199
 10
186.954
 20
-67.55
 10
186.689
 20
-66.358
 10
186.424
 20
-65.695
 10
186.159
 20
-65.563
 10
186.159
 20
-65.166
 10
184.967
 20
-63.444
 10
182.848
 20
-63.311
 10
182.848
 20
-61.854
 10
182.583
 20
-61.589
 10
181.523
 20
-61.325
 10
165.894
 20
-60.397
 10
165.894
 20
-60.132
 10
134.106
 20
-60.132
  0
CIRCLE
  5
97
330
17
100
AcDbEntity
  8
HOLES
100
AcDbCircle
 10
128.358
 20
-126.742
 30
0.0
 40
3.0
  0
CIRCLE
  5
98
330
17
100
AcDbEntity
  8
HOLES
100
AcDbCircle
 10
171.219
 20
-126.344
 30
0.0
 40
3.0
  0
CIRCLE
  5
99
330
17
100
AcDbEntity
  8
HOLES
100
AcDbCircle
 10
128.609
 20
-137.046
 30
0.0
 40
2.2
  0
CIRCLE
  5
9A
330
17
100
AcDbEntity
  8
HOLES
100
AcDbCircle
 10
171.457
 20
-136.795
 30
0.0
 40
2.2
  0
CIRCLE
  5
9B
330
17
100
AcDbEntity
  8
HOLES
100
AcDbCircle
 10
171.06
 20
-145.96
 30
0.0
 40
2.2
  0
CIRCLE
  5
9C
330
17
100
AcDbEntity
  8
HOLES
100
AcDbCircle
 10
128.675
 20
-155.497
 30
0.0
 40
2.2
  0
CIRCLE
  5
9D
330
17
100
AcDbEntity
  8
HOLES
100
AcDbCircle
 10
130.675
 20
-165.205
 30
0.0
 40
2.2
  0
CIRCLE
  5
9E
330
17
100
AcDbEntity
  8
HOLES
100
AcDbCircle
 10
169.325
 20
-164.874
 30
0.0
 40
2.2
  0
CIRCLE
  5
9F
330
17
100
AcDbEntity
  8
HOLES
100
AcDbCircle
 10
130.53
 20
-176.424
 30
0.0
 40
2.2
  0
CIRCLE
  5
A0
330
17
100
AcDbEntity
  8
HOLES
100
AcDbCircle
 10
169.47
 20
-176.159
 30
0.0
 40
2.2
  0
CIRCLE
  5
A1
330
17
100
AcDbEntity
  8
HOLES
100
AcDbCircle
 10
130.556
 20
-187.669
 30
0.0
 40
2.2
  0
CIRCLE
  5
A2
330
17
100
AcDbEntity
  8
HOLES
100
AcDbCircle
 10
169.325
 20
-187.364
 30
0.0
 40
2.2
  0
LWPOLYLINE
  5
A3
330
17
100
AcDbEntity
  8
WINDOW
100
AcDbPolyline
 90
4
 70
1
 10
121.368
 20
-86.056
 10
178.368
 20
-86.056
 10
178.368
 20
-107.056
 10
121.368
 20
-107.056
  0
LWPOLYLINE
  5
A4
330
17
100
AcDbEntity
  8
EPAPER
100
AcDbPolyline
 90
4
 70
1
 10
120.268
 20
-81.956
 10
179.468
 20
-81.956
 10
179.468
 20
-111.15599999999999
 10
120.268
 20
-111.15599999999999
  0
LWPOLYLINE
  5
A5
330
17
100
AcDbEntity
  8
EPAPER
100
AcDbPolyline
 90
4
 70
1
 10
125.59299999999999
 20
-84.706
 10
174.143
 20
-84.706
 10
174.143
 20
-108.40599999999999
 10
125.59299999999999
 20
-108.40599999999999
  0
CIRCLE
  5
A6
330
17
100
AcDbEntity
  8
CAMERA
100
AcDbCircle
 10
150.0
 20
-95.099
 30
0.0
 40
3.0
  0
LWPOLYLINE
  5
A7
330
17
100
AcDbEntity
  8
CAMERA
100
AcDbPolyline
 90
4
 70
1
 10
144.0
 20
-89.099
 10
156.0
 20
-89.099
 10
156.0
 20
-101.099
 10
144.0
 20
-101.099
  0
LWPOLYLINE
  5
A8
330
17
100
AcDbEntity
  8
MAGNET
100
AcDbPolyline
 90
4
 70
1
 10
125.25
 20
-60.0
 10
146.75
 20
-60.0
 10
146.75
 20
-67.5
 10
125.25
 20
-67.5
  0
LWPOLYLINE
  5
A9
330
17
100
AcDbEntity
  8
BATTERY
100
AcDbPolyline
 90
4
 70
1
 10
147.9
 20
-63.5
 10
178.9
 20
-63.5
 10
178.9
 20
-75.0
 10
147.9
 20
-75.0
  0
CIRCLE
  5
AA
330
17
100
AcDbEntity
  8
BACK_PINS
100
AcDbCircle
 10
122.583
 20
-85.033
 30
0.0
 40
2.5
  0
CIRCLE
  5
AB
330
17
100
AcDbEntity
  8
BACK_PINS
100
AcDbCircle
 10
149.47
 20
-85.563
 30
0.0
 40
2.5
  0
CIRCLE
  5
AC
330
17
100
AcDbEntity
  8
BACK_PINS
100
AcDbCircle
 10
176.358
 20
-85.563
 30
0.0
 40
2.5
  0
CIRCLE
  5
AD
330
17
100
AcDbEntity
  8
BACK_PINS
100
AcDbCircle
 10
124.967
 20
-112.45
 30
0.0
 40
2.5
  0
CIRCLE
  5
AE
330
17
100
AcDbEntity
  8
BACK_PINS
100
AcDbCircle
 10
174.636
 20
-112.45
 30
0.0
 40
2.5
  0
LWPOLYLINE
  5
AF
330
17
100
AcDbEntity
  8
KEYPADS
100
AcDbPolyline
 90
4
 70
1
 10
173.623
 20
-118.545
 10
179.623
 20
-118.545
 10
179.623
 20
-123.045
 10
173.623
 20
-123.045
  0
TEXT
  5
B0
330
17
100
AcDbEntity
  8
KEYPADS
100
AcDbText
 10
176.623
 20
-120.795
 30
0.0
 40
1.2
  1
SHIFT
 72
1
 11
176.623
 21
-120.795
 31
0.0
100
AcDbText
 73
2
  0
LWPOLYLINE
  5
B1
330
17
100
AcDbEntity
  8
KEYPADS
100
AcDbPolyline
 90
4
 70
1
 10
163.026
 20
-118.545
 10
169.026
 20
-118.545
 10
169.026
 20
-123.045
 10
163.026
 20
-123.045
  0
TEXT
  5
B2
330
17
100
AcDbEntity
  8
KEYPADS
100
AcDbText
 10
166.026
 20
-120.795
 30
0.0
 40
1.2
  1
ALPHA
 72
1
 11
166.026
 21
-120.795
 31
0.0
100
AcDbText
 73
2
  0
LWPOLYLINE
  5
B3
330
17
100
AcDbEntity
  8
KEYPADS
100
AcDbPolyline
 90
4
 70
1
 10
130.974
 20
-118.545
 10
136.974
 20
-118.545
 10
136.974
 20
-123.045
 10
130.974
 20
-123.045
  0
TEXT
  5
B4
330
17
100
AcDbEntity
  8
KEYPADS
100
AcDbText
 10
133.974
 20
-120.795
 30
0.0
 40
1.2
  1
MODE
 72
1
 11
133.974
 21
-120.795
 31
0.0
100
AcDbText
 73
2
  0
LWPOLYLINE
  5
B5
330
17
100
AcDbEntity
  8
KEYPADS
100
AcDbPolyline
 90
4
 70
1
 10
120.377
 20
-118.545
 10
126.377
 20
-118.545
 10
126.377
 20
-123.045
 10
120.377
 20
-123.045
  0
TEXT
  5
B6
330
17
100
AcDbEntity
  8
KEYPADS
100
AcDbText
 10
123.377
 20
-120.795
 30
0.0
 40
1.2
  1
ON
 72
1
 11
123.377
 21
-120.795
 31
0.0
100
AcDbText
 73
2
  0
LWPOLYLINE
  5
B7
330
17
100
AcDbEntity
  8
KEYPADS
100
AcDbPolyline
 90
4
 70
1
 10
173.623
 20
-130.2
 10
179.623
 20
-130.2
 10
179.623
 20
-134.7
 10
173.623
 20
-134.7
  0
TEXT
  5
B8
330
17
100
AcDbEntity
  8
KEYPADS
100
AcDbText
 10
176.623
 20
-132.45
 30
0.0
 40
1.2
  1
Abs
 72
1
 11
176.623
 21
-132.45
 31
0.0
100
AcDbText
 73
2
  0
LWPOLYLINE
  5
B9
330
17
100
AcDbEntity
  8
KEYPADS
100
AcDbPolyline
 90
4
 70
1
 10
163.026
 20
-130.2
 10
169.026
 20
-130.2
 10
169.026
 20
-134.7
 10
163.026
 20
-134.7
  0
TEXT
  5
BA
330
17
100
AcDbEntity
  8
KEYPADS
100
AcDbText
 10
166.026
 20
-132.45
 30
0.0
 40
1.2
  1
x^3
 72
1
 11
166.026
 21
-132.45
 31
0.0
100
AcDbText
 73
2
  0
LWPOLYLINE
  5
BB
330
17
100
AcDbEntity
  8
KEYPADS
100
AcDbPolyline
 90
4
 70
1
 10
130.974
 20
-130.2
 10
136.974
 20
-130.2
 10
136.974
 20
-134.7
 10
130.974
 20
-134.7
  0
TEXT
  5
BC
330
17
100
AcDbEntity
  8
KEYPADS
100
AcDbText
 10
133.974
 20
-132.45
 30
0.0
 40
1.2
  1
x^-1
 72
1
 11
133.974
 21
-132.45
 31
0.0
100
AcDbText
 73
2
  0
LWPOLYLINE
  5
BD
330
17
100
AcDbEntity
  8
KEYPADS
100
AcDbPolyline
 90
4
 70
1
 10
120.377
 20
-130.2
 10
126.377
 20
-130.2
 10
126.377
 20
-134.7
 10
120.377
 20
-134.7
  0
TEXT
  5
BE
330
17
100
AcDbEntity
  8
KEYPADS
100
AcDbText
 10
123.377
 20
-132.45
 30
0.0
 40
1.2
  1
log_a
 72
1
 11
123.377
 21
-132.45
 31
0.0
100
AcDbText
 73
2
  0
LWPOLYLINE
  5
BF
330
17
100
AcDbEntity
  8
KEYPADS
100
AcDbPolyline
 90
4
 70
1
 10
173.123
 20
-138.575
 10
180.123
 20
-138.575
 10
180.123
 20
-144.075
 10
173.123
 20
-144.075
  0
TEXT
  5
C0
330
17
100
AcDbEntity
  8
KEYPADS
100
AcDbText
 10
176.623
 20
-141.325
 30
0.0
 40
1.2
  1
a/b
 72
1
 11
176.623
 21
-141.325
 31
0.0
100
AcDbText
 73
2
  0
LWPOLYLINE
  5
C1
330
17
100
AcDbEntity
  8
KEYPADS
100
AcDbPolyline
 90
4
 70
1
 10
162.526
 20
-138.575
 10
169.526
 20
-138.575
 10
169.526
 20
-144.075
 10
162.526
 20
-144.075
  0
TEXT
  5
C2
330
17
100
AcDbEntity
  8
KEYPADS
100
AcDbText
 10
166.026
 20
-141.325
 30
0.0
 40
1.2
  1
sqrt
 72
1
 11
166.026
 21
-141.325
 31
0.0
100
AcDbText
 73
2
  0
LWPOLYLINE
  5
C3
330
17
100
AcDbEntity
  8
KEYPADS
100
AcDbPolyline
 90
4
 70
1
 10
151.798
 20
-138.575
 10
158.798
 20
-138.575
 10
158.798
 20
-144.075
 10
151.798
 20
-144.075
  0
TEXT
  5
C4
330
17
100
AcDbEntity
  8
KEYPADS
100
AcDbText
 10
155.298
 20
-141.325
 30
0.0
 40
1.2
  1
x^2
 72
1
 11
155.298
 21
-141.325
 31
0.0
100
AcDbText
 73
2
  0
LWPOLYLINE
  5
C5
330
17
100
AcDbEntity
  8
KEYPADS
100
AcDbPolyline
 90
4
 70
1
 10
141.202
 20
-138.575
 10
148.202
 20
-138.575
 10
148.202
 20
-144.075
 10
141.202
 20
-144.075
  0
TEXT
  5
C6
330
17
100
AcDbEntity
  8
KEYPADS
100
AcDbText
 10
144.702
 20
-141.325
 30
0.0
 40
1.2
  1
x^n
 72
1
 11
144.702
 21
-141.325
 31
0.0
100
AcDbText
 73
2
  0
LWPOLYLINE
  5
C7
330
17
100
AcDbEntity
  8
KEYPADS
100
AcDbPolyline
 90
4
 70
1
 10
130.474
 20
-138.575
 10
137.474
 20
-138.575
 10
137.474
 20
-144.075
 10
130.474
 20
-144.075
  0
TEXT
  5
C8
330
17
100
AcDbEntity
  8
KEYPADS
100
AcDbText
 10
133.974
 20
-141.325
 30
0.0
 40
1.2
  1
log
 72
1
 11
133.974
 21
-141.325
 31
0.0
100
AcDbText
 73
2
  0
LWPOLYLINE
  5
C9
330
17
100
AcDbEntity
  8
KEYPADS
100
AcDbPolyline
 90
4
 70
1
 10
119.877
 20
-138.575
 10
126.877
 20
-138.575
 10
126.877
 20
-144.075
 10
119.877
 20
-144.075
  0
TEXT
  5
CA
330
17
100
AcDbEntity
  8
KEYPADS
100
AcDbText
 10
123.377
 20
-141.325
 30
0.0
 40
1.2
  1
ln
 72
1
 11
123.377
 21
-141.325
 31
0.0
100
AcDbText
 73
2
  0
LWPOLYLINE
  5
CB
330
17
100
AcDbEntity
  8
KEYPADS
100
AcDbPolyline
 90
4
 70
1
 10
173.123
 20
-147.978
 10
180.123
 20
-147.978
 10
180.123
 20
-153.478
 10
173.123
 20
-153.478
  0
TEXT
  5
CC
330
17
100
AcDbEntity
  8
KEYPADS
100
AcDbText
 10
176.623
 20
-150.728
 30
0.0
 40
1.2
  1
(-)
 72
1
 11
176.623
 21
-150.728
 31
0.0
100
AcDbText
 73
2
  0
LWPOLYLINE
  5
CD
330
17
100
AcDbEntity
  8
KEYPADS
100
AcDbPolyline
 90
4
 70
1
 10
162.526
 20
-147.978
 10
169.526
 20
-147.978
 10
169.526
 20
-153.478
 10
162.526
 20
-153.478
  0
TEXT
  5
CE
330
17
100
AcDbEntity
  8
KEYPADS
100
AcDbText
 10
166.026
 20
-150.728
 30
0.0
 40
1.2
  1
o'"
 72
1
 11
166.026
 21
-150.728
 31
0.0
100
AcDbText
 73
2
  0
LWPOLYLINE
  5
CF
330
17
100
AcDbEntity
  8
KEYPADS
100
AcDbPolyline
 90
4
 70
1
 10
151.798
 20
-147.978
 10
158.798
 20
-147.978
 10
158.798
 20
-153.478
 10
151.798
 20
-153.478
  0
TEXT
  5
D0
330
17
100
AcDbEntity
  8
KEYPADS
100
AcDbText
 10
155.298
 20
-150.728
 30
0.0
 40
1.2
  1
hyp
 72
1
 11
155.298
 21
-150.728
 31
0.0
100
AcDbText
 73
2
  0
LWPOLYLINE
  5
D1
330
17
100
AcDbEntity
  8
KEYPADS
100
AcDbPolyline
 90
4
 70
1
 10
141.202
 20
-147.978
 10
148.202
 20
-147.978
 10
148.202
 20
-153.478
 10
141.202
 20
-153.478
  0
TEXT
  5
D2
330
17
100
AcDbEntity
  8
KEYPADS
100
AcDbText
 10
144.702
 20
-150.728
 30
0.0
 40
1.2
  1
sin
 72
1
 11
144.702
 21
-150.728
 31
0.0
100
AcDbText
 73
2
  0
LWPOLYLINE
  5
D3
330
17
100
AcDbEntity
  8
KEYPADS
100
AcDbPolyline
 90
4
 70
1
 10
130.474
 20
-147.978
 10
137.474
 20
-147.978
 10
137.474
 20
-153.478
 10
130.474
 20
-153.478
  0
TEXT
  5
D4
330
17
100
AcDbEntity
  8
KEYPADS
100
AcDbText
 10
133.974
 20
-150.728
 30
0.0
 40
1.2
  1
cos
 72
1
 11
133.974
 21
-150.728
 31
0.0
100
AcDbText
 73
2
  0
LWPOLYLINE
  5
D5
330
17
100
AcDbEntity
  8
KEYPADS
100
AcDbPolyline
 90
4
 70
1
 10
119.877
 20
-147.978
 10
126.877
 20
-147.978
 10
126.877
 20
-153.478
 10
119.877
 20
-153.478
  0
TEXT
  5
D6
330
17
100
AcDbEntity
  8
KEYPADS
100
AcDbText
 10
123.377
 20
-150.728
 30
0.0
 40
1.2
  1
tan
 72
1
 11
123.377
 21
-150.728
 31
0.0
100
AcDbText
 73
2
  0
LWPOLYLINE
  5
D7
330
17
100
AcDbEntity
  8
KEYPADS
100
AcDbPolyline
 90
4
 70
1
 10
173.123
 20
-157.515
 10
180.123
 20
-157.515
 10
180.123
 20
-163.015
 10
173.123
 20
-163.015
  0
TEXT
  5
D8
330
17
100
AcDbEntity
  8
KEYPADS
100
AcDbText
 10
176.623
 20
-160.265
 30
0.0
 40
1.2
  1
RCL
 72
1
 11
176.623
 21
-160.265
 31
0.0
100
AcDbText
 73
2
  0
LWPOLYLINE
  5
D9
330
17
100
AcDbEntity
  8
KEYPADS
100
AcDbPolyline
 90
4
 70
1
 10
162.526
 20
-157.515
 10
169.526
 20
-157.515
 10
169.526
 20
-163.015
 10
162.526
 20
-163.015
  0
TEXT
  5
DA
330
17
100
AcDbEntity
  8
KEYPADS
100
AcDbText
 10
166.026
 20
-160.265
 30
0.0
 40
1.2
  1
ENG
 72
1
 11
166.026
 21
-160.265
 31
0.0
100
AcDbText
 73
2
  0
LWPOLYLINE
  5
DB
330
17
100
AcDbEntity
  8
KEYPADS
100
AcDbPolyline
 90
4
 70
1
 10
151.798
 20
-157.515
 10
158.798
 20
-157.515
 10
158.798
 20
-163.015
 10
151.798
 20
-163.015
  0
TEXT
  5
DC
330
17
100
AcDbEntity
  8
KEYPADS
100
AcDbText
 10
155.298
 20
-160.265
 30
0.0
 40
1.2
  1
(
 72
1
 11
155.298
 21
-160.265
 31
0.0
100
AcDbText
 73
2
  0
LWPOLYLINE
  5
DD
330
17
100
AcDbEntity
  8
KEYPADS
100
AcDbPolyline
 90
4
 70
1
 10
141.202
 20
-157.515
 10
148.202
 20
-157.515
 10
148.202
 20
-163.015
 10
141.202
 20
-163.015
  0
TEXT
  5
DE
330
17
100
AcDbEntity
  8
KEYPADS
100
AcDbText
 10
144.702
 20
-160.265
 30
0.0
 40
1.2
  1
)
 72
1
 11
144.702
 21
-160.265
 31
0.0
100
AcDbText
 73
2
  0
LWPOLYLINE
  5
DF
330
17
100
AcDbEntity
  8
KEYPADS
100
AcDbPolyline
 90
4
 70
1
 10
130.474
 20
-157.515
 10
137.474
 20
-157.515
 10
137.474
 20
-163.015
 10
130.474
 20
-163.015
  0
TEXT
  5
E0
330
17
100
AcDbEntity
  8
KEYPADS
100
AcDbText
 10
133.974
 20
-160.265
 30
0.0
 40
1.2
  1
S<>D
 72
1
 11
133.974
 21
-160.265
 31
0.0
100
AcDbText
 73
2
  0
LWPOLYLINE
  5
E1
330
17
100
AcDbEntity
  8
KEYPADS
100
AcDbPolyline
 90
4
 70
1
 10
119.877
 20
-157.515
 10
126.877
 20
-157.515
 10
126.877
 20
-163.015
 10
119.877
 20
-163.015
  0
TEXT
  5
E2
330
17
100
AcDbEntity
  8
KEYPADS
100
AcDbText
 10
123.377
 20
-160.265
 30
0.0
 40
1.2
  1
M+
 72
1
 11
123.377
 21
-160.265
 31
0.0
100
AcDbText
 73
2
  0
LWPOLYLINE
  5
E3
330
17
100
AcDbEntity
  8
KEYPADS
100
AcDbPolyline
 90
4
 70
1
 10
171.195
 20
-167.228
 10
180.195
 20
-167.228
 10
180.195
 20
-174.228
 10
171.195
 20
-174.228
  0
TEXT
  5
E4
330
17
100
AcDbEntity
  8
KEYPADS
100
AcDbText
 10
175.695
 20
-170.728
 30
0.0
 40
1.2
  1
7
 72
1
 11
175.695
 21
-170.728
 31
0.0
100
AcDbText
 73
2
  0
LWPOLYLINE
  5
E5
330
17
100
AcDbEntity
  8
KEYPADS
100
AcDbPolyline
 90
4
 70
1
 10
158.348
 20
-167.228
 10
167.348
 20
-167.228
 10
167.348
 20
-174.228
 10
158.348
 20
-174.228
  0
TEXT
  5
E6
330
17
100
AcDbEntity
  8
KEYPADS
100
AcDbText
 10
162.848
 20
-170.728
 30
0.0
 40
1.2
  1
8
 72
1
 11
162.848
 21
-170.728
 31
0.0
100
AcDbText
 73
2
  0
LWPOLYLINE
  5
E7
330
17
100
AcDbEntity
  8
KEYPADS
100
AcDbPolyline
 90
4
 70
1
 10
145.5
 20
-167.228
 10
154.5
 20
-167.228
 10
154.5
 20
-174.228
 10
145.5
 20
-174.228
  0
TEXT
  5
E8
330
17
100
AcDbEntity
  8
KEYPADS
100
AcDbText
 10
150.0
 20
-170.728
 30
0.0
 40
1.2
  1
9
 72
1
 11
150.0
 21
-170.728
 31
0.0
100
AcDbText
 73
2
  0
LWPOLYLINE
  5
E9
330
17
100
AcDbEntity
  8
KEYPADS
100
AcDbPolyline
 90
4
 70
1
 10
132.652
 20
-167.228
 10
141.652
 20
-167.228
 10
141.652
 20
-174.228
 10
132.652
 20
-174.228
  0
TEXT
  5
EA
330
17
100
AcDbEntity
  8
KEYPADS
100
AcDbText
 10
137.152
 20
-170.728
 30
0.0
 40
1.2
  1
DEL
 72
1
 11
137.152
 21
-170.728
 31
0.0
100
AcDbText
 73
2
  0
LWPOLYLINE
  5
EB
330
17
100
AcDbEntity
  8
KEYPADS
100
AcDbPolyline
 90
4
 70
1
 10
119.805
 20
-167.228
 10
128.805
 20
-167.228
 10
128.805
 20
-174.228
 10
119.805
 20
-174.228
  0
TEXT
  5
EC
330
17
100
AcDbEntity
  8
KEYPADS
100
AcDbText
 10
124.305
 20
-170.728
 30
0.0
 40
1.2
  1
AC
 72
1
 11
124.305
 21
-170.728
 31
0.0
100
AcDbText
 73
2
  0
LWPOLYLINE
  5
ED
330
17
100
AcDbEntity
  8
KEYPADS
100
AcDbPolyline
 90
4
 70
1
 10
171.195
 20
-178.354
 10
180.195
 20
-178.354
 10
180.195
 20
-185.354
 10
171.195
 20
-185.354
  0
TEXT
  5
EE
330
17
100
AcDbEntity
  8
KEYPADS
100
AcDbText
 10
175.695
 20
-181.854
 30
0.0
 40
1.2
  1
4
 72
1
 11
175.695
 21
-181.854
 31
0.0
100
AcDbText
 73
2
  0
LWPOLYLINE
  5
EF
330
17
100
AcDbEntity
  8
KEYPADS
100
AcDbPolyline
 90
4
 70
1
 10
158.348
 20
-178.354
 10
167.348
 20
-178.354
 10
167.348
 20
-185.354
 10
158.348
 20
-185.354
  0
TEXT
  5
F0
330
17
100
AcDbEntity
  8
KEYPADS
100
AcDbText
 10
162.848
 20
-181.854
 30
0.0
 40
1.2
  1
5
 72
1
 11
162.848
 21
-181.854
 31
0.0
100
AcDbText
 73
2
  0
LWPOLYLINE
  5
F1
330
17
100
AcDbEntity
  8
KEYPADS
100
AcDbPolyline
 90
4
 70
1
 10
145.5
 20
-178.354
 10
154.5
 20
-178.354
 10
154.5
 20
-185.354
 10
145.5
 20
-185.354
  0
TEXT
  5
F2
330
17
100
AcDbEntity
  8
KEYPADS
100
AcDbText
 10
150.0
 20
-181.854
 30
0.0
 40
1.2
  1
6
 72
1
 11
150.0
 21
-181.854
 31
0.0
100
AcDbText
 73
2
  0
LWPOLYLINE
  5
F3
330
17
100
AcDbEntity
  8
KEYPADS
100
AcDbPolyline
 90
4
 70
1
 10
132.652
 20
-178.354
 10
141.652
 20
-178.354
 10
141.652
 20
-185.354
 10
132.652
 20
-185.354
  0
TEXT
  5
F4
330
17
100
AcDbEntity
  8
KEYPADS
100
AcDbText
 10
137.152
 20
-181.854
 30
0.0
 40
1.2
  1
x
 72
1
 11
137.152
 21
-181.854
 31
0.0
100
AcDbText
 73
2
  0
LWPOLYLINE
  5
F5
330
17
100
AcDbEntity
  8
KEYPADS
100
AcDbPolyline
 90
4
 70
1
 10
119.805
 20
-178.354
 10
128.805
 20
-178.354
 10
128.805
 20
-185.354
 10
119.805
 20
-185.354
  0
TEXT
  5
F6
330
17
100
AcDbEntity
  8
KEYPADS
100
AcDbText
 10
124.305
 20
-181.854
 30
0.0
 40
1.2
  1
/
 72
1
 11
124.305
 21
-181.854
 31
0.0
100
AcDbText
 73
2
  0
LWPOLYLINE
  5
F7
330
17
100
AcDbEntity
  8
KEYPADS
100
AcDbPolyline
 90
4
 70
1
 10
171.195
 20
-189.48
 10
180.195
 20
-189.48
 10
180.195
 20
-196.48
 10
171.195
 20
-196.48
  0
TEXT
  5
F8
330
17
100
AcDbEntity
  8
KEYPADS
100
AcDbText
 10
175.695
 20
-192.98
 30
0.0
 40
1.2
  1
1
 72
1
 11
175.695
 21
-192.98
 31
0.0
100
AcDbText
 73
2
  0
LWPOLYLINE
  5
F9
330
17
100
AcDbEntity
  8
KEYPADS
100
AcDbPolyline
 90
4
 70
1
 10
158.348
 20
-189.48
 10
167.348
 20
-189.48
 10
167.348
 20
-196.48
 10
158.348
 20
-196.48
  0
TEXT
  5
FA
330
17
100
AcDbEntity
  8
KEYPADS
100
AcDbText
 10
162.848
 20
-192.98
 30
0.0
 40
1.2
  1
2
 72
1
 11
162.848
 21
-192.98
 31
0.0
100
AcDbText
 73
2
  0
LWPOLYLINE
  5
FB
330
17
100
AcDbEntity
  8
KEYPADS
100
AcDbPolyline
 90
4
 70
1
 10
145.5
 20
-189.48
 10
154.5
 20
-189.48
 10
154.5
 20
-196.48
 10
145.5
 20
-196.48
  0
TEXT
  5
FC
330
17
100
AcDbEntity
  8
KEYPADS
100
AcDbText
 10
150.0
 20
-192.98
 30
0.0
 40
1.2
  1
3
 72
1
 11
150.0
 21
-192.98
 31
0.0
100
AcDbText
 73
2
  0
LWPOLYLINE
  5
FD
330
17
100
AcDbEntity
  8
KEYPADS
100
AcDbPolyline
 90
4
 70
1
 10
132.652
 20
-189.48
 10
141.652
 20
-189.48
 10
141.652
 20
-196.48
 10
132.652
 20
-196.48
  0
TEXT
  5
FE
330
17
100
AcDbEntity
  8
KEYPADS
100
AcDbText
 10
137.152
 20
-192.98
 30
0.0
 40
1.2
  1
+
 72
1
 11
137.152
 21
-192.98
 31
0.0
100
AcDbText
 73
2
  0
LWPOLYLINE
  5
FF
330
17
100
AcDbEntity
  8
KEYPADS
100
AcDbPolyline
 90
4
 70
1
 10
119.805
 20
-189.48
 10
128.805
 20
-189.48
 10
128.805
 20
-196.48
 10
119.805
 20
-196.48
  0
TEXT
  5
100
330
17
100
AcDbEntity
  8
KEYPADS
100
AcDbText
 10
124.305
 20
-192.98
 30
0.0
 40
1.2
  1
-
 72
1
 11
124.305
 21
-192.98
 31
0.0
100
AcDbText
 73
2
  0
LWPOLYLINE
  5
101
330
17
100
AcDbEntity
  8
KEYPADS
100
AcDbPolyline
 90
4
 70
1
 10
171.195
 20
-200.606
 10
180.195
 20
-200.606
 10
180.195
 20
-207.606
 10
171.195
 20
-207.606
  0
TEXT
  5
102
330
17
100
AcDbEntity
  8
KEYPADS
100
AcDbText
 10
175.695
 20
-204.106
 30
0.0
 40
1.2
  1
0
 72
1
 11
175.695
 21
-204.106
 31
0.0
100
AcDbText
 73
2
  0
LWPOLYLINE
  5
103
330
17
100
AcDbEntity
  8
KEYPADS
100
AcDbPolyline
 90
4
 70
1
 10
158.348
 20
-200.606
 10
167.348
 20
-200.606
 10
167.348
 20
-207.606
 10
158.348
 20
-207.606
  0
TEXT
  5
104
330
17
100
AcDbEntity
  8
KEYPADS
100
AcDbText
 10
162.848
 20
-204.106
 30
0.0
 40
1.2
  1
.
 72
1
 11
162.848
 21
-204.106
 31
0.0
100
AcDbText
 73
2
  0
LWPOLYLINE
  5
105
330
17
100
AcDbEntity
  8
KEYPADS
100
AcDbPolyline
 90
4
 70
1
 10
145.5
 20
-200.606
 10
154.5
 20
-200.606
 10
154.5
 20
-207.606
 10
145.5
 20
-207.606
  0
TEXT
  5
106
330
17
100
AcDbEntity
  8
KEYPADS
100
AcDbText
 10
150.0
 20
-204.106
 30
0.0
 40
1.2
  1
x10^x
 72
1
 11
150.0
 21
-204.106
 31
0.0
100
AcDbText
 73
2
  0
LWPOLYLINE
  5
107
330
17
100
AcDbEntity
  8
KEYPADS
100
AcDbPolyline
 90
4
 70
1
 10
132.652
 20
-200.606
 10
141.652
 20
-200.606
 10
141.652
 20
-207.606
 10
132.652
 20
-207.606
  0
TEXT
  5
108
330
17
100
AcDbEntity
  8
KEYPADS
100
AcDbText
 10
137.152
 20
-204.106
 30
0.0
 40
1.2
  1
Ans
 72
1
 11
137.152
 21
-204.106
 31
0.0
100
AcDbText
 73
2
  0
LWPOLYLINE
  5
109
330
17
100
AcDbEntity
  8
KEYPADS
100
AcDbPolyline
 90
4
 70
1
 10
119.805
 20
-200.606
 10
128.805
 20
-200.606
 10
128.805
 20
-207.606
 10
119.805
 20
-207.606
  0
TEXT
  5
10A
330
17
100
AcDbEntity
  8
KEYPADS
100
AcDbText
 10
124.305
 20
-204.106
 30
0.0
 40
1.2
  1
=
 72
1
 11
124.305
 21
-204.106
 31
0.0
100
AcDbText
 73
2
  0
LWPOLYLINE
  5
10B
330
17
100
AcDbEntity
  8
KEYPADS
100
AcDbPolyline
 90
4
 70
1
 10
147.5
 20
-118.265
 10
152.5
 20
-118.265
 10
152.5
 20
-122.265
 10
147.5
 20
-122.265
  0
TEXT
  5
10C
330
17
100
AcDbEntity
  8
KEYPADS
100
AcDbText
 10
150.0
 20
-120.265
 30
0.0
 40
1.2
  1
UP
 72
1
 11
150.0
 21
-120.265
 31
0.0
100
AcDbText
 73
2
  0
LWPOLYLINE
  5
10D
330
17
100
AcDbEntity
  8
KEYPADS
100
AcDbPolyline
 90
4
 70
1
 10
147.5
 20
-128.861
 10
152.5
 20
-128.861
 10
152.5
 20
-132.861
 10
147.5
 20
-132.861
  0
TEXT
  5
10E
330
17
100
AcDbEntity
  8
KEYPADS
100
AcDbText
 10
150.0
 20
-130.861
 30
0.0
 40
1.2
  1
DOWN
 72
1
 11
150.0
 21
-130.861
 31
0.0
100
AcDbText
 73
2
  0
LWPOLYLINE
  5
10F
330
17
100
AcDbEntity
  8
KEYPADS
100
AcDbPolyline
 90
4
 70
1
 10
154.123
 20
-123.563
 10
159.123
 20
-123.563
 10
159.123
 20
-127.563
 10
154.123
 20
-127.563
  0
TEXT
  5
110
330
17
100
AcDbEntity
  8
KEYPADS
100
AcDbText
 10
156.623
 20
-125.563
 30
0.0
 40
1.2
  1
LEFT
 72
1
 11
156.623
 21
-125.563
 31
0.0
100
AcDbText
 73
2
  0
LWPOLYLINE
  5
111
330
17
100
AcDbEntity
  8
KEYPADS
100
AcDbPolyline
 90
4
 70
1
 10
140.877
 20
-123.563
 10
145.877
 20
-123.563
 10
145.877
 20
-127.563
 10
140.877
 20
-127.563
  0
TEXT
  5
112
330
17
100
AcDbEntity
  8
KEYPADS
100
AcDbText
 10
143.377
 20
-125.563
 30
0.0
 40
1.2
  1
RIGHT
 72
1
 11
143.377
 21
-125.563
 31
0.0
100
AcDbText
 73
2
  0
ENDSEC
  0
SECTION
  2
OBJECTS
  0
DICTIONARY
  5
A
330
0
100
AcDbDictionary
281
1
  3
ACAD_COLOR
350
B
  3
ACAD_GROUP
350
C
  3
ACAD_LAYOUT
350
D
  3
ACAD_MATERIAL
350
E
  3
ACAD_MLEADERSTYLE
350
F
  3
ACAD_MLINESTYLE
350
10
  3
ACAD_PLOTSETTINGS
350
11
  3
ACAD_PLOTSTYLENAME
350
12
  3
ACAD_SCALELIST
350
14
  3
ACAD_TABLESTYLE
350
15
  3
ACAD_VISUALSTYLE
350
16
  3
EZDXF_META
350
2D
  0
DICTIONARY
  5
B
330
A
100
AcDbDictionary
281
1
  0
DICTIONARY
  5
C
330
A
100
AcDbDictionary
281
1
  0
DICTIONARY
  5
D
330
A
100
AcDbDictionary
281
1
  3
Model
350
1A
  3
Layout1
350
1E
  0
DICTIONARY
  5
E
330
A
100
AcDbDictionary
281
1
  3
ByBlock
350
1F
  3
ByLayer
350
20
  3
Global
350
21
  0
DICTIONARY
  5
F
330
A
100
AcDbDictionary
281
1
  3
Standard
350
2C
  0
DICTIONARY
  5
10
330
A
100
AcDbDictionary
281
1
  3
Standard
350
22
  0
DICTIONARY
  5
11
330
A
100
AcDbDictionary
281
1
  0
ACDBDICTIONARYWDFLT
  5
12
330
A
100
AcDbDictionary
281
1
  3
Normal
350
13
100
AcDbDictionaryWithDefault
340
13
  0
ACDBPLACEHOLDER
  5
13
330
12
  0
DICTIONARY
  5
14
330
A
100
AcDbDictionary
281
1
  0
DICTIONARY
  5
15
330
A
100
AcDbDictionary
281
1
  0
DICTIONARY
  5
16
330
A
100
AcDbDictionary
281
1
  3
2dWireframe
350
5A
  3
Basic
350
5B
  3
Brighten
350
5C
  3
ColorChange
350
5D
  3
Conceptual
350
5E
  3
Dim
350
5F
  3
EdgeColorOff
350
60
  3
Facepattern
350
61
  3
Flat
350
62
  3
FlatWithEdges
350
63
  3
Gouraud
350
64
  3
GouraudWithEdges
350
65
  3
Hidden
350
66
  3
JitterOff
350
67
  3
Linepattern
350
68
  3
Modeling
350
69
  3
OverhangOff
350
6A
  3
Realistic
350
6B
  3
Shaded
350
6C
  3
Shaded with edges
350
6D
  3
Shades of Gray
350
6E
  3
Sketchy
350
6F
  3
Thicken
350
70
  3
Wireframe
350
71
  3
X-Ray
350
72
  0
LAYOUT
  5
1A
330
D
100
AcDbPlotSettings
  1

  4
A3
  6

 40
7.5
 41
20.0
 42
7.5
 43
20.0
 44
420.0
 45
297.0
 46
0.0
 47
0.0
 48
0.0
 49
0.0
140
0.0
141
0.0
142
1.0
143
1.0
 70
1024
 72
1
 73
0
 74
5
  7

 75
16
 76
0
 77
2
 78
300
147
1.0
148
0.0
149
0.0
100
AcDbLayout
  1
Model
 70
1
 71
0
 10
0.0
 20
0.0
 11
420.0
 21
297.0
 12
0.0
 22
0.0
 32
0.0
 14
1e+20
 24
1e+20
 34
1e+20
 15
-1e+20
 25
-1e+20
 35
-1e+20
146
0.0
 13
0.0
 23
0.0
 33
0.0
 16
1.0
 26
0.0
 36
0.0
 17
0.0
 27
1.0
 37
0.0
 76
1
330
17
  0
LAYOUT
  5
1E
330
D
100
AcDbPlotSettings
  1

  4
A3
  6

 40
7.5
 41
20.0
 42
7.5
 43
20.0
 44
420.0
 45
297.0
 46
0.0
 47
0.0
 48
0.0
 49
0.0
140
0.0
141
0.0
142
1.0
143
1.0
 70
0
 72
1
 73
0
 74
5
  7

 75
16
 76
0
 77
2
 78
300
147
1.0
148
0.0
149
0.0
100
AcDbLayout
  1
Layout1
 70
1
 71
1
 10
0.0
 20
0.0
 11
420.0
 21
297.0
 12
0.0
 22
0.0
 32
0.0
 14
1e+20
 24
1e+20
 34
1e+20
 15
-1e+20
 25
-1e+20
 35
-1e+20
146
0.0
 13
0.0
 23
0.0
 33
0.0
 16
1.0
 26
0.0
 36
0.0
 17
0.0
 27
1.0
 37
0.0
 76
1
330
1B
  0
MATERIAL
  5
1F
102
{ACAD_REACTORS
330
E
102
}
330
E
100
AcDbMaterial
  1
ByBlock
  2

 70
0
 40
1.0
 71
1
 41
1.0
 91
-1023410177
 42
1.0
 72
1
  3

 73
1
 74
1
 75
1
 44
0.5
 73
0
 45
1.0
 46
1.0
 77
1
  4

 78
1
 79
1
170
1
 48
1.0
171
1
  6

172
1
173
1
174
1
140
1.0
141
1.0
175
1
  7

176
1
177
1
178
1
143
1.0
179
1
  8

270
1
271
1
272
1
145
1.0
146
1.0
273
1
  9

274
1
275
1
276
1
 42
1.0
 72
1
  3

 73
1
 74
1
 75
1
 94
63
  0
MATERIAL
  5
20
102
{ACAD_REACTORS
330
E
102
}
330
E
100
AcDbMaterial
  1
ByLayer
  2

 70
0
 40
1.0
 71
1
 41
1.0
 91
-1023410177
 42
1.0
 72
1
  3

 73
1
 74
1
 75
1
 44
0.5
 73
0
 45
1.0
 46
1.0
 77
1
  4

 78
1
 79
1
170
1
 48
1.0
171
1
  6

172
1
173
1
174
1
140
1.0
141
1.0
175
1
  7

176
1
177
1
178
1
143
1.0
179
1
  8

270
1
271
1
272
1
145
1.0
146
1.0
273
1
  9

274
1
275
1
276
1
 42
1.0
 72
1
  3

 73
1
 74
1
 75
1
 94
63
  0
MATERIAL
  5
21
102
{ACAD_REACTORS
330
E
102
}
330
E
100
AcDbMaterial
  1
Global
  2

 70
0
 40
1.0
 71
1
 41
1.0
 91
-1023410177
 42
1.0
 72
1
  3

 73
1
 74
1
 75
1
 44
0.5
 73
0
 45
1.0
 46
1.0
 77
1
  4

 78
1
 79
1
170
1
 48
1.0
171
1
  6

172
1
173
1
174
1
140
1.0
141
1.0
175
1
  7

176
1
177
1
178
1
143
1.0
179
1
  8

270
1
271
1
272
1
145
1.0
146
1.0
273
1
  9

274
1
275
1
276
1
 42
1.0
 72
1
  3

 73
1
 74
1
 75
1
 94
63
  0
MLINESTYLE
  5
22
102
{ACAD_REACTORS
330
10
102
}
330
10
100
AcDbMlineStyle
  2
Standard
 70
0
  3

 62
256
 51
90.0
 52
90.0
 71
2
 49
0.5
 62
256
  6
BYLAYER
 49
-0.5
 62
256
  6
BYLAYER
  0
MLEADERSTYLE
  5
2C
102
{ACAD_REACTORS
330
F
102
}
330
F
100
AcDbMLeaderStyle
179
2
170
2
171
1
172
0
 90
2
 40
0.0
 41
0.0
173
1
 91
-1056964608
 92
-2
290
1
 42
2.0
291
1
 43
8.0
  3
Standard
 44
4.0
300

342
29
174
1
175
1
176
0
178
1
 93
-1056964608
 45
4.0
292
0
297
0
 46
4.0
 94
-1056964608
 47
1.0
 49
1.0
140
1.0
294
1
141
0.0
177
0
142
1.0
295
0
296
0
143
3.75
271
0
272
9
273
9
  0
DICTIONARY
  5
2D
330
A
100
AcDbDictionary
280
1
281
1
  3
CREATED_BY_EZDXF
350
2E
  3
WRITTEN_BY_EZDXF
350
115
  0
DICTIONARYVAR
  5
2E
330
2D
100
DictionaryVariables
280
0
  1
1.4.4 @ 2026-10-02T01:40:08.828333+00:00
  0
VISUALSTYLE
  5
5A
102
{ACAD_REACTORS
330
16
102
}
330
16
100
AcDbVisualStyle
  2
2dWireframe
 70
4
 90
0
 40
0.6
 62
7
290
0
291
0
  0
VISUALSTYLE
  5
5B
102
{ACAD_REACTORS
330
16
102
}
330
16
100
AcDbVisualStyle
  2
Basic
 70
7
 90
1
 40
0.6
 62
7
290
0
291
1
  0
VISUALSTYLE
  5
5C
102
{ACAD_REACTORS
330
16
102
}
330
16
100
AcDbVisualStyle
  2
Brighten
 70
12
 90
2
 40
0.6
 62
7
290
0
291
1
  0
VISUALSTYLE
  5
5D
102
{ACAD_REACTORS
330
16
102
}
330
16
100
AcDbVisualStyle
  2
ColorChange
 70
16
 90
2
 40
0.6
 62
8
290
0
291
1
  0
VISUALSTYLE
  5
5E
102
{ACAD_REACTORS
330
16
102
}
330
16
100
AcDbVisualStyle
  2
Conceptual
 70
9
 90
3
 40
0.6
 62
7
290
0
291
0
  0
VISUALSTYLE
  5
5F
102
{ACAD_REACTORS
330
16
102
}
330
16
100
AcDbVisualStyle
  2
Dim
 70
11
 90
2
 40
0.6
 62
7
290
0
291
1
  0
VISUALSTYLE
  5
60
102
{ACAD_REACTORS
330
16
102
}
330
16
100
AcDbVisualStyle
  2
EdgeColorOff
 70
22
 90
2
 40
0.6
 62
7
290
0
291
1
  0
VISUALSTYLE
  5
61
102
{ACAD_REACTORS
330
16
102
}
330
16
100
AcDbVisualStyle
  2
Facepattern
 70
15
 90
2
 40
0.6
 62
7
290
0
291
1
  0
VISUALSTYLE
  5
62
102
{ACAD_REACTORS
330
16
102
}
330
16
100
AcDbVisualStyle
  2
Flat
 70
0
 90
2
 40
0.6
 62
7
290
0
291
1
  0
VISUALSTYLE
  5
63
102
{ACAD_REACTORS
330
16
102
}
330
16
100
AcDbVisualStyle
  2
FlatWithEdges
 70
1
 90
2
 40
0.6
 62
7
290
0
291
1
  0
VISUALSTYLE
  5
64
102
{ACAD_REACTORS
330
16
102
}
330
16
100
AcDbVisualStyle
  2
Gouraud
 70
2
 90
2
 40
0.6
 62
7
290
0
291
1
  0
VISUALSTYLE
  5
65
102
{ACAD_REACTORS
330
16
102
}
330
16
100
AcDbVisualStyle
  2
GouraudWithEdges
 70
3
 90
2
 40
0.6
 62
7
290
0
291
1
  0
VISUALSTYLE
  5
66
102
{ACAD_REACTORS
330
16
102
}
330
16
100
AcDbVisualStyle
  2
Hidden
 70
6
 90
1
 40
0.6
 62
7
290
0
291
0
  0
VISUALSTYLE
  5
67
102
{ACAD_REACTORS
330
16
102
}
330
16
100
AcDbVisualStyle
  2
JitterOff
 70
20
 90
2
 40
0.6
 62
7
290
0
291
1
  0
VISUALSTYLE
  5
68
102
{ACAD_REACTORS
330
16
102
}
330
16
100
AcDbVisualStyle
  2
Linepattern
 70
14
 90
2
 40
0.6
 62
7
290
0
291
1
  0
VISUALSTYLE
  5
69
102
{ACAD_REACTORS
330
16
102
}
330
16
100
AcDbVisualStyle
  2
Modeling
 70
10
 90
2
 40
0.6
 62
7
290
0
291
0
  0
VISUALSTYLE
  5
6A
102
{ACAD_REACTORS
330
16
102
}
330
16
100
AcDbVisualStyle
  2
OverhangOff
 70
21
 90
2
 40
0.6
 62
7
290
0
291
1
  0
VISUALSTYLE
  5
6B
102
{ACAD_REACTORS
330
16
102
}
330
16
100
AcDbVisualStyle
  2
Realistic
 70
8
 90
2
 40
0.6
 62
7
290
0
291
0
  0
VISUALSTYLE
  5
6C
102
{ACAD_REACTORS
330
16
102
}
330
16
100
AcDbVisualStyle
  2
Shaded
 70
27
 90
2
 40
0.6
 62
7
290
0
291
0
  0
VISUALSTYLE
  5
6D
102
{ACAD_REACTORS
330
16
102
}
330
16
100
AcDbVisualStyle
  2
Shaded with edges
 70
26
 90
2
 40
0.6
 62
7
290
0
291
0
  0
VISUALSTYLE
  5
6E
102
{ACAD_REACTORS
330
16
102
}
330
16
100
AcDbVisualStyle
  2
Shades of Gray
 70
23
 90
2
 40
0.6
 62
7
290
0
291
0
  0
VISUALSTYLE
  5
6F
102
{ACAD_REACTORS
330
16
102
}
330
16
100
AcDbVisualStyle
  2
Sketchy
 70
24
 90
1
 40
0.6
 62
7
290
0
291
0
  0
VISUALSTYLE
  5
70
102
{ACAD_REACTORS
330
16
102
}
330
16
100
AcDbVisualStyle
  2
Thicken
 70
13
 90
2
 40
0.6
 62
7
290
0
291
1
  0
VISUALSTYLE
  5
71
102
{ACAD_REACTORS
330
16
102
}
330
16
100
AcDbVisualStyle
  2
Wireframe
 70
5
 90
0
 40
0.6
 62
7
290
0
291
0
  0
VISUALSTYLE
  5
72
102
{ACAD_REACTORS
330
16
102
}
330
16
100
AcDbVisualStyle
  2
X-Ray
 70
25
 90
2
 40
0.5
 62
7
290
0
291
0
  0
DICTIONARYVAR
  5
115
330
2D
100
DictionaryVariables
280
0
  1
1.4.4 @ 2026-10-02T01:40:08.841369+00:00
  0
ENDSEC
  0
EOF
